<svg xmlns="http://www.w3.org/2000/svg" width="72.353" height="67.949" viewBox="0 0 72.353 67.949">
  <g id="p02_atom" transform="translate(-249.718 -269.051)">
    <g id="그룹_5593" data-name="그룹 5593">
      <path id="패스_9821" data-name="패스 9821" d="M264.777,332.881c-2.545-1.8-2.564-6.491-.057-13.567,2.369-6.687,6.737-14.7,12.3-22.565,10.38-14.676,24.437-27.507,29.99-23.579l-.881,1.246c-3.685-2.606-15.759,6.1-27.864,23.214-5.483,7.753-9.783,15.635-12.107,22.194-2.158,6.091-2.345,10.506-.5,11.811Z" fill="#f2f2f2"/>
    </g>
    <g id="그룹_5594" data-name="그룹 5594">
      <path id="패스_9822" data-name="패스 9822" d="M322.026,308.658l-1.508-.235c.348-2.233-2.951-5.173-8.826-7.865-6.326-2.9-14.978-5.3-24.361-6.764s-18.353-1.807-25.261-.971c-6.415.776-10.453,2.573-10.8,4.8l-1.507-.235c.479-3.079,4.672-5.183,12.124-6.085,7.044-.853,16.164-.505,25.68.978s18.312,3.929,24.762,6.884C319.152,302.3,322.506,305.578,322.026,308.658Z" fill="#f2f2f2"/>
    </g>
    <g id="그룹_5595" data-name="그룹 5595">
      <path id="패스_9823" data-name="패스 9823" d="M300.142,336.7c-6.265,2.651-17.254-12.888-24.259-29.442s-10.505-35.262-4.24-37.913l.6,1.406c-4.155,1.758-3.117,16.608,5.051,35.913s18.1,30.389,22.259,28.631Z" fill="#f2f2f2"/>
    </g>
    <g id="그룹_5597" data-name="그룹 5597">
      <g id="그룹_5596" data-name="그룹 5596">
        <path id="패스_9824" data-name="패스 9824" d="M292.738,300.129a7.433,7.433,0,1,0-3.949,9.743A7.432,7.432,0,0,0,292.738,300.129Z" fill="#ffb200"/>
      </g>
    </g>
    <g id="그룹_5598" data-name="그룹 5598">
      <path id="패스_9825" data-name="패스 9825" d="M300.142,336.7l-.594-1.4c4.155-1.759,3.118-16.609-5.05-35.913s-18.1-30.39-22.26-28.631l-.6-1.406c6.266-2.651,17.256,12.888,24.261,29.442S306.409,334.052,300.142,336.7Z" fill="#f2f2f2"/>
    </g>
    <g id="그룹_5599" data-name="그룹 5599">
      <path id="패스_9826" data-name="패스 9826" d="M317.783,312.853c-6.767,2.864-20.5,2.949-33.564.913-17.761-2.769-35.5-9.65-34.457-16.373l1.507.235c-.694,4.459,12.474,11.4,33.184,14.629s35.369.623,36.065-3.834l1.508.235C321.748,310.435,320.216,311.824,317.783,312.853Z" fill="#f2f2f2"/>
    </g>
    <g id="그룹_5600" data-name="그룹 5600">
      <path id="패스_9827" data-name="패스 9827" d="M270.777,332.773c-2.54,1.075-4.568,1.121-6,.108l.881-1.246c1.845,1.3,5.946-.342,10.97-4.406,5.411-4.376,11.41-11.056,16.893-18.808,12.1-17.113,16.292-31.4,12.608-34.005l.881-1.246c5.554,3.93-1.863,21.457-12.243,36.132-5.562,7.864-11.663,14.652-17.179,19.114A29.936,29.936,0,0,1,270.777,332.773Z" fill="#f2f2f2"/>
    </g>
    <g id="그룹_5601" data-name="그룹 5601">
      <path id="패스_9828" data-name="패스 9828" d="M307.233,289.143a2.579,2.579,0,1,0-1.37,3.381A2.579,2.579,0,0,0,307.233,289.143Z" fill="#fff"/>
    </g>
    <g id="그룹_5602" data-name="그룹 5602">
      <path id="패스_9829" data-name="패스 9829" d="M256.548,302.02a2.579,2.579,0,1,0-1.37,3.381A2.58,2.58,0,0,0,256.548,302.02Z" fill="#fff"/>
    </g>
    <g id="그룹_5603" data-name="그룹 5603">
      <path id="패스_9830" data-name="패스 9830" d="M304.585,321.547a2.579,2.579,0,1,0-1.37,3.381A2.579,2.579,0,0,0,304.585,321.547Z" fill="#fff"/>
    </g>
  </g>
</svg>
