<svg xmlns="http://www.w3.org/2000/svg" xmlns:xlink="http://www.w3.org/1999/xlink" width="594.775" height="573.184" viewBox="0 0 594.775 573.184">
  <defs>
    <clipPath id="clip-path">
      <path id="패스_4433" data-name="패스 4433" d="M23.451-1.163-8.937-.608V31.338H23.451Z" transform="translate(8.937 1.163)" fill="#251717"/>
    </clipPath>
    <clipPath id="clip-path-2">
      <rect id="사각형_1805" data-name="사각형 1805" width="6.82" height="9.87" fill="none"/>
    </clipPath>
    <clipPath id="clip-path-3">
      <rect id="사각형_1806" data-name="사각형 1806" width="6.169" height="10.38" fill="none"/>
    </clipPath>
    <clipPath id="clip-path-4">
      <rect id="사각형_1807" data-name="사각형 1807" width="59.75" height="23.029" fill="#fff"/>
    </clipPath>
    <clipPath id="clip-path-5">
      <rect id="사각형_1808" data-name="사각형 1808" width="29.882" height="23.213" fill="#f1ccb7"/>
    </clipPath>
    <clipPath id="clip-path-6">
      <rect id="사각형_2060" data-name="사각형 2060" width="400.964" height="248.158" fill="none"/>
    </clipPath>
  </defs>
  <g id="p02_einstein" transform="translate(9107.331 -644.687)">
    <g id="그룹_5590" data-name="그룹 5590" transform="translate(53.253 42.611)">
      <path id="패스_9814" data-name="패스 9814" d="M-9362.358,954.722s-15.857-52.4-23.441-55.155,0,23.441,0,23.441-18.3-20.761-36.024-23.441-25.953,12.843-23.5,27.7,77.452,55.718,77.452,55.718Z" transform="translate(285.166 -119.411)" fill="#ffdcc8"/>
      <path id="패스_9812" data-name="패스 9812" d="M0,0S7.169,24.425,5.282,37.945,47.924,68.912,47.924,68.912,73.206,54.955,76.6,50.594,96.225,10.032,96.225,10.032Z" transform="translate(-8835.085 791.281) rotate(-10)" fill="#ffdcc8"/>
      <path id="패스_9808" data-name="패스 9808" d="M312.5,372.831s-4.05-90.63-78.8-123.852l-121.815,65.06s-15.874-40.314-29.342-19.371-23.108,78.162-23.108,78.162Z" transform="translate(-8940.128 555.667)" fill="#6e6e6c"/>
      <path id="패스_9809" data-name="패스 9809" d="M76.414,283.474c5.264,3.455,8.349,4.524,10.981,7.2,0,0-22.562,27.589-15.641,55.633H40.24s9.43-23.378,23.256-44.342" transform="translate(-8905.921 520.201)" fill="#6e6e6c"/>
      <path id="패스_9810" data-name="패스 9810" d="M55.577,288.033c.489.464.329.23,1.956,1.857,0,0-.092,22.546,2.792,23.671s60.624-29.145,71.248-34.837L77.318,320.839l-35.639,24.32s-10.515-16.007,6.379-43.969" transform="translate(-8875.91 520.977)" fill="#fff"/>
      <g id="그룹_5585" data-name="그룹 5585" transform="translate(-8837.425 834.004)" style="isolation: isolate">
        <g id="그룹_436" data-name="그룹 436">
          <g id="그룹_2" data-name="그룹 2" clip-path="url(#clip-path)">
            <path id="패스_1854" data-name="패스 1854" d="M96.231,328.822s-31.635,6.723-18.35,31.947l28.143-20.659s-2.7-8.116-9.793-11.287" transform="translate(-74.622 -328.267)" fill="#251717"/>
          </g>
        </g>
      </g>
      <path id="패스_9811" data-name="패스 9811" d="M248.307,244.582s-14.917-21.22-28.78-26.641c-6.948,6.551-59.586,46.337-64.049,50.242-15.028,13.15-82.28,59.454-82.28,59.454H145.01s62.133-46.373,103.3-83.056" transform="translate(-8944.351 564.216)" fill="#6e6e6c"/>
      <g id="아인슈타인" transform="matrix(0.996, -0.087, 0.087, 0.996, -8883.647, 606.805)">
        <path id="패스_5574" data-name="패스 5574" d="M68.048.009S26.558-1.061,18.408,20.672c0,0-14.8,6.247-18.273,28.235,0,0-1.131,3.4,3.17,0s9.542-12.452,19.05-12.452,27.358-1.81,32.112-9.28S68.048.009,68.048.009" transform="matrix(0.966, 0.259, -0.259, 0.966, 17.623, 24.32)" fill="#fff"/>
        <path id="패스_5575" data-name="패스 5575" d="M39.637,0S12.876,2.613,8.122,18.913-1.112,44.144.247,45.5s20.374-2.037,25.807-14.941S39.637,0,39.637,0" transform="matrix(0.966, 0.259, -0.259, 0.966, 17.505, 49.257)" fill="#fff"/>
        <path id="패스_5576" data-name="패스 5576" d="M33.686,0S2.257,24.585.22,40.205s10.721,9.442,11.837,10.522S8.581,69.648,24.881,74.4c0,0,5.41-13.279,6.089-17.354S33.686,0,33.686,0" transform="matrix(0.966, 0.259, -0.259, 0.966, 19.257, 63.086)" fill="#fff"/>
        <g id="그룹_3049" data-name="그룹 3049" transform="matrix(0.966, 0.259, -0.259, 0.966, 51.451, 26.349)" style="isolation: isolate">
          <g id="그룹_3048" data-name="그룹 3048" transform="translate(0 0)">
            <g id="그룹_5583" data-name="그룹 5583">
              <path id="패스_5577" data-name="패스 5577" d="M41.218,1.377S10.656,8.168,3.865,37.371C1.773,46.368.116,55.607,0,64.869c-.09,7.346,2.065,14.489,2.863,21.749.541,4.92,2.039,11.817.321,16.629-3.4,9.508-2.173,31.537,5.977,47.836,3.949,7.9,8.214,13.861,20.279,20.552s34.569,7.33,55.047,0c0,0,19.557-9.441,34.871-23.219s14.9-33.624,14.9-35.661,13.583-20.374-1.358-26.486c0,0-7.47-2.037-9.508,5.432,3.921-14.368,9.109-29.68,6.527-44.752-1.972-11.5-9.594-21.654-17.987-29.52C93.026-.291,65.677-1.921,41.218,1.377" transform="translate(0 0)" fill="#ffdcc8"/>
            </g>
          </g>
        </g>
        <path id="패스_5578" data-name="패스 5578" d="M37.963,3.873S12.86-1.582,6.069.456-2.081,5.21,3.352,5.889s24.4,9.551,34.611-2.016" transform="matrix(0.966, 0.259, -0.259, 0.966, 31.575, 29.353)" fill="#fff"/>
        <path id="패스_5579" data-name="패스 5579" d="M45.723,17.009C48.694,13.117,27.685-4.218,2.175.956c0,0-4.779.238-.169,2.643S10,6.22,9.918,7.575,6.65,9.653,8.831,10.691s30.377,14.855,36.891,6.319" transform="matrix(0.966, 0.259, -0.259, 0.966, 30.95, 14.622)" fill="#fff"/>
        <path id="패스_5580" data-name="패스 5580" d="M38.263,32.986c4.075-3.4-7.81-15.96-14.6-19.355S15.512,7.518,16.87,6.16s-.805-2.717-3.8,0,1.421-4.414.063-5.773c-1.7-1.7-6.452,2.377-7.81,8.489s-2.717,4.754-2.717,2.717S-1.467,10.914.57,16.347,26.6,42.708,38.263,32.986" transform="matrix(0.966, 0.259, -0.259, 0.966, 54.273, 0)" fill="#fff"/>
        <path id="패스_5581" data-name="패스 5581" d="M13.763,15.563s0-8.15-2.717-10.866S.86-1.416.181.621.86,1.98,2.218,4.017,2.9,6.734,2.9,9.45s3.4,8.829,6.791,10.866,4.075-4.754,4.075-4.754" transform="matrix(0.966, 0.259, -0.259, 0.966, 73.008, 8.996)" fill="#fff"/>
        <path id="패스_5582" data-name="패스 5582" d="M69.667,38.164c4.131,0,2.037-2.717,2.037-3.4s-6.112-13.41-13.583-14.089-1.358-7.005-3.4-9.722S34.351-1.226,17.373.133-.964,2.17.394,4.207,7.865,5.566,7.865,7.6s-2.037,2.717.679,6.112S19.41,23.9,20.089,27.977s-1.358,8.15,2.717,13.583,2.037,8.15.679,8.829S19.41,57.859,19.41,60.576s-1.358,8.829,0,12.9,6.112,20.374,8.15,16.979.679-6.791,3.4-6.112-1.358-4.075,2.717-4.754,10.866-.679,12.224,4.075-5.433,16.978-6.112,19.016-4.075,4.754-4.754,9.508.535,10.082,1.893,11.44,4.9-1.932,8.973-1.253,9.508,3.4,12.225,0,4.17-7.194,7.565-7.873,5.153-4.173,7.191-5.531.864-1.536,1.543-4.932S75.1,99.966,75.779,102s.679,4.075,1.358,3.4.679-4.754,2.037-4.075,0,2.717,2.037,2.037,6.112-3.4,3.4-10.866-2.037-7.471-1.358-8.829c0,0,.679-12.225-8.829-18.337S71.7,53.105,71.7,50.389s-2.717-7.471-10.187-12.225-2.037-6.791,0-5.433,6.791,5.433,8.15,5.433" transform="matrix(0.966, 0.259, -0.259, 0.966, 137.165, 58.684)" fill="#fff"/>
        <path id="패스_5583" data-name="패스 5583" d="M64.305,25.2c3.286,1.606,4.309,2.282,3.364-.351s-8.5-16.183-18.987-18.5S33.047.467,30.274.074,7.1.442,2.286,13.235s-.78,5.608.814,7.8,2.34,2.8,4.972,1.839,2.167,1.14,6.29,1.392,3.338.824,8.813.936,3.748-1.386,12.824,0,16.8-5.627,28.307,0" transform="matrix(0.966, 0.259, -0.259, 0.966, 121.071, 31.452)" fill="#fff"/>
        <path id="패스_5584" data-name="패스 5584" d="M32.957,6.739a9.7,9.7,0,0,0,1.112-3.033c.255-1.108.805-5.168-1.392-3.154-2.717,2.49-9.554,8.937-17.531,10.883S-4,22.058,1.436,32.245s7.471,5.433,8.15,6.112,2.037,1.358,2.717-.679,2.717-2.037,4.075-.679a1.9,1.9,0,0,0,3.4-1.358c0-2.037-4.461-16.419,3.056-20.714a41.009,41.009,0,0,0,5.926-4.281,31.191,31.191,0,0,0,3.726-3.262,5.183,5.183,0,0,0,.476-.645" transform="matrix(0.966, 0.259, -0.259, 0.966, 86.883, 3.529)" fill="#fff"/>
        <path id="패스_5585" data-name="패스 5585" d="M64.244,7.932c2.421.365,4.939,2.711.229,3.542s-15.58,1.762-17.808,3.833S28.978,19.421,25.93,30.665,21.343,32.633,18.5,34.1s-3.6.156-4.281.2a4.084,4.084,0,0,0-2.668.852c-.634.721-3.388.219-4.11-.415s-1.53-2.624-2.8-1.181a1.542,1.542,0,0,1-2.755-.5c-.044-.678-7.843-14.505,8.539-25.07s11.918-5.923,13.6-6.168,3.085.346,5.8.171S40.414-2.78,51.651,2.62s1.53,2.624.175,2.711-10.843.7-12.111,2.143.131,2.033.809,1.989,7.914-3.913,23.72-1.531" transform="matrix(0.966, 0.259, -0.259, 0.966, 101.374, 11.532)" fill="#fff"/>
        <g id="그룹_3052" data-name="그룹 3052" transform="matrix(0.966, 0.259, -0.259, 0.966, 52.237, 110.331)" style="isolation: isolate">
          <g id="그룹_3051" data-name="그룹 3051">
            <g id="그룹_3050" data-name="그룹 3050" clip-path="url(#clip-path-2)">
              <path id="패스_5586" data-name="패스 5586" d="M.173,4.557C-.051,3.383-.243,1.7.855.78A3.142,3.142,0,0,1,4.525.442c2.964,1.793,3.031,7,.351,9.033-1.193.905-3.075.1-3.725-.879C.318,7.344.431,5.914.173,4.557" transform="translate(0 0)" fill="#0c0506"/>
            </g>
          </g>
        </g>
        <g id="그룹_3055" data-name="그룹 3055" transform="matrix(0.966, 0.259, -0.259, 0.966, 99.641, 120.039)" style="isolation: isolate">
          <g id="그룹_3054" data-name="그룹 3054" transform="translate(0 0)">
            <g id="그룹_3053" data-name="그룹 3053" clip-path="url(#clip-path-3)">
              <path id="패스_5587" data-name="패스 5587" d="M.084,4.842S-.675.767,2.362.088,6.18,2.8,6.169,4.842s-.084,5.638-3.084,5.536-3-3.5-3-5.536" transform="translate(0 0)" fill="#0c0506"/>
            </g>
          </g>
        </g>
        <g id="그룹_3058" data-name="그룹 3058" transform="matrix(0.966, 0.259, -0.259, 0.966, 38.195, 146.842)" style="isolation: isolate">
          <g id="그룹_3057" data-name="그룹 3057" transform="translate(0 0)">
            <g id="그룹_3056" data-name="그룹 3056" clip-path="url(#clip-path-4)">
              <path id="패스_5588" data-name="패스 5588" d="M17.376.184a9.559,9.559,0,0,0-5.324.4C10.418,1.354,9.222,3.332,9.917,5c-2.332-.7-4.843.478-6.673,2.082A4.756,4.756,0,0,0,1.589,9.442a2.069,2.069,0,0,0,1.117,2.43C1.476,12.826.227,14,.019,15.538s1.3,3.294,2.744,2.719a2.346,2.346,0,0,0,.3,3.261,5.434,5.434,0,0,0,3.409,1.148c1.809.115,3.8-.127,5.078-1.414a5.27,5.27,0,0,0,5.21,1.65,9.622,9.622,0,0,0,4.826-2.982,5.7,5.7,0,0,0,8.641-.313,7.885,7.885,0,0,0,9.516-1.071,4.063,4.063,0,0,0,5.711-.138,1.771,1.771,0,0,1,.713-.607c.46-.144.915.187,1.314.456a4.674,4.674,0,0,0,3.634.811,3,3,0,0,0,2.337-2.688A4.511,4.511,0,0,0,58.8,15.227a4.512,4.512,0,0,0,.063-5.464,2.423,2.423,0,0,1-.543-.866,2.743,2.743,0,0,1,.117-1.118A3.132,3.132,0,0,0,53.3,4.841c.423-1.129-.662-3-1.583-3.466S49.26.315,48.149.782a8.107,8.107,0,0,0-3.224,1.48C42.392-.121,41.112.713,38.473.782s-5.163,1.046-7.766,1.48a15.625,15.625,0,0,1-7.2-.237A31.356,31.356,0,0,0,17.376.184" transform="translate(0 0)" fill="#fff"/>
            </g>
          </g>
        </g>
        <g id="그룹_3061" data-name="그룹 3061" transform="matrix(0.966, 0.259, -0.259, 0.966, 54.311, 134.576)" style="isolation: isolate">
          <g id="그룹_3060" data-name="그룹 3060">
            <g id="그룹_3059" data-name="그룹 3059" clip-path="url(#clip-path-5)">
              <path id="패스_5589" data-name="패스 5589" d="M0,11.606c0,6.41,6.69,11.607,14.941,11.606s14.941-5.2,14.941-11.606S23.193,0,14.941,0,0,5.2,0,11.606" transform="translate(0 0)" fill="#f1ccb7"/>
            </g>
          </g>
        </g>
        <path id="패스_5590" data-name="패스 5590" d="M19.995,0A39.166,39.166,0,0,1,0,2.155" transform="matrix(0.966, 0.259, -0.259, 0.966, 46.231, 96.549)" fill="none" stroke="#fff" stroke-linecap="round" stroke-linejoin="round" stroke-width="12"/>
        <path id="패스_5591" data-name="패스 5591" d="M0,4.1A17.722,17.722,0,0,1,12.313.03,17.723,17.723,0,0,1,24.051,5.544" transform="matrix(0.966, 0.259, -0.259, 0.966, 96.825, 98.146)" fill="none" stroke="#fff" stroke-linecap="round" stroke-linejoin="round" stroke-width="12"/>
        <path id="패스_5592" data-name="패스 5592" d="M0,7.622C7.183,3.154,16.438,5.739,24.89,5.386,33.476,5.029,41.619,1.494,50.14.379A45.355,45.355,0,0,1,70.827,2.5" transform="matrix(0.966, 0.259, -0.259, 0.966, 50.005, 63.836)" fill="none" stroke="#f9cab0" stroke-linecap="round" stroke-linejoin="round" stroke-width="2"/>
        <path id="패스_5593" data-name="패스 5593" d="M0,5.653A35.239,35.239,0,0,1,14.087,3.072c2.857.069,5.7.487,8.56.468,5.582-.038,11-1.732,16.485-2.769s11.42-1.356,16.4,1.167" transform="matrix(0.966, 0.259, -0.259, 0.966, 61.045, 53.908)" fill="none" stroke="#f9cab0" stroke-linecap="round" stroke-linejoin="round" stroke-width="2"/>
        <path id="패스_5594" data-name="패스 5594" d="M0,1.9A25.76,25.76,0,0,0,17.895,0" transform="matrix(0.966, 0.259, -0.259, 0.966, 65.522, 82.925)" fill="none" stroke="#f9cab0" stroke-linecap="round" stroke-linejoin="round" stroke-width="2"/>
        <path id="패스_5595" data-name="패스 5595" d="M0,.675a24.946,24.946,0,0,1,24.126,7.5" transform="matrix(0.966, 0.259, -0.259, 0.966, 103.541, 89.891)" fill="none" stroke="#f9cab0" stroke-linecap="round" stroke-linejoin="round" stroke-width="2"/>
        <path id="패스_5596" data-name="패스 5596" d="M12.04,0A13.883,13.883,0,0,0,0,12.831" transform="matrix(0.966, 0.259, -0.259, 0.966, 37.455, 80.479)" fill="none" stroke="#f9cab0" stroke-linecap="round" stroke-linejoin="round" stroke-width="2"/>
        <path id="패스_5597" data-name="패스 5597" d="M0,.1a24.077,24.077,0,0,1,10.385,1.32" transform="matrix(0.966, 0.259, -0.259, 0.966, 109.683, 129.74)" fill="none" stroke="#f9cab0" stroke-linecap="round" stroke-linejoin="round" stroke-width="2"/>
        <path id="패스_5598" data-name="패스 5598" d="M0,0A21.9,21.9,0,0,1,9.5,4.412" transform="matrix(0.966, 0.259, -0.259, 0.966, 107.704, 133.666)" fill="none" stroke="#f9cab0" stroke-linecap="round" stroke-linejoin="round" stroke-width="2"/>
        <path id="패스_5599" data-name="패스 5599" d="M5.254,0A7.137,7.137,0,0,0,0,3.868" transform="matrix(0.966, 0.259, -0.259, 0.966, 37.913, 113.926)" fill="none" stroke="#f9cab0" stroke-linecap="round" stroke-linejoin="round" stroke-width="2"/>
        <path id="패스_5600" data-name="패스 5600" d="M4.47,0A5.971,5.971,0,0,0,0,3.311" transform="matrix(0.966, 0.259, -0.259, 0.966, 38.883, 120.215)" fill="none" stroke="#f9cab0" stroke-linecap="round" stroke-linejoin="round" stroke-width="2"/>
      </g>
      <path id="패스_9813" data-name="패스 9813" d="M-9105.619,946.137s-40.541,6.634-74.447,22.113-68.55,20.639-78.132,20.639-95.087-42.752-95.087-42.752l-30.958,51.6s58.369,41.026,114.251,54.545,122.178-3.055,122.178-3.055Z" transform="translate(275.769 -138.284)" fill="#6e6e6c"/>
      <path id="패스_9817" data-name="패스 9817" d="M-9142.335,810.424l21.051,14.4" transform="translate(-1.192 -25.126)" fill="none" stroke="#f9cab0" stroke-linecap="round" stroke-width="2"/>
      <path id="패스_9818" data-name="패스 9818" d="M-9142.335,810.424l21.051,14.4" transform="translate(-7.395 -17.925)" fill="none" stroke="#f9cab0" stroke-linecap="round" stroke-width="2"/>
      <path id="패스_9819" data-name="패스 9819" d="M-9142.335,810.424l21.051,14.4" transform="translate(-11.718 -9.773)" fill="none" stroke="#f9cab0" stroke-linecap="round" stroke-width="2"/>
    </g>
    <g id="그룹_5586" data-name="그룹 5586" transform="translate(-8913.521 971.109)" style="isolation: isolate">
      <g id="그룹_3818" data-name="그룹 3818">
        <g id="마스크_그룹_3817" data-name="마스크 그룹 3817" transform="translate(0 -1.396)" clip-path="url(#clip-path-6)">
          <path id="패스_7222" data-name="패스 7222" d="M433.738,144.8H32.774v51.239h45V393.967H388.731V196.041h45.007Z" transform="translate(-32.773 -145.809)" fill="#9d6d4f"/>
        </g>
      </g>
    </g>
    <g id="그룹_5587" data-name="그룹 5587" transform="translate(-8875.178 820.765)">
      <path id="패스_9816" data-name="패스 9816" d="M26.554-19.619H33.94L7.386,27.681V91.851H0V27.6Z" transform="translate(20.927 60.264)" fill="#4d4d4d"/>
      <rect id="사각형_2788" data-name="사각형 2788" width="49.242" height="6.25" transform="translate(0 145.864)" fill="#001a1a"/>
      <path id="패스_9815" data-name="패스 9815" d="M18.466,51.7h0A18.52,18.52,0,0,1,0,33.239V18.466a18.466,18.466,0,1,1,36.932,0V33.239A18.52,18.52,0,0,1,18.466,51.7" transform="translate(52.978 0) rotate(30)" fill="#001a1a"/>
    </g>
  </g>
</svg>
