<svg xmlns="http://www.w3.org/2000/svg" width="1280.235" height="349.445" viewBox="0 0 1280.235 349.445">
  <path id="p11_cycle" d="M-583,1144.03c-56.51,0-155.162,46.919-155.162,155.158,0,109.8,95.589,155.288,155.163,155.288,56.851,0,154.977-41.91,154.977-155.288,0-91.9,75.309-155.158,154.976-155.158,80.434,0,155.084,61.728,155.084,155.223,0,122.505,101.98,155.223,155.067,155.223s155.407-39.558,155.407-155.288S297.188,1144.03,347.9,1144.03c82.67,0,155.17,64.792,155.17,155.158A154.718,154.718,0,0,1,347.9,1454.476c-84.093,0-155.391-66.42-155.391-155.288,0-88.324-70.66-155.158-155.407-155.158-79.588,0-154.653,66.834-154.653,155.223,0,87.781-71.068,155.223-155.5,155.223-75.182,0-154.976-62.846-154.976-155.288C-428.023,1186.848-529.213,1144.03-583,1144.03Z" transform="translate(757.663 -1124.53)" fill="none" stroke="#dceef7" stroke-miterlimit="10" stroke-width="39"/>
</svg>
