<svg id="p11_pibi" xmlns="http://www.w3.org/2000/svg" xmlns:xlink="http://www.w3.org/1999/xlink" width="123.633" height="134.191" viewBox="0 0 123.633 134.191">
  <defs>
    <clipPath id="clip-path">
      <rect id="사각형_2056" data-name="사각형 2056" width="123.633" height="134.191" fill="none"/>
    </clipPath>
  </defs>
  <g id="그룹_3806" data-name="그룹 3806" clip-path="url(#clip-path)">
    <path id="패스_7187" data-name="패스 7187" d="M98.052,90.793s-.8.724,1.112,3.44c2.224,3.161,7.4,10.6,14.079,25.033s20.109,48.421,31.336,44.964S162.3,147.5,159.053,128.32s-15.329-30.472-37.935-35.212-21.347-3.48-23.066-2.316" transform="translate(-36.257 -33.231)" fill="#f2f2f2"/>
    <path id="패스_7188" data-name="패스 7188" d="M64.178,79.224s.762.763-1.283,3.38c-2.38,3.045-7.925,10.213-15.317,24.3S25.064,154.25,14.026,150.235s-16.86-17.6-12.655-36.59S18.209,83.979,41.024,80.38s21.5-2.406,23.154-1.156" transform="translate(0 -28.885)" fill="#f2f2f2"/>
    <path id="패스_7189" data-name="패스 7189" d="M74.487,182.742c-1.6.23.309,7.34-1.341,10.66-2.256,4.538-4.774,3.047-4.774,5.8,0,1.889,8.185,3.778,7.859-7.829-.171-6.113.134-8.9-1.743-8.628" transform="translate(-25.325 -67.681)" fill="#001a1a"/>
    <path id="패스_7190" data-name="패스 7190" d="M132.125,184.742c1.6.23-.309,7.34,1.341,10.66,2.256,4.538,4.774,3.047,4.774,5.8,0,1.889-8.185,3.778-7.859-7.829.171-6.113-.134-8.9,1.743-8.628" transform="translate(-48.29 -68.422)" fill="#001a1a"/>
    <path id="패스_7191" data-name="패스 7191" d="M114.765,6.275a8.562,8.562,0,0,0-6.4-5.988c-3.2-.763-6.892.093-9.832,1.429-3.01,1.369-5.418,3.966-7.4,6.543a43.955,43.955,0,0,0-5.617,9.953c-.837,2-1.57,4.05-2.243,6.115a51.368,51.368,0,0,0-1.861,6.514.532.532,0,0,0,1.024.283c.666-1.678,1.106-3.444,1.645-5.165.528-1.685,1.089-3.361,1.707-5.017a51.3,51.3,0,0,1,4.677-9.663,27.174,27.174,0,0,1,6.589-7.442,15.734,15.734,0,0,1,8.9-2.857c3.476-.052,7.157,1.974,8.106,5.489a.367.367,0,0,0,.707-.195" transform="translate(-30.149 0)" fill="#001313"/>
    <path id="패스_7192" data-name="패스 7192" d="M155.6,25.831a8.534,8.534,0,0,0-6.074-5.9c-3.385-.947-7.027.155-9.865,2.068a26.232,26.232,0,0,0-7.274,8.269,90.6,90.6,0,0,0-5.634,10.652q-1.326,2.971-2.455,6.025a41.979,41.979,0,0,0-2.054,6.6.532.532,0,0,0,1.024.283c.67-1.7,1.159-3.468,1.764-5.192s1.258-3.429,1.961-5.115a97.369,97.369,0,0,1,4.845-9.962c3.216-5.764,7.738-13.042,15.234-13.025,3.379.008,6.909,2.11,7.821,5.491a.367.367,0,0,0,.706-.195" transform="translate(-45.276 -7.254)" fill="#001313"/>
    <path id="패스_7193" data-name="패스 7193" d="M98.717,200.051,102.471,207q1.974-3.157,3.68-6.47c-2.54,0-7.215-.42-7.434-.48" transform="translate(-36.565 -74.099)" fill="#001a1a"/>
    <path id="패스_7194" data-name="패스 7194" d="M86.073,138.766c-13.222,0-23.925-11.333-28.332-27.073C52.822,94.127,46.408,37.4,80.495,31.041c25.647-4.785,43.429,12.873,42.1,31.543-1.259,17.629-6.026,42.11-12.592,59.183-3.148,8.185-10.7,17-23.925,17" transform="translate(-19.924 -11.204)" fill="#ffb200"/>
    <path id="패스_7195" data-name="패스 7195" d="M48.631,114.825c-1.536-.286-10.808,14.5-8.67,22.946s8.056,7.16,7.5.447-3.116-8.285.875-17.116c1.734-3.837,2-5.96.3-6.278" transform="translate(-14.684 -42.529)" fill="#001a1a"/>
    <path id="패스_7196" data-name="패스 7196" d="M157.776,117.5c1.558-.113,9.119,15.617,6.049,23.772s-8.806,6.214-7.5-.395,4.023-7.884,1.045-17.106c-1.294-4.007-1.321-6.146.4-6.271" transform="translate(-57.832 -43.52)" fill="#001a1a"/>
    <path id="패스_7197" data-name="패스 7197" d="M97.07,54.944a3,3,0,1,1-3-3,3,3,0,0,1,3,3" transform="translate(-33.73 -19.239)" fill="#001a1a"/>
    <path id="패스_7198" data-name="패스 7198" d="M133.532,55.739a3,3,0,1,1-3-3,3,3,0,0,1,3,3" transform="translate(-47.236 -19.533)" fill="#001a1a"/>
    <path id="패스_7199" data-name="패스 7199" d="M54.695,91.511s8.225,8.326,33.369,9.444c28.332,1.259,34.189-11.31,34.189-11.31L120.2,104.71s-6.326,10.725-32.769,9.466c-27.159-1.293-33.369-10.7-33.369-10.7s0-3.148.63-11.962" transform="translate(-20.026 -33.204)" fill="#001a1a"/>
    <path id="패스_7200" data-name="패스 7200" d="M55.736,137.365s6.5,8.338,29.8,9.6c23.9,1.292,31.9-7.847,31.9-7.847L113.866,152s-5.666,5.037-28.332,5.037c-14.495,0-27.249-6.241-27.791-8.473s-2.008-11.2-2.008-11.2" transform="translate(-20.645 -50.88)" fill="#001a1a"/>
    <path id="패스_7201" data-name="패스 7201" d="M119.09,67.358a21.469,21.469,0,0,0-7.636-2.18,12.4,12.4,0,0,0-7.177,2.047c-.334.293.033.74.395.678a6.737,6.737,0,0,0,1.535-.607,17.374,17.374,0,0,1,1.781-.694,9.2,9.2,0,0,1,3.467-.446,22.048,22.048,0,0,1,7.223,1.906c.473.208.892-.477.412-.705" transform="translate(-38.575 -24.133)" fill="#001313"/>
    <path id="패스_7202" data-name="패스 7202" d="M136.258,51.731a6.853,6.853,0,0,1-4.11-.316,6.709,6.709,0,0,1-1.772-1,6.906,6.906,0,0,1-.75-.7c-.256-.272-.451-.606-.822-.725a.452.452,0,0,0-.567.432,1.719,1.719,0,0,0,.616,1.066,6.942,6.942,0,0,0,.867.776,7.994,7.994,0,0,0,2.095,1.154,7.5,7.5,0,0,0,4.671.137.428.428,0,0,0-.227-.825" transform="translate(-47.499 -18.139)" fill="#001313"/>
    <path id="패스_7203" data-name="패스 7203" d="M86.578,52.134a7.5,7.5,0,0,0,4.677-.032,7.819,7.819,0,0,0,2.088-1.082,7.424,7.424,0,0,0,.907-.773,1.7,1.7,0,0,0,.64-1.06.451.451,0,0,0-.567-.431c-.358.107-.555.424-.806.681a7.036,7.036,0,0,1-6.712,1.873.428.428,0,0,0-.227.825" transform="translate(-31.957 -18.052)" fill="#001313"/>
    <path id="패스_7204" data-name="패스 7204" d="M91.374,62.043s-2.321,1.629-2.139,3.649c.176,1.959,2.135,1.782,2.537.758.507-1.294-.3-3.432-.4-4.407" transform="translate(-33.049 -22.981)" fill="#6bb3ea"/>
  </g>
</svg>
