<svg xmlns="http://www.w3.org/2000/svg" width="114.558" height="125.546" viewBox="0 0 114.558 125.546"><g transform="translate(8 -46.235)"><g transform="translate(57.405 72.235)"><path d="M11.209,42.937c4.084-13.118,22.65-13.118,26.734,0L43.5,60.781A14,14,0,0,1,30.131,78.942H19.021A14,14,0,0,1,5.654,60.781Z" transform="translate(0)" fill="#48a47f"/><line y2="38.23" transform="translate(24.576 61.317)" fill="none" stroke="#9e6d4f" stroke-width="4"/></g><g transform="translate(-8 46.235)"><path d="M12.164,39.87c3.792-12.181,21.033-12.181,24.825,0L43.9,62.078A13,13,0,0,1,31.49,78.942H17.663A13,13,0,0,1,5.25,62.078Z" transform="translate(0)" fill="#48a47f"/><line y2="38.23" transform="translate(24.576 61.317)" fill="none" stroke="#9e6d4f" stroke-width="4"/></g></g></svg>