<svg xmlns="http://www.w3.org/2000/svg" width="47.88" height="70.896" viewBox="0 0 47.88 70.896"><g transform="translate(0 29.401)"><path d="M150.6,178.09l-1.283,24.916c.3-.015,2.3.018,2.605,0-.093-10.659-1.059-24.916-1.254-24.916,0,0-.069-.292-.069,0" transform="translate(-140.224 -161.516)" fill="#624800"/><path d="M152.144,162.737a3.6,3.6,0,0,0-3.767,0c-4.11,2.576-16.191,35.669,1.884,35.669,19.131,0,5.993-33.093,1.883-35.669" transform="translate(-140.605 -162.206)" fill="#33a257"/></g><g transform="translate(22.75 0)"><g transform="translate(0 0)"><path d="M150.953,178.126,149.322,209.8c.386-.019,2.926.023,3.312,0-.118-13.55-1.347-31.675-1.594-31.675,0,0-.088-.372-.088,0" transform="translate(-137.756 -139.677)" fill="#624800"/><path d="M155.274,162.881a4.58,4.58,0,0,0-4.789,0c-5.225,3.275-20.583,45.345,2.4,45.345,24.321,0,7.619-42.07,2.394-45.345" transform="translate(-140.605 -162.206)" fill="#1bb452"/></g></g></svg>