<svg xmlns="http://www.w3.org/2000/svg" width="142" height="140.081" viewBox="0 0 142 140.081">
  <g id="p12_wind01" transform="translate(-332.509 2.976)">
    <path id="패스_9874" data-name="패스 9874" d="M358.265,121.44a69.847,69.847,0,0,1-24.756-53.416" fill="none" stroke="#e4e4e4" stroke-miterlimit="10" stroke-width="2"/>
    <path id="패스_9875" data-name="패스 9875" d="M425.654,134.449q-2.9.967-5.914,1.684" fill="none" stroke="#e4e4e4" stroke-miterlimit="10" stroke-width="2"/>
    <path id="패스_9876" data-name="패스 9876" d="M473.509,68.024a69.922,69.922,0,0,1-42.57,64.422" fill="none" stroke="#e4e4e4" stroke-miterlimit="10" stroke-width="2"/>
    <path id="패스_9877" data-name="패스 9877" d="M380.375,1.937a70.17,70.17,0,0,1,59.6,6.326q1.092.668,2.156,1.373a70.162,70.162,0,0,1,5.772,4.267" fill="none" stroke="#e4e4e4" stroke-miterlimit="10" stroke-width="2"/>
    <path id="패스_9878" data-name="패스 9878" d="M335.908,49.786A70.2,70.2,0,0,1,373.169,4.923" fill="none" stroke="#e4e4e4" stroke-miterlimit="10" stroke-width="2"/>
    <path id="패스_9879" data-name="패스 9879" d="M334.121,58.727q.352-2.666.9-5.265" fill="none" stroke="#e4e4e4" stroke-miterlimit="10" stroke-width="2"/>
  </g>
</svg>
