<svg xmlns="http://www.w3.org/2000/svg" width="131.366" height="131.366" viewBox="0 0 131.366 131.366">
  <g id="p12_fan02" transform="matrix(-0.966, -0.259, 0.259, -0.966, 113.786, 148.996)">
    <path id="패스_9863" data-name="패스 9863" d="M68.027.024v68s8.8-8.981,8.8-34.088S68.027.024,68.027.024Z" fill="#e4e4e4"/>
    <path id="패스_9864" data-name="패스 9864" d="M.027,68.024h68s-8.981-8.8-34.088-8.8S.027,68.024.027,68.024Z" fill="#e4e4e4"/>
    <path id="패스_9865" data-name="패스 9865" d="M68.027,136.024v-68s-8.8,8.982-8.8,34.088S68.027,136.024,68.027,136.024Z" fill="#e4e4e4"/>
    <path id="패스_9866" data-name="패스 9866" d="M136.027,68.024h-68s8.982,8.8,34.088,8.8S136.027,68.024,136.027,68.024Z" fill="#e4e4e4"/>
    <g id="그룹_5626" data-name="그룹 5626">
      <path id="패스_9849" data-name="패스 9849" d="M68.561,74.049A6.048,6.048,0,1,0,62,68.558a6.049,6.049,0,0,0,6.558,5.491h0" fill="#e4e4e4"/>
      <path id="패스_9850" data-name="패스 9850" d="M68.283,70.951A2.935,2.935,0,1,0,65.1,68.286h0a2.935,2.935,0,0,0,3.182,2.664" fill="#56b4e8"/>
    </g>
  </g>
</svg>
