<svg xmlns="http://www.w3.org/2000/svg" xmlns:xlink="http://www.w3.org/1999/xlink" width="274.922" height="267.846" viewBox="0 0 274.922 267.846">
  <defs>
    <clipPath id="clip-path">
      <rect id="사각형_2057" data-name="사각형 2057" width="20.894" height="10.854" fill="none"/>
    </clipPath>
    <clipPath id="clip-path-2">
      <rect id="사각형_2058" data-name="사각형 2058" width="20.231" height="12.049" fill="none"/>
    </clipPath>
    <clipPath id="clip-path-3">
      <rect id="사각형_2059" data-name="사각형 2059" width="21.283" height="7.159" fill="none"/>
    </clipPath>
  </defs>
  <g id="p12_pibi" transform="translate(-1490.539 -12183.092)">
    <path id="패스_7205" data-name="패스 7205" d="M100.2,103.058s-1.5,1.36,2.088,6.459c4.177,5.936,13.9,19.9,26.441,47.012s37.766,90.934,58.849,84.443,33.282-31.427,27.183-67.438-28.788-57.227-71.243-66.128-40.089-6.536-43.318-4.349" transform="translate(1508.758 12201.521)" fill="#f2f2f2"/>
    <path id="패스_7206" data-name="패스 7206" d="M120.526,96.635s1.431,1.433-2.41,6.347c-4.469,5.718-14.884,19.181-28.765,45.626s-42.28,88.925-63.011,81.385S-5.323,196.937,2.574,161.278,34.2,105.566,77.044,98.806s40.368-4.518,43.482-2.171" transform="translate(1490.539 12200.292)" fill="#f2f2f2"/>
    <path id="패스_7207" data-name="패스 7207" d="M80.536,197.872c-2.974.6,1.353,13.73-1.392,20.129-3.752,8.746-8.631,6.216-8.342,11.372.2,3.542,15.745,6.222,13.912-15.506-.966-11.444-.686-16.7-4.179-16" transform="translate(1503.451 12219.171)" fill="#001a1a"/>
    <path id="패스_7208" data-name="패스 7208" d="M134.545,196.772c3.022.264.194,13.8,3.638,19.846,4.707,8.271,9.272,5.21,9.562,10.367.2,3.541-14.949,7.946-15.56-13.852-.323-11.48-1.189-16.672,2.36-16.362" transform="translate(1514.588 12218.979)" fill="#001a1a"/>
    <path id="패스_7209" data-name="패스 7209" d="M115.177,15.943c-.848-3.5-1.719-7.228-3.915-10.167A14.389,14.389,0,0,0,103.867.73c-6.361-1.936-13,.127-17.887,4.427C80.4,10.062,77.45,17.2,76.016,24.34a133.425,133.425,0,0,0-2.161,25.507q-.032,7.479.56,14.944a89.867,89.867,0,0,0,1.95,14.541c.267,1.07,2.044.875,1.96-.265-.3-4.006-.959-7.982-1.333-11.984s-.611-8.033-.713-12.059a178.309,178.309,0,0,1,.958-23.981c.779-7.094,2.273-14.376,6.413-20.335C87.313,5.436,93.1,1.5,99.714,1.8a13.911,13.911,0,0,1,9.155,3.772c2.9,2.864,4.028,6.9,4.98,10.735.213.861,1.535.5,1.327-.365" transform="translate(1504.01 12183.092)" fill="#001313"/>
    <path id="패스_7210" data-name="패스 7210" d="M162.579,20.737c-.848-3.5-1.719-7.228-3.915-10.167a14.389,14.389,0,0,0-7.395-5.046c-6.361-1.936-13,.127-17.887,4.427-5.576,4.906-8.53,12.039-9.964,19.183a133.424,133.424,0,0,0-2.161,25.507q-.032,7.479.56,14.944a89.867,89.867,0,0,0,1.95,14.541c.267,1.07,2.044.875,1.96-.265-.3-4.006-.959-7.982-1.333-11.984s-.611-8.033-.713-12.059a178.31,178.31,0,0,1,.958-23.981c.779-7.094,2.273-14.376,6.413-20.335,3.663-5.272,9.452-9.206,16.064-8.906a13.911,13.911,0,0,1,9.155,3.772c2.9,2.864,4.028,6.9,4.98,10.735.213.861,1.535.5,1.327-.365" transform="translate(1512.655 12183.966)" fill="#001313"/>
    <path id="패스_7211" data-name="패스 7211" d="M100.6,213.975l7.771,12.637q3.368-6.126,6.218-12.52c-4.762.277-13.572-.026-13.989-.117" transform="translate(1508.889 12222.119)" fill="#001a1a"/>
    <path id="패스_7212" data-name="패스 7212" d="M117.435,247.624c-24.791,1.393-46.054-18.73-55.976-47.779C50.388,167.427,32.386,61.736,95.63,46.222c47.585-11.674,82.786,19.565,82.253,54.712-.5,33.187-6.864,79.594-17.378,112.3-5.041,15.679-18.279,33-43.07,34.395" transform="translate(1499.719 12191.068)" fill="#ffb200"/>
    <path id="패스_7213" data-name="패스 7213" d="M154.1,138.906c2.028,2.121,32.376-10.26,38.376-25.485s-4.435-19.747-10.939-8.9-4.331,16.05-20.1,25.14c-6.851,3.95-9.584,6.9-7.339,9.244" transform="translate(1518.506 12201.067)" fill="#001a1a"/>
    <path id="패스_7214" data-name="패스 7214" d="M57.316,126.391c-2.443-1.626-29.349,17.093-31.873,33.262s8.646,18.3,12.621,6.29.715-16.609,14.113-28.927c5.82-5.352,7.843-8.825,5.139-10.625" transform="translate(1495.113 12206.127)" fill="#001a1a"/>
    <path id="패스_7215" data-name="패스 7215" d="M96.185,71.575a5.639,5.639,0,1,1-5.946-5.314,5.638,5.638,0,0,1,5.946,5.314" transform="translate(1506.027 12195.176)" fill="#001a1a"/>
    <path id="패스_7216" data-name="패스 7216" d="M132.634,70.324a5.639,5.639,0,1,1-5.946-5.314,5.638,5.638,0,0,1,5.946,5.314" transform="translate(1512.675 12194.947)" fill="#001a1a"/>
    <g id="그룹_3810" data-name="그룹 3810" transform="translate(1571.107 12277.362)" opacity="0.5">
      <g id="그룹_3809" data-name="그룹 3809">
        <g id="그룹_3808" data-name="그룹 3808" clip-path="url(#clip-path)">
          <path id="패스_7217" data-name="패스 7217" d="M89.011,86.528c-.382,2.9-5.357,4.636-11.114,3.878s-10.114-3.721-9.733-6.621,5.357-4.635,11.114-3.878,10.115,3.722,9.733,6.621" transform="translate(-68.14 -79.729)" fill="#ff4341"/>
        </g>
      </g>
    </g>
    <g id="그룹_3813" data-name="그룹 3813" transform="translate(1644.765 12275.016)" opacity="0.5">
      <g id="그룹_3812" data-name="그룹 3812">
        <g id="그룹_3811" data-name="그룹 3811" clip-path="url(#clip-path-2)">
          <path id="패스_7218" data-name="패스 7218" d="M150.525,80.445c.925,2.774-2.792,6.511-8.3,8.348s-10.724,1.074-11.649-1.7,2.792-6.511,8.3-8.348,10.724-1.074,11.649,1.7" transform="translate(-130.435 -77.744)" fill="#ff4341"/>
        </g>
      </g>
    </g>
    <path id="패스_7219" data-name="패스 7219" d="M51.009,110.786s16.3,14.747,63.563,14.193c53.256-.623,62.915-24.808,62.915-24.808l-2.257,28.465s-10.731,20.776-60.446,21.2c-51.06.435-63.7-16.555-63.7-16.555s-.331-5.9-.079-22.5" transform="translate(1499.825 12201.362)" fill="#001a1a"/>
    <path id="패스_7220" data-name="패스 7220" d="M54.174,154.294s13.071,14.949,56.884,14.856c44.946-.095,58.988-18.072,58.988-18.072l-5.334,24.532s-10.094,10.041-52.594,12.428c-27.177,1.526-51.749-8.832-53-12.958s-4.945-20.786-4.945-20.786" transform="translate(1500.42 12210.647)" fill="#001a1a"/>
    <g id="그룹_3816" data-name="그룹 3816" transform="translate(1608.363 12278.652)" opacity="0.5">
      <g id="그룹_3815" data-name="그룹 3815">
        <g id="그룹_3814" data-name="그룹 3814" clip-path="url(#clip-path-3)">
          <path id="패스_7221" data-name="패스 7221" d="M99.649,80.95l21.283-.13s.043,7.094-10.6,7.159S99.649,80.95,99.649,80.95" transform="translate(-99.649 -80.82)" fill="#ff4341"/>
        </g>
      </g>
    </g>
    <path id="패스_7224" data-name="패스 7224" d="M241.816,42.8h-60.3v74.491h3.547V83h56.755Z" transform="translate(1523.646 12190.898)" fill="#f2f2f2"/>
    <path id="패스_7225" data-name="패스 7225" d="M201.113,59.421h-5.564a13.6,13.6,0,0,0,3,8.54,15.241,15.241,0,0,1,3.708-1.608A21.081,21.081,0,0,1,201.113,59.421Z" transform="translate(1526.206 12193.93)" fill="none" stroke="#29abe2" stroke-miterlimit="10" stroke-width="1"/>
    <path id="패스_7226" data-name="패스 7226" d="M201.112,60.672a21.061,21.061,0,0,1,1.15-7.016,15.392,15.392,0,0,1-3.621-1.552,13.6,13.6,0,0,0-3.093,8.653h5.564C201.113,60.727,201.112,60.7,201.112,60.672Z" transform="translate(1526.206 12192.595)" fill="none" stroke="#29abe2" stroke-miterlimit="10" stroke-width="1"/>
    <path id="패스_7227" data-name="패스 7227" d="M214.117,60.672c0,.028,0,.056,0,.084h5.564a13.6,13.6,0,0,0-3.093-8.653,15.382,15.382,0,0,1-3.619,1.552A21.091,21.091,0,0,1,214.117,60.672Z" transform="translate(1529.383 12192.595)" fill="none" stroke="#29abe2" stroke-miterlimit="10" stroke-width="1"/>
    <path id="패스_7228" data-name="패스 7228" d="M214.116,59.421a21.081,21.081,0,0,1-1.148,6.932,15.24,15.24,0,0,1,3.708,1.608,13.6,13.6,0,0,0,3-8.54Z" transform="translate(1529.383 12193.93)" fill="none" stroke="#29abe2" stroke-miterlimit="10" stroke-width="1"/>
    <path id="패스_7229" data-name="패스 7229" d="M208.345,59.421h-8.09a21.081,21.081,0,0,0,1.148,6.932,24.72,24.72,0,0,1,6.942-.948Z" transform="translate(1527.064 12193.93)" fill="none" stroke="#29abe2" stroke-miterlimit="10" stroke-width="1"/>
    <path id="패스_7230" data-name="패스 7230" d="M207.1,65.405a24.72,24.72,0,0,1,6.942.948,21.081,21.081,0,0,0,1.148-6.932H207.1Z" transform="translate(1528.313 12193.93)" fill="none" stroke="#29abe2" stroke-miterlimit="10" stroke-width="1"/>
    <path id="패스_7231" data-name="패스 7231" d="M214.039,53.415a24.713,24.713,0,0,1-6.942.948v6.153h8.09c0-.028,0-.057,0-.085A21.091,21.091,0,0,0,214.039,53.415Z" transform="translate(1528.313 12192.834)" fill="none" stroke="#29abe2" stroke-miterlimit="10" stroke-width="1"/>
    <path id="패스_7232" data-name="패스 7232" d="M208.345,54.363a24.72,24.72,0,0,1-6.942-.948,21.091,21.091,0,0,0-1.149,7.016c0,.028,0,.057,0,.085h8.09Z" transform="translate(1527.064 12192.834)" fill="none" stroke="#29abe2" stroke-miterlimit="10" stroke-width="1"/>
    <path id="패스_7233" data-name="패스 7233" d="M208.047,47.915c2.472.579,4.586,3.042,5.817,6.5a15.392,15.392,0,0,0,3.621-1.552A13.629,13.629,0,0,0,208.047,47.915Z" transform="translate(1528.485 12191.831)" fill="none" stroke="#29abe2" stroke-miterlimit="10" stroke-width="1"/>
    <path id="패스_7234" data-name="패스 7234" d="M207.6,47.915a13.629,13.629,0,0,0-9.438,4.951,15.392,15.392,0,0,0,3.62,1.552C203.016,50.957,205.13,48.494,207.6,47.915Z" transform="translate(1526.683 12191.831)" fill="none" stroke="#29abe2" stroke-miterlimit="10" stroke-width="1"/>
    <path id="패스_7235" data-name="패스 7235" d="M208.394,47.936a4.793,4.793,0,0,0-2.248,0c.371-.031.745-.05,1.124-.05S208.022,47.9,208.394,47.936Z" transform="translate(1528.139 12191.811)" fill="none" stroke="#29abe2" stroke-miterlimit="10" stroke-width="1"/>
    <path id="패스_7236" data-name="패스 7236" d="M207.1,55.374a24.719,24.719,0,0,0,6.942-.948c-1.232-3.461-3.346-5.924-5.819-6.5-.37-.031-.745-.05-1.123-.05Z" transform="translate(1528.313 12191.823)" fill="none" stroke="#29abe2" stroke-miterlimit="10" stroke-width="1"/>
    <path id="패스_7237" data-name="패스 7237" d="M208.168,47.873c-.378,0-.753.02-1.123.05-2.472.581-4.587,3.042-5.819,6.5a24.72,24.72,0,0,0,6.942.948Z" transform="translate(1527.241 12191.823)" fill="none" stroke="#29abe2" stroke-miterlimit="10" stroke-width="1"/>
    <path id="패스_7238" data-name="패스 7238" d="M207.1,71.921V72a13.629,13.629,0,0,0,10.65-5.113,15.24,15.24,0,0,0-3.708-1.608C212.623,69.259,210.045,71.921,207.1,71.921Z" transform="translate(1528.313 12194.999)" fill="none" stroke="#29abe2" stroke-miterlimit="10" stroke-width="1"/>
    <path id="패스_7239" data-name="패스 7239" d="M208.74,72.006v-.084c-2.948,0-5.527-2.662-6.942-6.637a15.149,15.149,0,0,0-3.708,1.608A13.629,13.629,0,0,0,208.74,72.006Z" transform="translate(1526.669 12194.999)" fill="none" stroke="#29abe2" stroke-miterlimit="10" stroke-width="1"/>
    <path id="패스_7240" data-name="패스 7240" d="M201.226,65.43c1.414,3.975,3.993,6.637,6.942,6.637V64.482A24.714,24.714,0,0,0,201.226,65.43Z" transform="translate(1527.241 12194.853)" fill="none" stroke="#29abe2" stroke-miterlimit="10" stroke-width="1"/>
    <path id="패스_7241" data-name="패스 7241" d="M207.1,72.067c2.948,0,5.526-2.662,6.942-6.637a24.72,24.72,0,0,0-6.942-.948Z" transform="translate(1528.313 12194.853)" fill="none" stroke="#29abe2" stroke-miterlimit="10" stroke-width="1"/>
  </g>
</svg>
