<svg xmlns="http://www.w3.org/2000/svg" xmlns:xlink="http://www.w3.org/1999/xlink" width="976" height="304.354" viewBox="0 0 976 304.354"><defs><clipPath id="a"><rect width="976" height="304.355" fill="none"/></clipPath><clipPath id="c"><rect width="438.17" height="289.998" fill="none"/></clipPath><clipPath id="d"><rect width="58.26" height="7.209" fill="none"/></clipPath><clipPath id="e"><rect width="58.26" height="7.207" fill="none"/></clipPath><clipPath id="i"><rect width="58.26" height="7.208" fill="none"/></clipPath><clipPath id="m"><rect width="8.551" height="8.94" fill="none"/></clipPath><clipPath id="q"><rect width="8.55" height="8.94" fill="none"/></clipPath><clipPath id="al"><rect width="521.694" height="277.081" fill="none"/></clipPath><clipPath id="am"><rect width="59.201" height="7.207" fill="none"/></clipPath><clipPath id="ap"><rect width="59.201" height="7.209" fill="none"/></clipPath><clipPath id="ar"><rect width="59.201" height="7.208" fill="none"/></clipPath><clipPath id="bu"><rect width="217.329" height="259.661" fill="none"/></clipPath></defs><g opacity="0.3" clip-path="url(#a)"><g clip-path="url(#a)"><g transform="translate(176.592)" opacity="0.46"><g clip-path="url(#c)"><path d="M553.9,273.3V149.84a6.524,6.524,0,0,0-6.374-6.665H490.9a6.524,6.524,0,0,0-6.374,6.665v93.884a6.524,6.524,0,0,1-6.374,6.665H408.361a6.524,6.524,0,0,1-6.374-6.665V21.547a6.526,6.526,0,0,0-6.375-6.665H327.576a6.524,6.524,0,0,0-6.374,6.665V182.73a6.526,6.526,0,0,1-6.375,6.665H286.306a6.526,6.526,0,0,1-6.375-6.665V6.677c0-5.587-6.18-8.694-10.355-5.2L218.224,44.4a6.782,6.782,0,0,0-2.394,5.2v36.9a6.524,6.524,0,0,1-6.374,6.665H122.1a6.523,6.523,0,0,0-6.374,6.663v183.5A6.523,6.523,0,0,0,122.1,290H547.524a6.523,6.523,0,0,0,6.374-6.665Z" transform="translate(-115.728 0)" fill="#a8dff4"/></g></g><path d="M89.035,201.63v86.938a4.86,4.86,0,0,0,4.747,4.965h512.2a4.86,4.86,0,0,0,4.747-4.965V212.556a4.859,4.859,0,0,0-4.747-4.965h-33.3a4.86,4.86,0,0,0-4.749,4.965v27.566a4.86,4.86,0,0,1-4.749,4.965H528.3a4.86,4.86,0,0,1-4.749-4.965V113.831a4.859,4.859,0,0,0-4.747-4.965H488.532a4.859,4.859,0,0,0-4.749,4.965V214.192a4.753,4.753,0,1,1-9.5,0V38.837a4.859,4.859,0,0,0-4.747-4.965h-71.39a4.859,4.859,0,0,0-4.747,4.965V270.073a4.86,4.86,0,0,1-4.749,4.965H358.476a4.859,4.859,0,0,1-4.747-4.965V145.367a4.86,4.86,0,0,0-4.749-4.965H276.352a4.861,4.861,0,0,0-4.749,4.965v92.676a4.859,4.859,0,0,1-4.747,4.965H217.49a4.86,4.86,0,0,1-4.749-4.965V21.417a4.859,4.859,0,0,0-4.749-4.965H146.876a4.859,4.859,0,0,0-4.747,4.965V191.7a4.86,4.86,0,0,1-4.749,4.965h-43.6a4.859,4.859,0,0,0-4.747,4.965" transform="translate(46.825 9.735)" fill="#a8dff4"/><g transform="translate(450.502 58.296)" style="mix-blend-mode:multiply;isolation:isolate"><g clip-path="url(#d)"><rect width="58.26" height="7.207" transform="translate(0 0.002)" fill="#a8dff4"/></g></g><g transform="translate(450.502 76.496)" style="mix-blend-mode:multiply;isolation:isolate"><g clip-path="url(#e)"><rect width="58.26" height="7.207" fill="#a8dff4"/></g></g><g transform="translate(450.502 94.696)" style="mix-blend-mode:multiply;isolation:isolate"><g clip-path="url(#e)"><rect width="58.26" height="7.207" transform="translate(0 0)" fill="#a8dff4"/></g></g><g transform="translate(450.502 112.896)" style="mix-blend-mode:multiply;isolation:isolate"><g clip-path="url(#e)"><rect width="58.26" height="7.207" fill="#a8dff4"/></g></g><g transform="translate(450.502 131.096)" style="mix-blend-mode:multiply;isolation:isolate"><g clip-path="url(#e)"><rect width="58.26" height="7.207" fill="#a8dff4"/></g></g><g transform="translate(450.502 149.295)" style="mix-blend-mode:multiply;isolation:isolate"><g clip-path="url(#i)"><rect width="58.26" height="7.207" transform="translate(0 0.001)" fill="#a8dff4"/></g></g><g transform="translate(450.502 167.494)" style="mix-blend-mode:multiply;isolation:isolate"><g clip-path="url(#i)"><rect width="58.26" height="7.209" fill="#a8dff4"/></g></g><g transform="translate(450.502 185.694)" style="mix-blend-mode:multiply;isolation:isolate"><g clip-path="url(#i)"><rect width="58.26" height="7.207" transform="translate(0 0)" fill="#a8dff4"/></g></g><g transform="translate(450.502 203.893)" style="mix-blend-mode:multiply;isolation:isolate"><g clip-path="url(#i)"><rect width="58.26" height="7.207" transform="translate(0 0)" fill="#a8dff4"/></g></g><g transform="translate(385.15 158.554)" style="mix-blend-mode:multiply;isolation:isolate"><g clip-path="url(#m)"><rect width="8.551" height="8.939" transform="translate(0 0)" fill="#a8dff4"/></g></g><g transform="translate(370.442 158.554)" style="mix-blend-mode:multiply;isolation:isolate"><g clip-path="url(#m)"><rect width="8.551" height="8.939" transform="translate(0 0)" fill="#a8dff4"/></g></g><g transform="translate(355.733 158.554)" style="mix-blend-mode:multiply;isolation:isolate"><g clip-path="url(#m)"><rect width="8.551" height="8.939" transform="translate(0 0)" fill="#a8dff4"/></g></g><g transform="translate(341.025 158.554)" style="mix-blend-mode:multiply;isolation:isolate"><g clip-path="url(#m)"><rect width="8.551" height="8.939" transform="translate(0 0)" fill="#a8dff4"/></g></g><g transform="translate(326.318 158.554)" style="mix-blend-mode:multiply;isolation:isolate"><g clip-path="url(#q)"><rect width="8.551" height="8.939" transform="translate(0 0)" fill="#a8dff4"/></g></g><g transform="translate(385.15 173.013)" style="mix-blend-mode:multiply;isolation:isolate"><g clip-path="url(#m)"><rect width="8.551" height="8.941" transform="translate(0 -0.001)" fill="#a8dff4"/></g></g><g transform="translate(370.442 173.013)" style="mix-blend-mode:multiply;isolation:isolate"><g clip-path="url(#m)"><rect width="8.551" height="8.941" transform="translate(0 -0.001)" fill="#a8dff4"/></g></g><g transform="translate(355.733 173.013)" style="mix-blend-mode:multiply;isolation:isolate"><g clip-path="url(#m)"><rect width="8.551" height="8.941" transform="translate(0 -0.001)" fill="#a8dff4"/></g></g><g transform="translate(341.025 173.013)" style="mix-blend-mode:multiply;isolation:isolate"><g clip-path="url(#m)"><rect width="8.551" height="8.941" transform="translate(0 -0.001)" fill="#a8dff4"/></g></g><g transform="translate(326.318 173.013)" style="mix-blend-mode:multiply;isolation:isolate"><g clip-path="url(#q)"><rect width="8.551" height="8.941" transform="translate(0 -0.001)" fill="#a8dff4"/></g></g><g transform="translate(385.15 187.473)" style="mix-blend-mode:multiply;isolation:isolate"><g clip-path="url(#m)"><rect width="8.551" height="8.941" transform="translate(0 -0.001)" fill="#a8dff4"/></g></g><g transform="translate(370.442 187.473)" style="mix-blend-mode:multiply;isolation:isolate"><g clip-path="url(#m)"><rect width="8.551" height="8.941" transform="translate(0 -0.001)" fill="#a8dff4"/></g></g><g transform="translate(355.733 187.473)" style="mix-blend-mode:multiply;isolation:isolate"><g clip-path="url(#m)"><rect width="8.551" height="8.941" transform="translate(0 -0.001)" fill="#a8dff4"/></g></g><g transform="translate(341.025 187.473)" style="mix-blend-mode:multiply;isolation:isolate"><g clip-path="url(#m)"><rect width="8.551" height="8.941" transform="translate(0 -0.001)" fill="#a8dff4"/></g></g><g transform="translate(326.318 187.473)" style="mix-blend-mode:multiply;isolation:isolate"><g clip-path="url(#q)"><rect width="8.551" height="8.941" transform="translate(0 -0.001)" fill="#a8dff4"/></g></g><g transform="translate(385.15 201.932)" style="mix-blend-mode:multiply;isolation:isolate"><g clip-path="url(#m)"><rect width="8.551" height="8.941" transform="translate(0 0)" fill="#a8dff4"/></g></g><g transform="translate(370.442 201.932)" style="mix-blend-mode:multiply;isolation:isolate"><g clip-path="url(#m)"><rect width="8.551" height="8.941" transform="translate(0 0)" fill="#a8dff4"/></g></g><g transform="translate(355.733 201.932)" style="mix-blend-mode:multiply;isolation:isolate"><g clip-path="url(#m)"><rect width="8.551" height="8.941" transform="translate(0 0)" fill="#a8dff4"/></g></g><g transform="translate(341.025 201.932)" style="mix-blend-mode:multiply;isolation:isolate"><g clip-path="url(#m)"><rect width="8.551" height="8.941" transform="translate(0 0)" fill="#a8dff4"/></g></g><g transform="translate(326.318 201.932)" style="mix-blend-mode:multiply;isolation:isolate"><g clip-path="url(#q)"><rect width="8.551" height="8.941" transform="translate(0 0)" fill="#a8dff4"/></g></g><g transform="translate(385.15 216.391)" style="mix-blend-mode:multiply;isolation:isolate"><g clip-path="url(#m)"><rect width="8.551" height="8.941" transform="translate(0 0)" fill="#a8dff4"/></g></g><g transform="translate(370.442 216.391)" style="mix-blend-mode:multiply;isolation:isolate"><g clip-path="url(#m)"><rect width="8.551" height="8.941" transform="translate(0 0)" fill="#a8dff4"/></g></g><g transform="translate(355.733 216.391)" style="mix-blend-mode:multiply;isolation:isolate"><g clip-path="url(#m)"><rect width="8.551" height="8.941" transform="translate(0 0)" fill="#a8dff4"/></g></g><g transform="translate(341.025 216.391)" style="mix-blend-mode:multiply;isolation:isolate"><g clip-path="url(#m)"><rect width="8.551" height="8.941" transform="translate(0 0)" fill="#a8dff4"/></g></g><g transform="translate(326.318 216.391)" style="mix-blend-mode:multiply;isolation:isolate"><g clip-path="url(#q)"><rect width="8.551" height="8.941" transform="translate(0 0)" fill="#a8dff4"/></g></g><path d="M703.573,287.869a8.2,8.2,0,0,0,8.01-8.374V99.418a8.2,8.2,0,0,0-8.01-8.374H619.489a8.2,8.2,0,0,1-8.01-8.373V13.824c0-7.639-8.983-11.289-13.916-5.654L549.479,63.087a8.588,8.588,0,0,0-2.1,5.654V178.892a8.2,8.2,0,0,1-8.01,8.373H514.116a8.2,8.2,0,0,1-8.008-8.373V21.129a8.2,8.2,0,0,0-8.01-8.374H433.332a8.2,8.2,0,0,0-8.01,8.374V287.869Z" transform="translate(223.686 16.406)" fill="#a8dff4"/><g transform="translate(454.306 27.274)" opacity="0.45"><g clip-path="url(#al)"><path d="M819.42,202.313v86.938a4.859,4.859,0,0,1-4.749,4.965h-512.2a4.859,4.859,0,0,1-4.747-4.965V213.239a4.859,4.859,0,0,1,4.747-4.965h33.3a4.859,4.859,0,0,1,4.747,4.965v27.567a4.86,4.86,0,0,0,4.749,4.963h34.893a4.859,4.859,0,0,0,4.747-4.963V114.514a4.861,4.861,0,0,1,4.749-4.965h30.268a4.859,4.859,0,0,1,4.749,4.965V214.875a4.753,4.753,0,1,0,9.5,0V39.52a4.861,4.861,0,0,1,4.749-4.965h71.39a4.861,4.861,0,0,1,4.749,4.965V270.756a4.859,4.859,0,0,0,4.747,4.965h30.176a4.859,4.859,0,0,0,4.747-4.965V146.05a4.861,4.861,0,0,1,4.749-4.965H632.1a4.86,4.86,0,0,1,4.749,4.965v92.676a4.859,4.859,0,0,0,4.747,4.965h49.366a4.86,4.86,0,0,0,4.749-4.965V22.1a4.859,4.859,0,0,1,4.749-4.965h61.116a4.859,4.859,0,0,1,4.747,4.965V192.386a4.859,4.859,0,0,0,4.749,4.963h43.6a4.861,4.861,0,0,1,4.749,4.965" transform="translate(-297.726 -17.135)" fill="#a8dff4"/></g></g><g transform="translate(600.657 59.383)" style="mix-blend-mode:multiply;isolation:isolate"><g clip-path="url(#am)"><rect width="59.201" height="7.207" transform="translate(0)" fill="#a8dff4"/></g></g><g transform="translate(600.657 77.583)" style="mix-blend-mode:multiply;isolation:isolate"><g clip-path="url(#am)"><rect width="59.201" height="7.207" transform="translate(0)" fill="#a8dff4"/></g></g><g transform="translate(600.657 95.783)" style="mix-blend-mode:multiply;isolation:isolate"><g clip-path="url(#am)"><rect width="59.201" height="7.207" transform="translate(0)" fill="#a8dff4"/></g></g><g transform="translate(600.657 113.981)" style="mix-blend-mode:multiply;isolation:isolate"><g clip-path="url(#ap)"><rect width="59.201" height="7.207" transform="translate(0 0.002)" fill="#a8dff4"/></g></g><g transform="translate(600.657 132.181)" style="mix-blend-mode:multiply;isolation:isolate"><g clip-path="url(#ap)"><rect width="59.201" height="7.207" transform="translate(0 0.002)" fill="#a8dff4"/></g></g><g transform="translate(600.657 150.381)" style="mix-blend-mode:multiply;isolation:isolate"><g clip-path="url(#ar)"><rect width="59.201" height="7.207" transform="translate(0 0.001)" fill="#a8dff4"/></g></g><g transform="translate(600.657 168.581)" style="mix-blend-mode:multiply;isolation:isolate"><g clip-path="url(#ar)"><rect width="59.201" height="7.207" transform="translate(0)" fill="#a8dff4"/></g></g><g transform="translate(600.657 186.78)" style="mix-blend-mode:multiply;isolation:isolate"><g clip-path="url(#ar)"><rect width="59.201" height="7.209" transform="translate(0 -0.001)" fill="#a8dff4"/></g></g><g transform="translate(600.657 204.98)" style="mix-blend-mode:multiply;isolation:isolate"><g clip-path="url(#ar)"><rect width="59.201" height="7.207" transform="translate(0 0.001)" fill="#a8dff4"/></g></g><g transform="translate(718.159 159.641)" style="mix-blend-mode:multiply;isolation:isolate"><g clip-path="url(#m)"><rect width="8.551" height="8.941" transform="translate(0 -0.001)" fill="#a8dff4"/></g></g><g transform="translate(732.867 159.641)" style="mix-blend-mode:multiply;isolation:isolate"><g clip-path="url(#q)"><rect width="8.551" height="8.941" transform="translate(-0.002 -0.001)" fill="#a8dff4"/></g></g><g transform="translate(747.576 159.641)" style="mix-blend-mode:multiply;isolation:isolate"><g clip-path="url(#q)"><rect width="8.551" height="8.941" transform="translate(-0.002 -0.001)" fill="#a8dff4"/></g></g><g transform="translate(762.283 159.641)" style="mix-blend-mode:multiply;isolation:isolate"><g clip-path="url(#m)"><rect width="8.551" height="8.941" transform="translate(0 -0.001)" fill="#a8dff4"/></g></g><g transform="translate(776.991 159.641)" style="mix-blend-mode:multiply;isolation:isolate"><g clip-path="url(#m)"><rect width="8.551" height="8.941" transform="translate(0 -0.001)" fill="#a8dff4"/></g></g><g transform="translate(718.159 174.101)" style="mix-blend-mode:multiply;isolation:isolate"><g clip-path="url(#m)"><rect width="8.551" height="8.939" transform="translate(0 0.001)" fill="#a8dff4"/></g></g><g transform="translate(732.867 174.101)" style="mix-blend-mode:multiply;isolation:isolate"><g clip-path="url(#q)"><rect width="8.551" height="8.939" transform="translate(-0.002 0.001)" fill="#a8dff4"/></g></g><g transform="translate(747.576 174.101)" style="mix-blend-mode:multiply;isolation:isolate"><g clip-path="url(#q)"><rect width="8.551" height="8.939" transform="translate(-0.002 0.001)" fill="#a8dff4"/></g></g><g transform="translate(762.283 174.101)" style="mix-blend-mode:multiply;isolation:isolate"><g clip-path="url(#m)"><rect width="8.551" height="8.939" transform="translate(0 0.001)" fill="#a8dff4"/></g></g><g transform="translate(776.991 174.101)" style="mix-blend-mode:multiply;isolation:isolate"><g clip-path="url(#m)"><rect width="8.551" height="8.939" transform="translate(0 0.001)" fill="#a8dff4"/></g></g><g transform="translate(718.159 188.559)" style="mix-blend-mode:multiply;isolation:isolate"><g clip-path="url(#m)"><rect width="8.551" height="8.941" transform="translate(0 0)" fill="#a8dff4"/></g></g><g transform="translate(732.867 188.559)" style="mix-blend-mode:multiply;isolation:isolate"><g clip-path="url(#q)"><rect width="8.551" height="8.941" transform="translate(-0.002 0)" fill="#a8dff4"/></g></g><g transform="translate(747.576 188.559)" style="mix-blend-mode:multiply;isolation:isolate"><g clip-path="url(#q)"><rect width="8.551" height="8.941" transform="translate(-0.002 0)" fill="#a8dff4"/></g></g><g transform="translate(762.283 188.559)" style="mix-blend-mode:multiply;isolation:isolate"><g clip-path="url(#m)"><rect width="8.551" height="8.941" transform="translate(0 0)" fill="#a8dff4"/></g></g><g transform="translate(776.991 188.559)" style="mix-blend-mode:multiply;isolation:isolate"><g clip-path="url(#m)"><rect width="8.551" height="8.941" transform="translate(0 0)" fill="#a8dff4"/></g></g><g transform="translate(718.159 203.019)" style="mix-blend-mode:multiply;isolation:isolate"><g clip-path="url(#m)"><rect width="8.551" height="8.941" transform="translate(0 0)" fill="#a8dff4"/></g></g><g transform="translate(732.867 203.019)" style="mix-blend-mode:multiply;isolation:isolate"><g clip-path="url(#q)"><rect width="8.551" height="8.941" transform="translate(-0.002 0)" fill="#a8dff4"/></g></g><g transform="translate(747.576 203.019)" style="mix-blend-mode:multiply;isolation:isolate"><g clip-path="url(#q)"><rect width="8.551" height="8.941" transform="translate(-0.002 0)" fill="#a8dff4"/></g></g><g transform="translate(762.283 203.019)" style="mix-blend-mode:multiply;isolation:isolate"><g clip-path="url(#m)"><rect width="8.551" height="8.941" transform="translate(0 0)" fill="#a8dff4"/></g></g><g transform="translate(776.991 203.019)" style="mix-blend-mode:multiply;isolation:isolate"><g clip-path="url(#m)"><rect width="8.551" height="8.941" transform="translate(0 0)" fill="#a8dff4"/></g></g><g transform="translate(718.159 217.478)" style="mix-blend-mode:multiply;isolation:isolate"><g clip-path="url(#m)"><rect width="8.551" height="8.941" transform="translate(0 0)" fill="#a8dff4"/></g></g><g transform="translate(732.867 217.478)" style="mix-blend-mode:multiply;isolation:isolate"><g clip-path="url(#q)"><rect width="8.551" height="8.941" transform="translate(-0.002 0)" fill="#a8dff4"/></g></g><g transform="translate(747.576 217.478)" style="mix-blend-mode:multiply;isolation:isolate"><g clip-path="url(#q)"><rect width="8.551" height="8.941" transform="translate(-0.002 0)" fill="#a8dff4"/></g></g><g transform="translate(762.283 217.478)" style="mix-blend-mode:multiply;isolation:isolate"><g clip-path="url(#m)"><rect width="8.551" height="8.941" transform="translate(0 0)" fill="#a8dff4"/></g></g><g transform="translate(776.991 217.478)" style="mix-blend-mode:multiply;isolation:isolate"><g clip-path="url(#m)"><rect width="8.551" height="8.941" transform="translate(0 0)" fill="#a8dff4"/></g></g><g transform="translate(0 44.694)" opacity="0.45"><g clip-path="url(#bu)"><path d="M212.581,201.8h-33.3a4.86,4.86,0,0,0-4.749,4.965v27.566a4.859,4.859,0,0,1-4.749,4.965H134.894a4.859,4.859,0,0,1-4.747-4.965V108.038a4.86,4.86,0,0,0-4.749-4.965H95.13a4.861,4.861,0,0,0-4.749,4.965V208.4a4.753,4.753,0,1,1-9.5,0V33.044a4.86,4.86,0,0,0-4.749-4.965H4.749A4.86,4.86,0,0,0,0,33.044V256.955H.055V287.74H212.581a4.861,4.861,0,0,0,4.749-4.965V206.763a4.861,4.861,0,0,0-4.749-4.965" transform="translate(0 -28.079)" fill="#a8dff4"/></g></g><g transform="translate(11.777 59.383)" style="mix-blend-mode:multiply;isolation:isolate"><g clip-path="url(#am)"><rect width="59.201" height="7.207" transform="translate(0)" fill="#a8dff4"/></g></g><g transform="translate(11.777 77.583)" style="mix-blend-mode:multiply;isolation:isolate"><g clip-path="url(#am)"><rect width="59.201" height="7.207" transform="translate(0)" fill="#a8dff4"/></g></g><g transform="translate(11.777 95.783)" style="mix-blend-mode:multiply;isolation:isolate"><g clip-path="url(#am)"><rect width="59.201" height="7.207" transform="translate(0)" fill="#a8dff4"/></g></g><g transform="translate(11.777 113.981)" style="mix-blend-mode:multiply;isolation:isolate"><g clip-path="url(#ap)"><rect width="59.201" height="7.207" transform="translate(0 0.002)" fill="#a8dff4"/></g></g><g transform="translate(11.777 132.181)" style="mix-blend-mode:multiply;isolation:isolate"><g clip-path="url(#ap)"><rect width="59.201" height="7.207" transform="translate(0 0.002)" fill="#a8dff4"/></g></g><g transform="translate(11.777 150.381)" style="mix-blend-mode:multiply;isolation:isolate"><g clip-path="url(#ar)"><rect width="59.201" height="7.207" transform="translate(0 0.001)" fill="#a8dff4"/></g></g><g transform="translate(11.777 168.581)" style="mix-blend-mode:multiply;isolation:isolate"><g clip-path="url(#ar)"><rect width="59.201" height="7.207" transform="translate(0)" fill="#a8dff4"/></g></g><g transform="translate(11.777 186.78)" style="mix-blend-mode:multiply;isolation:isolate"><g clip-path="url(#ar)"><rect width="59.201" height="7.209" transform="translate(0 -0.001)" fill="#a8dff4"/></g></g><g transform="translate(11.777 204.98)" style="mix-blend-mode:multiply;isolation:isolate"><g clip-path="url(#ar)"><rect width="59.201" height="7.207" transform="translate(0 0.001)" fill="#a8dff4"/></g></g></g></g></svg>