<svg xmlns="http://www.w3.org/2000/svg" xmlns:xlink="http://www.w3.org/1999/xlink" width="25.098" height="154.618" viewBox="0 0 25.098 154.618"><defs><clipPath id="a"><rect width="17.046" height="31.114" fill="#e9e5e5"/></clipPath></defs><rect width="3.931" height="124.6" transform="translate(10.584 30.018)" fill="#603a23"/><path d="M70.531,570.732h-1.31a.338.338,0,0,1-.338-.338v-5.055a.338.338,0,0,1,.338-.338h1.31a.338.338,0,0,1,.338.338v5.055a.338.338,0,0,1-.338.338" transform="translate(-57.327 -565)" fill="#9e6d4f"/><g transform="translate(4.026 5.641)" style="isolation:isolate"><g transform="translate(0 0)"><g clip-path="url(#a)"><path d="M66.247,609.1H53.891l-2.345-31.114H68.592Z" transform="translate(-51.546 -577.987)" fill="#e9e5e5"/></g></g></g><path d="M66.638,634.623H54.282l-2.017-9.665a1.3,1.3,0,0,1,1.27-1.573h13.85a1.3,1.3,0,0,1,1.27,1.573Z" transform="translate(-47.911 -598.027)" fill="#9e6d4f"/><path d="M67.428,576.943H49.56a.8.8,0,0,1-.8-.8v-2.807H68.226v2.807a.8.8,0,0,1-.8.8" transform="translate(-45.945 -569.716)" fill="#9e6d4f"/><path d="M66.2,571.6H43.455a1.182,1.182,0,0,1-1.179-1.185,1.965,1.965,0,0,1,1.959-1.97h21.18a1.965,1.965,0,0,1,1.959,1.97A1.182,1.182,0,0,1,66.2,571.6" transform="translate(-42.276 -566.948)" fill="#603a23"/><path d="M68.479,652.309h-12.1a.682.682,0,0,1-.682-.682v-2.08a.682.682,0,0,1,.682-.683h12.1a.682.682,0,0,1,.682.683v2.08a.682.682,0,0,1-.682.682" transform="translate(-49.867 -612.44)" fill="#603a23"/></svg>