<svg xmlns="http://www.w3.org/2000/svg" xmlns:xlink="http://www.w3.org/1999/xlink" width="61.285" height="97.088" viewBox="0 0 61.285 97.088"><defs><clipPath id="a"><rect width="16.05" height="30.947" fill="none"/></clipPath><clipPath id="c"><rect width="10.454" height="25.026" fill="none"/></clipPath><clipPath id="d"><rect width="12.354" height="32.311" fill="none"/></clipPath></defs><g transform="translate(-718.757 -13096.898)"><g transform="translate(718.757 13100.425)"><circle cx="5.179" cy="5.179" r="5.179" transform="translate(0 83.203)" fill="#4d4d4d"/><circle cx="5.179" cy="5.179" r="5.179" transform="translate(50.926 83.203)" fill="#4d4d4d"/><rect width="61.284" height="67.326" transform="translate(0 21.056)" fill="#fbc353"/><path d="M6.5,0H54.536a6.5,6.5,0,0,1,6.5,6.5V22.643c0,3.592-2.912,2.873-6.5,2.873H6.5c-3.592,0-6.5,2.333-6.5-1.259V6.5A6.5,6.5,0,0,1,6.5,0Z" transform="translate(0.245 0)" fill="#fbc353"/><rect width="40.569" height="6.905" rx="3.453" transform="translate(10.358 9.835)" fill="#e9e5e5"/></g><g transform="translate(748.652 13100.905) rotate(-9)"><g transform="translate(0 0)" clip-path="url(#a)"><rect width="12.566" height="1.289" transform="translate(0 10.649)" fill="#fff"/><path d="M0,0,1.611,19.331H9.988L11.6,0Z" transform="translate(0.483 11.615)" fill="#fff"/><g transform="translate(0 0)"><g clip-path="url(#a)"><path d="M0,5.8a5.8,5.8,0,1,1,11.6,0Z" transform="translate(0.483 4.849)" fill="#fff"/><g transform="translate(5.596 0)" opacity="0.3" style="isolation:isolate"><g transform="translate(0 0)"><g clip-path="url(#c)"><path d="M2.217,0A2.388,2.388,0,0,0,0,2.217V25.026H1.267V2.217a1.12,1.12,0,0,1,.95-.95h8.236V0Z" transform="translate(0 0)" fill="#56b4e8"/></g></g></g></g></g></g></g><g transform="translate(740.608 13096.898) rotate(19)"><g transform="translate(0 0)" clip-path="url(#d)"><path d="M4.405,2.217H.346A.346.346,0,0,1,0,1.871V.346A.346.346,0,0,1,.346,0h4.06a.346.346,0,0,1,.346.346V1.871a.346.346,0,0,1-.346.346" transform="translate(3.801 0)" fill="#b3dcf2"/><path d="M12.354,5.332A5.348,5.348,0,0,0,7.022,0H5.332A5.348,5.348,0,0,0,0,5.332v5.262a3.01,3.01,0,0,0,.768,2A2.245,2.245,0,0,0,0,14.29V27.841a2.253,2.253,0,0,0,2.253,2.253H10.1a2.253,2.253,0,0,0,2.253-2.253V14.29a2.245,2.245,0,0,0-.768-1.691,3.01,3.01,0,0,0,.768-2Z" transform="translate(0 2.217)" fill="#fff" opacity="0.8"/></g></g><path d="M0,0H41.527V14.009H0Z" transform="translate(729.008 13117.436)" fill="#fbc353"/><path d="M185.064,33.467l-7.738-4.637,3.054-5.338c1.884-3.145,5.334-3.288,7.647.639.334.568,1.383,2.324,1.383,2.324Z" transform="translate(560.946 13115.498)" fill="#fff"/><path d="M220.949,53.535l7.9-4.365,3.108,5.307c1.788,3.2.188,6.252-4.379,6.286-.661,0-2.71.032-2.71.032Z" transform="translate(536.137 13099.565)" fill="#fff"/><path d="M200.017,31.75l9.125.388,4.217-7.442L210.694,26.1l-2.089-3.715c-1.173-1.57-1.37-2.206-6.978-2.206h-6.754l.042.022a5.143,5.143,0,0,1,3.633,2.68l4.094,7.476Z" transform="translate(550.967 13116.051)" fill="#fff"/><path d="M210.948,70.352l-4.9,7.688L210.4,85.4l.11-3.006,4.27.053c1.949-.228,2.6-.081,5.4-4.925l3.376-5.834-.041.025a4.779,4.779,0,0,1-4.053,1.666H210.93Z" transform="translate(544.61 13087.518)" fill="#fff"/><path d="M175.239,56.5l-4.225-8.075-8.571.078L165,50.1l-2.182,3.661c-2.112,3.8,1.2,6.61,4.9,6.61h1.657l3.347-5.445Z" transform="translate(569.573 13099.989)" fill="#fff"/><path d="M179.717,74.783,179.627,84h-7.583a4.566,4.566,0,0,1-3.872-2.462c-1.086-2.177-4.619-8.726-4.619-8.726a5.219,5.219,0,0,0,4.118,1.97c4.9.119,12.046,0,12.046,0" transform="translate(568.78 13086.118)" fill="#fff"/></g></svg>