<svg id="p13_pibi" xmlns="http://www.w3.org/2000/svg" xmlns:xlink="http://www.w3.org/1999/xlink" width="238.667" height="331.979" viewBox="0 0 238.667 331.979">
  <defs>
    <clipPath id="clip-path">
      <rect id="사각형_2074" data-name="사각형 2074" width="238.667" height="331.979" fill="none"/>
    </clipPath>
    <clipPath id="clip-path-3">
      <rect id="사각형_2066" data-name="사각형 2066" width="52.053" height="50.026" transform="translate(33.973 250.773)" fill="none"/>
    </clipPath>
    <clipPath id="clip-path-5">
      <path id="패스_7279" data-name="패스 7279" d="M33.227,101.51c4.386,29.4,30.062,67.412,56.954,78.4,27.059,11.06,76.071,21.52,92.641-4.3,8.125-12.659,4.231-33.681-18.809-51.248-17.2-13.117-17.244-35.03-36.379-52.039-9-8-17-14-30.213-16.712a97.728,97.728,0,0,0-19.593-2.147c-34.392,0-48.342,22.956-44.6,48.041" fill="none"/>
    </clipPath>
    <clipPath id="clip-path-7">
      <path id="패스_7282" data-name="패스 7282" d="M101.813,134.77c-20.991,5.214-43.973,3.029-58.832-4.226a132.581,132.581,0,0,0,11.992,19.415c14.762,5.678,35.384,7.026,54.384,2.307,22.389-5.562,36.622-22.245,41.277-46.938-3.319-6.777-7.251-12.027-11-19,1,23-14.347,42.61-37.821,48.441" fill="none"/>
    </clipPath>
    <clipPath id="clip-path-9">
      <path id="패스_7285" data-name="패스 7285" d="M139.251,163.192c-10.493,6.219-46.29,17.079-66.389,5.955a67.441,67.441,0,0,0,17.319,10.766c4.243,1.735,9.024,3.453,14.136,5.02,16.512,1.428,33.729-1.631,45.039-7.679,12.248-6.55,23.688-23.934,23.574-44.967a76.97,76.97,0,0,0-8.917-7.92,33.809,33.809,0,0,1-4.625-4.321c.666,20.806-8.256,36.105-20.137,43.146" fill="none"/>
    </clipPath>
    <clipPath id="clip-path-11">
      <rect id="사각형_2070" data-name="사각형 2070" width="17.784" height="8.957" transform="translate(93.496 86.813)" fill="none"/>
    </clipPath>
    <clipPath id="clip-path-12">
      <rect id="사각형_2071" data-name="사각형 2071" width="4.857" height="6.44" transform="translate(34.518 74.631)" fill="none"/>
    </clipPath>
    <clipPath id="clip-path-13">
      <rect id="사각형_2072" data-name="사각형 2072" width="17.914" height="6.99" transform="translate(57.092 85.697)" fill="none"/>
    </clipPath>
  </defs>
  <g id="그룹_3851" data-name="그룹 3851" clip-path="url(#clip-path)">
    <g id="그룹_3825" data-name="그룹 3825">
      <g id="그룹_3824" data-name="그룹 3824" clip-path="url(#clip-path)">
        <path id="패스_7242" data-name="패스 7242" d="M145.439,138.461s1.667-.393,1.094-5.637c-.667-6.1-2.159-20.419-.362-45.615s9.2-82.766-9.061-86.576S99.623,10.3,89.421,39.455s-2.075,54.138,25.721,78.081,27.012,21.225,30.3,20.925" fill="#f2f2f2"/>
        <path id="패스_7243" data-name="패스 7243" d="M140.449,118.972s-1.269-1.15,1.766-5.463c3.533-5.02,11.758-16.834,22.362-39.76s31.94-76.907,49.771-71.417,28.148,26.579,22.99,57.035-24.347,48.4-60.253,55.927-33.905,5.528-36.636,3.678" fill="#f2f2f2"/>
        <path id="패스_7244" data-name="패스 7244" d="M107.778,331.979H12.222a4.251,4.251,0,0,1-4.239-3.928L.012,223.638a4.252,4.252,0,0,1,4.239-4.575h111.5a4.251,4.251,0,0,1,4.239,4.575l-7.97,104.413a4.252,4.252,0,0,1-4.239,3.928" fill="#c9ab80"/>
        <path id="패스_7245" data-name="패스 7245" d="M85.667,185.572c-10.535-14.945-30.5-17.332-43.289-7.25-13.408,10.573-11.11,50.222-11.11,50.222h7.7c-.163-4.117-1.028-34.463,8.465-42.984,9.718-8.723,24.894-6.658,32.9,6.273,7.362,11.889,5.371,33.331,5,36.711h6.84s4.023-28.027-6.512-42.972" fill="#c9ab80"/>
      </g>
    </g>
    <g id="그룹_3827" data-name="그룹 3827">
      <g id="그룹_3826" data-name="그룹 3826" clip-path="url(#clip-path-3)">
        <path id="패스_7246" data-name="패스 7246" d="M85.442,272.523l-2.326-6.679-12.572,7.329,6.032,11.086a25.506,25.506,0,0,0,7.781-2.606l.006-.01a10.47,10.47,0,0,0,1.085-9.12" fill="#f9f4e8"/>
        <path id="패스_7247" data-name="패스 7247" d="M68.923,284.8l1.334-3.622-11.62,8.952L63.5,300.8l1.335-2.953s6.762,0,10-1.619,9.526-14.572,9.526-14.572a25.514,25.514,0,0,1-7.778,2.61,34.546,34.546,0,0,1-7.651.533" fill="#f9f4e8"/>
        <path id="패스_7248" data-name="패스 7248" d="M43.89,284.332a25.524,25.524,0,0,0-1.148,8.124l.006.009a10.472,10.472,0,0,0,7.672,5.05l7.015.909L56.5,283.9Z" fill="#f9f4e8"/>
        <path id="패스_7249" data-name="패스 7249" d="M43.889,284.332a34.439,34.439,0,0,1,2.946-7.081l2.639,2.812-2.8-14.4-11.712-.431L37,267.749s-3.032,6.046-3.032,9.664,8.769,15.044,8.769,15.044a25.51,25.51,0,0,1,1.148-8.125" fill="#f9f4e8"/>
        <path id="패스_7250" data-name="패스 7250" d="M60.668,256.73a25.516,25.516,0,0,0-6.5-5.006h-.012a10.469,10.469,0,0,0-8.181,4.182l-4.25,5.652,13.093,6.357Z" fill="#f9f4e8"/>
        <path id="패스_7251" data-name="패스 7251" d="M60.666,256.73a34.556,34.556,0,0,1,4.705,6.058l-3.747.908,13.91,4.664,6.153-9.974-3.195.537s-3.767-5.613-6.916-7.4-17.407.206-17.407.206a25.494,25.494,0,0,1,6.5,5.006" fill="#f9f4e8"/>
      </g>
    </g>
    <g id="그룹_3829" data-name="그룹 3829">
      <g id="그룹_3828" data-name="그룹 3828" clip-path="url(#clip-path)">
        <path id="패스_7252" data-name="패스 7252" d="M58.607,131.807c-2.445-.424-16.871,23.247-13.3,36.619s12.939,11.207,11.913.558-5.118-13.095,1.041-27.2c2.676-6.129,3.055-9.507.348-9.976" fill="#001a1a"/>
        <path id="패스_7253" data-name="패스 7253" d="M90.063,23.559c.548-2.9,1.193-5.82,2.885-8.293a11.021,11.021,0,0,1,6.429-4.313c5.412-1.4,10.787.9,14.538,4.81,4.2,4.382,6.167,10.255,7.334,16.093a135.187,135.187,0,0,1,2.287,20.093q.262,5.59.11,11.189c-.105,3.888-.535,7.764-.6,11.65-.016.929,1.476,1.177,1.657.224a72.685,72.685,0,0,0,.944-11.388q.167-5.594-.082-11.189a129.909,129.909,0,0,0-2.592-21.514c-1.31-6.083-3.635-12.161-8.153-16.6-4.006-3.935-9.536-6.171-15.148-4.973a12.743,12.743,0,0,0-7.391,4.437c-2.111,2.69-2.737,6.186-3.338,9.464-.135.731.983,1.046,1.122.309" fill="#001313"/>
        <path id="패스_7254" data-name="패스 7254" d="M43,28c.548-2.9,1.193-5.82,2.885-8.293A11.021,11.021,0,0,1,52.317,15.4c5.412-1.4,10.787.9,14.538,4.81,4.2,4.382,6.167,10.255,7.334,16.093a135.186,135.186,0,0,1,2.287,20.093q.263,5.59.11,11.189c-.1,3.888-.535,7.764-.6,11.65-.016.929,1.476,1.177,1.657.224a72.686,72.686,0,0,0,.944-11.388q.167-5.594-.082-11.189a129.908,129.908,0,0,0-2.592-21.514c-1.31-6.083-3.635-12.161-8.153-16.6-4.006-3.935-9.536-6.171-15.148-4.973a12.743,12.743,0,0,0-7.391,4.437c-2.111,2.69-2.737,6.186-3.338,9.464-.135.731.983,1.047,1.122.309" fill="#001313"/>
        <path id="패스_7255" data-name="패스 7255" d="M185.185,165.594l5.955,11.044q-5.913-.132-11.8-.757c2.22-3.367,5.733-9.943,5.844-10.287" fill="#001a1a"/>
        <path id="패스_7256" data-name="패스 7256" d="M128.262,176.108c2.019.291-1.016,9.646,1.694,13.465s7.624,7.546,5.521,10.311c-2.865,3.767-8.355-3.35-9.417-12.877-.856-7.677-.17-11.241,2.2-10.9" fill="#001a1a"/>
        <path id="패스_7257" data-name="패스 7257" d="M182.822,175.615c8.125-12.659,4.231-33.681-18.808-51.248-17.2-13.116-17.245-35.03-36.38-52.039-9-8-17-14-30.213-16.712-48.656-9.988-68.578,16.49-64.193,45.894s30.061,67.412,56.953,78.4c27.059,11.06,76.07,21.52,92.641-4.3" fill="#ffb200"/>
      </g>
    </g>
    <g id="그룹_3831" data-name="그룹 3831">
      <g id="그룹_3830" data-name="그룹 3830" clip-path="url(#clip-path-5)">
        <path id="패스_7258" data-name="패스 7258" d="M143.72,181.885a.559.559,0,0,0,0-1.117.559.559,0,0,0,0,1.117" fill="#e99700"/>
        <path id="패스_7259" data-name="패스 7259" d="M55.665,144.935q-2.811.08-5.614.3-1.374.111-2.744.257-.686.073-1.37.163a3.178,3.178,0,0,0-1.483.362.868.868,0,0,0,.2,1.563,3.305,3.305,0,0,0,1.533-.049l1.221-.165q1.371-.182,2.745-.326,2.748-.29,5.508-.437c1.067-.058,1.082-1.7,0-1.672" fill="#001a1a"/>
        <path id="패스_7260" data-name="패스 7260" d="M56.234,145.8l-5.168.208-2.536.1a6.255,6.255,0,0,0-2.639.315.79.79,0,0,0,0,1.355,5.706,5.706,0,0,0,2.542.115l2.633-.135,5.168-.265c1.084-.055,1.095-1.739,0-1.695" fill="#001a1a"/>
        <path id="패스_7261" data-name="패스 7261" d="M56.282,145.771l-4.036.6-1.937.289a14.958,14.958,0,0,0-2.089.351.89.89,0,0,0,.236,1.739,15.545,15.545,0,0,0,2.171-.326l2.005-.348,4.09-.709a.835.835,0,0,0,.579-1.019.85.85,0,0,0-1.019-.578" fill="#001a1a"/>
        <path id="패스_7262" data-name="패스 7262" d="M57.932,146.368l-4.633.351-2.316.176c-.357.027-.713.058-1.07.092a5.655,5.655,0,0,0-1.308.177.928.928,0,0,0-.659.867.9.9,0,0,0,.659.866,9.375,9.375,0,0,0,2.378-.14l2.316-.267,4.633-.536a.817.817,0,0,0,.793-.793.8.8,0,0,0-.793-.793" fill="#001a1a"/>
        <path id="패스_7263" data-name="패스 7263" d="M59.361,146.5c-1.516.059-3.031.121-4.547.177s-3.051.008-4.546.181a.929.929,0,0,0-.9.9.914.914,0,0,0,.9.9c1.507.009,3.043-.208,4.546-.317s3.031-.215,4.547-.322c.968-.068.988-1.562,0-1.523" fill="#001a1a"/>
        <path id="패스_7264" data-name="패스 7264" d="M57.087,147.331c-2.176-.036-4.357-.123-6.533-.094a.856.856,0,0,0,0,1.711c2.176.029,4.357-.058,6.533-.094a.762.762,0,0,0,0-1.523" fill="#001a1a"/>
        <path id="패스_7265" data-name="패스 7265" d="M57.087,147.915l-3.266-.065-1.6-.031a15.681,15.681,0,0,0-1.665-.013.856.856,0,0,0,0,1.711,15.682,15.682,0,0,0,1.665-.014l1.6-.031,3.266-.065a.746.746,0,0,0,0-1.492" fill="#001a1a"/>
        <path id="패스_7266" data-name="패스 7266" d="M55.863,147.667l-3-.634-1.444-.305c-.259-.055-.52-.1-.781-.15a1.239,1.239,0,0,0-.993.075.686.686,0,0,0-.242.924c.333.517,1.041.553,1.6.659l1.452.275,3.016.572a.753.753,0,0,0,.9-.513.741.741,0,0,0-.513-.9" fill="#001a1a"/>
        <path id="패스_7267" data-name="패스 7267" d="M52.54,141.6l-2.986-.261-1.463-.129a6.554,6.554,0,0,0-1.625-.042.83.83,0,0,0-.607.8.852.852,0,0,0,.607.8,6.786,6.786,0,0,0,1.625.186l1.463.109,2.986.224a.848.848,0,0,0,.84-.84.858.858,0,0,0-.84-.84" fill="#001a1a"/>
        <path id="패스_7268" data-name="패스 7268" d="M51.976,138.164l-3.308.127-1.593.061c-.6.023-1.49-.085-1.917.4a.819.819,0,0,0,0,1.138c.5.481,1.278.312,1.917.279l1.593-.083,3.308-.171a.894.894,0,0,0,.875-.875.884.884,0,0,0-.875-.875" fill="#001a1a"/>
        <path id="패스_7269" data-name="패스 7269" d="M49.986,135.864l-2.556-.005-1.254,0a5.481,5.481,0,0,0-1.419.088.822.822,0,0,0,0,1.573,5.525,5.525,0,0,0,1.419.087l1.254,0,2.556,0a.867.867,0,0,0,0-1.734" fill="#001a1a"/>
        <path id="패스_7270" data-name="패스 7270" d="M46.862,134.483l-1.7-.008-.836,0a3.573,3.573,0,0,0-1.018.055.829.829,0,0,0-.6.785.842.842,0,0,0,.6.785,3.573,3.573,0,0,0,1.018.056l.836,0,1.7-.009a.828.828,0,0,0,0-1.656" fill="#001a1a"/>
        <path id="패스_7271" data-name="패스 7271" d="M46.862,136.307a1,1,0,0,0,0-1.992,1,1,0,0,0,0,1.992" fill="#001a1a"/>
        <path id="패스_7272" data-name="패스 7272" d="M46.4,134.356a4.57,4.57,0,0,0-1.483-.581,2.239,2.239,0,0,0-1.931.225.663.663,0,0,0,.133,1.031,1.585,1.585,0,0,0,.79.153,4.736,4.736,0,0,1,.547.032l-.2-.027a3.991,3.991,0,0,1,.789.186.913.913,0,0,1,.185.069c-.022-.014-.154-.069-.06-.025l.1.046a3.914,3.914,0,0,1,.365.2.758.758,0,0,0,.766-1.309" fill="#001a1a"/>
        <path id="패스_7273" data-name="패스 7273" d="M44.021,134.3a.692.692,0,0,0,0-1.383.692.692,0,0,0,0,1.383" fill="#001a1a"/>
        <path id="패스_7274" data-name="패스 7274" d="M44.242,132.536l-.452-.143c-.075-.024-.15-.05-.226-.072a.4.4,0,0,0-.114-.018.5.5,0,0,0-.115-.013c-.021,0-.043,0-.064,0l-.189.025-.181.077-.037.023-.132.1a.482.482,0,0,0-.134.208.328.328,0,0,0-.044.164.5.5,0,0,0,.012.259l.013.035a.864.864,0,0,0,.077.179l.112.144a1.408,1.408,0,0,0,.184.141.936.936,0,0,0,.2.094c.077.029.155.054.232.082l.456.16a.725.725,0,0,0,.789-.268.571.571,0,0,0,.134-.255l.027-.2a.751.751,0,0,0-.1-.378l-.117-.152a.755.755,0,0,0-.331-.193" fill="#001a1a"/>
        <path id="패스_7275" data-name="패스 7275" d="M43.453,131.74l-.233.012a.711.711,0,0,0-.363.1.725.725,0,0,0-.258.258l0,.008c-.013.028-.025.057-.036.086a.526.526,0,0,0-.061.268c.009.062.017.124.025.186.023.057.047.113.072.169l0,.008a.725.725,0,0,0,.258.258.711.711,0,0,0,.363.1l.233.012a.543.543,0,0,0,.281-.063.551.551,0,0,0,.236-.151.8.8,0,0,0,.213-.517l-.026-.194a.729.729,0,0,0-.187-.322l-.148-.114a.725.725,0,0,0-.369-.1" fill="#001a1a"/>
        <path id="패스_7276" data-name="패스 7276" d="M96.688,184l.133-.155.065-.075.034-.039.009-.01c.028-.037.056-.074.085-.11l0-.005.014-.023.054-.128a.406.406,0,0,0,.009-.213.262.262,0,0,0-.036-.135.409.409,0,0,0-.111-.173l-.108-.083-.128-.054a.4.4,0,0,0-.213-.01.385.385,0,0,0-.2.064,2.029,2.029,0,0,0-.263.209c-.051.045-.1.089-.155.133a.433.433,0,0,0-.117.184.507.507,0,0,0,0,.439.433.433,0,0,0,.117.184l.116.089a.561.561,0,0,0,.288.078l.151-.02a.565.565,0,0,0,.252-.147" fill="#001a1a"/>
        <path id="패스_7277" data-name="패스 7277" d="M102.228,181.319a30.458,30.458,0,0,0-8.955,2.523c-.988.449-.239,1.81.692,1.642q5.373-.97,10.671-2.295c1.175-.291.658-1.969-.49-1.78a26.865,26.865,0,0,0-7.425,2.37c-1.019.5-.293,2.056.754,1.788a73.318,73.318,0,0,1,8.634-1.7q-.132-.983-.266-1.964a32.935,32.935,0,0,1-4.849,1.612c-1.066.264-.876,2.086.266,1.964a6.011,6.011,0,0,0,2.791-.962,1.009,1.009,0,0,0-.505-1.865l-7.531-.136.507,1.87,5.05-2.281a1.013,1.013,0,0,0-.508-1.874q-5.849.56-11.7,1.1.363.878.727,1.755a14.145,14.145,0,0,1,3.862-2.141c1.035-.38.985-2.149-.279-2.063-1.352.093-2.7.192-4.056.289l.746,1.8,1.58-1.752c.551-.611.23-1.906-.747-1.8a41.405,41.405,0,0,1-4.564.228l1.058,1.057.2-.427a1.071,1.071,0,0,0-.467-1.769,11.007,11.007,0,0,0-3.353-.168c-1.292.149-1.354,2.155,0,2.071a11.057,11.057,0,0,1,2.791.138l-.467-1.769a3.41,3.41,0,0,0-.82,1.924c-.075.57.545,1.055,1.057,1.058a41.408,41.408,0,0,0,4.564-.231l-.747-1.8-1.578,1.754c-.565.626-.224,1.872.746,1.8q2.028-.149,4.056-.3l-.279-2.062a17.281,17.281,0,0,0-4.758,2.712,1.037,1.037,0,0,0,.727,1.755q5.847-.586,11.7-1.145l-.507-1.874-5.048,2.285c-.952.431-.418,1.854.506,1.87l7.531.131q-.253-.933-.5-1.866a3.877,3.877,0,0,1-1.781.691q.133.982.266,1.965a32.939,32.939,0,0,0,4.849-1.613c.919-.386.969-2.126-.266-1.964a67.066,67.066,0,0,0-9.154,1.817l.754,1.788a23.992,23.992,0,0,1,6.927-2.279l-.49-1.78q-5.294,1.334-10.659,2.343.347.82.692,1.642a36.12,36.12,0,0,1,8.239-2.671c.778-.154.615-1.5-.19-1.4" fill="#001a1a"/>
        <path id="패스_7278" data-name="패스 7278" d="M154.362,111.2a35.15,35.15,0,0,0,3.28,10.254,36.465,36.465,0,0,0,2.694,4.572,15.239,15.239,0,0,0,3.581,4.117c.994.672,2.083-.617,1.566-1.565a49.135,49.135,0,0,0-2.971-4,36.445,36.445,0,0,1-2.616-4.442,38.353,38.353,0,0,1-3.214-9.577c-.306-1.538-2.551-.86-2.32.64" fill="#ffbe3d"/>
      </g>
    </g>
    <g id="그룹_3833" data-name="그룹 3833">
      <g id="그룹_3832" data-name="그룹 3832" clip-path="url(#clip-path)">
        <path id="패스_7280" data-name="패스 7280" d="M101.812,134.77c23.475-5.831,38.822-25.442,37.822-48.442,3.748,6.973,7.68,12.223,11,19-4.655,24.693-18.887,41.377-41.277,46.938-19,4.719-39.623,3.371-54.385-2.307a132.616,132.616,0,0,1-11.991-19.416c14.859,7.256,37.84,9.441,58.831,4.227" fill="#001a1a"/>
      </g>
    </g>
    <g id="그룹_3835" data-name="그룹 3835">
      <g id="그룹_3834" data-name="그룹 3834" clip-path="url(#clip-path-7)">
        <path id="패스_7281" data-name="패스 7281" d="M40.694,145.03c17.816,7.709,37.324,12.288,56.783,9.722a74.124,74.124,0,0,0,27.062-8.809,45.017,45.017,0,0,0,10.9-8.519,75.7,75.7,0,0,0,8.376-11.462c5.79-9.328,10.764-20.059,8.1-31.271-.742-3.129-5.564-1.8-4.821,1.33,2.123,8.947-1.817,17.765-6.313,25.3-4.454,7.47-9.415,14.505-16.907,19.189-14.932,9.337-33.621,11.583-50.8,8.991a120.969,120.969,0,0,1-29.86-8.792,2.582,2.582,0,0,0-3.421.9,2.518,2.518,0,0,0,.9,3.42" fill="#000c0c"/>
      </g>
    </g>
    <g id="그룹_3837" data-name="그룹 3837">
      <g id="그룹_3836" data-name="그룹 3836" clip-path="url(#clip-path)">
        <path id="패스_7283" data-name="패스 7283" d="M139.251,163.192c11.881-7.041,20.8-22.339,20.137-43.146a33.82,33.82,0,0,0,4.626,4.321,77.031,77.031,0,0,1,8.916,7.92c.114,21.033-11.326,38.416-23.575,44.967-11.308,6.048-28.526,9.107-45.038,7.679-5.112-1.567-9.894-3.286-14.136-5.019a67.473,67.473,0,0,1-17.319-10.767c20.1,11.124,55.9.264,66.389-5.955" fill="#001a1a"/>
      </g>
    </g>
    <g id="그룹_3839" data-name="그룹 3839">
      <g id="그룹_3838" data-name="그룹 3838" clip-path="url(#clip-path-9)">
        <path id="패스_7284" data-name="패스 7284" d="M169.523,120.395a65.729,65.729,0,0,1-3.238,29.025,37.115,37.115,0,0,1-6.614,12.237,48.708,48.708,0,0,1-10.295,8.7c-16.233,10.569-36.029,13.173-55.017,11.982a164.615,164.615,0,0,1-17.123-1.954c-4.465-.753-9.2-1.83-12.6-5.021-2.344-2.2-5.887,1.327-3.535,3.534,3.4,3.193,7.766,4.877,12.271,5.832A139.962,139.962,0,0,0,89,186.91a124.023,124.023,0,0,0,32.879-.855,81.561,81.561,0,0,0,27.158-9.617,62.194,62.194,0,0,0,11.768-8.731,37.7,37.7,0,0,0,8.506-12.369,69.174,69.174,0,0,0,5.216-34.943,2.575,2.575,0,0,0-2.5-2.5,2.514,2.514,0,0,0-2.5,2.5" fill="#000c0c"/>
      </g>
    </g>
    <g id="그룹_3850" data-name="그룹 3850">
      <g id="그룹_3849" data-name="그룹 3849" clip-path="url(#clip-path)">
        <path id="패스_7286" data-name="패스 7286" d="M167.509,176.706c2.539.366-1.278,12.13,2.13,16.931s9.587,9.489,6.942,12.966c-3.6,4.737-10.5-4.212-11.841-16.193-1.077-9.652-.213-14.134,2.769-13.7" fill="#001a1a"/>
        <g id="그룹_3842" data-name="그룹 3842" opacity="0.5">
          <g id="그룹_3841" data-name="그룹 3841">
            <g id="그룹_3840" data-name="그룹 3840" clip-path="url(#clip-path-11)">
              <path id="패스_7287" data-name="패스 7287" d="M93.5,91.292c0,2.473,3.981,4.478,8.892,4.478s8.892-2,8.892-4.478-3.981-4.478-8.892-4.478-8.892,2-8.892,4.478" fill="#ff4341"/>
            </g>
          </g>
        </g>
        <g id="그룹_3845" data-name="그룹 3845" opacity="0.5">
          <g id="그룹_3844" data-name="그룹 3844">
            <g id="그룹_3843" data-name="그룹 3843" clip-path="url(#clip-path-12)">
              <path id="패스_7288" data-name="패스 7288" d="M39.228,78.989c-.525,1.391-2.349,2.1-4.71,2.081A33.142,33.142,0,0,1,37.4,74.631c1.55,1.463,2.314,3.06,1.824,4.358" fill="#ff4341"/>
            </g>
          </g>
        </g>
        <path id="패스_7289" data-name="패스 7289" d="M83.119,78.036A4.769,4.769,0,1,0,88.4,73.841a4.77,4.77,0,0,0-5.282,4.195" fill="#001a1a"/>
        <path id="패스_7290" data-name="패스 7290" d="M46.9,73.882a4.769,4.769,0,1,0,5.282-4.2,4.77,4.77,0,0,0-5.282,4.2" fill="#001a1a"/>
        <g id="그룹_3848" data-name="그룹 3848" opacity="0.5">
          <g id="그룹_3847" data-name="그룹 3847">
            <g id="그룹_3846" data-name="그룹 3846" clip-path="url(#clip-path-13)">
              <path id="패스_7291" data-name="패스 7291" d="M75.006,87.545,57.1,85.7s-.616,5.968,8.336,6.892,9.569-5.044,9.569-5.044" fill="#ff4341"/>
            </g>
          </g>
        </g>
        <path id="패스_7292" data-name="패스 7292" d="M106.373,155.763c1.375,2.066-14.456,24.822-28.13,26.956s-15.477-7.312-5.321-10.674,14.047-.6,24.465-11.935c4.527-4.923,7.464-6.634,8.986-4.347" fill="#001a1a"/>
      </g>
    </g>
  </g>
</svg>
