<svg xmlns="http://www.w3.org/2000/svg" xmlns:xlink="http://www.w3.org/1999/xlink" width="226.253" height="192.125" viewBox="0 0 226.253 192.125"><defs><clipPath id="a"><rect width="17.046" height="31.114" fill="#e9e5e5"/></clipPath><clipPath id="b"><rect width="226.253" height="103.604" fill="none"/></clipPath><clipPath id="d"><path d="M226.452,69.953h-30.1V47.229c22.579,5.214,30.1,22.724,30.1,22.724" transform="translate(-196.352 -47.229)" fill="none"/></clipPath><clipPath id="f"><path d="M328.328,45.59V68.8H269.116s11.839-23.752,49.159-23.752a96.534,96.534,0,0,1,10.053.541" transform="translate(-269.116 -45.049)" fill="none"/></clipPath></defs><g transform="translate(-1373.746 -13618.762)"><g transform="translate(1373.747 13618.762)"><rect width="3.931" height="124.6" transform="translate(10.584 30.018)" fill="#603a23"/><path d="M70.531,570.732h-1.31a.338.338,0,0,1-.338-.338v-5.055a.338.338,0,0,1,.338-.338h1.31a.338.338,0,0,1,.338.338v5.055a.338.338,0,0,1-.338.338" transform="translate(-57.327 -565)" fill="#9e6d4f"/><g transform="translate(4.026 5.641)" style="isolation:isolate"><g transform="translate(0 0)"><g clip-path="url(#a)"><path d="M66.247,609.1H53.891l-2.345-31.114H68.592Z" transform="translate(-51.546 -577.987)" fill="#e9e5e5"/></g></g></g><path d="M66.638,634.623H54.282l-2.017-9.665a1.3,1.3,0,0,1,1.27-1.573h13.85a1.3,1.3,0,0,1,1.27,1.573Z" transform="translate(-47.911 -598.027)" fill="#9e6d4f"/><path d="M67.428,576.943H49.56a.8.8,0,0,1-.8-.8v-2.807H68.226v2.807a.8.8,0,0,1-.8.8" transform="translate(-45.945 -569.716)" fill="#9e6d4f"/><path d="M66.2,571.6H43.455a1.182,1.182,0,0,1-1.179-1.185,1.965,1.965,0,0,1,1.959-1.97h21.18a1.965,1.965,0,0,1,1.959,1.97A1.182,1.182,0,0,1,66.2,571.6" transform="translate(-42.276 -566.948)" fill="#603a23"/><path d="M68.479,652.309h-12.1a.682.682,0,0,1-.682-.682v-2.08a.682.682,0,0,1,.682-.683h12.1a.682.682,0,0,1,.682.683v2.08a.682.682,0,0,1-.682.682" transform="translate(-49.867 -612.44)" fill="#603a23"/></g><g transform="translate(1373.746 13707.283)"><g transform="translate(0 0)"><g clip-path="url(#b)"><g clip-path="url(#b)"><path d="M275.86,65.53h-6.747S258.5,35.641,215.975,35.641,161.221,65.53,161.221,65.53H149.285A15.111,15.111,0,0,0,134.219,80.6v23.328H290.926V80.6A15.111,15.111,0,0,0,275.86,65.53" transform="translate(-127.964 -18.834)" fill="#ff9d00"/><path d="M124.677,173.932H281.99c7.139,0,7.139-9.627,0-9.627H124.677c-7.138,0-7.138,9.627,0,9.627" transform="translate(-117.359 -86.826)" fill="#ff6700"/><path d="M437.455,119.026a12.586,12.586,0,0,1,6.936-10.982h3.756v10.982Z" transform="translate(-428.177 -57.095)" fill="#fff"/><path d="M143.6,111.737h-5.065a4.293,4.293,0,1,0,0,8.586h8.114a14.976,14.976,0,0,0-3.049-8.586" transform="translate(16.299 -59.047)" fill="#b10d0b"/><path d="M292.52,107.339a1.357,1.357,0,0,1-1.356,1.357h-7.979a1.357,1.357,0,0,1,0-2.714h7.979a1.357,1.357,0,0,1,1.356,1.357" transform="translate(-199.164 -56.006)" fill="#ff6700"/><path d="M218.542,107.339a1.357,1.357,0,0,1-1.357,1.357h-7.979a1.357,1.357,0,0,1,0-2.714h7.979a1.357,1.357,0,0,1,1.357,1.357" transform="translate(-90.302 -56.006)" fill="#ff6700"/><path d="M413.745,162.87a15.684,15.684,0,1,1-15.684-15.684,15.684,15.684,0,0,1,15.684,15.684" transform="translate(-367.803 -77.78)" fill="#434844"/><path d="M414.387,168.829a10.367,10.367,0,1,1-10.366-10.367,10.366,10.366,0,0,1,10.366,10.367" transform="translate(-373.762 -83.739)" fill="#a7abac"/><path d="M414.626,171.064a8.372,8.372,0,1,1-8.372-8.373,8.371,8.371,0,0,1,8.372,8.373" transform="translate(-375.996 -85.973)" fill="#bcc0c1"/><path d="M175.674,162.87a15.683,15.683,0,1,1-15.684-15.684,15.684,15.684,0,0,1,15.684,15.684" transform="translate(-17.47 -77.78)" fill="#434844"/><path d="M176.317,168.829a10.367,10.367,0,1,1-10.365-10.367,10.365,10.365,0,0,1,10.365,10.367" transform="translate(-23.429 -83.739)" fill="#a7abac"/><path d="M176.558,171.064a8.372,8.372,0,1,1-8.371-8.373,8.371,8.371,0,0,1,8.371,8.373" transform="translate(-25.665 -85.973)" fill="#bcc0c1"/><path d="M196.352,47.23V69.954h30.1s-7.521-17.51-30.1-22.724" transform="translate(-92.789 -24.958)" fill="#dceef7"/></g><g clip-path="url(#b)"><path d="M269.117,68.8s13.932-27.952,59.211-23.211V68.8Z" transform="translate(-228.978 -23.806)" fill="#dceef7"/></g><g clip-path="url(#b)"><path d="M126.348,146.367l-7.024,1.486v-6.274l7.024,1.486Z" transform="translate(43.638 -74.816)" fill="#434844"/><path d="M89.37,107.49H85.906v-2.477H89.37c1.053,0,2.225-1.525,2.225-3.715V74.984a5.948,5.948,0,0,1,5.654-6.192h4.416v2.477H97.249a3.482,3.482,0,0,0-3.177,3.715V101.3c0,3.415-2.109,6.192-4.7,6.192" transform="translate(84.08 -36.353)" fill="#bcc0c1"/><rect width="30.218" height="3.963" transform="translate(186.301 95.985)" fill="#a7abac"/><path d="M10.506,0h18.1A10.506,10.506,0,0,1,39.113,10.506V76.649a10.5,10.5,0,0,1-10.5,10.5H10.5A10.5,10.5,0,0,1,0,76.649V10.506A10.506,10.506,0,0,1,10.506,0Z" transform="translate(181.853 10.56)" fill="#cbd0d1"/><path d="M50.491,104.78a4.7,4.7,0,0,1-4.606,4.767H18.736a4.7,4.7,0,0,1-4.605-4.767V30.432a4.7,4.7,0,0,1,4.605-4.768H45.885a4.7,4.7,0,0,1,4.606,4.768Z" transform="translate(169.099 -13.562)" fill="#e1e4e5"/><path d="M24.466,0H3.958A3.958,3.958,0,0,0,0,3.958V41.439A3.958,3.958,0,0,0,3.958,45.4H24.465a3.959,3.959,0,0,0,3.959-3.959V3.958A3.958,3.958,0,0,0,24.466,0Z" transform="translate(187.198 15.338)" fill="#56b4e8"/><path d="M50.271,65.107a.994.994,0,0,1-.991-.991V62.558a.993.993,0,0,0-.99-.991H41.352a.994.994,0,0,0-.991.991v1.558a.994.994,0,0,1-.991.991h-.577a.993.993,0,0,0-.99.991V87.233a.993.993,0,0,0,.99.991H50.848a.993.993,0,0,0,.99-.991V66.1a.993.993,0,0,0-.99-.991Z" transform="translate(156.589 -32.535)" fill="#fff"/><rect width="9.412" height="2.601" transform="translate(196.703 50.653)" fill="#7be0ff"/><rect width="9.412" height="2.601" transform="translate(196.703 45.7)" fill="#a1edff"/><rect width="9.412" height="2.601" transform="translate(196.703 40.746)" fill="#c5f7ff"/><rect width="9.412" height="2.601" transform="translate(196.703 35.792)" fill="#defcff"/><rect width="18.414" height="6.754" rx="3.377" transform="translate(192.202 19.396)" fill="#fff"/></g><text transform="translate(192.899 23.342)" fill="#56b4e8" font-size="5" font-family="MinSans-Regular, Min Sans"><tspan x="0" y="0">100%</tspan></text><g clip-path="url(#b)"><path d="M51.387,153.194a10.769,10.769,0,1,1-10.769-10.769,10.769,10.769,0,0,1,10.769,10.769" transform="translate(160.791 -75.264)" fill="#56b4e8"/><path d="M52.466,161.914v2.1a3.178,3.178,0,0,1-3.177,3.178H46.552a3.178,3.178,0,0,1-3.178-3.178v-2.1Z" transform="translate(153.644 -85.563)" fill="#fff"/><path d="M57.438,159.082a.579.579,0,1,0,1.159,0v-3.63a.579.579,0,1,0-1.159,0Z" transform="translate(146.212 -81.841)" fill="#fff"/><path d="M46.136,159.082a.579.579,0,1,0,1.159,0v-3.63a.579.579,0,1,0-1.159,0Z" transform="translate(152.184 -81.841)" fill="#fff"/><path d="M54.531,172.814h2.556v-1.395H54.531a1.71,1.71,0,0,1-1.859-1.426v-2.124H51.277v2.124a3.065,3.065,0,0,0,3.254,2.821" transform="translate(149.468 -88.709)" fill="#fff"/></g></g></g></g></g></svg>