<svg xmlns="http://www.w3.org/2000/svg" xmlns:xlink="http://www.w3.org/1999/xlink" width="292.233" height="206.354" viewBox="0 0 292.233 206.354"><defs><clipPath id="a"><rect width="153.178" height="63.754" fill="none"/></clipPath><clipPath id="b"><rect width="71.674" height="49.494" fill="none"/></clipPath></defs><g transform="translate(-80 -12640.655)"><g transform="translate(80 12640.655)"><path d="M286.406,578.188l-2.271,154.83a2.272,2.272,0,0,0,2.271,2.272h.3a2.272,2.272,0,0,0,2.271-2.272s-1.017-154.83-2.271-154.83c0,0-.3-1.254-.3,0" transform="translate(-231.764 -536.958)" fill="#6b4600"/><path d="M345.877,594.019a41.395,41.395,0,1,0-82.33,5.826,52.545,52.545,0,1,0,81.873,0,41.455,41.455,0,0,0,.457-5.826" transform="translate(-251.938 -552.625)" fill="#bad562"/></g><g transform="translate(144.195 12665.866)"><path d="M390.052,595.108,388.33,710.43a1.707,1.707,0,0,0,1.722,1.692h.225A1.707,1.707,0,0,0,392,710.43s-.771-115.322-1.722-115.322c0,0-.225-.933-.225,0" transform="translate(-343.978 -543.27)" fill="#6b4600"/><path d="M437.7,594.763a35.045,35.045,0,1,0-69.7,4.933,44.485,44.485,0,1,0,69.315,0,35.21,35.21,0,0,0,.387-4.933" transform="translate(-358.166 -559.719)" fill="#d8df3a"/></g><g transform="translate(113.783 12770.965)"><g transform="translate(0 0)" clip-path="url(#a)"><path d="M149.768,29.158H3.41A3.655,3.655,0,0,1,0,25.3V21.658A3.655,3.655,0,0,1,3.41,17.8H149.768a3.655,3.655,0,0,1,3.41,3.858V25.3a3.655,3.655,0,0,1-3.41,3.858" transform="translate(0 -1.862)" fill="#ee9347"/><path d="M149.768,53.724H3.41A3.655,3.655,0,0,1,0,49.866V46.224a3.655,3.655,0,0,1,3.41-3.858H149.768a3.655,3.655,0,0,1,3.41,3.858v3.642a3.655,3.655,0,0,1-3.41,3.858" transform="translate(0 -4.432)" fill="#ee9347"/><path d="M9.23,0h-.98a4.393,4.393,0,0,0-4.1,4.637V63.754h9.178V4.637A4.393,4.393,0,0,0,9.23,0" transform="translate(-0.866 0)" fill="#f9b050"/><path d="M43.87,0h-.98a4.393,4.393,0,0,0-4.1,4.637V63.754h9.177V4.637A4.393,4.393,0,0,0,43.87,0" transform="translate(-8.095 0)" fill="#f9b050"/><path d="M78.509,0h-.981a4.393,4.393,0,0,0-4.1,4.637V63.754h9.178V4.637A4.393,4.393,0,0,0,78.509,0" transform="translate(-15.324 0)" fill="#f9b050"/><path d="M113.149,0h-.98a4.393,4.393,0,0,0-4.1,4.637V63.754h9.178V4.637A4.393,4.393,0,0,0,113.149,0" transform="translate(-22.552 0)" fill="#f9b050"/><path d="M147.789,0h-.98a4.393,4.393,0,0,0-4.1,4.637V63.754h9.178V4.637A4.393,4.393,0,0,0,147.789,0" transform="translate(-29.781 0)" fill="#f9b050"/><path d="M182.428,0h-.98a4.393,4.393,0,0,0-4.1,4.637V63.754h9.178V4.637A4.393,4.393,0,0,0,182.428,0" transform="translate(-37.01 0)" fill="#f9b050"/></g></g><g transform="translate(149.677 12794.332)"><g transform="translate(0 0)" clip-path="url(#b)"><path d="M38.9,18.2,35.933,44.895,11.947,42.233A13.428,13.428,0,0,1,14.91,15.541ZM32.287,40.339l2.052-18.49L14.455,19.642A9.3,9.3,0,0,0,12.4,38.132Z" transform="translate(0 -4.319)" fill="#eeb2b8"/><path d="M75.628,15.33,71.994,11.7,46.513,37.372l3.635,9.667Z" transform="translate(-12.996 -3.268)" fill="#ed7a77"/><path d="M13.951,47.962a3.705,3.705,0,0,0,3.671,4.07H44.148a3.705,3.705,0,0,0,3.671-4.07l-.437-4.293-3.5-34.587H17.865L14.378,43.669Z" transform="translate(-3.893 -2.537)" fill="#da564c"/><path d="M20.02,6.62H44.326a1.479,1.479,0,0,1,0,2.959H20.02a1.479,1.479,0,0,1,0-2.959" transform="translate(-5.181 -1.849)" fill="#bf3942"/><path d="M13.951,61.373a3.705,3.705,0,0,0,3.671,4.07H44.148a3.705,3.705,0,0,0,3.671-4.07l-.437-4.293h-33Z" transform="translate(-3.893 -15.949)" fill="#bf3942"/><path d="M86.254,13.154l5.354-.3-11.32-10.4.035,5.13a5.616,5.616,0,0,0,5.93,5.568" transform="translate(-22.434 -0.686)" fill="#bf3942"/><path d="M79.227,2.755l11.921,9.412A1.543,1.543,0,1,0,93.06,9.745L81.141.332a1.543,1.543,0,1,0-1.913,2.423" transform="translate(-21.973 0)" fill="#da564c"/></g></g><g transform="translate(230.413 12753.883)"><path d="M49.773,101.315a1.566,1.566,0,0,1-1.522-1.2c-.259-1.082-6.237-26.65,3.013-40.822a19.337,19.337,0,0,1,13.246-8.706,1.567,1.567,0,1,1,.559,3.083A16.315,16.315,0,0,0,53.89,61C45.376,74.037,51.238,99.131,51.3,99.383a1.568,1.568,0,0,1-1.159,1.889,1.586,1.586,0,0,1-.366.043" transform="translate(-9.988 -10.951)" fill="#376a60"/><path d="M43.18,72.656a1.567,1.567,0,0,1-1.554-1.781c.021-.157,2.081-15.717-4.863-22.123-2.841-2.62-6.944-3.359-12.2-2.2a1.567,1.567,0,1,1-.678-3.059c6.317-1.4,11.363-.4,15,2.957,8.147,7.522,5.936,24.148,5.838,24.853a1.567,1.567,0,0,1-1.55,1.351" transform="translate(-4.908 -9.288)" fill="#376a60"/><path d="M19.494,110.834s-3.062-10,4.9-12.248c-2.654-12.248,10.722-17.76,17.814-11.227,9.336-5.512,19.135,3.637,17.5,12.067,8.166-1.043,9.391,8.755,5.308,12.021" transform="translate(-4.097 -18.321)" fill="#6b4630"/><path d="M93.558,45.576h0A17.257,17.257,0,0,0,67.97,50.811a17.256,17.256,0,0,0,25.588-5.235" transform="translate(-14.722 -9.097)" fill="#376a60"/><path d="M49.565,63.041A1.567,1.567,0,0,1,48,61.54c-.052-1.249-1.175-30.7,7.281-41.172a1.567,1.567,0,1,1,2.437,1.969C50,31.895,51.12,61.116,51.131,61.41a1.567,1.567,0,0,1-1.5,1.63l-.066,0" transform="translate(-10.38 -4.286)" fill="#376a60"/><path d="M79.569,10.388h0A17.256,17.256,0,0,0,55.812,21.24,17.257,17.257,0,0,0,79.569,10.388" transform="translate(-12.089 -1.917)" fill="#376a60"/><path d="M25.819,43.158h0A17.257,17.257,0,0,0,0,47.1a17.256,17.256,0,0,0,25.819-3.941" transform="translate(0 -8.454)" fill="#376a60"/><path d="M35.321,0h0a17.257,17.257,0,0,0,17.2,19.656A17.257,17.257,0,0,0,35.321,0" transform="translate(-7.622)" fill="#376a60"/><path d="M41.313,94.554A2.964,2.964,0,1,1,38.35,91.59a2.964,2.964,0,0,1,2.964,2.964" transform="translate(-7.665 -19.838)" fill="#a65a2c"/><path d="M55.887,98.35a2.977,2.977,0,1,1-2.977-2.977,2.977,2.977,0,0,1,2.977,2.977" transform="translate(-10.815 -20.658)" fill="#a65a2c"/><path d="M43.907,104.471a1.5,1.5,0,1,1-1.5-1.5,1.5,1.5,0,0,1,1.5,1.5" transform="translate(-8.861 -22.304)" fill="#a65a2c"/></g><g transform="translate(318.311 12805.554)"><path d="M186.988,113.288l2.647-5.24a2.431,2.431,0,1,0-4.34-2.192l-2.647,5.24Z" transform="translate(-135.974 -104.52)" fill="#ffe0aa"/><path d="M186.9,119.5h0a.759.759,0,0,1-1.02.336l-4.417-2.231a.759.759,0,1,1,.685-1.355l4.416,2.231a.759.759,0,0,1,.335,1.02" transform="translate(-135.17 -110.368)" fill="#f9b050"/><g transform="translate(0 2.138)"><rect width="24.9" height="3.489" transform="translate(38.457 22.226) rotate(-63.201)" fill="#ee9347"/><path d="M153.831,157.495a15.417,15.417,0,0,1-.747-5.373,12.138,12.138,0,0,1,.574-3.181,11.354,11.354,0,0,1,.664-1.613l2.51-4.97,11.9,6.013-2.525,5a11.677,11.677,0,0,1-.883,1.463,13.967,13.967,0,0,1-6.945,4.945l-.008,0a3.538,3.538,0,0,1-4.545-2.285" transform="translate(-121.12 -125.661)" fill="#bbe9f8"/><path d="M168.913,148.835l3.258-6.451-3.114-1.573-3.258,6.451a1.744,1.744,0,1,0,3.114,1.573" transform="translate(-127.419 -124.884)" fill="#6bb3ea"/><path d="M175.561,141.96h0a.759.759,0,0,1-1.02.336l-2.985-1.508a.759.759,0,0,1,.684-1.355l2.985,1.508a.759.759,0,0,1,.335,1.02" transform="translate(-130.195 -124.151)" fill="#ffe0aa"/><path d="M89.105,167.136s-1.9-8.188,5.482-7.405c-2.125-8.61,11.658-14.088,15.989-6.932,6.125-6.7,16.419.262,12.679,7.932,11.74-4.361,10.355,7.834,10.355,7.834" transform="translate(-88.886 -129.247)" fill="#6b4630"/></g></g></g></svg>