<svg xmlns="http://www.w3.org/2000/svg" width="1920" height="347" viewBox="0 0 1920 347">
  <g id="p04_bg" transform="translate(0 -3973)">
    <g id="그룹_4742" data-name="그룹 4742" transform="translate(0 867.553)">
      <path id="패스_9267" data-name="패스 9267" d="M0,0H1920V347H0Z" transform="translate(0 3105.447)" fill="#91cc9e"/>
      <g id="그룹_3517" data-name="그룹 3517" transform="translate(1290.5 3175.877)">
        <line id="선_131" data-name="선 131" y2="7.562" transform="translate(26)" fill="none" stroke="#186b4a" stroke-linecap="round" stroke-width="10"/>
        <line id="선_130" data-name="선 130" y2="7.562" fill="none" stroke="#186b4a" stroke-linecap="round" stroke-width="10" opacity="0.7"/>
        <line id="선_134" data-name="선 134" y2="7.562" transform="translate(52)" fill="none" stroke="#186b4a" stroke-linecap="round" stroke-width="10" opacity="0.7"/>
        <line id="선_135" data-name="선 135" y2="7.562" transform="translate(78)" fill="none" stroke="#186b4a" stroke-linecap="round" stroke-width="10" opacity="0.7"/>
      </g>
      <g id="그룹_3518" data-name="그룹 3518" transform="translate(1124 3376.666)">
        <line id="선_131-2" data-name="선 131" y2="7.562" transform="translate(26)" fill="none" stroke="#186b4a" stroke-linecap="round" stroke-width="10"/>
        <line id="선_130-2" data-name="선 130" y2="7.562" fill="none" stroke="#186b4a" stroke-linecap="round" stroke-width="10" opacity="0.7"/>
        <line id="선_134-2" data-name="선 134" y2="7.562" transform="translate(52)" fill="none" stroke="#186b4a" stroke-linecap="round" stroke-width="10" opacity="0.7"/>
        <line id="선_135-2" data-name="선 135" y2="7.562" transform="translate(78)" fill="none" stroke="#186b4a" stroke-linecap="round" stroke-width="10" opacity="0.7"/>
      </g>
      <g id="그룹_3521" data-name="그룹 3521" transform="translate(1625.979 3285.788)">
        <line id="선_131-3" data-name="선 131" y2="7.562" transform="translate(26)" fill="none" stroke="#186b4a" stroke-linecap="round" stroke-width="10"/>
        <line id="선_130-3" data-name="선 130" y2="7.562" fill="none" stroke="#186b4a" stroke-linecap="round" stroke-width="10" opacity="0.7"/>
        <line id="선_134-3" data-name="선 134" y2="7.562" transform="translate(52)" fill="none" stroke="#186b4a" stroke-linecap="round" stroke-width="10" opacity="0.7"/>
        <line id="선_135-3" data-name="선 135" y2="7.562" transform="translate(78)" fill="none" stroke="#186b4a" stroke-linecap="round" stroke-width="10" opacity="0.7"/>
      </g>
      <g id="그룹_3519" data-name="그룹 3519" transform="translate(696 3237.44)">
        <line id="선_131-4" data-name="선 131" y2="7.562" transform="translate(26)" fill="none" stroke="#186b4a" stroke-linecap="round" stroke-width="10"/>
        <line id="선_130-4" data-name="선 130" y2="7.562" fill="none" stroke="#186b4a" stroke-linecap="round" stroke-width="10" opacity="0.7"/>
        <line id="선_134-4" data-name="선 134" y2="7.562" transform="translate(52)" fill="none" stroke="#186b4a" stroke-linecap="round" stroke-width="10" opacity="0.7"/>
        <line id="선_135-4" data-name="선 135" y2="7.562" transform="translate(78)" fill="none" stroke="#186b4a" stroke-linecap="round" stroke-width="10" opacity="0.7"/>
      </g>
      <g id="그룹_3520" data-name="그룹 3520" transform="translate(217.135 3364.416)">
        <line id="선_131-5" data-name="선 131" y2="7.562" transform="translate(26)" fill="none" stroke="#186b4a" stroke-linecap="round" stroke-width="10"/>
        <line id="선_130-5" data-name="선 130" y2="7.562" fill="none" stroke="#186b4a" stroke-linecap="round" stroke-width="10" opacity="0.7"/>
        <line id="선_134-5" data-name="선 134" y2="7.562" transform="translate(52)" fill="none" stroke="#186b4a" stroke-linecap="round" stroke-width="10" opacity="0.7"/>
        <line id="선_135-5" data-name="선 135" y2="7.562" transform="translate(78)" fill="none" stroke="#186b4a" stroke-linecap="round" stroke-width="10" opacity="0.7"/>
      </g>
      <g id="그룹_3523" data-name="그룹 3523" transform="translate(1720 3419.447)">
        <circle id="타원_78" data-name="타원 78" cx="4" cy="4" r="4" transform="translate(0 0)" fill="#fff"/>
        <circle id="타원_87" data-name="타원 87" cx="4" cy="4" r="4" transform="translate(14 0)" fill="#fff"/>
        <circle id="타원_88" data-name="타원 88" cx="4" cy="4" r="4" transform="translate(7 8)" fill="#fff"/>
      </g>
      <g id="그룹_3525" data-name="그룹 3525" transform="translate(1420 3288.897)">
        <circle id="타원_78-2" data-name="타원 78" cx="4" cy="4" r="4" transform="translate(0 -0.45)" fill="#fff"/>
        <circle id="타원_87-2" data-name="타원 87" cx="4" cy="4" r="4" transform="translate(14 -0.45)" fill="#fff"/>
        <circle id="타원_88-2" data-name="타원 88" cx="4" cy="4" r="4" transform="translate(7 7.55)" fill="#fff"/>
      </g>
      <g id="그룹_3526" data-name="그룹 3526" transform="translate(1063 3119.421)">
        <circle id="타원_78-3" data-name="타원 78" cx="4" cy="4" r="4" transform="translate(0 0.026)" fill="#fff"/>
        <circle id="타원_87-3" data-name="타원 87" cx="4" cy="4" r="4" transform="translate(14 0.026)" fill="#fff"/>
        <circle id="타원_88-3" data-name="타원 88" cx="4" cy="4" r="4" transform="translate(7 8.026)" fill="#fff"/>
      </g>
      <g id="그룹_3527" data-name="그룹 3527" transform="translate(750 3422.447)">
        <circle id="타원_78-4" data-name="타원 78" cx="4" cy="4" r="4" transform="translate(0 0)" fill="#fff"/>
        <circle id="타원_87-4" data-name="타원 87" cx="4" cy="4" r="4" transform="translate(14 0)" fill="#fff"/>
        <circle id="타원_88-4" data-name="타원 88" cx="4" cy="4" r="4" transform="translate(7 8)" fill="#fff"/>
      </g>
      <g id="그룹_3530" data-name="그룹 3530" transform="translate(100 3279.915)">
        <circle id="타원_78-5" data-name="타원 78" cx="4" cy="4" r="4" transform="translate(0 -0.468)" fill="#fff"/>
        <circle id="타원_87-5" data-name="타원 87" cx="4" cy="4" r="4" transform="translate(14 -0.468)" fill="#fff"/>
        <circle id="타원_88-5" data-name="타원 88" cx="4" cy="4" r="4" transform="translate(7 7.532)" fill="#fff"/>
      </g>
      <g id="그룹_3529" data-name="그룹 3529" transform="translate(447 3364.596)">
        <circle id="타원_78-6" data-name="타원 78" cx="4" cy="4" r="4" transform="translate(0 -0.149)" fill="#fff"/>
        <circle id="타원_87-6" data-name="타원 87" cx="4" cy="4" r="4" transform="translate(14 -0.149)" fill="#fff"/>
        <circle id="타원_88-6" data-name="타원 88" cx="4" cy="4" r="4" transform="translate(7 7.851)" fill="#fff"/>
      </g>
      <g id="그룹_4689" data-name="그룹 4689" transform="translate(295 3113.421)">
        <circle id="타원_78-7" data-name="타원 78" cx="4" cy="4" r="4" transform="translate(0 0.026)" fill="#fff"/>
        <circle id="타원_87-7" data-name="타원 87" cx="4" cy="4" r="4" transform="translate(14 0.026)" fill="#fff"/>
        <circle id="타원_88-7" data-name="타원 88" cx="4" cy="4" r="4" transform="translate(7 8.026)" fill="#fff"/>
      </g>
      <g id="그룹_3524" data-name="그룹 3524" transform="translate(1811 3167.007)">
        <circle id="타원_78-8" data-name="타원 78" cx="4" cy="4" r="4" transform="translate(0 0.44)" fill="#fff"/>
        <circle id="타원_87-8" data-name="타원 87" cx="4" cy="4" r="4" transform="translate(14 0.44)" fill="#fff"/>
        <circle id="타원_88-8" data-name="타원 88" cx="4" cy="4" r="4" transform="translate(7 8.44)" fill="#fff"/>
      </g>
    </g>
  </g>
</svg>
