<svg xmlns="http://www.w3.org/2000/svg" xmlns:xlink="http://www.w3.org/1999/xlink" width="360.027" height="213.777" viewBox="0 0 360.027 213.777"><defs><clipPath id="a"><rect width="360.027" height="213.777" fill="none"/></clipPath></defs><g clip-path="url(#a)"><path d="M262.881,183.237H127.634A264.175,264.175,0,0,1,127.634,0H262.881a264.149,264.149,0,0,1,16.361,99.254,263.611,263.611,0,0,1-16.361,83.984" transform="translate(-8.294)" fill="#aa6933"/><path d="M219.4,0l2.833,7.614,3.441-1.371,4.936,1.371V0Z" transform="translate(-16.358)" fill="#96582a"/><path d="M179.127,45.991l-7.963,25.09-2.732-17.965,5.347-10.966Z" transform="translate(-12.558 -3.143)" fill="#96582a"/><rect width="148.335" height="5.454" transform="translate(112.797 10.907)" fill="#e7aa74"/><rect width="148.335" height="5.887" transform="translate(113.887 169.932)" fill="#e7aa74"/><rect width="1.851" height="162.514" transform="translate(181.675 13.089)" fill="#e7aa74"/><path d="M227.609,176.838l-1.81-.394a381.276,381.276,0,0,0,8.7-85.956,381.348,381.348,0,0,0-8.7-76.164l1.81-.394a383.406,383.406,0,0,1,8.745,76.534,383.2,383.2,0,0,1-8.745,86.374" transform="translate(-16.835 -1.039)" fill="#e7aa74"/><path d="M257.048,176.924l-1.757-.582A256.413,256.413,0,0,0,268.333,89.4a256.656,256.656,0,0,0-13.041-74.988l1.757-.583a258.5,258.5,0,0,1,13.136,75.527,258.278,258.278,0,0,1-13.136,87.569" transform="translate(-19.034 -1.031)" fill="#e7aa74"/><path d="M169.535,176.882a308,308,0,0,1,0-163l1.785.49a306.151,306.151,0,0,0,0,162.024Z" transform="translate(-11.822 -1.035)" fill="#e7aa74"/><path d="M141.249,176.882a308,308,0,0,1,0-163l1.785.49a306.151,306.151,0,0,0,0,162.024Z" transform="translate(-9.713 -1.035)" fill="#e7aa74"/></g><g clip-path="url(#a)"><path d="M367.638,70.125h-1.1v-9.41H289.9v9.41h-1.1a13,13,0,0,0-12.956,12.956V195.167A12.994,12.994,0,0,0,288.8,208.123h78.834a12.994,12.994,0,0,0,12.956-12.956V83.081a13,13,0,0,0-12.956-12.956" transform="translate(-20.567 -4.527)" fill="#fce1b4"/></g><g clip-path="url(#a)"><path d="M374.48,107.785V196.8a8.209,8.209,0,0,1-8.185,8.185H291.22a8.209,8.209,0,0,1-8.185-8.185V107.785Z" transform="translate(-21.103 -8.036)" fill="#fea831"/></g><g clip-path="url(#a)"><path d="M368.505,63.146H289.812a1.388,1.388,0,0,1-1.388-1.388v-6.37A1.389,1.389,0,0,1,289.812,54h78.693a1.389,1.389,0,0,1,1.388,1.388v6.37a1.388,1.388,0,0,1-1.388,1.388" transform="translate(-21.504 -4.026)" fill="#dda85a"/></g><g clip-path="url(#a)"><path d="M361.548,173.021a3.325,3.325,0,1,1-3.325-3.325,3.326,3.326,0,0,1,3.325,3.325" transform="translate(-26.461 -12.652)" fill="#fce1b4"/></g><g clip-path="url(#a)"><path d="M366.466,151.328a4.988,4.988,0,1,1-4.988-4.988,4.988,4.988,0,0,1,4.988,4.988" transform="translate(-26.579 -10.911)" fill="#fce1b4"/></g><g clip-path="url(#a)"><path d="M373.548,138.021a3.325,3.325,0,1,1-3.325-3.325,3.326,3.326,0,0,1,3.325,3.325" transform="translate(-27.355 -10.043)" fill="#fce1b4"/></g><g clip-path="url(#a)"><path d="M128.667,193.474H13.912A224.142,224.142,0,0,1,13.912,38H128.667a224.133,224.133,0,0,1,13.882,84.215,223.653,223.653,0,0,1-13.882,71.259" transform="translate(0 -2.833)" fill="#d4873f"/><path d="M96.581,38l6.855,7.682L105.355,38Z" transform="translate(-7.201 -2.833)" fill="#aa6933"/><path d="M119.826,114.227l-7.54,24.679s3.976,13.8,3.77,16.221c2.948-1.037,7.472-2.786,7.472-2.786s2.742,7.677,2.742,7.267,2.33-13.162,2.33-13.162l-1.645-15.82L125.584,118.2l-2.742,3.428Z" transform="translate(-8.372 -8.517)" fill="#aa6933"/><rect width="125.86" height="4.627" transform="translate(8.36 44.421)" fill="#e7aa74"/><rect width="125.86" height="4.995" transform="translate(9.285 179.352)" fill="#e7aa74"/><rect width="1.851" height="137.891" transform="translate(66.662 46.272)" fill="#e7aa74"/><path d="M98.864,188.072l-1.808-.394a323.359,323.359,0,0,0,7.382-72.9,323.539,323.539,0,0,0-7.382-64.6l1.808-.394a325.377,325.377,0,0,1,7.425,64.966,325.285,325.285,0,0,1-7.425,73.319" transform="translate(-7.236 -3.712)" fill="#e7aa74"/><path d="M123.84,188.158l-1.756-.582a217.446,217.446,0,0,0,11.058-73.723,217.637,217.637,0,0,0-11.058-63.586l1.756-.582a219.471,219.471,0,0,1,11.152,64.125,219.261,219.261,0,0,1-11.152,74.348" transform="translate(-9.102 -3.704)" fill="#e7aa74"/><path d="M49.318,188.115a261.43,261.43,0,0,1,0-138.379l1.784.49a259.607,259.607,0,0,0,0,137.4Z" transform="translate(-2.982 -3.708)" fill="#e7aa74"/><path d="M25.318,188.115a261.43,261.43,0,0,1,0-138.379l1.784.49a259.607,259.607,0,0,0,0,137.4Z" transform="translate(-1.193 -3.708)" fill="#e7aa74"/></g><rect width="73.11" height="42.57" transform="translate(10.21 91.619)" fill="#fff"/><path d="M25.853,120.517H31v-4.624h2.242V127.2H31v-4.763H25.853V127.2H23.595V115.893h2.258Z" transform="translate(-1.759 -8.641)" fill="#997a4b"/><g clip-path="url(#a)"><path d="M36.112,121.533c0-3.565,2.058-5.823,5.285-5.823s5.269,2.258,5.269,5.823-2.043,5.823-5.269,5.823-5.285-2.258-5.285-5.823m8.158,0c0-2.474-1.061-3.9-2.873-3.9-1.829,0-2.889,1.429-2.889,3.9s1.061,3.9,2.889,3.9c1.812,0,2.873-1.429,2.873-3.9" transform="translate(-2.692 -8.627)" fill="#997a4b"/><path d="M56.738,123.421v-7.528h2.1V127.2H57.106l-5.377-7.528V127.2h-2.12V115.892h1.736Z" transform="translate(-3.699 -8.641)" fill="#997a4b"/><path d="M69.556,115.892v1.69H64.3v3.058h4.932v1.69H64.3v3.181h5.3v1.69H62.044V115.892Z" transform="translate(-4.626 -8.641)" fill="#997a4b"/><path d="M75.843,120.071l2.719-4.179h2.582L76.964,121.9v5.3H74.721v-5.316l-4.194-5.992h2.6Z" transform="translate(-5.258 -8.641)" fill="#997a4b"/></g><g clip-path="url(#a)"><path d="M276.788,223.332H230.456A12.994,12.994,0,0,1,217.5,210.376V141.108a12.994,12.994,0,0,1,12.956-12.956h46.332a12.994,12.994,0,0,1,12.956,12.956v69.267a12.994,12.994,0,0,1-12.956,12.956" transform="translate(-16.216 -9.555)" fill="#fce1b4"/></g><g clip-path="url(#a)"><path d="M285.528,153.6v58.181a8.884,8.884,0,0,1-8.857,8.858H231.313a8.883,8.883,0,0,1-8.856-8.858V153.6Z" transform="translate(-16.586 -11.452)" fill="#fea831"/></g><g clip-path="url(#a)"><path d="M280.977,127.321H227.563a1.388,1.388,0,0,1-1.388-1.388v-7.544A1.387,1.387,0,0,1,227.563,117h53.414a1.388,1.388,0,0,1,1.388,1.388v7.544a1.389,1.389,0,0,1-1.388,1.388" transform="translate(-16.863 -8.723)" fill="#dda85a"/><path d="M286.284,130.5a2.22,2.22,0,0,1-2.265,3.379c-.839-.168-3.88-3.045-7.538-3.045-5.062,0-4.876,2.537-9.753,2.537-6.095,0-6.095-2.537-12.191-2.537-5.72,0-7.315,2.537-12.191,2.537-5.455,0-8.533-2.537-10.972-2.537-1.478,0-4.54,1.327-6.792,2.026a2.207,2.207,0,0,1-2.414-3.336l4-6.534a2.128,2.128,0,0,1,1.811-1.034h51.9a2.125,2.125,0,0,1,1.81,1.034Z" transform="translate(-16.539 -9.093)" fill="#dda85a"/><rect width="56.19" height="2.293" transform="translate(209.312 112.864)" fill="#ca9545"/></g><g clip-path="url(#a)"><path d="M281.381,183.636a3.44,3.44,0,1,1-3.44-3.44,3.44,3.44,0,0,1,3.44,3.44" transform="translate(-20.466 -13.435)" fill="#fce1b4"/></g><g clip-path="url(#a)"><path d="M276.608,198.6a2.294,2.294,0,1,1-2.293-2.293,2.293,2.293,0,0,1,2.293,2.293" transform="translate(-20.281 -14.636)" fill="#fce1b4"/></g></svg>