<svg xmlns="http://www.w3.org/2000/svg" xmlns:xlink="http://www.w3.org/1999/xlink" width="192.843" height="173.752" viewBox="0 0 192.843 173.752">
  <defs>
    <clipPath id="clip-path">
      <rect id="사각형_613" data-name="사각형 613" width="74.802" height="157.662" fill="none"/>
    </clipPath>
    <clipPath id="clip-path-2">
      <rect id="사각형_614" data-name="사각형 614" width="21.211" height="28.401" fill="none"/>
    </clipPath>
    <clipPath id="clip-path-3">
      <rect id="사각형_615" data-name="사각형 615" width="46.488" height="60.613" fill="none"/>
    </clipPath>
  </defs>
  <g id="p04_hive" transform="translate(192.843 64.128) rotate(114)">
    <path id="패스_4851" data-name="패스 4851" d="M118.695,41.483a21.114,21.114,0,0,0-3.9-7.012c-.179-.233-.376-.448-.573-.662a17,17,0,0,0-6.314-4.365,1.111,1.111,0,0,0-.215-.089c-.035-.018-.071-.018-.107-.036-.429-6.778-3.953-13.255-8.944-18.209-.2-.215-.394-.412-.608-.608A36.245,36.245,0,0,0,90,4.723c-.286-.143-.59-.3-.876-.43A40.86,40.86,0,0,0,77.785.716,56.993,56.993,0,0,0,60,.68,60.441,60.441,0,0,0,53.761.09c-8.21-.411-16.51.858-23.754,4.633a34.575,34.575,0,0,0-8.194,5.938c-.214.179-.412.394-.609.591-4.651,4.722-8.013,10.733-8.693,17.065-.036.322-.071.626-.089.948v.053a16.845,16.845,0,0,0-6.905,4.776c-.178.216-.358.429-.518.645a20.521,20.521,0,0,0-3.686,6.743,30.414,30.414,0,0,0-.93,13.846,4.319,4.319,0,0,0,.071.465c.125.858.268,1.7.448,2.539.947,4.508,2.7,9.32,5.814,12.719A21.932,21.932,0,0,0,5,73.806c-.108.2-.2.394-.3.591a29.186,29.186,0,0,0-1.932,19.82,3.9,3.9,0,0,0,.125.465,27.376,27.376,0,0,0,.966,3.111,35.618,35.618,0,0,0,9.463,13.542c.143.143.286.269.429.393a53.584,53.584,0,0,0,8.586,6.279,28.543,28.543,0,0,0,.429,11.216c.035.161.072.3.108.447a34.581,34.581,0,0,0,10,16.707c.358.34.715.662,1.092.966a5,5,0,0,0,.464.394A46.18,46.18,0,0,0,56,157.343c.662.124,1.306.232,1.968.321h4.079c8.6-1.235,17.011-4.454,23.648-10.017a5.02,5.02,0,0,0,.465-.394c.339-.286.661-.572.984-.877a34.511,34.511,0,0,0,10.017-16.85,3.921,3.921,0,0,0,.125-.447,28.491,28.491,0,0,0,.376-11.073,53.349,53.349,0,0,0,8.765-6.422c.143-.124.286-.268.429-.41a35.539,35.539,0,0,0,9.3-13.381,27.34,27.34,0,0,0,1.02-3.327,4.775,4.775,0,0,0,.125-.483,28.944,28.944,0,0,0-2.129-19.837c-.089-.2-.2-.411-.3-.608a24.275,24.275,0,0,0-1.574-2.485c3.113-3.4,4.865-8.211,5.8-12.719.2-.912.357-1.842.483-2.773a2.3,2.3,0,0,0,.072-.483,30.349,30.349,0,0,0-.948-13.595" transform="translate(0 0)" fill="#f3ab56"/>
    <path id="패스_4852" data-name="패스 4852" d="M58.945,1.737A247.974,247.974,0,0,0,32.3.02C31.492.02,30.665,0,29.856,0A240.3,240.3,0,0,0,0,1.838a5.475,5.475,0,0,0,.526.445,242.392,242.392,0,0,1,57.894-.1,5.467,5.467,0,0,0,.526-.445" transform="translate(30.581 144.172)" fill="#ff8f3d"/>
    <path id="패스_4853" data-name="패스 4853" d="M68.642,3.555a164.363,164.363,0,0,0-32-3.535C35.984.02,35.31,0,34.651,0A163.042,163.042,0,0,0,0,3.716c.032.181.066.343.1.5a161.841,161.841,0,0,1,68.428-.162c.05-.161.082-.343.116-.5" transform="translate(25.704 125.538)" fill="#ff8f3d"/>
    <path id="패스_4854" data-name="패스 4854" d="M68.642,3.555a164.363,164.363,0,0,0-32-3.535C35.984.02,35.31,0,34.651,0A163.042,163.042,0,0,0,0,3.716c.032.181.066.343.1.5a161.841,161.841,0,0,1,68.428-.162c.05-.161.082-.343.116-.5" transform="translate(25.704 125.538)" fill="#ff8f3d"/>
    <path id="패스_4855" data-name="패스 4855" d="M90.116,5.679A177.828,177.828,0,0,0,47.411.023C46.721.023,46.032,0,45.325,0A177.032,177.032,0,0,0,0,5.858c.139.162.277.3.415.445A176.64,176.64,0,0,1,89.7,6.143c.138-.143.276-.3.413-.465" transform="translate(15.037 105.643)" fill="#ff8f3d"/>
    <path id="패스_4856" data-name="패스 4856" d="M90.116,5.679A177.828,177.828,0,0,0,47.411.023C46.721.023,46.032,0,45.325,0A177.032,177.032,0,0,0,0,5.858c.139.162.277.3.415.445A176.64,176.64,0,0,1,89.7,6.143c.138-.143.276-.3.413-.465" transform="translate(15.037 105.643)" fill="#ff8f3d"/>
    <path id="패스_4857" data-name="패스 4857" d="M113.83,8.605A188.805,188.805,0,0,0,59.395.02C58.665,0,57.955,0,57.225,0A187.425,187.425,0,0,0,0,8.868a4.435,4.435,0,0,0,.123.526,188.078,188.078,0,0,1,113.582-.242c.054-.181.09-.364.125-.545" transform="translate(3.121 85.741)" fill="#ff8f3d"/>
    <path id="패스_4858" data-name="패스 4858" d="M113.83,8.605A188.805,188.805,0,0,0,59.395.02C58.665,0,57.955,0,57.225,0A187.425,187.425,0,0,0,0,8.868a4.435,4.435,0,0,0,.123.526,188.078,188.078,0,0,1,113.582-.242c.054-.181.09-.364.125-.545" transform="translate(3.121 85.741)" fill="#ff8f3d"/>
    <path id="패스_4859" data-name="패스 4859" d="M109.245,8.545c-.088-.222-.195-.465-.3-.687A187.717,187.717,0,0,0,57.17.02C56.445,0,55.737,0,55.03,0A186.5,186.5,0,0,0,.3,8.161c-.105.222-.193.445-.3.667a186.113,186.113,0,0,1,109.245-.283" transform="translate(5.301 66.13)" fill="#ff8f3d"/>
    <path id="패스_4860" data-name="패스 4860" d="M109.245,8.545c-.088-.222-.195-.465-.3-.687A187.717,187.717,0,0,0,57.17.02C56.445,0,55.737,0,55.03,0A186.5,186.5,0,0,0,.3,8.161c-.105.222-.193.445-.3.667a186.113,186.113,0,0,1,109.245-.283" transform="translate(5.301 66.13)" fill="#ff8f3d"/>
    <path id="패스_4861" data-name="패스 4861" d="M119.164,9.352A191.288,191.288,0,0,0,62.057.02C61.343,0,60.609,0,59.895,0A189.336,189.336,0,0,0,0,9.635c.017.181.036.343.071.524A190.308,190.308,0,0,1,119.093,9.9a2.9,2.9,0,0,0,.072-.545" transform="translate(0.433 46.43)" fill="#ff8f3d"/>
    <path id="패스_4862" data-name="패스 4862" d="M119.164,9.352A191.288,191.288,0,0,0,62.057.02C61.343,0,60.609,0,59.895,0A189.336,189.336,0,0,0,0,9.635c.017.181.036.343.071.524A190.308,190.308,0,0,1,119.093,9.9a2.9,2.9,0,0,0,.072-.545" transform="translate(0.433 46.43)" fill="#ff8f3d"/>
    <path id="패스_4863" data-name="패스 4863" d="M108.477,8.424c-.177-.262-.371-.5-.565-.748A187.728,187.728,0,0,0,56.783.021C56.077,0,55.352,0,54.645,0A185.838,185.838,0,0,0,.512,8c-.176.242-.353.485-.512.727a185.855,185.855,0,0,1,108.477-.3" transform="translate(5.646 26.831)" fill="#ff8f3d"/>
    <path id="패스_4864" data-name="패스 4864" d="M108.477,8.424c-.177-.262-.371-.5-.565-.748A187.728,187.728,0,0,0,56.783.021C56.077,0,55.352,0,54.645,0A185.838,185.838,0,0,0,.512,8c-.176.242-.353.485-.512.727a185.855,185.855,0,0,1,108.477-.3" transform="translate(5.646 26.831)" fill="#ff8f3d"/>
    <path id="패스_4865" data-name="패스 4865" d="M71.935,4.383c-.183-.242-.366-.465-.565-.687A165.934,165.934,0,0,0,38.319.02C37.654,0,36.972,0,36.308,0A165.361,165.361,0,0,0,.564,3.878c-.2.2-.382.445-.564.667a164.319,164.319,0,0,1,71.935-.162" transform="translate(23.948 8.162)" fill="#ff8f3d"/>
    <path id="패스_4866" data-name="패스 4866" d="M71.935,4.383c-.183-.242-.366-.465-.565-.687A165.934,165.934,0,0,0,38.319.02C37.654,0,36.972,0,36.308,0A165.361,165.361,0,0,0,.564,3.878c-.2.2-.382.445-.564.667a164.319,164.319,0,0,1,71.935-.162" transform="translate(23.948 8.162)" fill="#ff8f3d"/>
    <g id="그룹_2319" data-name="그룹 2319" transform="translate(45.198 0.003)" opacity="0.3" style="mix-blend-mode: multiply;isolation: isolate">
      <g id="그룹_950" data-name="그룹 950" transform="translate(0 0)">
        <g id="그룹_949" data-name="그룹 949" transform="translate(0 0)" clip-path="url(#clip-path)">
          <path id="패스_2671" data-name="패스 2671" d="M73.328,41.48A20.132,20.132,0,0,0,60.784,29.316C60.056,19.031,51.249,9.478,40.926,4.721,30.645-.02,18.5-.807,7.05.677,4.728.374,2.363.177,0,.088A90.86,90.86,0,0,1,25.836,13.145c8.95,6.314,16.908,13.846,22.181,22.9,5.15,8.8,6.6,18.334,6.989,28.262,1.414,37.279-18.422,71.677-52.482,93.036.748.124,1.475.232,2.223.321H9.354c10.443-1.324,20.624-4.937,28.341-11.288C46.4,139.237,51.552,128.38,49.573,118c9.069-4.776,17.17-11.484,20.886-20.214,3.718-8.747,2.95-19.175-3.232-26.741,3.515-3.4,5.494-8.211,6.546-12.719,1.333-5.563,1.554-11.448-.445-16.85" transform="translate(0 0)" fill="#f3ab56"/>
        </g>
      </g>
    </g>
    <g id="그룹_2320" data-name="그룹 2320" transform="translate(85.135 4.849)" opacity="0.3" style="mix-blend-mode: multiply;isolation: isolate">
      <g id="그룹_953" data-name="그룹 953" transform="translate(0 0)">
        <g id="그룹_952" data-name="그룹 952" clip-path="url(#clip-path-2)">
          <path id="패스_2672" data-name="패스 2672" d="M21.211,28.4a1.165,1.165,0,0,0-.242-.1c-.041-.02-.081-.02-.122-.041C20.12,16.646,11.313,5.858.99.485.667.323.323.142,0,0A41.2,41.2,0,0,1,6.546,6.181a49.417,49.417,0,0,1,10.524,22.2c0,.02,1.979.02,4.141.02" transform="translate(0 -0.001)" fill="#f3ab56"/>
        </g>
      </g>
    </g>
    <path id="패스_4867" data-name="패스 4867" d="M0,3.213S19.017-.69,35.117.107" transform="translate(21.117 114.857)" fill="none" stroke="#ad5235" stroke-linecap="round" stroke-linejoin="round" stroke-width="0.663"/>
    <path id="패스_4868" data-name="패스 4868" d="M24.654,3.39A57.819,57.819,0,0,0,0,.231" transform="translate(74.13 115.035)" fill="none" stroke="#ad5235" stroke-linecap="round" stroke-linejoin="round" stroke-width="0.663"/>
    <path id="패스_4869" data-name="패스 4869" d="M0,.747A118.643,118.643,0,0,1,43.472,3.9" transform="translate(69.231 66.894)" fill="none" stroke="#ad5235" stroke-linecap="round" stroke-linejoin="round" stroke-width="0.663"/>
    <path id="패스_4870" data-name="패스 4870" d="M0,4.792A151.11,151.11,0,0,1,35.562,0" transform="translate(7.203 66.737)" fill="none" stroke="#ad5235" stroke-linecap="round" stroke-linejoin="round" stroke-width="0.663"/>
    <path id="패스_4871" data-name="패스 4871" d="M23.958.687a.516.516,0,0,0-.465-.545C21.857.061,20.22,0,18.584,0A86.193,86.193,0,0,0,.1,2c-.04.363-.081.707-.1,1.071a85.071,85.071,0,0,1,23.432-1.92.5.5,0,0,0,.526-.465" transform="translate(14.029 29.977)" fill="#ad5235"/>
    <path id="패스_4872" data-name="패스 4872" d="M59.168,31.849C59.168,14.26,45.921,0,29.581,0S0,14.26,0,31.849,13.245,63.7,29.581,63.7s29.586-14.26,29.586-31.849" transform="translate(28.312 18.695)" fill="#884e43"/>
    <g id="그룹_2321" data-name="그룹 2321" transform="translate(29.336 21.775)" opacity="0.33" style="mix-blend-mode: multiply;isolation: isolate">
      <g id="그룹_956" data-name="그룹 956" transform="translate(0 0)">
        <g id="그룹_955" data-name="그룹 955" clip-path="url(#clip-path-3)">
          <path id="패스_2679" data-name="패스 2679" d="M4.188,26.138A32.515,32.515,0,0,1,16.9,0C6.9,5.092,0,16.056,0,28.766c0,17.6,13.243,31.847,29.588,31.847a27.9,27.9,0,0,0,16.9-5.709,27.785,27.785,0,0,1-12.71,3.081c-16.344,0-29.588-14.251-29.588-31.847" transform="translate(0 0)" fill="#884e43"/>
        </g>
      </g>
    </g>
  </g>
</svg>
