<svg xmlns="http://www.w3.org/2000/svg" xmlns:xlink="http://www.w3.org/1999/xlink" width="202.146" height="232.981" viewBox="0 0 202.146 232.981">
  <defs>
    <clipPath id="clip-path">
      <rect id="사각형_1974" data-name="사각형 1974" width="18.012" height="9.648" fill="none"/>
    </clipPath>
    <clipPath id="clip-path-2">
      <rect id="사각형_1975" data-name="사각형 1975" width="17.774" height="10.08" fill="none"/>
    </clipPath>
    <clipPath id="clip-path-3">
      <rect id="사각형_1976" data-name="사각형 1976" width="18.447" height="6.635" fill="none"/>
    </clipPath>
  </defs>
  <g id="p04_pibi" transform="translate(0)">
    <path id="패스_9069" data-name="패스 9069" d="M148.939,211.235s1.2,1.286-2.281,5.432c-4.048,4.826-13.485,16.188-26.318,38.706S81,331.225,63.246,324.062,36.779,294.44,44.7,263.751s29.1-47.365,66.463-51.941,35.145-2.7,37.776-.576" transform="translate(-41.76 -114.401)" fill="#f2f2f2"/>
    <path id="패스_9070" data-name="패스 9070" d="M140.559,220.866s-1.3,1.18,1.812,5.605c3.625,5.151,12.064,17.273,22.945,40.8s32.773,78.912,51.069,73.279,28.881-27.272,23.588-58.522-24.982-49.661-61.824-57.385-34.789-5.672-37.591-3.774" transform="translate(-39.192 -114.137)" fill="#f2f2f2"/>
    <path id="패스_9085" data-name="패스 9085" d="M120.391,313.484c-2.605.376.5,11.962-2.186,17.372-3.676,7.4-7.781,4.965-7.781,9.448,0,3.078,13.339,6.156,12.807-12.759-.279-9.962.219-14.5-2.841-14.061" transform="translate(-39.97 -111.678)" fill="#001a1a"/>
    <path id="패스_9086" data-name="패스 9086" d="M175.282,315.484c2.605.376-.5,11.962,2.186,17.372,3.676,7.4,7.781,4.965,7.781,9.448,0,3.078-13.339,6.156-12.807-12.759.279-9.962-.219-14.5,2.841-14.061" transform="translate(-38.354 -111.626)" fill="#001a1a"/>
    <path id="패스_9087" data-name="패스 9087" d="M161.151,131.4c-.582-3.172-1.173-6.591-3.095-9.272a12.693,12.693,0,0,0-6.167-4.5c-5.382-1.894-11.156-.387-15.537,3.071-5,3.946-7.881,9.872-9.485,15.916a114.048,114.048,0,0,0-3.163,22.24q-.391,6.48-.241,12.976a77.813,77.813,0,0,0,.994,12.683c.185.968,1.718.733,1.7-.23-.061-3.489-.441-6.969-.57-10.458s-.139-6.99-.032-10.482a151.372,151.372,0,0,1,2.03-20.868c1.043-6.091,2.688-12.388,6.647-17.285,3.478-4.3,8.582-7.342,14.261-6.76a12.049,12.049,0,0,1,7.732,3.742c2.358,2.624,3.137,6.183,3.773,9.546.143.756,1.289.435,1.151-.317" transform="translate(-39.631 -116.804)" fill="#001313"/>
    <path id="패스_9088" data-name="패스 9088" d="M208.211,138.849c-.582-3.172-1.173-6.591-3.095-9.272a12.693,12.693,0,0,0-6.167-4.5c-5.382-1.894-11.156-.387-15.537,3.071-5,3.946-7.881,9.872-9.485,15.916a114.048,114.048,0,0,0-3.163,22.24q-.391,6.48-.241,12.976a77.812,77.812,0,0,0,.994,12.683c.185.968,1.718.733,1.7-.23-.061-3.489-.441-6.969-.57-10.458s-.139-6.99-.032-10.482a151.367,151.367,0,0,1,2.03-20.868c1.044-6.091,2.688-12.388,6.647-17.285,3.478-4.3,8.582-7.342,14.261-6.76a12.049,12.049,0,0,1,7.732,3.742c2.358,2.624,3.137,6.183,3.773,9.546.143.756,1.289.435,1.151-.317" transform="translate(-38.405 -116.61)" fill="#001313"/>
    <path id="패스_9089" data-name="패스 9089" d="M140.77,330.78l6.117,11.328q3.217-5.145,6-10.545c-4.139.007-11.758-.684-12.115-.783" transform="translate(-39.179 -111.226)" fill="#001a1a"/>
    <path id="패스_9090" data-name="패스 9090" d="M148.455,337.83c-21.547,0-38.991-18.469-46.173-44.121-8.016-28.627-18.469-121.076,37.082-131.439,41.8-7.8,70.776,20.98,68.6,51.406-2.052,28.73-9.821,68.628-20.521,96.45-5.13,13.339-17.443,27.7-38.991,27.7" transform="translate(-40.35 -115.653)" fill="#ffb200"/>
    <path id="패스_9091" data-name="패스 9091" d="M198.642,253.454c1.654,1.936,28.551-7.314,34.489-20.214s-2.88-17.325-9.045-8.242-4.533,13.695-18.637,20.8c-6.128,3.088-8.639,5.508-6.808,7.651" transform="translate(-37.686 -114.109)" fill="#001a1a"/>
    <path id="패스_9092" data-name="패스 9092" d="M97.993,248.24c-2.321-1.048-22.717,18.777-22.6,32.978s9.986,14.449,11.694,3.6-1.731-14.321,8-26.76c4.228-5.4,5.471-8.663,2.9-9.823" transform="translate(-40.883 -113.379)" fill="#001a1a"/>
    <path id="패스_9093" data-name="패스 9093" d="M142.9,187.564a4.893,4.893,0,1,1-4.893-4.893,4.893,4.893,0,0,1,4.893,4.893" transform="translate(-39.379 -115.087)" fill="#001a1a"/>
    <path id="패스_9094" data-name="패스 9094" d="M179.367,188.358a4.893,4.893,0,1,1-4.893-4.893,4.893,4.893,0,0,1,4.893,4.893" transform="translate(-38.428 -115.067)" fill="#001a1a"/>
    <g id="그룹_4760" data-name="그룹 4760" transform="translate(75.841 80.544)" opacity="0.5">
      <g id="그룹_3587" data-name="그룹 3587" transform="translate(0)">
        <g id="그룹_3586" data-name="그룹 3586" clip-path="url(#clip-path)">
          <path id="패스_6693" data-name="패스 6693" d="M133.645,201.822c-.472,2.493-4.868,3.756-9.818,2.82s-8.583-3.717-8.111-6.211,4.868-3.755,9.818-2.82,8.583,3.717,8.111,6.211" transform="translate(-115.674 -195.302)" fill="#ff4341"/>
        </g>
      </g>
    </g>
    <g id="그룹_4761" data-name="그룹 4761" transform="translate(139.576 82.381)" opacity="0.5">
      <g id="그룹_3590" data-name="그룹 3590" transform="translate(0 0)">
        <g id="그룹_3589" data-name="그룹 3589" clip-path="url(#clip-path-2)">
          <path id="패스_6694" data-name="패스 6694" d="M195.48,199.737c.666,2.449-2.736,5.506-7.6,6.828s-9.343.409-10.009-2.04,2.735-5.506,7.6-6.828,9.343-.409,10.009,2.04" transform="translate(-177.79 -197.092)" fill="#ff4341"/>
        </g>
      </g>
    </g>
    <path id="패스_9095" data-name="패스 9095" d="M97.144,223.414s13.4,13.57,54.382,15.391c46.173,2.052,55.719-18.432,55.719-18.432L203.9,244.926s-10.309,17.479-53.4,15.427c-44.262-2.108-54.382-17.443-54.382-17.443s0-5.13,1.026-19.5" transform="translate(-40.343 -114.105)" fill="#001a1a"/>
    <path id="패스_9096" data-name="패스 9096" d="M97.789,268.094s10.6,13.588,48.563,15.64c38.946,2.105,51.988-12.788,51.988-12.788l-5.815,21s-9.235,8.209-46.173,8.209c-23.622,0-44.407-10.171-45.291-13.808s-3.272-18.25-3.272-18.25" transform="translate(-40.3 -112.86)" fill="#001a1a"/>
    <g id="그룹_4762" data-name="그룹 4762" transform="translate(108.269 83.2)" opacity="0.5">
      <g id="그룹_3593" data-name="그룹 3593" transform="translate(0 0)">
        <g id="그룹_3592" data-name="그룹 3592" clip-path="url(#clip-path-3)">
          <path id="패스_6697" data-name="패스 6697" d="M147.279,197.891l18.446.923s-.307,6.148-9.53,5.686-8.915-6.61-8.915-6.61" transform="translate(-147.278 -197.891)" fill="#ff4341"/>
        </g>
      </g>
    </g>
  </g>
</svg>
