<svg xmlns="http://www.w3.org/2000/svg" width="371.52" height="229.347" viewBox="0 0 371.52 229.347">
  <g id="building" transform="translate(-334.479 -325.288)">
    <path id="패스_5804" data-name="패스 5804" d="M181.578,13.841c5.645-4.542,11.772-9.3,18.5-13.84h0c-15.944,0-28.815.807-41.667,3.266-.281,2.953-.56,7.711-.841,10.665,7.3,0,18.2-.091,24.006-.091Z" transform="translate(176.91 528.645)" fill="#747176"/>
    <g id="building-2" data-name="building">
      <rect id="사각형_1823" data-name="사각형 1823" width="120.902" height="146.589" transform="translate(584.381 408.044)" fill="#615654"/>
      <rect id="사각형_1824" data-name="사각형 1824" width="120.902" height="7.441" transform="translate(584.381 460.771)" fill="#d9cbca"/>
      <rect id="사각형_1825" data-name="사각형 1825" width="120.902" height="25.507" transform="translate(584.381 488.23)" fill="#d9cbca"/>
      <path id="패스_5676" data-name="패스 5676" d="M325.371,311.373h-14.9V284.112h14.9Zm-1.434-25.834H311.9v24.407h12.035Z" transform="translate(293.25 203.077)" fill="#615654"/>
      <path id="패스_5677" data-name="패스 5677" d="M313.423,311.373h-14.9V284.112h14.9Zm-1.431-25.834h-12.03v24.407h12.03Z" transform="translate(332.125 203.077)" fill="#615654"/>
      <path id="패스_5678" data-name="패스 5678" d="M330.443,311.373h-8.025V284.112h8.025Zm-1.434-25.834h-5.16v24.407h5.16Z" transform="translate(261.248 203.077)" fill="#615654"/>
      <path id="패스_5679" data-name="패스 5679" d="M331.343,311.373h-14.9V284.112h14.9Zm-1.434-25.834H317.88v24.407h12.03Z" transform="translate(273.813 203.077)" fill="#615654"/>
      <path id="패스_5680" data-name="패스 5680" d="M319.4,311.373H304.5V284.112h14.9Zm-1.434-25.834h-12.03v24.407h12.03Z" transform="translate(312.689 203.077)" fill="#615654"/>
      <path id="패스_5681" data-name="패스 5681" d="M279.734,311.373h-8.027V284.112h8.027ZM278.3,285.539h-5.16v24.407h5.16Z" transform="translate(426.266 203.077)" fill="#615654"/>
      <path id="패스_5682" data-name="패스 5682" d="M289.529,311.373h-14.9V284.112h14.9ZM288.1,285.539h-12.03v24.407H288.1Z" transform="translate(409.877 203.077)" fill="#615654"/>
      <path id="패스_5683" data-name="패스 5683" d="M295.5,311.373H280.6V284.112h14.9Zm-1.434-25.834h-12.03v24.407h12.03Z" transform="translate(390.441 203.077)" fill="#615654"/>
      <path id="패스_5684" data-name="패스 5684" d="M307.45,311.373h-14.9V284.112h14.9Zm-1.434-25.834H293.985v24.407h12.032Z" transform="translate(351.566 203.077)" fill="#615654"/>
      <path id="패스_5685" data-name="패스 5685" d="M301.475,311.373h-14.9V284.112h14.9Zm-1.434-25.834h-12.03v24.407h12.03Z" transform="translate(371.004 203.077)" fill="#615654"/>
      <path id="패스_5686" data-name="패스 5686" d="M315.576,212.286,325.85,441.181l-38.028.451,4.855-229.075Z" transform="translate(343.826 113.002)" fill="#a3a1a1"/>
      <path id="패스_5687" data-name="패스 5687" d="M309.546,441.281l-19.013.226-2.712-228.985,11.451-.135Z" transform="translate(360.131 113.128)" fill="#757474"/>
      <path id="패스_5688" data-name="패스 5688" d="M304.489,236.941l13.128-.155.6,13.29-13.567.16-13.567.16.282-13.3Z" transform="translate(344.117 143.726)" fill="#edecec"/>
      <path id="패스_5689" data-name="패스 5689" d="M304.922,250.737l14.185-.167.87,19.428-14.825.176-14.825.176.412-19.444Z" transform="translate(344.053 161.013)" fill="#edecec"/>
      <rect id="사각형_1826" data-name="사각형 1826" width="136.516" height="126.652" transform="translate(355.49 427.704)" fill="#747176"/>
      <rect id="사각형_1827" data-name="사각형 1827" width="33.94" height="126.652" transform="translate(355.404 427.981)" fill="#a3a1a1"/>
      <path id="패스_5692" data-name="패스 5692" d="M366.809,256.525h142.32a2.7,2.7,0,1,1,0,5.4H366.809a2.7,2.7,0,1,1,0-5.4" transform="translate(-14.113 168.48)" fill="#525151"/>
      <rect id="사각형_1828" data-name="사각형 1828" width="8.536" height="12.684" transform="translate(364.828 452.217)" fill="#edecec"/>
      <rect id="사각형_1829" data-name="사각형 1829" width="8.538" height="12.684" transform="translate(380.414 452.217)" fill="#edecec"/>
      <rect id="사각형_1830" data-name="사각형 1830" width="8.538" height="12.684" transform="translate(396.006 452.217)" fill="#edecec"/>
      <rect id="사각형_1831" data-name="사각형 1831" width="8.538" height="12.684" transform="translate(411.596 452.217)" fill="#edecec"/>
      <rect id="사각형_1832" data-name="사각형 1832" width="8.536" height="12.684" transform="translate(427.189 452.217)" fill="#edecec"/>
      <rect id="사각형_1833" data-name="사각형 1833" width="8.538" height="12.684" transform="translate(442.775 452.217)" fill="#edecec"/>
      <rect id="사각형_1834" data-name="사각형 1834" width="8.538" height="12.684" transform="translate(458.367 452.217)" fill="#edecec"/>
      <rect id="사각형_1835" data-name="사각형 1835" width="8.538" height="12.684" transform="translate(473.957 452.217)" fill="#edecec"/>
      <rect id="사각형_1836" data-name="사각형 1836" width="8.536" height="12.684" transform="translate(364.828 476.597)" fill="#edecec"/>
      <rect id="사각형_1837" data-name="사각형 1837" width="8.538" height="12.684" transform="translate(380.414 476.597)" fill="#edecec"/>
      <rect id="사각형_1838" data-name="사각형 1838" width="8.538" height="12.684" transform="translate(396.006 476.597)" fill="#edecec"/>
      <rect id="사각형_1839" data-name="사각형 1839" width="8.538" height="12.684" transform="translate(411.596 476.597)" fill="#edecec"/>
      <rect id="사각형_1840" data-name="사각형 1840" width="8.536" height="12.684" transform="translate(427.189 476.597)" fill="#edecec"/>
      <rect id="사각형_1841" data-name="사각형 1841" width="8.538" height="12.684" transform="translate(442.775 476.597)" fill="#edecec"/>
      <rect id="사각형_1842" data-name="사각형 1842" width="8.538" height="12.684" transform="translate(458.367 476.597)" fill="#edecec"/>
      <rect id="사각형_1843" data-name="사각형 1843" width="8.538" height="12.684" transform="translate(473.957 476.597)" fill="#edecec"/>
      <rect id="사각형_1844" data-name="사각형 1844" width="8.536" height="12.684" transform="translate(364.828 500.975)" fill="#edecec"/>
      <rect id="사각형_1845" data-name="사각형 1845" width="8.538" height="12.684" transform="translate(380.414 500.975)" fill="#edecec"/>
      <rect id="사각형_1846" data-name="사각형 1846" width="8.538" height="12.684" transform="translate(396.006 500.975)" fill="#edecec"/>
      <rect id="사각형_1847" data-name="사각형 1847" width="8.538" height="12.684" transform="translate(411.596 500.975)" fill="#edecec"/>
      <rect id="사각형_1848" data-name="사각형 1848" width="8.536" height="12.684" transform="translate(427.189 500.975)" fill="#edecec"/>
      <rect id="사각형_1849" data-name="사각형 1849" width="8.538" height="12.684" transform="translate(442.775 500.975)" fill="#edecec"/>
      <rect id="사각형_1850" data-name="사각형 1850" width="8.538" height="12.684" transform="translate(458.367 500.975)" fill="#edecec"/>
      <rect id="사각형_1851" data-name="사각형 1851" width="8.538" height="12.684" transform="translate(473.957 500.975)" fill="#edecec"/>
      <rect id="사각형_1852" data-name="사각형 1852" width="136.604" height="8.189" transform="translate(355.557 546.094)" fill="#525151"/>
      <path id="패스_5693" data-name="패스 5693" d="M415.9,240.443s7.082,147.412,22.534,165.877H325.12s23.176-50.207,27.04-165.877Z" transform="translate(147.174 148.313)" fill="#7d6660"/>
      <path id="패스_5694" data-name="패스 5694" d="M406.91,240.443V406.32H350.254s23.179-50.207,27.04-165.877Z" transform="translate(122.039 148.313)" fill="#97776c"/>
      <path id="패스_5695" data-name="패스 5695" d="M403.733,260.8l.631,8.369H333.53l.78-8.369Z" transform="translate(162.281 173.836)" fill="#624800"/>
      <path id="패스_5696" data-name="패스 5696" d="M409.255,275.362l.841,8.412H332.2l1.2-8.412Z" transform="translate(159.545 192.104)" fill="#624800"/>
      <path id="패스_5697" data-name="패스 5697" d="M398.6,240.443l.5,9.287-63.892.133.363-9.42Z" transform="translate(163.762 148.313)" fill="#624800"/>
      <path id="패스_5800" data-name="패스 5800" d="M342.355,224.892l9,200.538-33.315.394,4.251-200.7Z" transform="translate(250.205 128.811)" fill="#a3a1a1"/>
      <path id="패스_5801" data-name="패스 5801" d="M337.074,425.43l-16.658.2L318.04,225.011l10.033-.12Z" transform="translate(264.488 128.81)" fill="#757474"/>
      <path id="패스_5802" data-name="패스 5802" d="M332.643,246.491l11.5-.135L344.669,258l-11.888.14-11.886.142.246-11.654Z" transform="translate(250.459 155.729)" fill="#edecec"/>
      <path id="패스_5803" data-name="패스 5803" d="M333.022,258.579l12.427-.146.764,17.02-12.99.153-12.988.156.361-17.036Z" transform="translate(250.402 170.873)" fill="#edecec"/>
    </g>
  </g>
</svg>
