<svg xmlns="http://www.w3.org/2000/svg" width="212.852" height="27.28" viewBox="0 0 212.852 27.28">
  <path id="pond03" d="M201.389,40.224c-7.75,3.313-10.431,7.831-48.793,10.481s-94.671.824-104.983,0c-22.085-2.55-67.284-7.048-54.845-16.58C.362,29,25.657,25.759,32.851,25.224c4.918-.366,9.887-.729,14.762.031,4.29.669,8.438,2.2,12.762,2.587,8.271.74,16.745-2.742,24.779-.594,3.391.905,6.461,2.767,9.776,3.926,16.907,5.914,35.2-7.3,52.819-4.225,3.058.533,6.015,1.552,9.058,2.17,8.961,1.821,21.185-2.031,30.866,0S208.126,35.125,201.389,40.224Z" transform="translate(9.36 -24.808)" fill="#9bc3d9"/>
</svg>
