<svg xmlns="http://www.w3.org/2000/svg" width="213.603" height="27.281" viewBox="0 0 213.603 27.281">
  <path id="pond02" d="M-8.107,40.872c7.75,3.313,11.281,7.184,49.643,9.834s94.671.824,104.983,0c22.085-2.55,67.284-7.048,54.845-16.58-7.594-5.122-32.888-8.367-40.082-8.9-4.918-.366-9.887-.729-14.762.031-4.29.669-8.438,2.2-12.762,2.587-8.271.74-16.745-2.742-24.779-.594-3.391.905-6.461,2.767-9.776,3.926C82.3,37.088,64,23.877,46.383,26.949c-3.058.533-6.015,1.552-9.058,2.17-8.961,1.821-21.185-2.031-30.866,0S-14.844,35.772-8.107,40.872Z" transform="translate(10.111 -24.808)" fill="#82a9be"/>
</svg>
