<svg xmlns="http://www.w3.org/2000/svg" width="85.143" height="39.75" viewBox="0 0 85.143 39.75"><g transform="translate(-524.412 -4830.015)"><path d="M108.372,229.508a8.778,8.778,0,0,0-2.576,3.448,8.631,8.631,0,0,0-3.847-1.753c-3.376-.648-5.823.588-6.07,2.9,0,0,.876-2.082,5.9-1.3a8.842,8.842,0,0,1,3.664,1.373l-.019,2.893,1.239-.283,1.445-.331-1.388-2.562a11.868,11.868,0,0,1,2.555-3.061c3.484-3.09,5.8-1.722,5.8-1.722-1.309-1.916-4.036-1.8-6.7.4" transform="translate(494.484 4602.255)" fill="#84888a"/><path d="M103.682,243.231a5.116,5.116,0,0,0-1.6,1.839,5.185,5.185,0,0,0-2.264-.838c-2-.274-3.486.415-3.678,1.621,0,0,.562-1.1,3.546-.788a5.488,5.488,0,0,1,2.163.646l-.067,1.5.744-.17.869-.2-.78-1.3a7.081,7.081,0,0,1,1.582-1.64c2.137-1.669,3.491-1,3.491-1-.744-.97-2.375-.857-4.005.334" transform="translate(494.848 4622.55)" fill="#84888a"/><path d="M78.691,236.9a7.017,7.017,0,0,0-2.185,2.507,7.021,7.021,0,0,0-3.083-1.143c-2.73-.372-4.752.567-5.011,2.211,0,0,.766-1.5,4.831-1.076a7.468,7.468,0,0,1,2.946.879L76.1,242.33l1.013-.233,1.186-.271-1.064-1.779a9.692,9.692,0,0,1,2.156-2.231c2.913-2.276,4.757-1.369,4.757-1.369-1.013-1.323-3.234-1.169-5.458.454" transform="translate(456 4613.18)" fill="#84888a"/></g></svg>