<svg xmlns="http://www.w3.org/2000/svg" width="165.622" height="72.055" viewBox="0 0 165.622 72.055"><g transform="translate(-701.478 -4744.833)"><path d="M279.994,234.34a21.067,21.067,0,0,0-24.318-20.061,27.179,27.179,0,0,0-52.625-2.91,23.212,23.212,0,0,0-27.8,23.123l-1.505.022c-18.049.269-27.524,12.995-31.543,29.826l165.51-2.552a39.042,39.042,0,0,0-27.718-27.447" transform="translate(559.388 4552.549)" fill="#b8e3ff"/><path d="M199.94,201.554a18.2,18.2,0,1,0,0,36.4,19.48,19.48,0,0,1-13.753-18.2c-.725-13.5,13.753-18.2,13.753-18.2" transform="translate(614.784 4565.538)" fill="#c6e9ff"/><path d="M168.619,210.432a26.863,26.863,0,0,0-26.46,27.265s4.649-20.5,26.614-22.013c19.907-1.366,27.111,21.209,27.111,21.209a26.868,26.868,0,0,0-27.264-26.46" transform="translate(559.322 4577.972)" fill="#c6e9ff"/></g></svg>