<svg xmlns="http://www.w3.org/2000/svg" width="215.472" height="63.365" viewBox="0 0 215.472 63.365"><g transform="translate(-550.906 -4549.073)"><g transform="translate(550.906 4549.073)"><path d="M239.134,183.521a13.341,13.341,0,0,0-7.124,2.06,17.917,17.917,0,0,0-26.189-13.021,37.165,37.165,0,0,0-68.018,1.683,22.836,22.836,0,0,0-25.072,27.9H225.722c.259-.214.526-.425.773-.655.079.223.173.439.264.655h24.774a13.44,13.44,0,0,0-12.4-18.623" transform="translate(-37.101 -138.779)" fill="#c6e9ff"/><path d="M157.2,151.18a37.165,37.165,0,0,0-34.379,23.048,22.893,22.893,0,0,1,20.119,22.717l47.9-24.4A37.16,37.16,0,0,0,157.2,151.18" transform="translate(-22.115 -138.8)" fill="#c6e9ff"/><path d="M196.05,186.18a43.005,43.005,0,0,0-85.858.624,21.961,21.961,0,0,0-29.315,20.738c0,.5.041,1,.074,1.5H208.565A17.208,17.208,0,0,0,196.05,186.18" transform="translate(-80.877 -146.024)" fill="#b8e3ff"/></g></g></svg>