<svg xmlns="http://www.w3.org/2000/svg" width="132.327" height="57.632" viewBox="0 0 132.327 57.632"><g transform="translate(-454.077 -4888.051)"><path d="M145.331,285.516l-1.2-.017a18.4,18.4,0,0,0-22.04-18.332,21.547,21.547,0,0,0-41.721,2.307,17.043,17.043,0,0,0-2.231-.2,16.821,16.821,0,0,0-17.048,16.1A30.956,30.956,0,0,0,39.119,307.14l131.22,2.022c-3.189-13.343-10.7-23.432-25.007-23.646" transform="translate(414.958 4636.266)" fill="#b8e3ff"/><path d="M78,251.936a21.556,21.556,0,0,0-21.591,17.285,16.819,16.819,0,0,1,14.181,15.386l27.557-17.4A21.565,21.565,0,0,0,78,251.936" transform="translate(439.19 4636.12)" fill="#b8e3ff"/><path d="M48.34,275.03l19.389-15.77a17.06,17.06,0,0,0-2.231-.214A16.816,16.816,0,0,0,48.34,275.03" transform="translate(427.878 4646.083)" fill="#b8e3ff"/><path d="M56.414,259.132l14.181,15.384a16.819,16.819,0,0,0-14.181-15.384" transform="translate(439.19 4646.209)" fill="#b8e3ff"/><path d="M79.155,258.154a18.467,18.467,0,0,0-3.9.334l-2.5,17.951,24.414.533a18.419,18.419,0,0,0-18.013-18.817" transform="translate(462.084 4644.834)" fill="#b8e3ff"/><path d="M145.484,266.42l-1.2-.026-83.071-.223c0-.159.026-.312.034-.471a30.959,30.959,0,0,0-22.128,21.607L171.44,290.27c-3.1-13.367-11.648-23.538-25.956-23.85" transform="translate(414.964 4655.412)" fill="#b8e3ff"/><path d="M61.616,274.185a16.739,16.739,0,0,0,1.736-7.054c.012-.535-.007-1.066-.046-1.592Z" transform="translate(446.479 4655.187)" fill="#b8e3ff"/><path d="M61.616,274.185a16.739,16.739,0,0,0,1.736-7.054c.012-.535-.007-1.066-.046-1.592Z" transform="translate(446.479 4655.187)" fill="#b8e3ff"/><path d="M56.414,259.385s11.477,3.727,10.906,14.431a15.45,15.45,0,0,1-10.906,14.428,14.429,14.429,0,1,0,0-28.859" transform="translate(439.19 4646.564)" fill="#c6e9ff"/><path d="M97.681,266.423A21.3,21.3,0,0,0,76.066,287.4s5.71-17.9,21.492-16.815c17.415,1.2,21.1,17.451,21.1,17.451a21.3,21.3,0,0,0-20.978-21.615" transform="translate(466.725 4656.422)" fill="#c6e9ff"/></g></svg>