<svg xmlns="http://www.w3.org/2000/svg" width="22.748" height="26.879" viewBox="0 0 22.748 26.879"><g transform="translate(-725.485 -4878.337)"><path d="M167,256.869a10.168,10.168,0,0,0-3.136,3.712,10.2,10.2,0,0,0-4.478-1.734c-3.957-.583-6.874.795-7.234,3.244,0,0,1.095-2.221,6.987-1.551a10.68,10.68,0,0,1,4.274,1.34l-.108,3.054,1.465-.336,1.714-.391-1.558-2.663a13.923,13.923,0,0,1,3.1-3.3c4.192-3.364,6.874-1.99,6.874-1.99-1.481-1.983-4.7-1.779-7.9.619" transform="translate(573.331 4640.283)" fill="#84888a"/><path d="M162.671,248.6a3.734,3.734,0,0,0-1.165,1.337,3.778,3.778,0,0,0-1.645-.61c-1.457-.2-2.536.3-2.675,1.179,0,0,.408-.8,2.579-.574a3.988,3.988,0,0,1,1.57.471l-.048,1.093.543-.125.632-.144-.567-.948a5.108,5.108,0,0,1,1.15-1.191c1.554-1.215,2.538-.73,2.538-.73-.54-.706-1.726-.624-2.913.243" transform="translate(580.383 4630.452)" fill="#84888a"/></g></svg>