<svg xmlns="http://www.w3.org/2000/svg" width="128.103" height="55.625" viewBox="0 0 128.103 55.625"><g transform="translate(-1257.551 -4715.483)"><path d="M475.791,211.123l-1.157.022a17.814,17.814,0,0,0-21.924-17.007,20.857,20.857,0,0,0-40.286,3.6,16.551,16.551,0,0,0-2.166-.118,16.28,16.28,0,0,0-15.962,16.14,29.958,29.958,0,0,0-20.544,21.776l127.011-2.363c-3.522-12.805-11.119-22.318-24.971-22.054" transform="translate(883.811 4535.569)" fill="#95969c"/><path d="M475.954,211.314l-1.157.014a17.816,17.816,0,0,0-21.807-17.161,20.857,20.857,0,0,0-40.31,3.328,16.158,16.158,0,0,0-18.239,15.9,29.966,29.966,0,0,0-20.695,21.632l128.1-1.489c-3.436-12.829-12.044-22.388-25.9-22.22" transform="translate(883.804 4535.423)" fill="#95969c"/><path d="M389.113,187.225s11.112,3.611,10.555,13.97a14.95,14.95,0,0,1-10.555,13.965,13.967,13.967,0,0,0,0-27.934" transform="translate(905.333 4545.461)" fill="#a3a1a1"/><path d="M430.059,193.039a20.618,20.618,0,0,0-20.923,20.306s5.527-17.326,20.806-16.275c16.858,1.157,20.424,16.892,20.424,16.892a20.616,20.616,0,0,0-20.306-20.923" transform="translate(933.388 4553.604)" fill="#a3a1a1"/></g></svg>