<svg xmlns="http://www.w3.org/2000/svg" xmlns:xlink="http://www.w3.org/1999/xlink" width="216.943" height="213.137" viewBox="0 0 216.943 213.137">
  <defs>
    <clipPath id="clip-path">
      <rect id="사각형_1992" data-name="사각형 1992" width="20" height="8" transform="translate(572.118 182.337)" fill="none"/>
    </clipPath>
  </defs>
  <g id="p05_pibi" transform="translate(12058.999 -3992.223)">
    <path id="패스_9774" data-name="패스 9774" d="M566.34,247.611s1.269-1.15-1.766-5.463c-3.533-5.02-11.758-16.834-22.362-39.76s-31.94-76.907-49.771-71.417-28.148,26.579-22.99,57.035S493.8,236.4,529.7,243.933s33.905,5.528,36.636,3.678" transform="translate(-12527.121 3872.665)" fill="#f2f2f2"/>
    <path id="패스_9775" data-name="패스 9775" d="M573.675,248.692s-1.038-1.363,2.735-5.049c4.39-4.29,14.635-14.4,29.249-35.005s45.454-69.777,61.982-61.121,22.818,31.274,12.182,60.275-32.78,43.137-69.456,43.978-34.345-.76-36.692-3.078" transform="translate(-12527.121 3872.665)" fill="#f2f2f2"/>
    <path id="패스_9776" data-name="패스 9776" d="M545.376,302.311c-2.539.366.491,11.658-2.13,16.931-3.583,7.208-7.583,4.839-7.583,9.208,0,3,13,6,12.482-12.435-.272-9.709.213-14.134-2.769-13.7" transform="translate(-12527.121 3872.665)" fill="#001a1a"/>
    <path id="패스_9777" data-name="패스 9777" d="M600.448,304.311c2.539.366-.491,11.658,2.13,16.931,3.583,7.208,7.583,4.839,7.583,9.208,0,3-13,6-12.482-12.435.272-9.709-.213-14.134,2.769-13.7" transform="translate(-12527.121 3872.665)" fill="#001a1a"/>
    <path id="패스_9778" data-name="패스 9778" d="M601.686,129.524a13.6,13.6,0,0,0-10.165-9.51c-5.086-1.212-10.947.147-15.617,2.269-4.781,2.174-8.606,6.3-11.755,10.392a69.818,69.818,0,0,0-8.923,15.809c-1.329,3.183-2.493,6.433-3.562,9.712a81.416,81.416,0,0,0-2.956,10.347.844.844,0,0,0,1.627.449c1.057-2.665,1.755-5.47,2.612-8.2.839-2.677,1.73-5.339,2.711-7.968a81.566,81.566,0,0,1,7.428-15.348,43.181,43.181,0,0,1,10.466-11.82,24.991,24.991,0,0,1,14.137-4.537c5.521-.082,11.368,3.135,12.875,8.718a.582.582,0,0,0,1.122-.309" transform="translate(-12527.121 3872.665)" fill="#001313"/>
    <path id="패스_9779" data-name="패스 9779" d="M642.526,149.064a13.555,13.555,0,0,0-9.648-9.375c-5.376-1.5-11.161.246-15.669,3.285-4.895,3.3-8.488,8.167-11.552,13.133a143.907,143.907,0,0,0-8.948,16.919q-2.106,4.719-3.9,9.57a66.676,66.676,0,0,0-3.262,10.487.844.844,0,0,0,1.627.449c1.064-2.7,1.841-5.509,2.8-8.246s2-5.447,3.114-8.124a154.647,154.647,0,0,1,7.695-15.822c5.108-9.155,12.29-20.715,24.2-20.688,5.367.012,10.974,3.352,12.422,8.721a.582.582,0,0,0,1.122-.309" transform="translate(-12527.121 3872.665)" fill="#001313"/>
    <path id="패스_9780" data-name="패스 9780" d="M566.009,319.608l5.962,11.04q3.135-5.015,5.845-10.277c-4.034.007-11.459-.667-11.807-.763" transform="translate(-12527.121 3872.665)" fill="#001a1a"/>
    <path id="패스_9781" data-name="패스 9781" d="M572.356,322.165c-12.054,0-22.79-5.931-31.275-15.95-5.947-7.02-10.743-16.4-13.725-27.05-7.812-27.9-18-118,36.14-128.1,40.736-7.6,68.978,20.447,66.86,50.1-2,28-9.571,66.884-20,94-5,13-17,27-38,27" transform="translate(-12527.121 3872.665)" fill="#ffb200"/>
    <path id="패스_9782" data-name="패스 9782" d="M627.589,223.923c1.976,1.5,25.675-12.879,28.658-26.394s-6.332-15.9-10.321-5.976-1.48,13.981-13.438,23.673c-5.2,4.211-7.087,7.035-4.9,8.7" transform="translate(-12527.121 3872.665)" fill="#001a1a"/>
    <path id="패스_9783" data-name="패스 9783" d="M522.365,223.89c-1.764,1.746-27.135-9.422-31.854-22.432s4.205-16.594,9.454-7.271,3.29,13.669,16.409,21.719c5.7,3.5,7.944,6.051,5.991,7.984" transform="translate(-12527.121 3872.665)" fill="#001a1a"/>
    <path id="패스_9784" data-name="패스 9784" d="M567.9,176.268a4.769,4.769,0,1,1-4.769-4.769,4.769,4.769,0,0,1,4.769,4.769" transform="translate(-12527.121 3872.665)" fill="#001a1a"/>
    <path id="패스_9785" data-name="패스 9785" d="M604.356,177.063a4.769,4.769,0,1,1-4.769-4.769,4.769,4.769,0,0,1,4.769,4.769" transform="translate(-12527.121 3872.665)" fill="#001a1a"/>
    <path id="패스_9786" data-name="패스 9786" d="M522.356,212.165s13.064,13.225,53,15c45,2,54.3-17.963,54.3-17.963L626.4,233.13s-10.047,17.035-52.047,15.035c-43.137-2.054-53-17-53-17s0-5,1-19" transform="translate(-12527.121 3872.665)" fill="#001a1a"/>
    <path id="패스_9787" data-name="패스 9787" d="M523.028,256.922s10.329,13.243,47.329,15.243c37.957,2.052,50.667-12.463,50.667-12.463l-5.667,20.463s-9,8-45,8c-23.022,0-43.279-9.913-44.14-13.457s-3.189-17.786-3.189-17.786" transform="translate(-12527.121 3872.665)" fill="#001a1a"/>
    <path id="패스_9788" data-name="패스 9788" d="M608.269,172.911a10.884,10.884,0,0,1-6.528-.5,10.654,10.654,0,0,1-2.815-1.588,10.971,10.971,0,0,1-1.192-1.109c-.407-.432-.717-.962-1.3-1.152a.718.718,0,0,0-.9.686,2.73,2.73,0,0,0,.978,1.693,11.028,11.028,0,0,0,1.377,1.232A12.713,12.713,0,0,0,601.211,174a11.913,11.913,0,0,0,7.419.218.68.68,0,0,0-.361-1.311" transform="translate(-12527.121 3872.665)" fill="#001313"/>
    <path id="패스_9789" data-name="패스 9789" d="M554.046,173.689a11.918,11.918,0,0,0,7.429-.051,12.393,12.393,0,0,0,3.316-1.72,11.7,11.7,0,0,0,1.44-1.227,2.705,2.705,0,0,0,1.016-1.684.716.716,0,0,0-.9-.685c-.569.17-.883.673-1.281,1.081a11.176,11.176,0,0,1-10.66,2.975.68.68,0,0,0-.361,1.311" transform="translate(-12527.121 3872.665)" fill="#001313"/>
    <path id="패스_9790" data-name="패스 9790" d="M543.214,172.609s-5.97,3.436-5.97,8.358c0,4.776,4.776,4.776,5.97,2.388,1.51-3.02.017-8.367,0-10.746" transform="translate(-12527.121 3872.665)" fill="#fff"/>
    <g id="그룹_5555" data-name="그룹 5555" transform="translate(-12527.121 3872.665)" opacity="0.5">
      <g id="그룹_3634" data-name="그룹 3634">
        <g id="그룹_3633" data-name="그룹 3633" clip-path="url(#clip-path)">
          <path id="패스_6823" data-name="패스 6823" d="M588.118,190.337h-12a4,4,0,0,1,0-8h12a4,4,0,0,1,0,8" fill="#ff4341"/>
        </g>
      </g>
    </g>
  </g>
</svg>
