<svg xmlns="http://www.w3.org/2000/svg" width="1039.998" height="394.825" viewBox="0 0 1039.998 394.825">
  <g id="p05_climatechange" transform="translate(-440.002 -4772.085)">
    <rect id="사각형_2759" data-name="사각형 2759" width="912" height="59" rx="29.5" transform="translate(503.999 5107.91)" fill="#bedeef"/>
    <g id="p05_climatechange-2" data-name="p05_climatechange">
      <path id="패스_9135" data-name="패스 9135" d="M236.645,306.275a8.508,8.508,0,1,0,0,17.017s-4.886-1.544-5.261-8.507a8.744,8.744,0,0,1,5.261-8.509" transform="translate(679.876 4712.496)" fill="#6d9300"/>
      <rect id="사각형_2493" data-name="사각형 2493" width="1039.998" height="108.347" rx="54.174" transform="translate(440.002 5016.84)" fill="#48a47f"/>
      <path id="다각형_31" data-name="다각형 31" d="M168.734,24.874a53,53,0,0,1,64.646,0L278.66,59.719c40.1,30.86,18.279,95-32.323,95H155.776c-50.6,0-72.425-64.142-32.323-95Z" transform="translate(575.397 4882.422)" fill="#91cc9e"/>
      <path id="패스_9760" data-name="패스 9760" d="M156.983,69c23.962-35.424,42.188-49.339,57.281-5.892,16.615,40.068,126.152,237.971,78.875,237.971H117.859c-49.043,0-99.5-6.869-90.145-29.454Z" transform="translate(756.012 4736.067)" fill="#48a47f"/>
      <path id="다각형_30" data-name="다각형 30" d="M99.169,52.5a39,39,0,0,1,66.029,0l61.587,97.934c16.333,25.972-2.334,59.762-33.014,59.762H70.6c-30.681,0-49.347-33.79-33.014-59.762Z" transform="translate(505.156 4826.973)" fill="#c1dda8"/>
      <rect id="사각형_59" data-name="사각형 59" width="128.788" height="156.15" transform="translate(1013.307 4881.014)" fill="#a2a2a2"/>
      <rect id="사각형_60" data-name="사각형 60" width="128.788" height="7.926" transform="translate(1013.307 4937.18)" fill="#d5d5d5"/>
      <path id="패스_9265" data-name="패스 9265" d="M0,0H128.788V27.171H0Z" transform="translate(1013.307 4966.431)" fill="#d5d5d5"/>
      <path id="패스_82" data-name="패스 82" d="M310.472,313.151h15.871V284.112H310.472ZM312,285.632h12.819v26H312Z" transform="translate(795.149 4681.209)" fill="#a3a1a1"/>
      <path id="패스_83" data-name="패스 83" d="M298.526,313.151h15.869V284.112H298.526Zm1.525-27.519h12.815v26H300.051Z" transform="translate(778.412 4681.209)" fill="#a3a1a1"/>
      <path id="패스_84" data-name="패스 84" d="M322.419,313.151h8.548V284.112h-8.548Zm1.527-27.519h5.5v26h-5.5Z" transform="translate(811.889 4681.209)" fill="#615654"/>
      <path id="패스_85" data-name="패스 85" d="M316.446,313.151h15.869V284.112H316.446Zm1.527-27.519h12.815v26H317.973Z" transform="translate(803.52 4681.209)" fill="#a3a1a1"/>
      <path id="패스_86" data-name="패스 86" d="M304.5,313.151h15.869V284.112H304.5Zm1.527-27.519h12.815v26H306.026Z" transform="translate(786.781 4681.209)" fill="#a3a1a1"/>
      <path id="패스_87" data-name="패스 87" d="M271.707,313.151h8.55V284.112h-8.55Zm1.527-27.519h5.5v26h-5.5Z" transform="translate(740.836 4681.209)" fill="#615654"/>
      <path id="패스_88" data-name="패스 88" d="M274.632,313.151H290.5V284.112H274.632Zm1.527-27.519h12.815v26H276.159Z" transform="translate(744.935 4681.209)" fill="#a3a1a1"/>
      <path id="패스_89" data-name="패스 89" d="M280.605,313.151h15.869V284.112H280.605Zm1.527-27.519h12.815v26H282.132Z" transform="translate(753.303 4681.209)" fill="#a3a1a1"/>
      <path id="패스_90" data-name="패스 90" d="M292.551,313.151h15.871V284.112H292.551Zm1.527-27.519H306.9v26H294.078Z" transform="translate(770.04 4681.209)" fill="#a3a1a1"/>
      <path id="패스_91" data-name="패스 91" d="M286.578,313.151h15.869V284.112H286.578Zm1.527-27.519H300.92v26H288.105Z" transform="translate(761.672 4681.209)" fill="#a3a1a1"/>
      <path id="패스_92" data-name="패스 92" d="M298.766,212.286,287.821,456.11l40.509.48-5.172-244.016Z" transform="translate(762.949 4580.576)" fill="#adadad"/>
      <path id="패스_93" data-name="패스 93" d="M287.822,456.21l20.253.24,2.888-243.92-12.2-.144Z" transform="translate(762.949 4580.716)" fill="#919091"/>
      <path id="패스_94" data-name="패스 94" d="M306.028,236.951l-14.3-.166-.651,14.157,14.776.171,14.776.17-.307-14.167Z" transform="translate(767.332 4614.9)" fill="#edecec"/>
      <path id="패스_95" data-name="패스 95" d="M306.645,250.748l-15.376-.178-.943,20.695,16.069.187,16.069.187-.447-20.712Z" transform="translate(766.369 4634.214)" fill="#edecec"/>
      <rect id="사각형_62" data-name="사각형 62" width="145.42" height="134.913" transform="translate(1240.496 4901.956)" fill="#919091"/>
      <rect id="사각형_63" data-name="사각형 63" width="36.153" height="134.913" transform="translate(1349.854 4902.251)" fill="#adadad"/>
      <path id="패스_98" data-name="패스 98" d="M518.588,256.525h-151.6a2.874,2.874,0,1,0,0,5.748h151.6a2.874,2.874,0,1,0,0-5.748" transform="translate(870.303 4642.557)" fill="#87888b"/>
      <rect id="사각형_64" data-name="사각형 64" width="9.093" height="13.511" transform="translate(1366.875 4928.068)" fill="#edecec"/>
      <rect id="사각형_65" data-name="사각형 65" width="9.095" height="13.511" transform="translate(1350.27 4928.068)" fill="#edecec"/>
      <rect id="사각형_66" data-name="사각형 66" width="9.095" height="13.511" transform="translate(1333.66 4928.068)" fill="#edecec"/>
      <rect id="사각형_67" data-name="사각형 67" width="9.095" height="13.511" transform="translate(1317.055 4928.068)" fill="#edecec"/>
      <rect id="사각형_68" data-name="사각형 68" width="9.093" height="13.511" transform="translate(1300.446 4928.068)" fill="#edecec"/>
      <rect id="사각형_69" data-name="사각형 69" width="9.095" height="13.511" transform="translate(1283.841 4928.068)" fill="#edecec"/>
      <rect id="사각형_70" data-name="사각형 70" width="9.095" height="13.511" transform="translate(1267.232 4928.068)" fill="#edecec"/>
      <rect id="사각형_71" data-name="사각형 71" width="9.095" height="13.511" transform="translate(1250.626 4928.068)" fill="#edecec"/>
      <rect id="사각형_72" data-name="사각형 72" width="9.093" height="13.511" transform="translate(1366.875 4954.039)" fill="#edecec"/>
      <rect id="사각형_73" data-name="사각형 73" width="9.095" height="13.511" transform="translate(1350.27 4954.039)" fill="#edecec"/>
      <rect id="사각형_74" data-name="사각형 74" width="9.095" height="13.511" transform="translate(1333.66 4954.039)" fill="#edecec"/>
      <rect id="사각형_75" data-name="사각형 75" width="9.095" height="13.511" transform="translate(1317.055 4954.039)" fill="#edecec"/>
      <rect id="사각형_76" data-name="사각형 76" width="9.093" height="13.511" transform="translate(1300.446 4954.039)" fill="#edecec"/>
      <rect id="사각형_77" data-name="사각형 77" width="9.095" height="13.511" transform="translate(1283.841 4954.039)" fill="#edecec"/>
      <rect id="사각형_78" data-name="사각형 78" width="9.095" height="13.511" transform="translate(1267.232 4954.039)" fill="#edecec"/>
      <rect id="사각형_79" data-name="사각형 79" width="9.095" height="13.511" transform="translate(1250.626 4954.039)" fill="#edecec"/>
      <rect id="사각형_80" data-name="사각형 80" width="9.093" height="13.511" transform="translate(1366.875 4980.006)" fill="#edecec"/>
      <rect id="사각형_81" data-name="사각형 81" width="9.095" height="13.511" transform="translate(1350.27 4980.006)" fill="#edecec"/>
      <rect id="사각형_82" data-name="사각형 82" width="9.095" height="13.511" transform="translate(1333.66 4980.006)" fill="#edecec"/>
      <rect id="사각형_83" data-name="사각형 83" width="9.095" height="13.511" transform="translate(1317.055 4980.006)" fill="#edecec"/>
      <rect id="사각형_84" data-name="사각형 84" width="9.093" height="13.511" transform="translate(1300.446 4980.006)" fill="#edecec"/>
      <rect id="사각형_85" data-name="사각형 85" width="9.095" height="13.511" transform="translate(1283.841 4980.006)" fill="#edecec"/>
      <rect id="사각형_86" data-name="사각형 86" width="9.095" height="13.511" transform="translate(1267.232 4980.006)" fill="#edecec"/>
      <rect id="사각형_87" data-name="사각형 87" width="9.095" height="13.511" transform="translate(1250.626 4980.006)" fill="#edecec"/>
      <rect id="사각형_88" data-name="사각형 88" width="145.514" height="8.723" transform="translate(1240.33 5028.33)" fill="#87888b"/>
      <path id="패스_99" data-name="패스 99" d="M349.124,240.443s-7.544,157.027-24,176.7h120.7s-24.688-53.482-28.8-176.7Z" transform="translate(815.673 4620.025)" fill="#919091"/>
      <path id="패스_100" data-name="패스 100" d="M350.254,240.443v176.7h60.352s-24.691-53.482-28.8-176.7Z" transform="translate(850.888 4620.025)" fill="#adadad"/>
      <path id="패스_101" data-name="패스 101" d="M334.2,260.8l-.672,8.915h75.454l-.831-8.915Z" transform="translate(827.456 4648.541)" fill="#edecec"/>
      <path id="패스_102" data-name="패스 102" d="M333.1,275.362l-.9,8.961h82.975l-1.28-8.961Z" transform="translate(825.595 4668.95)" fill="#edecec"/>
      <path id="패스_103" data-name="패스 103" d="M335.746,240.443l-.537,9.893,68.878.142-.391-10.034Z" transform="translate(828.988 4620.024)" fill="#edecec"/>
      <path id="패스_104" data-name="패스 104" d="M290.051,259.943c-17.941-20.14-39.937-53.275-39.937-53.275l-.194,257.8h68.352s-.96-146.2-2.715-156.014-7.563-28.367-25.5-48.507" transform="translate(710.309 4572.703)" fill="#adadad"/>
      <path id="패스_105" data-name="패스 105" d="M289.937,259.943C272,239.8,250,206.668,250,206.668l24.6,55.177c1.042,2.339,18.971,38.377,19.18,76.545l1.177,126.074h23.2s-.961-146.2-2.716-156.014-7.564-28.367-25.5-48.507" transform="translate(710.423 4572.703)" fill="#919091"/>
      <rect id="사각형_89" data-name="사각형 89" width="66.297" height="12.222" transform="translate(960.362 4885.79)" fill="#edecec"/>
      <rect id="사각형_90" data-name="사각형 90" width="67.276" height="2.932" transform="translate(960.229 4920.438)" fill="#edecec"/>
      <rect id="사각형_92" data-name="사각형 92" width="67.276" height="2.932" transform="translate(960.229 4933.917)" fill="#edecec"/>
      <rect id="사각형_94" data-name="사각형 94" width="67.276" height="2.932" transform="translate(960.229 4947.395)" fill="#edecec"/>
      <path id="패스_106" data-name="패스 106" d="M209.125,298.874c-40.634,0-74.977,14.832-86.245,35.217H295.37c-11.266-20.385-45.611-35.217-86.245-35.217" transform="translate(532.315 4703.442)" fill="#93b033"/>
      <path id="패스_107" data-name="패스 107" d="M264.044,293.786c-39.839,0-73.512,20.184-84.559,47.921H348.6c-11.047-27.737-44.72-47.921-84.559-47.921" transform="translate(611.624 4696.426)" fill="#789c00"/>
      <path id="패스_155" data-name="패스 155" d="M124.371,319.44a5.431,5.431,0,0,0-3.5,1.273c.017-.255.038-.511.038-.771a10.405,10.405,0,0,0-18.45-6.6,7.292,7.292,0,0,0-2.231-.353,7.2,7.2,0,0,0-3.009.66,14.489,14.489,0,0,0-28.811,2.2c0,.07.01.134.01.2a7.248,7.248,0,1,0-1.7,14.294v.269h58.4v-.329a5.45,5.45,0,0,0-.759-10.848" transform="translate(443.478 4706.029)" fill="#93b033"/>
      <path id="패스_156" data-name="패스 156" d="M76.338,301.534a13.256,13.256,0,1,0,0,26.513s-7.614-2.408-8.195-13.256c-.528-9.833,8.195-13.256,8.195-13.256" transform="translate(448.532 4706.282)" fill="#6d9300"/>
      <path id="패스_157" data-name="패스 157" d="M80.5,306.27a6.91,6.91,0,0,0-6.8,7.011s1.2-3.986,6.843-4.375a7.1,7.1,0,0,1,6.973,4.168,6.909,6.909,0,0,0-7.011-6.8" transform="translate(463.397 4712.917)" fill="#6d9300"/>
      <path id="패스_206" data-name="패스 206" d="M327.628,224.892,318.041,438.51l35.488.42L349,225.144Z" transform="translate(805.754 4598.959)" fill="#adadad"/>
      <path id="패스_207" data-name="패스 207" d="M318.04,438.509l17.744.209,2.531-213.7-10.687-.127Z" transform="translate(805.754 4598.958)" fill="#919091"/>
      <path id="패스_208" data-name="패스 208" d="M333.7,246.5l-12.253-.144-.557,12.4,12.663.149,12.661.151-.262-12.414Z" transform="translate(809.753 4628.309)" fill="#edecec"/>
      <path id="패스_209" data-name="패스 209" d="M334.286,258.588l-13.237-.156-.814,18.131,13.837.163,13.835.166-.384-18.148Z" transform="translate(808.828 4645.229)" fill="#edecec"/>
      <g id="그룹_4775" data-name="그룹 4775" transform="translate(870.889 4914.824)">
        <g id="그룹_3465" data-name="그룹 3465" transform="translate(0 39.487)">
          <path id="패스_5084" data-name="패스 5084" d="M151.883,178.22l-2.561,49.737c.606-.029,4.594.035,5.2,0-.185-21.278-2.115-49.737-2.5-49.737,0,0-.138-.583-.138,0" transform="translate(-131.161 -145.134)" fill="#624800"/>
          <path id="패스_5083" data-name="패스 5083" d="M163.639,163.267a7.192,7.192,0,0,0-7.52,0c-8.205,5.142-32.321,71.2,3.761,71.2,38.19,0,11.964-66.06,3.759-71.2" transform="translate(-140.605 -162.206)" fill="#33a257"/>
        </g>
        <g id="그룹_3466" data-name="그룹 3466" transform="translate(39.459 0)">
          <g id="그룹_2803" data-name="그룹 2803" transform="translate(0 0)">
            <path id="패스_5085" data-name="패스 5085" d="M152.577,178.29l-3.255,63.229c.771-.037,5.84.045,6.611,0-.236-27.049-2.688-63.229-3.181-63.229,0,0-.175-.742-.175,0" transform="translate(-126.234 -119.212)" fill="#624800"/>
            <path id="패스_5082" data-name="패스 5082" d="M169.886,163.555a9.143,9.143,0,0,0-9.559,0c-10.431,6.537-41.088,90.517,4.781,90.517,48.55,0,15.209-83.98,4.778-90.517" transform="translate(-140.605 -162.206)" fill="#1bb452"/>
          </g>
        </g>
      </g>
      <path id="패스_9134" data-name="패스 9134" d="M267.475,317.766a3.5,3.5,0,0,0-2.247.819c.014-.163.026-.327.026-.495a6.678,6.678,0,0,0-11.842-4.235,4.606,4.606,0,0,0-3.364.2,9.3,9.3,0,0,0-18.491,1.412c0,.046,0,.089,0,.132a4.652,4.652,0,1,0-1.088,9.175v.173h37.488v-.211a3.5,3.5,0,0,0-.487-6.966" transform="translate(676.633 4712.333)" fill="#93b033"/>
      <g id="그룹_4776" data-name="그룹 4776" transform="translate(637.34 4917.307)">
        <path id="다각형_12" data-name="다각형 12" d="M8.138,68.149c5.047-18.748,31.646-18.748,36.694,0l1.693,6.289A19,19,0,0,1,28.178,98.378H24.792A19,19,0,0,1,6.445,74.438Z" transform="translate(0 0)" fill="#48a47f"/>
        <line id="선_124" data-name="선 124" y2="41.199" transform="translate(26.485 79.383)" fill="none" stroke="#9e6d4f" stroke-width="4"/>
      </g>
      <path id="패스_9136" data-name="패스 9136" d="M239.315,309.315a4.433,4.433,0,0,0-4.368,4.5s.768-2.557,4.392-2.807a4.557,4.557,0,0,1,4.476,2.675,4.434,4.434,0,0,0-4.5-4.368" transform="translate(689.419 4716.754)" fill="#6d9300"/>
    </g>
  </g>
</svg>
