<svg xmlns="http://www.w3.org/2000/svg" width="436.407" height="256.525" viewBox="0 0 436.407 256.525">
  <g id="p06_volcanobody" transform="translate(11786 -6022.813)">
    <path id="패스_9272" data-name="패스 9272" d="M780.275,58.529c14.684-23.065,48.73-23.065,63.414,0L939.677,209.3c15.678,24.626-2.248,56.66-31.707,56.66H716c-29.459,0-47.385-32.033-31.707-56.66Z" transform="translate(-12295.074 5981.699)" fill="#533823"/>
    <path id="다각형_14" data-name="다각형 14" d="M581.555,127.216c16.865-26.785,55.911-26.785,72.776,0l65.8,104.512c18.029,28.635-2.55,65.911-36.388,65.911h-131.6c-33.838,0-54.417-37.276-36.388-65.911Z" transform="translate(-12295.074 5981.699)" fill="#93755d"/>
    <path id="패스_9897" data-name="패스 9897" d="M840.276,53.311l-2.363-3.726c-6.062-8.459-15.1-8.47-25.038-8.47-10.2,0-20.833-.226-27.053,8.47l-5.134,7.753-4.523,7.289-7.979,12.86V92.294a8.5,8.5,0,0,0,17,0V68.466c0-.25.016-.5.037-.74a8.5,8.5,0,0,1,16.963.74V87.633a8.5,8.5,0,0,0,17,0V80.547a8.5,8.5,0,0,1,17,0v14.3a8.5,8.5,0,0,0,17,0V73.41Z" transform="translate(-12295.074 5981.699)" fill="#533823"/>
  </g>
</svg>
