<svg xmlns="http://www.w3.org/2000/svg" width="54.68" height="80.966" viewBox="0 0 54.68 80.966"><g transform="translate(0 33.577)"><path d="M150.787,178.109l-1.465,28.455c.347-.017,2.628.02,2.975,0-.106-12.173-1.21-28.455-1.432-28.455,0,0-.079-.334-.079,0" transform="translate(-138.932 -159.18)" fill="#624800"/><path d="M153.783,162.813a4.115,4.115,0,0,0-4.3,0c-4.694,2.942-18.491,40.735,2.152,40.735,21.849,0,6.845-37.793,2.15-40.735" transform="translate(-140.605 -162.206)" fill="#33a257"/></g><g transform="translate(25.982 0)"><g transform="translate(0 0)"><path d="M151.184,178.149l-1.862,36.174c.441-.021,3.341.026,3.782,0-.135-15.475-1.538-36.174-1.82-36.174,0,0-.1-.424-.1,0" transform="translate(-136.113 -134.24)" fill="#624800"/><path d="M157.357,162.977a5.231,5.231,0,0,0-5.469,0c-5.968,3.74-23.507,51.785,2.735,51.785,27.775,0,8.7-48.045,2.734-51.785" transform="translate(-140.605 -162.206)" fill="#1bb452"/></g></g></svg>