<svg xmlns="http://www.w3.org/2000/svg" width="85.943" height="118.083" viewBox="0 0 85.943 118.083"><g transform="translate(-320 -5992.543)"><g transform="translate(320 5992.543)"><path d="M16.342,43.047c4.538-13.718,23.943-13.718,28.482,0l9.821,29.686A15,15,0,0,1,40.4,92.444H20.762A15,15,0,0,1,6.521,72.733Z" transform="translate(0)" fill="#48a47f"/><path d="M1.684,47.573H-2V0H1.684Z" transform="translate(30.741 70.511)" fill="#9e6d4f"/></g><g transform="translate(381.165 6007.473)"><path d="M150.93,178.123l-1.608,31.232c.381-.018,2.885.022,3.266,0-.116-13.361-1.328-31.232-1.571-31.232,0,0-.086-.366-.086,0" transform="translate(-137.918 -165.251)" fill="#624800"/><path d="M155.069,162.756a5.341,5.341,0,0,0-4.722,0c-5.152,2.667-20.3,36.924,2.362,36.924,23.981,0,7.513-34.257,2.36-36.924" transform="translate(-140.605 -162.206)" fill="#33a257"/></g></g></svg>