<svg xmlns="http://www.w3.org/2000/svg" width="88.124" height="115.529" viewBox="0 0 88.124 115.529">
  <g id="p06_gasbody" transform="translate(11745.378 -4866.833)">
    <path id="패스_5620" data-name="패스 5620" d="M107.891,123.25H68.515a1.173,1.173,0,0,1-1.171-1.171V47.52a1.175,1.175,0,0,1,1.171-1.173h39.376a1.176,1.176,0,0,1,1.173,1.173v74.56a1.175,1.175,0,0,1-1.173,1.171" transform="translate(-11788.701 4859.111)" fill="#aaabb0"/>
    <path id="합치기_14" data-name="합치기 14" d="M41.793,42.309a13.64,13.64,0,0,1-18.576-1.677A8.041,8.041,0,0,1,8.774,36.739,12.141,12.141,0,0,1,7.33,13.926,5.553,5.553,0,0,1,17,9.307,12.138,12.138,0,0,1,33.27,6.9a11.71,11.71,0,0,1,21.387.081,10.035,10.035,0,0,1,6.931.285A8.021,8.021,0,0,1,75.1,11.22a12.137,12.137,0,0,1-.106,24.274h0a9.569,9.569,0,0,1-15.926,7.149,10.581,10.581,0,0,1-17.27-.334Z" transform="translate(-11744.878 4867.368)" fill="#95969c" stroke="rgba(0,0,0,0)" stroke-miterlimit="10" stroke-width="1"/>
  </g>
</svg>
