<svg xmlns="http://www.w3.org/2000/svg" width="85" height="62.231" viewBox="0 0 85 62.231">
  <path id="패스_9898" data-name="패스 9898" d="M1259.429-372.183c-6.482-8.14-15.283-8.035-25.22-8.035-10.2,0-19.3-.41-26.78,8.257a138.855,138.855,0,0,0-15.505,22.857,20.832,20.832,0,0,0-2.4,10.65v9.1a8.707,8.707,0,0,0,7.581,8.762,8.5,8.5,0,0,0,9.218-6.628,8.494,8.494,0,0,0,.2-1.824v-23.827c0-.25.016-.5.037-.74a8.53,8.53,0,0,1,11.36-7.281,8.42,8.42,0,0,1,5.6,8.053v18.8a8.721,8.721,0,0,0,7.975,8.816,8.5,8.5,0,0,0,9.025-8.484v-6.754a8.721,8.721,0,0,1,7.975-8.816,8.5,8.5,0,0,1,9.025,8.484v13.964a8.721,8.721,0,0,0,7.975,8.816,8.5,8.5,0,0,0,9.025-8.484v-16.063c0-3.507.049-8.519-2.349-12.482C1268.224-361.556,1262.614-368.183,1259.429-372.183Z" transform="translate(-1189.52 380.221)" fill="#fa7a34"/>
</svg>
