<svg xmlns="http://www.w3.org/2000/svg" width="122.934" height="233.871" viewBox="0 0 122.934 233.871"><g transform="translate(-1458.556 -6150.016)"><g transform="translate(1525.42 6150.016)"><path d="M12.474,65.036c3.917-16.369,27.205-16.369,31.122,0l7.755,32.411A16,16,0,0,1,35.79,117.17H20.28A16,16,0,0,1,4.719,97.447Z" transform="translate(0)" fill="#48a47f"/><line y2="56.743" transform="translate(28.035 91.01)" fill="none" stroke="#9e6d4f" stroke-width="4"/></g><g transform="translate(1458.556 6236.134)"><path d="M11.5,69.1c4.161-17.392,28.905-17.392,33.067,0l6.487,27.114A17,17,0,0,1,34.522,117.17H21.547A17,17,0,0,1,5.014,96.214Z" transform="translate(0)" fill="#48a47f"/><line y2="56.743" transform="translate(28.035 91.01)" fill="none" stroke="#9e6d4f" stroke-width="4"/></g></g></svg>