<svg id="p06_pibi" xmlns="http://www.w3.org/2000/svg" xmlns:xlink="http://www.w3.org/1999/xlink" width="194.367" height="227.057" viewBox="0 0 194.367 227.057">
  <defs>
    <clipPath id="clip-path">
      <rect id="사각형_2038" data-name="사각형 2038" width="194.367" height="227.057" fill="none"/>
    </clipPath>
    <clipPath id="clip-path-3">
      <rect id="사각형_2034" data-name="사각형 2034" width="17.554" height="9.403" transform="translate(104.6 78.493)" fill="none"/>
    </clipPath>
    <clipPath id="clip-path-4">
      <rect id="사각형_2035" data-name="사각형 2035" width="17.323" height="9.825" transform="translate(42.715 80.282)" fill="none"/>
    </clipPath>
    <clipPath id="clip-path-5">
      <rect id="사각형_2036" data-name="사각형 2036" width="20" height="8" transform="translate(73.403 81.72)" fill="none"/>
    </clipPath>
  </defs>
  <g id="그룹_3755" data-name="그룹 3755" clip-path="url(#clip-path)">
    <g id="그룹_3754" data-name="그룹 3754">
      <g id="그룹_3753" data-name="그룹 3753" clip-path="url(#clip-path)">
        <path id="패스_7039" data-name="패스 7039" d="M96.149,91.109s-1.269,1.15,1.766,5.463c3.533,5.02,11.758,16.834,22.362,39.76s31.94,76.907,49.771,71.417,28.148-26.579,22.99-57.035-24.347-48.4-60.253-55.927S98.88,89.259,96.149,91.109" fill="#f2f2f2"/>
        <path id="패스_7040" data-name="패스 7040" d="M101.934,109.638s1.21,1.212-2.038,5.368c-3.78,4.836-12.588,16.222-24.328,38.588S39.81,228.8,22.277,222.425-4.5,194.467,2.177,164.309s26.744-47.118,62.982-52.835,34.141-3.821,36.775-1.836" fill="#f2f2f2"/>
        <path id="패스_7041" data-name="패스 7041" d="M117.69,196.673c2.539.366-.491,11.658,2.13,16.931,3.583,7.208,7.583,4.839,7.583,9.208,0,3-13,6-12.482-12.435.272-9.709-.213-14.134,2.769-13.7" fill="#001a1a"/>
        <path id="패스_7042" data-name="패스 7042" d="M62.619,198.673c-2.539.366.491,11.658-2.13,16.931-3.583,7.208-7.583,4.839-7.583,9.208,0,3,13,6,12.482-12.435-.272-9.709.213-14.134-2.769-13.7" fill="#001a1a"/>
        <path id="패스_7043" data-name="패스 7043" d="M78.758,14.534c.548-2.9,1.193-5.82,2.885-8.293a11.021,11.021,0,0,1,6.429-4.313c5.412-1.4,10.787.9,14.538,4.81,4.2,4.382,6.167,10.255,7.334,16.093a135.187,135.187,0,0,1,2.287,20.093q.262,5.591.11,11.189c-.105,3.888-.535,7.764-.6,11.65-.016.929,1.476,1.177,1.657.224A72.686,72.686,0,0,0,114.34,54.6q.167-5.594-.082-11.189A129.908,129.908,0,0,0,111.666,21.9c-1.31-6.083-3.635-12.161-8.153-16.6C99.507,1.362,93.977-.874,88.365.324a12.743,12.743,0,0,0-7.391,4.437c-2.111,2.69-2.737,6.186-3.338,9.464-.135.731.983,1.047,1.122.309" fill="#001313"/>
        <path id="패스_7044" data-name="패스 7044" d="M31.7,21.978c.548-2.9,1.193-5.82,2.885-8.293a11.021,11.021,0,0,1,6.429-4.313c5.412-1.4,10.787.9,14.538,4.81,4.2,4.382,6.167,10.255,7.334,16.093a135.185,135.185,0,0,1,2.287,20.093q.263,5.591.11,11.189c-.1,3.888-.535,7.764-.6,11.65-.016.929,1.476,1.177,1.657.224a72.686,72.686,0,0,0,.944-11.388q.167-5.594-.082-11.189A129.908,129.908,0,0,0,64.606,29.34c-1.31-6.083-3.635-12.161-8.153-16.6C52.447,8.806,46.917,6.57,41.305,7.768A12.738,12.738,0,0,0,33.914,12.2c-2.111,2.69-2.737,6.186-3.338,9.464-.135.731.983,1.046,1.122.309" fill="#001313"/>
        <path id="패스_7045" data-name="패스 7045" d="M97.058,213.971,91.1,225.011Q87.961,220,85.251,214.734c4.034.007,11.459-.667,11.807-.763" fill="#001a1a"/>
        <path id="패스_7046" data-name="패스 7046" d="M90.71,216.528c21,0,38-18,45-43,7.812-27.9,18-118-36.14-128.1-40.736-7.6-68.978,20.447-66.86,50.1,2,28,9.571,66.884,20,94,5,13,17,27,38,27" fill="#ffb200"/>
        <path id="패스_7047" data-name="패스 7047" d="M39.2,135.8c-1.612,1.887-27.826-7.128-33.613-19.7S8.4,99.215,14.4,108.067s4.418,13.347,18.163,20.276c5.972,3.01,8.42,5.368,6.635,7.457" fill="#001a1a"/>
        <path id="패스_7048" data-name="패스 7048" d="M140.409,131.43c2.262-1.021,22.14,18.3,22.022,32.14s-9.732,14.082-11.4,3.513,1.687-13.957-7.8-26.08c-4.121-5.267-5.332-8.443-2.827-9.573" fill="#001a1a"/>
        <path id="패스_7049" data-name="패스 7049" d="M95.172,70.631a4.769,4.769,0,1,0,4.769-4.769,4.769,4.769,0,0,0-4.769,4.769" fill="#001a1a"/>
        <path id="패스_7050" data-name="패스 7050" d="M58.71,71.425a4.769,4.769,0,1,0,4.769-4.769,4.769,4.769,0,0,0-4.769,4.769" fill="#001a1a"/>
        <g id="그룹_3746" data-name="그룹 3746" opacity="0.5">
          <g id="그룹_3745" data-name="그룹 3745">
            <g id="그룹_3744" data-name="그룹 3744" clip-path="url(#clip-path-3)">
              <path id="패스_7051" data-name="패스 7051" d="M104.64,84.847c.46,2.43,4.744,3.661,9.569,2.748s8.365-3.623,7.9-6.053-4.744-3.66-9.569-2.748-8.365,3.623-7.9,6.053" fill="#ff4341"/>
            </g>
          </g>
        </g>
        <g id="그룹_3749" data-name="그룹 3749" opacity="0.5">
          <g id="그룹_3748" data-name="그룹 3748">
            <g id="그룹_3747" data-name="그룹 3747" clip-path="url(#clip-path-4)">
              <path id="패스_7052" data-name="패스 7052" d="M42.8,82.861c-.649,2.387,2.666,5.366,7.4,6.655s9.106.4,9.756-1.988-2.667-5.366-7.406-6.655-9.106-.4-9.755,1.988" fill="#ff4341"/>
            </g>
          </g>
        </g>
        <path id="패스_7053" data-name="패스 7053" d="M140.71,106.528s-13.064,13.225-53,15c-45,2-54.3-17.963-54.3-17.963l3.256,23.928S46.71,144.528,88.71,142.528c43.137-2.054,53-17,53-17s0-5-1-19" fill="#001a1a"/>
        <path id="패스_7054" data-name="패스 7054" d="M140.039,151.285S129.71,164.528,92.71,166.528c-37.957,2.052-50.667-12.463-50.667-12.463l5.667,20.463s9,8,45,8c23.022,0,43.279-9.913,44.14-13.457s3.189-17.786,3.189-17.786" fill="#001a1a"/>
        <g id="그룹_3752" data-name="그룹 3752" opacity="0.5">
          <g id="그룹_3751" data-name="그룹 3751">
            <g id="그룹_3750" data-name="그룹 3750" clip-path="url(#clip-path-5)">
              <path id="패스_7055" data-name="패스 7055" d="M89.4,89.72h-12a4,4,0,0,1,0-8h12a4,4,0,0,1,0,8" fill="#ff4341"/>
            </g>
          </g>
        </g>
      </g>
    </g>
  </g>
</svg>
