<svg id="p07_pibi" xmlns="http://www.w3.org/2000/svg" xmlns:xlink="http://www.w3.org/1999/xlink" width="197.835" height="215.51" viewBox="0 0 197.835 215.51">
  <defs>
    <clipPath id="clip-path">
      <rect id="사각형_2039" data-name="사각형 2039" width="197.835" height="215.51" fill="none"/>
    </clipPath>
  </defs>
  <g id="그룹_3757" data-name="그룹 3757" clip-path="url(#clip-path)">
    <path id="패스_7056" data-name="패스 7056" d="M125.768,74.725s-1.585.648-.2,5.738c1.61,5.924,5.314,19.834,7.464,45s3.8,83.189,22.437,84.108,35.523-15.388,41.059-45.777-6.383-53.8-37.57-73.121-29.989-16.758-33.187-15.95" fill="#f2f2f2"/>
    <path id="패스_7057" data-name="패스 7057" d="M78.51,69.248s1.524.782-.29,5.734c-2.111,5.765-6.994,19.306-11.294,44.2s-10.92,82.557-29.565,81.875S3.287,182.677.377,151.925,11.35,98.87,44.078,82.294,75.393,68.169,78.51,69.248" fill="#f2f2f2"/>
    <path id="패스_7058" data-name="패스 7058" d="M77.361,185.339c2.522.47-.968,11.628,1.435,17,3.284,7.349,7.378,5.146,7.2,9.511-.123,3-13.235,5.462-11.963-12.936.67-9.689.367-14.131,3.329-13.579" fill="#001a1a"/>
    <path id="패스_7059" data-name="패스 7059" d="M133.89,186.623c-2.481.654,1.822,11.526-.179,17.064-2.735,7.57-6.98,5.675-6.48,10.015.343,2.98,13.6,4.473,10.978-13.781-1.381-9.614-1.4-14.066-4.319-13.3" fill="#001a1a"/>
    <path id="패스_7060" data-name="패스 7060" d="M129.772,9.412A13.577,13.577,0,0,0,119.423.345c-5.083-1.066-10.814.476-15.391,2.7-4.828,2.349-8.576,6.685-11.625,11a69.747,69.747,0,0,0-8.27,16.139c-1.212,3.27-2.25,6.6-3.193,9.96a81.385,81.385,0,0,0-2.5,10.371.844.844,0,0,0,1.627.449c.957-2.733,1.545-5.6,2.3-8.39.719-2.669,1.489-5.325,2.349-7.953a81.837,81.837,0,0,1,6.767-15.627A43.518,43.518,0,0,1,101.605,6.585,24.819,24.819,0,0,1,115.6,1.55c5.444-.244,11.341,2.726,13.053,8.171.223.712,1.343.41,1.122-.309" fill="#001313"/>
    <path id="패스_7061" data-name="패스 7061" d="M171.378,27.262a13.539,13.539,0,0,0-10-8.987c-5.325-1.25-10.9.592-15.242,3.7-4.782,3.417-8.214,8.354-11.082,13.406a144.428,144.428,0,0,0-8.3,17.248q-2.013,4.99-3.668,10.116a66.909,66.909,0,0,0-2.831,10.618.844.844,0,0,0,1.627.449c.953-2.738,1.613-5.575,2.459-8.347q1.3-4.272,2.859-8.46a154.066,154.066,0,0,1,7.054-16.119c4.715-9.29,11.42-21.059,23.246-21.494,5.346-.2,11.1,2.882,12.761,8.183.223.712,1.343.41,1.122-.309" fill="#001313"/>
    <path id="패스_7062" data-name="패스 7062" d="M101.908,200.776l6.41,10.787q2.926-5.139,5.418-10.509c-4.03.173-11.476-.2-11.828-.278" fill="#001a1a"/>
    <path id="패스_7063" data-name="패스 7063" d="M108.356,203.071c-20.982.861-38.706-16.427-46.725-41.12C52.683,134.4,38.81,44.788,92.491,32.477c40.39-9.262,69.758,17.6,68.857,47.319-.851,28.058-6.822,67.22-16.131,94.74-4.463,13.194-15.879,27.674-36.861,28.535" fill="#ffb200"/>
    <path id="패스_7064" data-name="패스 7064" d="M97.918,57.479a4.769,4.769,0,1,1-4.961-4.57,4.769,4.769,0,0,1,4.961,4.57" fill="#001a1a"/>
    <path id="패스_7065" data-name="패스 7065" d="M134.382,56.779a4.769,4.769,0,1,1-4.961-4.57,4.769,4.769,0,0,1,4.961,4.57" fill="#001a1a"/>
    <path id="패스_7066" data-name="패스 7066" d="M53.889,95.213s13.6,12.679,53.57,12.815c45.044.154,53.522-20.174,53.522-20.174L158.708,111.9s-9.341,17.432-51.387,17.156c-43.185-.285-53.652-14.814-53.652-14.814s-.2-5,.22-19.025" fill="#001a1a"/>
    <path id="패스_7067" data-name="패스 7067" d="M56.394,139.9s10.863,12.808,47.914,13.29c38.01.495,50.113-14.529,50.113-14.529L149.6,159.344s-8.665,8.362-44.635,9.838c-23,.943-43.648-8.131-44.653-11.636S56.394,139.9,56.394,139.9" fill="#001a1a"/>
    <path id="패스_7068" data-name="패스 7068" d="M138.148,52.462a11.321,11.321,0,0,1-9.441-1.7,10.062,10.062,0,0,1-1.192-1.009c-.426-.415-.78-.972-1.374-1.141a.717.717,0,0,0-.9.685c.046,1.17,1.587,2.222,2.453,2.845a12.452,12.452,0,0,0,3.38,1.7,11.938,11.938,0,0,0,7.435-.069c.823-.276.485-1.561-.361-1.311" fill="#001313"/>
    <path id="패스_7069" data-name="패스 7069" d="M83.948,55.464a11.911,11.911,0,0,0,7.412-.337,12.855,12.855,0,0,0,3.248-1.844,10.836,10.836,0,0,0,1.406-1.294,2.738,2.738,0,0,0,.96-1.708.717.717,0,0,0-.9-.685c-.566.193-.843.675-1.228,1.1a11.585,11.585,0,0,1-1.182,1.152,10.568,10.568,0,0,1-2.834,1.684,10.849,10.849,0,0,1-6.521.619.68.68,0,0,0-.361,1.311" fill="#001313"/>
    <path id="패스_7070" data-name="패스 7070" d="M137.636,96a172.3,172.3,0,0,1-52.576-.016,1.575,1.575,0,0,1-1.413-1.493V67.747a1.625,1.625,0,0,1,1.916-1.484,205.714,205.714,0,0,0,51.538,0,1.625,1.625,0,0,1,1.918,1.483V94.51A1.567,1.567,0,0,1,137.636,96" fill="#fff"/>
    <path id="패스_7071" data-name="패스 7071" d="M85.563,73.737a205.666,205.666,0,0,0,51.538,0" fill="none" stroke="#e6e6e6" stroke-miterlimit="10" stroke-width="1"/>
    <path id="패스_7072" data-name="패스 7072" d="M85.563,82.043a205.714,205.714,0,0,0,51.538,0" fill="none" stroke="#e6e6e6" stroke-miterlimit="10" stroke-width="1"/>
    <path id="패스_7073" data-name="패스 7073" d="M85.563,89.517a205.713,205.713,0,0,0,51.538,0" fill="none" stroke="#e6e6e6" stroke-miterlimit="10" stroke-width="1"/>
    <path id="패스_7074" data-name="패스 7074" d="M85.147,72.793c0-.045-13.269-.053-22.135-6.05" fill="none" stroke="#fff" stroke-linecap="round" stroke-miterlimit="10" stroke-width="1"/>
    <path id="패스_7075" data-name="패스 7075" d="M88.147,89.6s-17.58-.189-27.79-7.521" fill="none" stroke="#fff" stroke-linecap="round" stroke-miterlimit="10" stroke-width="1"/>
    <path id="패스_7076" data-name="패스 7076" d="M132.357,72.793c0-.045,13.269-.053,22.135-6.05" fill="none" stroke="#fff" stroke-linecap="round" stroke-miterlimit="10" stroke-width="1"/>
    <path id="패스_7077" data-name="패스 7077" d="M130.357,90.6s16.631-.185,26.29-7.353" fill="none" stroke="#fff" stroke-linecap="round" stroke-miterlimit="10" stroke-width="1"/>
    <path id="패스_7078" data-name="패스 7078" d="M53.215,109.895c1.323,2.1,28.563-3.035,36.106-14.639s-.34-17.114-7.563-9.222-6.3,12.569-20.9,17.44c-6.344,2.116-9.107,4.1-7.643,6.421" fill="#001a1a"/>
    <path id="패스_7079" data-name="패스 7079" d="M160.07,107.013c-1.5,1.981-28.2-5.442-34.737-17.643s1.787-17.024,8.316-8.548S138.862,93.879,153,99.968c6.143,2.646,8.728,4.852,7.072,7.045" fill="#001a1a"/>
  </g>
</svg>
