<svg xmlns="http://www.w3.org/2000/svg" width="244.645" height="238.7" viewBox="0 0 244.645 238.7"><g transform="translate(-320 -7601.232)"><g transform="translate(320 7746.963)"><path d="M11.5,36.8C15,25.559,30.91,25.559,34.41,36.8L41.059,58.16A12,12,0,0,1,29.6,73.727H16.3A12,12,0,0,1,4.846,58.16Z" transform="translate(0)" fill="#48a47f"/><line y2="35.704" transform="translate(22.953 57.266)" fill="none" stroke="#9e6d4f" stroke-width="4"/></g><g transform="translate(511.381 7639.434)"><path d="M13.265,42.937c4.084-13.118,22.65-13.118,26.734,0L47.61,67.384A14,14,0,0,1,34.243,85.545H19.021A14,14,0,0,1,5.654,67.384Z" transform="translate(0)" fill="#48a47f"/><line y2="41.427" transform="translate(26.632 66.445)" fill="none" stroke="#9e6d4f" stroke-width="4"/></g><g transform="translate(383.082 7601.232)"><path d="M8.911,30.669a10,10,0,0,1,19.1,0l4.872,15.65a10,10,0,0,1-9.548,12.972H13.587A10,10,0,0,1,4.039,46.319Z" transform="translate(0)" fill="#48a47f"/><line y2="28.714" transform="translate(18.459 46.054)" fill="none" stroke="#9e6d4f" stroke-width="4"/></g><g transform="translate(353.983 7705.879)"><line y2="41.427" transform="translate(9.264)" fill="none" stroke="#9e6d4f" stroke-width="4"/><line x1="10.016" y2="7.799" transform="translate(9.264 1.681)" fill="none" stroke="#9e6d4f" stroke-width="4"/><line x2="9.263" y2="9.282" transform="translate(0 6.871)" fill="none" stroke="#9e6d4f" stroke-width="4"/></g><g transform="translate(430.481 7768.021)"><line y2="41.427" transform="translate(9.264)" fill="none" stroke="#9e6d4f" stroke-width="4"/><line x1="10.016" y2="7.799" transform="translate(9.264 1.681)" fill="none" stroke="#9e6d4f" stroke-width="4"/><line x2="9.263" y2="9.282" transform="translate(0 6.871)" fill="none" stroke="#9e6d4f" stroke-width="4"/></g><g transform="translate(501.741 7747.307)"><line y2="41.427" transform="translate(9.263)" fill="none" stroke="#9e6d4f" stroke-width="4"/><line x1="10.016" y2="7.799" transform="translate(9.263 1.681)" fill="none" stroke="#9e6d4f" stroke-width="4"/><line x2="9.263" y2="9.282" transform="translate(0 6.871)" fill="none" stroke="#9e6d4f" stroke-width="4"/></g></g></svg>