<svg xmlns="http://www.w3.org/2000/svg" width="414" height="283" viewBox="0 0 414 283"><g transform="translate(-1141 -8108)"><path d="M140.8,41.415a31,31,0,0,1,52.4,0L303.907,216.428c13.057,20.641-1.774,47.572-26.2,47.572H56.292c-24.424,0-39.255-26.931-26.2-47.572Z" transform="translate(1141 8108)" fill="#91cc9e"/><path d="M90.76,41.715a31,31,0,0,1,52.481,0l60.877,96.779C217.1,159.138,202.266,186,177.877,186H56.123c-24.389,0-39.226-26.862-26.24-47.506Z" transform="translate(1321 8205)" fill="#c1dda8"/><g transform="translate(1228.5 8279.695)"><g transform="translate(0 42.958)"><path d="M151.24,178.155l-1.918,37.253c.454-.022,3.441.027,3.9,0-.139-15.937-1.584-37.253-1.874-37.253,0,0-.1-.437-.1,0" transform="translate(-135.72 -153.374)" fill="#624800"/><path d="M157.857,163a5.387,5.387,0,0,0-5.632,0c-6.146,3.852-24.208,53.33,2.817,53.33,28.6,0,8.961-49.478,2.815-53.33" transform="translate(-140.605 -162.206)" fill="#33a257"/></g><g transform="translate(34.015 0)"><g transform="translate(0 0)"><path d="M151.76,178.207l-2.438,47.358c.577-.028,4.374.034,4.952,0-.177-20.26-2.014-47.358-2.383-47.358,0,0-.131-.555-.131,0" transform="translate(-132.029 -120.722)" fill="#624800"/><path d="M162.537,163.216a6.848,6.848,0,0,0-7.16,0c-7.813,4.9-30.774,67.8,3.581,67.8,36.363,0,11.392-62.9,3.579-67.8" transform="translate(-140.605 -162.206)" fill="#1bb452"/></g></g></g></g></svg>