<svg id="p08_pibi" xmlns="http://www.w3.org/2000/svg" xmlns:xlink="http://www.w3.org/1999/xlink" width="344.847" height="207.319" viewBox="0 0 344.847 207.319">
  <defs>
    <clipPath id="clip-path">
      <rect id="사각형_2046" data-name="사각형 2046" width="344.847" height="207.319" fill="none"/>
    </clipPath>
    <clipPath id="clip-path-3">
      <path id="패스_7109" data-name="패스 7109" d="M141.518,54.339c-49.424,4.949-43.554,51.184-66.593,68.751s-26.932,38.589-18.808,51.248c16.571,25.818,65.582,15.358,92.64,4.3,26.893-10.992,52.569-49,56.954-78.4,3.959-26.549-11.27-46.607-50.65-46.606q-6.348,0-13.543.713" fill="none"/>
    </clipPath>
    <clipPath id="clip-path-5">
      <path id="패스_7112" data-name="패스 7112" d="M88.7,104.41c4.655,24.693,18.494,41.017,40.884,46.579,19,4.719,39.622,3.37,54.384-2.307a132.729,132.729,0,0,0,11.992-19.416c-14.859,7.255-37.841,9.441-58.831,4.227-23.476-5.831-35.107-23.464-38.421-50.2-3.75,6.972-6.689,14.34-10.008,21.118" fill="none"/>
    </clipPath>
    <clipPath id="clip-path-7">
      <path id="패스_7115" data-name="패스 7115" d="M74.925,123.09a76.947,76.947,0,0,0-8.916,7.92c-.115,21.033,11.325,38.416,23.574,44.967,11.309,6.048,28.527,9.107,45.039,7.679,5.111-1.567,9.894-3.286,14.135-5.02a67.4,67.4,0,0,0,17.319-10.767c-20.1,11.124-55.9.265-66.388-5.954-11.881-7.042-20.8-22.34-20.138-43.146a33.871,33.871,0,0,1-4.625,4.321" fill="none"/>
    </clipPath>
    <clipPath id="clip-path-9">
      <rect id="사각형_2043" data-name="사각형 2043" width="17.784" height="8.957" transform="translate(128.658 87.536)" fill="none"/>
    </clipPath>
    <clipPath id="clip-path-10">
      <rect id="사각형_2044" data-name="사각형 2044" width="4.856" height="6.439" transform="translate(199.564 73.354)" fill="none"/>
    </clipPath>
  </defs>
  <g id="그룹_3779" data-name="그룹 3779" clip-path="url(#clip-path)">
    <g id="그룹_3760" data-name="그룹 3760">
      <g id="그룹_3759" data-name="그룹 3759" clip-path="url(#clip-path)">
        <path id="패스_7080" data-name="패스 7080" d="M98.218,119.89s1.269-1.15-1.766-5.463c-3.533-5.02-11.758-16.834-22.362-39.76S42.15-2.24,24.319,3.25-3.829,29.829,1.329,60.285s24.347,48.4,60.253,55.927,33.9,5.528,36.636,3.678" fill="#f2f2f2"/>
        <path id="패스_7081" data-name="패스 7081" d="M98.23,139.078s-1.686-.3-1.4-5.57c.338-6.129,1.06-20.506-2.087-45.569S81.115,5.787,99.148,1s37.952,7.641,49.7,36.207,4.978,53.949-21.493,79.349S101.526,139.2,98.23,139.078" fill="#f2f2f2"/>
        <path id="패스_7082" data-name="패스 7082" d="M53.754,164.317,47.8,175.361q5.913-.132,11.8-.757c-2.22-3.367-5.733-9.943-5.844-10.287" fill="#001a1a"/>
        <path id="패스_7083" data-name="패스 7083" d="M150,21.973c-.567-3.091-1.143-6.424-3.016-9.036a12.371,12.371,0,0,0-6.01-4.388C135.727,6.7,130.1,8.172,125.83,11.542c-4.871,3.846-7.681,9.621-9.244,15.512A111.15,111.15,0,0,0,113.5,48.729q-.381,6.315-.235,12.646a75.836,75.836,0,0,0,.969,12.361c.18.943,1.674.714,1.658-.224-.059-3.4-.43-6.792-.556-10.192s-.135-6.812-.031-10.216a147.524,147.524,0,0,1,1.978-20.338c1.017-5.936,2.621-12.073,6.478-16.846,3.39-4.195,8.364-7.155,13.9-6.588a11.743,11.743,0,0,1,7.536,3.647c2.3,2.557,3.057,6.026,3.677,9.3.139.737,1.256.424,1.122-.309" fill="#001313"/>
        <path id="패스_7084" data-name="패스 7084" d="M197.058,26.417c-.567-3.091-1.143-6.424-3.016-9.036a12.371,12.371,0,0,0-6.01-4.388c-5.245-1.846-10.873-.377-15.142,2.993-4.871,3.846-7.681,9.621-9.244,15.512a111.149,111.149,0,0,0-3.083,21.675q-.381,6.315-.235,12.646A75.836,75.836,0,0,0,161.3,78.18c.18.943,1.674.714,1.658-.224-.059-3.4-.43-6.792-.556-10.192s-.135-6.812-.031-10.216a147.526,147.526,0,0,1,1.978-20.338c1.017-5.936,2.62-12.073,6.478-16.846,3.39-4.195,8.364-7.155,13.9-6.588a11.743,11.743,0,0,1,7.536,3.647c2.3,2.557,3.057,6.026,3.677,9.3.139.737,1.256.424,1.122-.309" fill="#001313"/>
        <path id="패스_7085" data-name="패스 7085" d="M180.331,130.53c2.445-.424,16.871,23.247,13.3,36.619s-12.938,11.207-11.913.558,5.118-13.1-1.041-27.2c-2.676-6.129-3.055-9.507-.348-9.976" fill="#001a1a"/>
        <path id="패스_7086" data-name="패스 7086" d="M110.677,174.831c-2.019.291,1.016,9.646-1.694,13.465s-7.624,7.546-5.521,10.311c2.865,3.767,8.355-3.35,9.417-12.877.856-7.677.17-11.241-2.2-10.9" fill="#001a1a"/>
        <path id="패스_7087" data-name="패스 7087" d="M56.117,174.338c-8.125-12.659-4.231-33.681,18.808-51.248s17.169-63.8,66.593-68.751,68.578,16.49,64.193,45.894-30.061,67.412-56.953,78.4c-27.059,11.06-76.07,21.52-92.641-4.3" fill="#ffb200"/>
      </g>
    </g>
    <g id="그룹_3762" data-name="그룹 3762">
      <g id="그룹_3761" data-name="그룹 3761" clip-path="url(#clip-path-3)">
        <path id="패스_7088" data-name="패스 7088" d="M95.219,180.607a.559.559,0,0,0,0-1.117.559.559,0,0,0,0,1.117" fill="#e99700"/>
        <path id="패스_7089" data-name="패스 7089" d="M183.274,145.33q2.759.15,5.508.438,1.374.144,2.745.326l1.221.164a3.305,3.305,0,0,0,1.533.049.868.868,0,0,0,.2-1.563,3.193,3.193,0,0,0-1.483-.362q-.632-.083-1.264-.151-1.424-.154-2.85-.269-2.8-.227-5.614-.3c-1.08-.031-1.069,1.614,0,1.672" fill="#001a1a"/>
        <path id="패스_7090" data-name="패스 7090" d="M182.705,146.222l5.168.265,2.536.13a5.992,5.992,0,0,0,2.639-.11.79.79,0,0,0,0-1.356,5.983,5.983,0,0,0-2.542-.311l-2.633-.106-5.168-.207c-1.093-.044-1.086,1.639,0,1.7" fill="#001a1a"/>
        <path id="패스_7091" data-name="패스 7091" d="M182.216,146.091l4.09.709,2.005.348a15.54,15.54,0,0,0,2.171.326.889.889,0,0,0,.236-1.739,14.257,14.257,0,0,0-2.007-.339l-2.019-.3-4.036-.6a.854.854,0,0,0-1.018.578.835.835,0,0,0,.578,1.019" fill="#001a1a"/>
        <path id="패스_7092" data-name="패스 7092" d="M181.007,146.676l4.633.537,2.316.266a9.332,9.332,0,0,0,2.378.14.9.9,0,0,0,.659-.865.931.931,0,0,0-.659-.867,5.664,5.664,0,0,0-1.308-.178c-.357-.034-.713-.064-1.07-.091q-1.158-.09-2.316-.176l-4.633-.352a.8.8,0,0,0-.793.793.811.811,0,0,0,.793.793" fill="#001a1a"/>
        <path id="패스_7093" data-name="패스 7093" d="M179.578,146.746c1.516.107,3.031.211,4.547.321s3.039.326,4.546.318a.9.9,0,1,0,0-1.8c-1.5-.172-3.043-.125-4.546-.18s-3.031-.118-4.547-.177c-.986-.039-.97,1.455,0,1.523" fill="#001a1a"/>
        <path id="패스_7094" data-name="패스 7094" d="M181.852,147.577c2.176.037,4.357.124,6.533.1a.856.856,0,0,0,0-1.711c-2.176-.03-4.357.058-6.533.094a.761.761,0,0,0,0,1.522" fill="#001a1a"/>
        <path id="패스_7095" data-name="패스 7095" d="M181.852,148.13l3.266.065,1.6.031a15.681,15.681,0,0,0,1.665.013.856.856,0,0,0,0-1.711,15.678,15.678,0,0,0-1.665.014l-1.6.031-3.266.065a.746.746,0,0,0,0,1.492" fill="#001a1a"/>
        <path id="패스_7096" data-name="패스 7096" d="M183.467,147.806l3.015-.572,1.452-.275c.558-.106,1.268-.143,1.6-.659a.688.688,0,0,0-.243-.924,1.234,1.234,0,0,0-.993-.075c-.261.047-.52.1-.781.15l-1.444.3-3,.634a.742.742,0,0,0-.513.9.751.751,0,0,0,.9.513" fill="#001a1a"/>
        <path id="패스_7097" data-name="패스 7097" d="M186.4,142l2.986-.223,1.463-.11a6.83,6.83,0,0,0,1.625-.185.851.851,0,0,0,.607-.8.83.83,0,0,0-.607-.8,6.507,6.507,0,0,0-1.625.043l-1.463.128-2.986.261a.863.863,0,0,0-.84.84.847.847,0,0,0,.84.84" fill="#001a1a"/>
        <path id="패스_7098" data-name="패스 7098" d="M186.963,138.637l3.308.171,1.593.083c.638.033,1.413.2,1.917-.279a.821.821,0,0,0,0-1.138c-.427-.484-1.32-.376-1.917-.4l-1.593-.061-3.308-.127a.875.875,0,0,0,0,1.75" fill="#001a1a"/>
        <path id="패스_7099" data-name="패스 7099" d="M188.953,136.321l2.556.005,1.227,0a5.775,5.775,0,0,0,1.445-.087.823.823,0,0,0,0-1.574,5.555,5.555,0,0,0-1.393-.087l-1.279,0-2.556.005a.867.867,0,1,0,0,1.734" fill="#001a1a"/>
        <path id="패스_7100" data-name="패스 7100" d="M192.077,134.862l1.7.008.836,0a3.573,3.573,0,0,0,1.018-.055.829.829,0,0,0,.6-.785.842.842,0,0,0-.6-.785,3.574,3.574,0,0,0-1.018-.056l-.836,0-1.7.009a.828.828,0,1,0,0,1.656" fill="#001a1a"/>
        <path id="패스_7101" data-name="패스 7101" d="M192.077,135.03a1,1,0,0,0,0-1.992,1,1,0,0,0,0,1.992" fill="#001a1a"/>
        <path id="패스_7102" data-name="패스 7102" d="M193.3,134.387a3.74,3.74,0,0,1,.346-.19c.058-.029.283-.1.059-.031.063-.02.123-.047.185-.069a4.021,4.021,0,0,1,.789-.185l-.2.027a4.537,4.537,0,0,1,.547-.033,1.576,1.576,0,0,0,.79-.153.662.662,0,0,0,.133-1.031,2.243,2.243,0,0,0-1.931-.225,4.579,4.579,0,0,0-1.482.581.758.758,0,0,0,.765,1.309" fill="#001a1a"/>
        <path id="패스_7103" data-name="패스 7103" d="M194.917,133.021a.692.692,0,0,0,0-1.383.692.692,0,0,0,0,1.383" fill="#001a1a"/>
        <path id="패스_7104" data-name="패스 7104" d="M195.1,132.705l.455-.161.224-.079a.81.81,0,0,0,.211-.1l.114-.085a.551.551,0,0,0,.183-.2.852.852,0,0,0,.076-.178l.015-.036c.006-.057.015-.115.022-.172a.479.479,0,0,0-.056-.25.3.3,0,0,0-.083-.143.493.493,0,0,0-.181-.167.774.774,0,0,0-.409-.125,1,1,0,0,0-.293.032c-.075.022-.149.048-.226.071l-.451.144a.784.784,0,0,0-.448.344.541.541,0,0,0-.089.279.554.554,0,0,0,.013.3.75.75,0,0,0,.345.448.741.741,0,0,0,.578.076" fill="#001a1a"/>
        <path id="패스_7105" data-name="패스 7105" d="M195.486,131.924l.145-.007.072,0h.011l.191-.026a.491.491,0,0,0,.177-.074.537.537,0,0,0,.2-.185c.036-.047.045-.048.059-.08a.7.7,0,0,0,.1-.354.54.54,0,0,0-.06-.269c-.012-.029-.024-.058-.037-.086l0-.008a.722.722,0,0,0-.258-.257.493.493,0,0,0-.174-.073.937.937,0,0,0-.205-.027l-.072,0-.145-.007a.543.543,0,0,0-.281.063.551.551,0,0,0-.236.151.8.8,0,0,0-.213.517l.026.194a.729.729,0,0,0,.187.322l.148.114a.725.725,0,0,0,.369.1" fill="#001a1a"/>
        <path id="패스_7106" data-name="패스 7106" d="M143.057,181.918l-.155-.133-.075-.065-.039-.034-.01-.009c-.037-.028-.074-.056-.11-.085l-.005,0-.023-.014-.128-.054a.406.406,0,0,0-.213-.009.262.262,0,0,0-.135.036.409.409,0,0,0-.173.111l-.083.108-.054.128a.4.4,0,0,0-.01.213.385.385,0,0,0,.064.2,2.028,2.028,0,0,0,.209.263c.045.051.089.1.133.155a.433.433,0,0,0,.184.117.507.507,0,0,0,.439,0,.433.433,0,0,0,.184-.117l.089-.116a.561.561,0,0,0,.078-.288l-.02-.151a.565.565,0,0,0-.147-.252" fill="#001a1a"/>
        <path id="패스_7107" data-name="패스 7107" d="M136.521,181.446a36.071,36.071,0,0,1,8.239,2.671q.345-.822.692-1.642-5.362-1.017-10.659-2.343l-.49,1.78a23.961,23.961,0,0,1,6.927,2.279l.754-1.788a66.916,66.916,0,0,0-9.154-1.817c-1.224-.161-1.194,1.573-.266,1.964a32.817,32.817,0,0,0,4.849,1.612q.134-.981.266-1.964a3.886,3.886,0,0,1-1.781-.691q-.252.933-.5,1.865l7.531-.13c.923-.016,1.46-1.439.506-1.87l-5.048-2.285-.507,1.874q5.85.563,11.7,1.145a1.037,1.037,0,0,0,.727-1.755,17.281,17.281,0,0,0-4.758-2.712l-.279,2.062q2.028.156,4.056.3c.971.071,1.313-1.172.746-1.8l-1.578-1.753-.747,1.8a41.4,41.4,0,0,0,4.564.231c.516,0,1.132-.486,1.057-1.058a3.41,3.41,0,0,0-.82-1.924q-.234.885-.467,1.768a11.15,11.15,0,0,1,2.791-.138c1.351.084,1.294-1.921,0-2.07a11.006,11.006,0,0,0-3.353.168,1.07,1.07,0,0,0-.467,1.768l.2.428,1.058-1.057a41.654,41.654,0,0,1-4.564-.228c-.978-.1-1.3,1.188-.747,1.8l1.58,1.752.746-1.8q-2.028-.147-4.056-.289c-1.253-.085-1.324,1.679-.279,2.062a14.16,14.16,0,0,1,3.862,2.142l.727-1.755q-5.85-.537-11.7-1.1a1.012,1.012,0,0,0-.508,1.873l5.05,2.282.507-1.87-7.531.135a1.01,1.01,0,0,0-.505,1.866,6.011,6.011,0,0,0,2.791.962c1.13.121,1.343-1.7.266-1.964a32.819,32.819,0,0,1-4.849-1.613q-.133.982-.266,1.965a73.12,73.12,0,0,1,8.634,1.7c1.036.265,1.783-1.288.754-1.788a26.831,26.831,0,0,0-7.425-2.37c-1.146-.189-1.667,1.488-.49,1.78q5.3,1.317,10.671,2.295c.922.167,1.689-1.189.692-1.642a30.458,30.458,0,0,0-8.955-2.523c-.8-.1-.977,1.248-.19,1.4" fill="#001a1a"/>
        <path id="패스_7108" data-name="패스 7108" d="M82.256,109.284a38.345,38.345,0,0,1-3.214,9.576,36.323,36.323,0,0,1-2.529,4.317c-.955,1.4-2.25,2.642-3.058,4.124-.517.948.571,2.238,1.566,1.566a14.96,14.96,0,0,0,3.495-3.993,36.41,36.41,0,0,0,2.78-4.7,35.15,35.15,0,0,0,3.28-10.254c.231-1.5-2.013-2.181-2.32-.64" fill="#ffbe3d"/>
      </g>
    </g>
    <g id="그룹_3764" data-name="그룹 3764">
      <g id="그룹_3763" data-name="그룹 3763" clip-path="url(#clip-path)">
        <path id="패스_7110" data-name="패스 7110" d="M137.126,133.493c-23.475-5.831-35.107-23.463-38.421-50.2-3.749,6.972-6.688,14.34-10.008,21.117,4.655,24.693,18.494,41.018,40.884,46.579,19,4.719,39.623,3.371,54.385-2.307a132.618,132.618,0,0,0,11.991-19.416c-14.859,7.256-37.84,9.441-58.831,4.227" fill="#001a1a"/>
      </g>
    </g>
    <g id="그룹_3766" data-name="그룹 3766">
      <g id="그룹_3765" data-name="그룹 3765" clip-path="url(#clip-path-5)">
        <path id="패스_7111" data-name="패스 7111" d="M195.721,139.436c-16.6,7.182-34.823,11.334-52.943,9.205a69.028,69.028,0,0,1-24.717-7.66,41.869,41.869,0,0,1-10.278-7.576,62.358,62.358,0,0,1-7.759-10.31c-5.256-8.341-10.6-18.16-8.183-28.351.742-3.129-4.078-4.464-4.822-1.329-2.371,10,1.356,19.83,6.359,28.382,4.735,8.094,10.141,15.8,18.064,21.053,16,10.61,36.409,12.984,55.064,10.3a125.01,125.01,0,0,0,31.739-9.4,2.515,2.515,0,0,0,.9-3.42,2.565,2.565,0,0,0-3.42-.9" fill="#000c0c"/>
      </g>
    </g>
    <g id="그룹_3768" data-name="그룹 3768">
      <g id="그룹_3767" data-name="그룹 3767" clip-path="url(#clip-path)">
        <path id="패스_7113" data-name="패스 7113" d="M99.688,161.915c-11.881-7.041-20.8-22.339-20.137-43.146a33.821,33.821,0,0,1-4.626,4.321,77.03,77.03,0,0,0-8.916,7.92c-.114,21.033,11.326,38.416,23.575,44.967,11.308,6.048,28.526,9.107,45.038,7.679,5.112-1.567,9.894-3.286,14.136-5.019a67.473,67.473,0,0,0,17.319-10.767c-20.1,11.124-55.9.264-66.389-5.955" fill="#001a1a"/>
      </g>
    </g>
    <g id="그룹_3770" data-name="그룹 3770">
      <g id="그룹_3769" data-name="그룹 3769" clip-path="url(#clip-path-7)">
        <path id="패스_7114" data-name="패스 7114" d="M64.416,119.117a69.115,69.115,0,0,0,3.646,31,43.176,43.176,0,0,0,7.388,13.464,52.51,52.51,0,0,0,11.237,9.578c17.253,11.4,38.622,14.228,58.869,12.832a169.124,169.124,0,0,0,18.256-2.2c5.112-.92,10.165-2.55,14.025-6.173,2.351-2.206-1.189-5.737-3.535-3.535-3.013,2.827-7.075,3.976-11.039,4.741a144.164,144.164,0,0,1-14.538,1.919,117.393,117.393,0,0,1-30.749-.861,77.55,77.55,0,0,1-25.546-9.04,56.548,56.548,0,0,1-10.758-7.949,33.664,33.664,0,0,1-7.723-11.358,64.983,64.983,0,0,1-4.533-32.419,2.516,2.516,0,0,0-2.5-2.5,2.558,2.558,0,0,0-2.5,2.5" fill="#000c0c"/>
      </g>
    </g>
    <g id="그룹_3778" data-name="그룹 3778">
      <g id="그룹_3777" data-name="그룹 3777" clip-path="url(#clip-path)">
        <path id="패스_7116" data-name="패스 7116" d="M71.43,175.429c-2.539.366,1.278,12.13-2.13,16.931s-9.587,9.489-6.942,12.966c3.6,4.737,10.5-4.212,11.841-16.193,1.077-9.652.213-14.134-2.769-13.7" fill="#001a1a"/>
        <path id="패스_7117" data-name="패스 7117" d="M132.566,154.486c-1.375,2.066,14.456,24.822,28.13,26.956s15.477-7.312,5.321-10.674-14.047-.605-24.465-11.935c-4.527-4.923-7.464-6.634-8.986-4.347" fill="#001a1a"/>
        <g id="그룹_3773" data-name="그룹 3773" opacity="0.5">
          <g id="그룹_3772" data-name="그룹 3772">
            <g id="그룹_3771" data-name="그룹 3771" clip-path="url(#clip-path-9)">
              <path id="패스_7118" data-name="패스 7118" d="M146.442,92.014c0,2.473-3.981,4.478-8.892,4.478s-8.892-2-8.892-4.478,3.981-4.478,8.892-4.478,8.892,2,8.892,4.478" fill="#ff4341"/>
            </g>
          </g>
        </g>
        <path id="패스_7119" data-name="패스 7119" d="M161.589,90.289a45.8,45.8,0,0,0,17.551,1.436,21.453,21.453,0,0,0,7.2-2.4,38.529,38.529,0,0,0,3.451-2.115,14.827,14.827,0,0,0,3.185-2.467c.358-.434.036-1.344-.627-1.077a15.047,15.047,0,0,0-2.832,1.807c-1.05.733-2.121,1.438-3.232,2.077a20.662,20.662,0,0,1-7.349,2.649,46.5,46.5,0,0,1-17-1.159.649.649,0,0,0-.345,1.251" fill="#001313"/>
        <path id="패스_7120" data-name="패스 7120" d="M138.056,77.173a10.852,10.852,0,0,1,6-2.707,10.633,10.633,0,0,1,3.161.042,11.54,11.54,0,0,1,1.619.4,3.477,3.477,0,0,0,1.713.372.716.716,0,0,0,.424-1.044,2.648,2.648,0,0,0-1.588-.97,10.432,10.432,0,0,0-1.8-.434,12.986,12.986,0,0,0-3.882-.008,11.907,11.907,0,0,0-6.6,3.384c-.621.621.322,1.556.961.961" fill="#001313"/>
        <path id="패스_7121" data-name="패스 7121" d="M194.342,69.392a12.045,12.045,0,0,0-6.734-3.194,12.637,12.637,0,0,0-3.7.1,10.672,10.672,0,0,0-1.819.475c-.6.219-1.363.448-1.677,1.046a.721.721,0,0,0,.613,1.069,3.5,3.5,0,0,0,1.525-.443,11.344,11.344,0,0,1,1.629-.456,10.874,10.874,0,0,1,3.246-.126,10.731,10.731,0,0,1,5.96,2.491c.653.571,1.6-.357.961-.961" fill="#001313"/>
        <path id="패스_7122" data-name="패스 7122" d="M158.776,191.071a45.046,45.046,0,0,0,54.9-3.635,25.109,25.109,0,0,0-17.493-8.446c-6.662-.473-13.325,1.133-19.557,3.534s-11.822,5.682-17.855,8.547" fill="#369361"/>
        <path id="패스_7123" data-name="패스 7123" d="M213.674,187.1a93.555,93.555,0,0,0-39.075.805c-5.243,1.238-10.426,2.938-15.8,3.254" fill="none" stroke="#1d1819" stroke-linecap="round" stroke-linejoin="round" stroke-width="0.305"/>
        <path id="패스_7124" data-name="패스 7124" d="M249.346,141.137c-21.427,2.339-40.984,13.148-58.789,25.3a368.038,368.038,0,0,0-49.573,40.581" fill="none" stroke="#369361" stroke-linecap="round" stroke-linejoin="round" stroke-width="0.61"/>
        <path id="패스_7125" data-name="패스 7125" d="M294.771,127.783a62.466,62.466,0,0,1,25.746,25.547,26.355,26.355,0,0,1,3.411,9.988,16.812,16.812,0,0,1-2.9,10.941c-1.772,2.557-4.628,4.713-7.723,4.406-2.259-.225-4.18-1.7-5.87-3.215-11.228-10.075-17.944-24.147-23.7-38.092,3.606-3.1,7.125-6.87,11.034-9.575" fill="#fbda6f"/>
        <path id="패스_7126" data-name="패스 7126" d="M284.2,136.387a58.605,58.605,0,0,1,8.735,35.9c-.367,4.317-1.288,8.755-3.884,12.224s-7.217,5.709-11.359,4.438c-2.993-.917-5.24-3.455-6.712-6.217-3.391-6.361-3.353-13.993-2.352-21.132s2.882-14.2,2.889-21.405c3.986-1.284,8.651-2.674,12.683-3.806" fill="#fbda6f"/>
        <path id="패스_7127" data-name="패스 7127" d="M273.816,138.326c-.636,12.406-7.963,23.545-16.666,32.41a35.684,35.684,0,0,1-8.742,6.947,11.875,11.875,0,0,1-7.233,1.529c-3.636-.586-6.541-3.723-7.5-7.279a15.533,15.533,0,0,1,1.435-10.714,38.24,38.24,0,0,1,6.549-8.847c6.082-6.582,12.748-12.594,19.4-18.6,4.939,1.519,7.9,2.765,12.75,4.55" fill="#fbda6f"/>
        <path id="패스_7128" data-name="패스 7128" d="M261.227,133.153a71.147,71.147,0,0,1-24.952,16.868c-3.741,1.5-7.74,2.685-11.748,2.275s-8.029-2.733-9.458-6.5c-1.207-3.181-.378-6.871,1.481-9.721a24,24,0,0,1,7.5-6.8,60.405,60.405,0,0,1,34.424-9.3c.016,4.659,2.323,8.535,2.748,13.174" fill="#fbda6f"/>
        <path id="패스_7129" data-name="패스 7129" d="M292,125.945c7.516-4.3,13.391-11.105,17.622-18.662A41.273,41.273,0,0,0,314.774,93.1a23.851,23.851,0,0,0-2.327-14.736c-1.295-2.368-3.3-4.593-5.962-5.072A7.969,7.969,0,0,0,299.5,76.07a22.015,22.015,0,0,0-3.826,6.8,225.492,225.492,0,0,0-10.235,31.548c2.427,4.306,4.294,7.133,6.56,11.526" fill="#fbda6f"/>
        <path id="패스_7130" data-name="패스 7130" d="M293.954,131.065c12.422,3.52,24.154,10.41,37.063,10.628a17.416,17.416,0,0,0,6.527-.924,11.678,11.678,0,0,0,7.291-11.175c-.254-5.135-4.07-9.6-8.7-11.844s-9.944-2.583-15.08-2.346c-9.265.429-18.356,2.609-27.3,5.057a17.482,17.482,0,0,0,.045,6.559c.179,1.323-.025,2.722.154,4.045" fill="#fbda6f"/>
        <path id="패스_7131" data-name="패스 7131" d="M288,109.72c2.276-6.272,2.453-13.121,1.871-19.768-.8-9.139-3.263-18.65-9.772-25.114-2.459-2.443-6.029-4.451-9.281-3.254a7.981,7.981,0,0,0-3.991,3.76c-2.083,3.734-2.252,8.243-1.777,12.491,1.031,9.209,4.8,17.86,8.568,26.324,4.57,1.726,9.736,4.051,14.382,5.561" fill="#fbda6f"/>
        <path id="패스_7132" data-name="패스 7132" d="M274.581,104.836c-1.758-9.735-7.393-18.756-14.4-26.1-3.819-4-8.2-7.662-13.283-9.541-3.4-1.256-7.465-1.543-9.954.753-2.07,1.908-2.5,5.193-1.769,8.114a24.445,24.445,0,0,0,4.251,8.052c6.539,9.077,14.439,17.128,22.74,24.627,4.228-1.849,8.077-4.293,12.414-5.909" fill="#fbda6f"/>
        <path id="패스_7133" data-name="패스 7133" d="M263.27,110.16c-5.395-6.33-11.519-12.221-18.916-16.022s-16.231-5.339-24.15-2.8c-2.987.958-6.167,3.019-6.339,6.15a7.3,7.3,0,0,0,.559,2.918c2.369,6.394,8.264,10.851,14.431,13.759,8.874,4.184,18.684,5.864,28.356,7.5a83.037,83.037,0,0,1,6.059-11.506" fill="#fbda6f"/>
        <path id="패스_7134" data-name="패스 7134" d="M263.189,107.312a20.183,20.183,0,0,0-3.482,4.026,20.415,20.415,0,0,0-3.275,10.517,20.22,20.22,0,0,0,16.353,20.4,20.349,20.349,0,0,0,11.031-.954,20.011,20.011,0,0,0,6.273-3.8,20.217,20.217,0,0,0-26.9-30.189" fill="#ffad4f"/>
        <g id="그룹_3776" data-name="그룹 3776" opacity="0.5">
          <g id="그룹_3775" data-name="그룹 3775">
            <g id="그룹_3774" data-name="그룹 3774" clip-path="url(#clip-path-10)">
              <path id="패스_7135" data-name="패스 7135" d="M199.711,77.712c.525,1.391,2.349,2.1,4.71,2.081a33.143,33.143,0,0,0-2.886-6.439c-1.55,1.463-2.314,3.06-1.824,4.358" fill="#ff4341"/>
            </g>
          </g>
        </g>
      </g>
    </g>
  </g>
</svg>
