<svg xmlns="http://www.w3.org/2000/svg" xmlns:xlink="http://www.w3.org/1999/xlink" width="39.116" height="17.369" viewBox="0 0 39.116 17.369"><defs><clipPath id="a"><rect width="2.197" height="2.197" fill="none"/></clipPath></defs><g transform="translate(-863.48 -8987.402)"><path d="M532.619,31.516l-1.346-2.907s4.939-4.672,14.219-1.7l-1.048,3.872Z" transform="translate(374.111 8833.725) rotate(14)" fill="#ffd000"/><g transform="translate(880.881 8998.972)" style="mix-blend-mode:multiply;isolation:isolate"><g clip-path="url(#a)"><path d="M413.58,35.2a1.1,1.1,0,1,0-1.114,1.084A1.1,1.1,0,0,0,413.58,35.2" transform="translate(-411.383 -34.084)" fill="#64afe8"/></g></g><path d="M430.281,35.113s-4.844-6.68-10.934-6.767S408.224,34.8,408.224,34.8s4.844,6.68,10.935,6.767,11.121-6.454,11.121-6.454" transform="translate(468.571 8963.204)" fill="#fee140"/><path d="M428.569,30.207l-4.183,4.066a.443.443,0,0,0-.009.627l4.066,4.183a.444.444,0,0,0,.762-.3l.118-8.249a.445.445,0,0,0-.754-.325" transform="translate(473.272 8963.713)" fill="#fee140"/><path d="M414.2,33.9a1.1,1.1,0,1,0-1.114,1.083A1.1,1.1,0,0,0,414.2,33.9" transform="translate(469.679 8964.507)" fill="#525252"/><path d="M414.12,36.563a3.351,3.351,0,0,0,.926-3.923" transform="translate(470.301 8964.464)" fill="none" stroke="#525252" stroke-linecap="round" stroke-linejoin="round" stroke-width="0.081"/><path d="M407.159,33.439A1.443,1.443,0,1,1,405.717,32a1.442,1.442,0,0,1,1.442,1.443" transform="translate(467.412 8964.274)" fill="#fff"/><path d="M401.947,27.718a2.009,2.009,0,1,1-2.01-2.01,2.01,2.01,0,0,1,2.01,2.01" transform="translate(465.551 8962.431)" fill="#fff"/></g></svg>