<svg xmlns="http://www.w3.org/2000/svg" width="43.002" height="30.479" viewBox="0 0 43.002 30.479"><g transform="translate(-692.457 -8979.715)"><path d="M1.346,0,0,2.908S4.939,7.579,14.219,4.6L13.171.731Z" transform="translate(714.659 8999.073) rotate(172)" fill="#ffd000"/><path d="M268.591,43.479s4.844-6.68,10.934-6.767,11.123,6.454,11.123,6.454-4.845,6.68-10.935,6.767-11.121-6.454-11.121-6.454" transform="translate(427.61 8960.26)" fill="#fee140"/><path d="M266.45,38.574l4.183,4.065a.445.445,0,0,1,.009.629l-4.066,4.183a.444.444,0,0,1-.762-.3L265.7,38.9a.444.444,0,0,1,.754-.325" transform="translate(426.761 8960.77)" fill="#fee140"/><path d="M280.172,42.267a1.1,1.1,0,1,1,1.114,1.083,1.1,1.1,0,0,1-1.114-1.083" transform="translate(431.008 8961.563)" fill="#525252"/><path d="M280.025,44.928a3.349,3.349,0,0,1-.926-3.921" transform="translate(430.607 8961.521)" fill="none" stroke="#525252" stroke-linecap="round" stroke-linejoin="round" stroke-width="0.081"/><path d="M287.363,41.805a1.443,1.443,0,1,0,1.443-1.442,1.443,1.443,0,0,0-1.443,1.442" transform="translate(433.117 8961.331)" fill="#fff"/><path d="M289.525,31.469a1.443,1.443,0,1,0,1.442-1.443,1.443,1.443,0,0,0-1.442,1.443" transform="translate(433.751 8958.299)" fill="#fff"/><path d="M296.713,24.811a1.443,1.443,0,1,0,1.443-1.442,1.443,1.443,0,0,0-1.443,1.442" transform="translate(435.859 8956.346)" fill="#fff"/><path d="M292.833,36.085a2.009,2.009,0,1,0,2.01-2.01,2.01,2.01,0,0,0-2.01,2.01" transform="translate(434.722 8959.486)" fill="#fff"/></g></svg>