<svg xmlns="http://www.w3.org/2000/svg" xmlns:xlink="http://www.w3.org/1999/xlink" width="47.045" height="21.694" viewBox="0 0 47.045 21.694"><defs><clipPath id="a"><rect width="2.707" height="2.707" fill="none"/></clipPath></defs><g transform="translate(-1013.422 -8986.499)"><path d="M547.538,28.268l-.372.106" transform="translate(509.329 8963.182)" fill="none" stroke="#79d0f9" stroke-linecap="round" stroke-miterlimit="10" stroke-width="0.199"/><g transform="translate(1035.293 9003.729)" style="mix-blend-mode:multiply;isolation:isolate"><g clip-path="url(#a)"><path d="M533.327,38.494a1.353,1.353,0,1,1-1.824-.578,1.352,1.352,0,0,1,1.824.578" transform="translate(-530.773 -37.763)" fill="#64afe8"/></g></g><path d="M532.619,31.516l-1.346-2.907s4.939-4.672,14.219-1.7l-1.048,3.872Z" transform="translate(504.667 8962.493)" fill="#ffd000"/><path d="M550.733,30.291s-1.65,10.029-8.311,13.482-15.807-.973-15.807-.973,1.65-10.029,8.311-13.483,15.807.974,15.807.974" transform="translate(503.301 8963.103)" fill="#ffe140"/><path d="M551.325,34.528l-6.848-2.17a.547.547,0,0,1-.356-.687l2.17-6.848a.547.547,0,0,1,1.008-.087l4.677,9.019a.547.547,0,0,1-.651.773" transform="translate(508.429 8962.059)" fill="#ffe140"/><path d="M533.051,36.247a1.353,1.353,0,1,1-1.824-.578,1.352,1.352,0,0,1,1.824.578" transform="translate(504.439 8965.308)" fill="#525252"/><path d="M531.82,33.617A4.126,4.126,0,0,1,535,37.426" transform="translate(504.828 8964.75)" fill="none" stroke="#525252" stroke-linecap="round" stroke-linejoin="round" stroke-width="0.099"/><path d="M197.582,22.554a1.443,1.443,0,1,1-1.443-1.443,1.443,1.443,0,0,1,1.443,1.443" transform="translate(826.934 8981.582)" fill="#fff"/><path d="M192.37,16.833a2.01,2.01,0,1,1-2.01-2.01,2.01,2.01,0,0,1,2.01,2.01" transform="translate(825.072 8979.738)" fill="#fff"/></g></svg>