<svg xmlns="http://www.w3.org/2000/svg" xmlns:xlink="http://www.w3.org/1999/xlink" width="182.499" height="71.922" viewBox="0 0 182.499 71.922"><defs><clipPath id="a"><rect width="182.499" height="71.922" fill="none"/></clipPath><clipPath id="b"><rect width="182.5" height="71.922" fill="none"/></clipPath><clipPath id="c"><rect width="7.452" height="15.549" fill="none"/></clipPath><clipPath id="f"><rect width="27.061" height="12.903" fill="none"/></clipPath><clipPath id="i"><rect width="7.948" height="15.549" fill="none"/></clipPath><clipPath id="k"><rect width="47.542" height="28.978" fill="none"/></clipPath><clipPath id="l"><rect width="38.866" height="19.733" fill="none"/></clipPath><clipPath id="m"><rect width="1.974" height="1.886" fill="none"/></clipPath><clipPath id="p"><rect width="1.975" height="1.886" fill="none"/></clipPath><clipPath id="s"><rect width="17.521" height="9.318" fill="none"/></clipPath><clipPath id="t"><rect width="17.521" height="9.319" fill="none"/></clipPath><clipPath id="u"><rect width="17.52" height="9.318" fill="none"/></clipPath><clipPath id="v"><rect width="21.025" height="11.181" fill="none"/></clipPath></defs><g clip-path="url(#a)"><rect width="8.362" height="23.989" transform="translate(79.466 30.204)" fill="#2f5e3e"/><rect width="79.783" height="11.537" transform="translate(102.717 42.888)" fill="#22231d"/><path d="M70.827,52.74H12.56L30.979,1.579H64.61Z" transform="translate(11.556 1.453)" fill="#2f5e3e"/><path d="M0,13.178V42.068H48.6V13.178Z" transform="translate(0 12.124)" fill="#2f5e3e"/><path d="M0,13.178V14.7H79.057l-.184-1.521Z" transform="translate(0 12.124)" fill="#4c8c5e"/><rect width="3.022" height="12.799" transform="translate(6.328 12.503)" fill="#22231d"/><rect width="1.488" height="18.979" transform="translate(103.963 17.182)" fill="#f79421"/><rect width="77.792" height="1.442" transform="translate(103.963 17.182)" fill="#f79421"/><rect width="77.792" height="1.442" transform="translate(103.963 22.946)" fill="#f79421"/><rect width="40.585" height="1.442" transform="translate(141.914 11.315)" fill="#f79421"/><rect width="30.354" height="1.442" transform="translate(152.144 5.866)" fill="#f79421"/><path d="M68,15.718l-.712-1.269L89.531,3.056l.712,1.271Z" transform="translate(61.902 2.811)" fill="#f79421"/><rect width="77.375" height="1.442" transform="translate(104.514 28.71)" fill="#f79421"/><rect width="1.488" height="18.979" transform="translate(113.45 17.182)" fill="#f79421"/><rect width="1.488" height="18.979" transform="translate(122.939 17.182)" fill="#f79421"/><rect width="1.486" height="18.979" transform="translate(132.426 17.182)" fill="#f79421"/><rect width="1.488" height="24.759" transform="translate(141.914 11.403)" fill="#f79421"/><rect width="1.486" height="30.296" transform="translate(151.401 5.866)" fill="#f79421"/><rect width="1.488" height="29.576" transform="translate(160.888 6.586)" fill="#f79421"/><rect width="1.488" height="29.273" transform="translate(170.377 6.889)" fill="#f79421"/><rect width="1.488" height="29.576" transform="translate(181.012 6.586)" fill="#f79421"/><path d="M40.3,19.951H23.872l4.56-17.113H40.3Z" transform="translate(21.963 2.611)" fill="#29a7aa"/><path d="M41.985,21.488H23.169L28.282,2.3h13.7ZM25.87,19.41H39.908V4.374H29.878Z" transform="translate(21.316 2.113)" fill="#22442c"/><g transform="translate(0)"><g clip-path="url(#b)"><g transform="translate(54.049 6.235)" opacity="0.3"><g transform="translate(0)"><g clip-path="url(#c)"><g style="mix-blend-mode:overlay;isolation:isolate"><g clip-path="url(#c)"><path d="M35.6,18.8H28.15L35.6,3.247Z" transform="translate(-28.15 -3.248)" fill="#fff"/></g></g></g></g></g></g></g><rect width="36.882" height="3.032" transform="translate(40.574)" fill="#22442c"/><path d="M31.059,34.836,2,34.719,9.3,21.078l14.567.06Z" transform="translate(1.839 19.392)" fill="#91ad63"/><path d="M1.976,34.707,9.322,21.18l14.567.058L31,34.778Z" transform="translate(1.818 19.486)" fill="#333"/><g transform="translate(0)"><g clip-path="url(#b)"><g transform="translate(4.882 41.377)" opacity="0.6" style="mix-blend-mode:multiply;isolation:isolate"><g clip-path="url(#f)"><g opacity="0.8"><g clip-path="url(#f)"><path d="M26.506,34.453l-5.2-9.909L10.835,24.5,5.628,34.38H2.542L9.076,21.55l14.01.058,6.517,12.8Z" transform="translate(-2.543 -21.55)" fill="#4c8c5e"/></g></g></g></g></g></g><path d="M29.743,35.636l-6.2-11.806L11.09,23.78,4.869,35.55H1.194l7.8-15.285,16.677.067,7.763,15.253Z" transform="translate(1.099 18.644)" fill="#4c8c5e"/><path d="M54.632,33.356,62,22.9l14.567.046,7.19,10.41Z" transform="translate(50.263 21.068)" fill="#333"/><path d="M82.685,34.222l-6-8.686L63.947,25.5,57.82,34.2H53.5l8.634-12.211,16.4.05L86.93,34.2Z" transform="translate(49.22 20.227)" fill="#4c8c5e"/><path d="M78.026,33.356,85.391,22.9l14.567.046,7.19,10.41Z" transform="translate(71.786 21.068)" fill="#333"/><path d="M106.063,34.222l-6-8.686L87.326,25.5,81.2,34.2H76.91l8.6-12.211,16.4.05L109.861,34.2Z" transform="translate(70.758 20.227)" fill="#4c8c5e"/><g transform="translate(0)"><g clip-path="url(#b)"><path d="M27.814,36.994A12.374,12.374,0,1,1,15.491,24.571,12.371,12.371,0,0,1,27.814,36.994" transform="translate(2.822 22.606)" fill="#494949"/><path d="M19.1,34.145a6.479,6.479,0,1,1-6.453-6.505A6.478,6.478,0,0,1,19.1,34.145" transform="translate(5.647 25.429)" fill="#919191"/><path d="M12.562,32.011a2.062,2.062,0,1,1-2.053-2.07,2.06,2.06,0,0,1,2.053,2.07" transform="translate(7.763 27.546)" fill="#22231d"/><path d="M80.535,36.994A12.374,12.374,0,1,1,68.212,24.571,12.372,12.372,0,0,1,80.535,36.994" transform="translate(51.326 22.606)" fill="#494949"/><path d="M71.816,34.145a6.479,6.479,0,1,1-6.453-6.505,6.48,6.48,0,0,1,6.453,6.505" transform="translate(54.151 25.429)" fill="#919191"/><path d="M65.282,32.011a2.062,2.062,0,1,1-2.054-2.07,2.06,2.06,0,0,1,2.054,2.07" transform="translate(56.267 27.546)" fill="#22231d"/><path d="M103.929,36.994A12.374,12.374,0,1,1,91.607,24.571a12.371,12.371,0,0,1,12.323,12.423" transform="translate(72.849 22.606)" fill="#494949"/><path d="M95.21,34.145a6.479,6.479,0,1,1-6.453-6.505,6.48,6.48,0,0,1,6.453,6.505" transform="translate(75.674 25.429)" fill="#919191"/><path d="M88.678,32.011a2.063,2.063,0,1,1-2.052-2.07,2.063,2.063,0,0,1,2.052,2.07" transform="translate(77.79 27.546)" fill="#22231d"/><path d="M33.92,19.951h9.556L41.394,2.838H33.92Z" transform="translate(31.207 2.611)" fill="#29a7aa"/><path d="M45.146,21.488H33.378V2.3h9.433Zm-9.69-2.077H42.8L40.972,4.374H35.455Z" transform="translate(30.708 2.113)" fill="#22442c"/><g transform="translate(65.878 6.235)" opacity="0.3" style="mix-blend-mode:overlay;isolation:isolate"><g transform="translate(0)"><g clip-path="url(#i)"><g style="mix-blend-mode:overlay;isolation:isolate"><g clip-path="url(#i)"><path d="M34.311,18.8h7.947L40.4,3.247Z" transform="translate(-34.311 -3.248)" fill="#fff"/></g></g></g></g></g><rect width="17.13" height="4.658" transform="translate(87.828 42.886)" fill="#22231d"/><rect width="1.258" height="10.693" transform="translate(94.244 38.971)" fill="#22231d"/><rect width="3.143" height="2.077" transform="translate(93.301 40.81)" fill="#22231d"/><g transform="translate(34.532 25.251)" opacity="0.4"><g clip-path="url(#k)"><path d="M65.527,42.129H17.985V13.152l44.339.05Z" transform="translate(-17.985 -13.151)" fill="#1d3824"/></g></g><path d="M51.819,41.34l-18.6.036V13.97H48.494Z" transform="translate(30.563 12.853)" fill="#22442c"/><path d="M22.845,38.077l8.289-20.521H54.66l8.287,20.521Z" transform="translate(21.018 16.152)" fill="#333"/><g transform="translate(44.473 34.45)" opacity="0.6" style="mix-blend-mode:multiply;isolation:isolate"><g clip-path="url(#l)"><path d="M58.691,37.676,51.975,21.049H33.23l-6.7,16.6-3.364.031,7.97-19.734H54.072l7.957,19.7Z" transform="translate(-23.163 -17.943)" fill="#4c8c5e"/></g></g><path d="M61.962,38.917,54.382,20.15H33.221L25.656,38.88l-3.8.036,9-22.274H56.747L65.729,38.88Z" transform="translate(20.112 15.312)" fill="#4c8c5e"/><path d="M55.993,36.88A15.4,15.4,0,1,1,40.66,21.422,15.4,15.4,0,0,1,55.993,36.88" transform="translate(23.186 19.709)" fill="#494949"/><path d="M45.145,33.336a8.062,8.062,0,1,1-8.03-8.095,8.062,8.062,0,0,1,8.03,8.095" transform="translate(26.7 23.222)" fill="#919191"/><path d="M37.014,30.68a2.565,2.565,0,1,1-2.556-2.575,2.566,2.566,0,0,1,2.556,2.575" transform="translate(29.334 25.857)" fill="#22231d"/><rect width="78.537" height="7.834" transform="translate(103.963 35.054)" fill="#f79421"/><rect width="78.537" height="1.442" transform="translate(103.961 34.474)" fill="#a03b08"/><g transform="translate(110.873 38.243)" opacity="0.4"><g transform="translate(0)"><g clip-path="url(#m)"><path d="M59.72,20.861a.988.988,0,1,1-.987-.943.966.966,0,0,1,.987.943" transform="translate(-57.745 -19.918)" fill="#a03b08"/></g></g></g><g transform="translate(123.178 38.243)" opacity="0.4"><g transform="translate(0)"><g clip-path="url(#m)"><path d="M66.129,20.861a.988.988,0,1,1-.987-.943.966.966,0,0,1,.987.943" transform="translate(-64.154 -19.918)" fill="#a03b08"/></g></g></g><g transform="translate(135.482 38.243)" opacity="0.4"><g transform="translate(0)"><g clip-path="url(#m)"><path d="M72.537,20.861a.988.988,0,1,1-.987-.943.966.966,0,0,1,.987.943" transform="translate(-70.563 -19.918)" fill="#a03b08"/></g></g></g><g transform="translate(147.787 38.243)" opacity="0.4"><g transform="translate(0)"><g clip-path="url(#p)"><path d="M78.946,20.861a.988.988,0,1,1-.987-.943.966.966,0,0,1,.987.943" transform="translate(-76.971 -19.918)" fill="#a03b08"/></g></g></g><g transform="translate(160.092 38.243)" opacity="0.4"><g transform="translate(0)"><g clip-path="url(#m)"><path d="M85.355,20.861a.988.988,0,1,1-.987-.943.966.966,0,0,1,.987.943" transform="translate(-83.38 -19.918)" fill="#a03b08"/></g></g></g><g transform="translate(172.397 38.243)" opacity="0.4"><g transform="translate(0)"><g clip-path="url(#m)"><path d="M91.763,20.861a.988.988,0,1,1-.987-.943.966.966,0,0,1,.987.943" transform="translate(-89.789 -19.918)" fill="#a03b08"/></g></g></g><rect width="1.912" height="21.305" transform="translate(0 26.821)" fill="#22442c"/><g transform="translate(11.441 48.788)" opacity="0.4" style="mix-blend-mode:overlay;isolation:isolate"><g clip-path="url(#s)"><path d="M20.716,34.728a8.55,8.55,0,0,0-3.327-5.14,8.97,8.97,0,0,0-9.9.294L5.959,27.5a11.793,11.793,0,0,1,13.025-.253,11.227,11.227,0,0,1,4.5,6.868Z" transform="translate(-5.958 -25.411)" fill="#fff"/></g></g><g transform="translate(112.684 48.787)" opacity="0.4" style="mix-blend-mode:overlay;isolation:isolate"><g clip-path="url(#t)"><path d="M73.445,34.728a8.539,8.539,0,0,0-3.325-5.14,8.977,8.977,0,0,0-9.9.294L58.688,27.5a11.793,11.793,0,0,1,13.025-.253,11.223,11.223,0,0,1,4.5,6.868Z" transform="translate(-58.69 -25.41)" fill="#fff"/></g></g><g transform="translate(157.659 48.788)" opacity="0.4" style="mix-blend-mode:overlay;isolation:isolate"><g transform="translate(0)"><g clip-path="url(#u)"><path d="M96.868,34.728a8.539,8.539,0,0,0-3.325-5.14,8.977,8.977,0,0,0-9.9.294L82.113,27.5a11.789,11.789,0,0,1,13.024-.253,11.223,11.223,0,0,1,4.5,6.868Z" transform="translate(-82.113 -25.411)" fill="#fff"/></g></g></g><g transform="translate(55.844 43.401)" opacity="0.4" style="mix-blend-mode:overlay;isolation:isolate"><g clip-path="url(#v)"><path d="M46.793,33.786A10.248,10.248,0,0,0,42.8,27.619c-3.345-2.279-8.006-2.139-11.877.353l-1.839-2.857c5.021-3.233,11.157-3.354,15.631-.3a13.447,13.447,0,0,1,5.393,8.241Z" transform="translate(-29.086 -22.605)" fill="#fff"/></g></g></g></g></g></svg>