<svg xmlns="http://www.w3.org/2000/svg" xmlns:xlink="http://www.w3.org/1999/xlink" width="614.58" height="129.822" viewBox="0 0 614.58 129.822"><defs><clipPath id="a"><rect width="10.04" height="32.497" transform="translate(0 0)" fill="none"/></clipPath><clipPath id="b"><rect width="10.825" height="37.887" transform="translate(0 0)" fill="none"/></clipPath><clipPath id="c"><rect width="3.66" height="1.113" transform="translate(0 0)" fill="none"/></clipPath><clipPath id="d"><rect width="2.641" height="1.113" transform="translate(0 0)" fill="none"/></clipPath><clipPath id="k"><rect width="4.476" height="28.838" transform="translate(0 0)" fill="none"/></clipPath><clipPath id="l"><rect width="6.605" height="33.135" transform="translate(0 0)" fill="none"/></clipPath><clipPath id="m"><rect width="3.418" height="0.89" transform="translate(0 0)" fill="none"/></clipPath><clipPath id="p"><rect width="1.69" height="0.89" transform="translate(0 0)" fill="none"/></clipPath><clipPath id="s"><rect width="3.419" height="0.89" transform="translate(0 0)" fill="none"/></clipPath><clipPath id="t"><rect width="4.888" height="18.668" transform="translate(0 0)" fill="none"/></clipPath><clipPath id="u"><rect width="4.513" height="17.226" transform="translate(0 0)" fill="none"/></clipPath><clipPath id="ad"><rect width="8.647" height="14.602" fill="none"/></clipPath><clipPath id="ah"><rect width="72.304" height="5.696" fill="#9e6d4f"/></clipPath><clipPath id="ai"><rect width="70.848" height="5.696" fill="#9e6d4f"/></clipPath><clipPath id="aj"><rect width="69.188" height="5.696" fill="#9e6d4f"/></clipPath><clipPath id="ak"><rect width="67.427" height="5.696" fill="#9e6d4f"/></clipPath><clipPath id="al"><rect width="73.523" height="5.696" fill="#6b460b"/></clipPath><clipPath id="am"><rect width="72.067" height="5.696" fill="#6b460b"/></clipPath><clipPath id="an"><rect width="70.408" height="5.696" fill="#6b460b"/></clipPath><clipPath id="ao"><rect width="68.646" height="5.696" fill="#6b460b"/></clipPath><clipPath id="ap"><rect width="3.214" height="7.703" fill="none"/></clipPath><clipPath id="aq"><rect width="8.662" height="30.924" fill="none"/></clipPath></defs><g transform="translate(-985.42 -9533.667)"><g transform="translate(985.42 9630.489)"><rect width="614.58" height="33" rx="16.5" fill="#6b460b"/><ellipse cx="4.5" cy="4" rx="4.5" ry="4" transform="translate(587.58 1)" fill="#9e6d4f"/><circle cx="4" cy="4" r="4" transform="translate(85 21)" fill="#9e6d4f"/><ellipse cx="3" cy="2.5" rx="3" ry="2.5" transform="translate(403.824 15)" fill="#9e6d4f"/><ellipse cx="3" cy="2.5" rx="3" ry="2.5" transform="translate(160.392 15)" fill="#9e6d4f"/><ellipse cx="3.5" cy="3" rx="3.5" ry="3" transform="translate(485.837 13)" fill="#9e6d4f"/><ellipse cx="3.5" cy="3" rx="3.5" ry="3" transform="translate(242.349 13)" fill="#9e6d4f"/><circle cx="2" cy="2" r="2" transform="translate(21 16)" fill="#9e6d4f"/><ellipse cx="5.5" cy="6" rx="5.5" ry="6" transform="translate(478.309 13)" fill="#9e6d4f"/><ellipse cx="5.5" cy="6" rx="5.5" ry="6" transform="translate(234.599 13)" fill="#9e6d4f"/><ellipse cx="3" cy="4" rx="3" ry="4" transform="translate(17 16)" fill="#9e6d4f"/><ellipse cx="6.5" cy="6" rx="6.5" ry="6" transform="translate(563.58 17)" fill="#9e6d4f"/><circle cx="6" cy="6" r="6" transform="translate(315.529 17)" fill="#9e6d4f"/></g><g transform="translate(1053.891 9611.427)"><g transform="translate(0)"><rect width="81.732" height="28.469" rx="14.234" transform="translate(308.259)" fill="#9e6d4f"/><rect width="81.732" height="28.469" rx="14.234" transform="translate(231.118)" fill="#9e6d4f"/><rect width="81.732" height="28.469" rx="14.234" transform="translate(153.059)" fill="#9e6d4f"/><rect width="81.732" height="28.469" rx="14.234" transform="translate(75)" fill="#9e6d4f"/><rect width="81.732" height="28.469" rx="14.234" transform="translate(0)" fill="#9e6d4f"/></g><g transform="translate(386.318)"><rect width="81.732" height="28.469" rx="14.234" transform="translate(78.059)" fill="#9e6d4f"/><rect width="81.732" height="28.469" rx="14.234" transform="translate(0)" fill="#9e6d4f"/></g></g><g transform="translate(1464.092 9532.184)"><g transform="translate(18.029)"><g transform="matrix(0.985, 0.174, -0.174, 0.985, 48.989, 14.771)"><g transform="translate(5.062 3.971)" opacity="0.7"><g clip-path="url(#a)"><path d="M.085,26.942a4.669,4.669,0,1,0,9.17,1.769C9.744,26.179,10.04,0,10.04,0S.574,24.41.085,26.942" transform="translate(0 -0.001)" fill="#559e00"/></g></g><g transform="translate(4.26 0)" opacity="0.7"><g clip-path="url(#b)"><path d="M.071,33.2a5.4,5.4,0,1,0,10.7-1.435C10.381,28.812,1.071,0,1.071,0s-1.4,30.247-1,33.2" transform="translate(0 0.001)" fill="#559e00"/></g></g><path d="M0,22.844c0,5.062,3.547,9.167,7.925,9.167s7.923-4.105,7.923-9.167S12.3,0,7.925,0,0,17.782,0,22.844" transform="translate(1.748 4.771)" fill="#ffce00"/><path d="M.448,1.113H3.213A.448.448,0,0,0,3.661.665V.448A.448.448,0,0,0,3.213,0H.448A.448.448,0,0,0,0,.448V.665a.448.448,0,0,0,.448.448" transform="translate(6.422 21.618)" fill="#ff9d00"/><path d="M.448,1.113H3.213A.448.448,0,0,0,3.661.665V.448A.448.448,0,0,0,3.213,0H.448A.448.448,0,0,0,0,.448V.665a.448.448,0,0,0,.448.448" transform="translate(2.156 26.354)" fill="#ff9d00"/><path d="M.448,1.113H3.213A.448.448,0,0,0,3.661.665V.448A.448.448,0,0,0,3.213,0H.448A.448.448,0,0,0,0,.448V.665a.448.448,0,0,0,.448.448" transform="translate(6.422 28.605)" fill="#ff9d00"/><path d="M.448,1.113H3.213A.448.448,0,0,0,3.661.665V.448A.448.448,0,0,0,3.213,0H.448A.448.448,0,0,0,0,.448V.665a.448.448,0,0,0,.448.448" transform="translate(7.222 33.197)" fill="#ff9d00"/><path d="M.448,1.113H4.634A.447.447,0,0,0,5.08.665V.448A.447.447,0,0,0,4.634,0H.448A.448.448,0,0,0,0,.448V.665a.448.448,0,0,0,.448.448" transform="translate(10.081 30.801)" fill="#ffbc00"/><g transform="translate(13.044 27.467)" opacity="0.4"><g transform="translate(0 0)"><g clip-path="url(#c)"><path d="M.448,1.113H3.213A.448.448,0,0,0,3.661.665V.448A.448.448,0,0,0,3.213,0H.448A.448.448,0,0,0,0,.448V.665a.448.448,0,0,0,.448.448" transform="translate(0 0.001)" fill="#d8ae00"/></g></g></g><path d="M.448,1.113H3.213A.448.448,0,0,0,3.661.665V.448A.448.448,0,0,0,3.213,0H.448A.448.448,0,0,0,0,.448V.665a.448.448,0,0,0,.448.448" transform="translate(7.841 24.17)" fill="#ffbc00"/><path d="M.448,1.113H3.213A.448.448,0,0,0,3.661.665V.448A.448.448,0,0,0,3.213,0H.448A.448.448,0,0,0,0,.448V.665a.448.448,0,0,0,.448.448" transform="translate(13.331 24.17)" fill="#ffbc00"/><path d="M.448,1.113H2.193A.448.448,0,0,0,2.642.665V.448A.448.448,0,0,0,2.193,0H.448A.448.448,0,0,0,0,.448V.665a.448.448,0,0,0,.448.448" transform="translate(3.88 20.219)" fill="#ffbc00"/><g transform="translate(2.561 23.287)" opacity="0.4"><g transform="translate(0)"><g clip-path="url(#d)"><path d="M.448,1.113H2.193A.448.448,0,0,0,2.642.665V.448A.448.448,0,0,0,2.193,0H.448A.448.448,0,0,0,0,.448V.665a.448.448,0,0,0,.448.448" transform="translate(-0.001 0)" fill="#d8ae00"/></g></g></g><path d="M.448,1.113H2.193A.448.448,0,0,0,2.642.665V.448A.448.448,0,0,0,2.193,0H.448A.448.448,0,0,0,0,.448V.665a.448.448,0,0,0,.448.448" transform="translate(12.736 22.731)" fill="#ff9d00"/><g transform="translate(3.81 30.801)" opacity="0.4"><g transform="translate(0 0)"><g clip-path="url(#d)"><path d="M.448,1.113H2.193A.448.448,0,0,0,2.642.665V.448A.448.448,0,0,0,2.193,0H.448A.448.448,0,0,0,0,.448V.665a.448.448,0,0,0,.448.448" transform="translate(-0.001 0)" fill="#d8ae00"/></g></g></g><path d="M7.276,35.583c2.8-.308,6.055-.66,3.335-1.667C4.624,31.695,1.368,0,1.368,0-.247.163-2.273,36.634,7.276,35.583" transform="translate(0 0.891)" fill="#559e00"/><path d="M3.229,30.238C.543,29.405-.3,28.227.088,28.225,9.838,28.187,13.892,4.716,14.2,0c2,3.045.9,33.914-10.966,30.238" transform="translate(5.131 7.256)" fill="#559e00"/></g><g transform="matrix(0.985, 0.174, -0.174, 0.985, 64.072, 10.687)"><g transform="translate(5.062 3.971)" opacity="0.7"><g clip-path="url(#a)"><path d="M.085,26.942a4.669,4.669,0,1,0,9.17,1.769C9.744,26.179,10.04,0,10.04,0S.574,24.41.085,26.942" transform="translate(0 -0.001)" fill="#559e00"/></g></g><g transform="translate(4.26 0)" opacity="0.7"><g clip-path="url(#b)"><path d="M.071,33.2a5.4,5.4,0,1,0,10.7-1.435C10.381,28.812,1.071,0,1.071,0s-1.4,30.247-1,33.2" transform="translate(0 0.001)" fill="#559e00"/></g></g><path d="M0,22.844c0,5.062,3.547,9.167,7.925,9.167s7.923-4.105,7.923-9.167S12.3,0,7.925,0,0,17.782,0,22.844" transform="translate(1.748 4.771)" fill="#ffce00"/><path d="M.448,1.113H3.213A.448.448,0,0,0,3.661.665V.448A.448.448,0,0,0,3.213,0H.448A.448.448,0,0,0,0,.448V.665a.448.448,0,0,0,.448.448" transform="translate(6.422 21.618)" fill="#ff9d00"/><path d="M.448,1.113H3.213A.448.448,0,0,0,3.661.665V.448A.448.448,0,0,0,3.213,0H.448A.448.448,0,0,0,0,.448V.665a.448.448,0,0,0,.448.448" transform="translate(2.156 26.354)" fill="#ff9d00"/><path d="M.448,1.113H3.213A.448.448,0,0,0,3.661.665V.448A.448.448,0,0,0,3.213,0H.448A.448.448,0,0,0,0,.448V.665a.448.448,0,0,0,.448.448" transform="translate(6.422 28.605)" fill="#ff9d00"/><path d="M.448,1.113H3.213A.448.448,0,0,0,3.661.665V.448A.448.448,0,0,0,3.213,0H.448A.448.448,0,0,0,0,.448V.665a.448.448,0,0,0,.448.448" transform="translate(7.222 33.197)" fill="#ff9d00"/><path d="M.448,1.113H4.634A.447.447,0,0,0,5.08.665V.448A.447.447,0,0,0,4.634,0H.448A.448.448,0,0,0,0,.448V.665a.448.448,0,0,0,.448.448" transform="translate(10.081 30.801)" fill="#ffbc00"/><g transform="translate(13.044 27.467)" opacity="0.4"><g transform="translate(0 0)"><g clip-path="url(#c)"><path d="M.448,1.113H3.213A.448.448,0,0,0,3.661.665V.448A.448.448,0,0,0,3.213,0H.448A.448.448,0,0,0,0,.448V.665a.448.448,0,0,0,.448.448" transform="translate(0 0.001)" fill="#d8ae00"/></g></g></g><path d="M.448,1.113H3.213A.448.448,0,0,0,3.661.665V.448A.448.448,0,0,0,3.213,0H.448A.448.448,0,0,0,0,.448V.665a.448.448,0,0,0,.448.448" transform="translate(7.841 24.17)" fill="#ffbc00"/><path d="M.448,1.113H3.213A.448.448,0,0,0,3.661.665V.448A.448.448,0,0,0,3.213,0H.448A.448.448,0,0,0,0,.448V.665a.448.448,0,0,0,.448.448" transform="translate(13.331 24.17)" fill="#ffbc00"/><path d="M.448,1.113H2.193A.448.448,0,0,0,2.642.665V.448A.448.448,0,0,0,2.193,0H.448A.448.448,0,0,0,0,.448V.665a.448.448,0,0,0,.448.448" transform="translate(3.88 20.219)" fill="#ffbc00"/><g transform="translate(2.561 23.287)" opacity="0.4"><g transform="translate(0)"><g clip-path="url(#d)"><path d="M.448,1.113H2.193A.448.448,0,0,0,2.642.665V.448A.448.448,0,0,0,2.193,0H.448A.448.448,0,0,0,0,.448V.665a.448.448,0,0,0,.448.448" transform="translate(-0.001 0)" fill="#d8ae00"/></g></g></g><path d="M.448,1.113H2.193A.448.448,0,0,0,2.642.665V.448A.448.448,0,0,0,2.193,0H.448A.448.448,0,0,0,0,.448V.665a.448.448,0,0,0,.448.448" transform="translate(12.736 22.731)" fill="#ff9d00"/><g transform="translate(3.81 30.801)" opacity="0.4"><g transform="translate(0 0)"><g clip-path="url(#d)"><path d="M.448,1.113H2.193A.448.448,0,0,0,2.642.665V.448A.448.448,0,0,0,2.193,0H.448A.448.448,0,0,0,0,.448V.665a.448.448,0,0,0,.448.448" transform="translate(-0.001 0)" fill="#d8ae00"/></g></g></g><path d="M7.276,35.583c2.8-.308,6.055-.66,3.335-1.667C4.624,31.695,1.368,0,1.368,0-.247.163-2.273,36.634,7.276,35.583" transform="translate(0 0.891)" fill="#559e00"/><path d="M3.229,30.238C.543,29.405-.3,28.227.088,28.225,9.838,28.187,13.892,4.716,14.2,0c2,3.045.9,33.914-10.966,30.238" transform="translate(5.131 7.256)" fill="#559e00"/></g><g transform="translate(61.103 56.639) rotate(149)"><path d="M.419.019c.288-.092.577.152.643.548l5.5,32.177a.773.773,0,0,1-.4.881c-.292.089-.58-.155-.646-.548L.014.9A.773.773,0,0,1,.419.019" transform="translate(6.831 20.43)" fill="#22442c"/><path d="M4.069,1.372c.311.859-.139,1.315-.174,3.1a7.351,7.351,0,0,0,.7,3.891c.783,1.239,1.73.773,2.136,1.942a5.839,5.839,0,0,1-.07,2.589c-.2,1.464-.431,1.537-.494,2.614-.086,1.426.288,1.825.019,2.4a1.514,1.514,0,0,1-2.323.415c-.77-.716-.272-1.907-1.09-3.394-.8-1.451-1.651-1-2.167-2.361A6.2,6.2,0,0,1,.6,9.1C1,7.684,1.62,7.539,1.569,6.708,1.493,5.517.181,5.416.016,4.047A4.376,4.376,0,0,1,.7,1.639C1.084.859,1.35.317,1.851.1A1.825,1.825,0,0,1,4.069,1.372" transform="translate(8.118 36.621)" fill="#82db0e"/><path d="M.539,0c.3,0,.539.33.539.732V33.771c0,.406-.241.732-.539.732S0,34.176,0,33.771V.732C0,.33.241,0,.539,0" transform="translate(7.436 26.232)" fill="#22442c"/><path d="M8,2.915C8.24,4.322,7.46,4.782,6.96,7.389c-.26,1.343-.757,3.935.057,6.046.84,2.183,2.348,1.942,2.649,3.847.155.97-.146,1.9-.748,3.771-.665,2.06-1.02,2.06-1.382,3.609-.485,2.056-.038,2.817-.577,3.533-.757,1.008-2.636.837-3.514-.469-.954-1.413.076-2.934-.751-5.5-.808-2.5-2.17-2.24-2.592-4.474a8.955,8.955,0,0,1,.865-5.1c.932-1.892,1.885-1.816,2.015-3.061C3.173,7.8,1.272,7.044,1.37,4.956A5.752,5.752,0,0,1,2.983,1.737C3.74.77,4.266.1,5.058.01,6.335-.133,7.717,1.3,8,2.915" transform="translate(2.879 37.233)" fill="#82db0e"/><g transform="translate(8.11 37.235)" opacity="0.4"><g transform="translate(0 0)"><g clip-path="url(#k)"><path d="M0,28.818a1.828,1.828,0,0,0,1.727-.627c.542-.716.1-1.477.577-3.533.364-1.553.719-1.553,1.385-3.612.6-1.866.9-2.8.748-3.767-.3-1.907-1.809-1.667-2.649-3.847-.814-2.113-.317-4.705-.06-6.046.5-2.608,1.28-3.07,1.039-4.474C2.5,1.366,1.226-.006,0,0Z" transform="translate(0.001 0.002)" fill="#406d05"/></g></g></g><path d="M6.663.023a.784.784,0,0,1,.39.89L1.06,32.926c-.076.393-.368.631-.656.529a.775.775,0,0,1-.387-.89L6.01.553c.073-.393.364-.631.653-.529" transform="translate(1.506 24.9)" fill="#22442c"/><path d="M6.325,2.35c-.013.884-.526.995-1.112,2.44a6.779,6.779,0,0,0-.637,3.593c.257,1.467,1.179,1.635,1.144,2.826a4.574,4.574,0,0,1-.862,2.079c-.621,1.084-.83,1.011-1.22,1.857-.513,1.119-.333,1.66-.732,1.974-.561.44-1.654-.048-2.031-1-.406-1.03.374-1.721.165-3.409C.84,11.057,0,10.927,0,9.517A4.85,4.85,0,0,1,1.077,6.672c.764-.932,1.321-.691,1.537-1.4.311-1.017-.732-1.86-.444-3.077A2.868,2.868,0,0,1,3.486.62c.555-.418.941-.707,1.42-.6A2.428,2.428,0,0,1,6.325,2.35" transform="translate(0 41.712)" fill="#82db0e"/><path d="M7.312.753l5.865,31.131c.117.634-.231,1.252-.713,1.252H.734c-.478,0-.83-.618-.71-1.252L5.889.753c.187-1,1.233-1,1.423,0" transform="translate(1.215 0)" fill="#fb720f"/><g transform="translate(7.816 0.001)" opacity="0.6"><g clip-path="url(#l)"><path d="M0,33.137V0C.342.019.583.247.7.7L6.581,31.914c.117.621-.225,1.223-.694,1.223Z" transform="translate(0.001 -0.002)" fill="#cd471f"/></g></g><path d="M.447,0H2.975a.443.443,0,0,1,.444.444v0A.443.443,0,0,1,2.975.89H.447A.446.446,0,0,1,0,.447v0A.446.446,0,0,1,.447,0" transform="translate(6.965 30.367)" fill="#fb720f"/><g transform="translate(3.163 27.016)" opacity="0.6"><g transform="translate(0 0)"><g clip-path="url(#m)"><path d="M.444,0H2.972a.444.444,0,0,1,0,.887H.444A.444.444,0,1,1,.444,0" transform="translate(0 0.002)" fill="#cd471f"/></g></g></g><path d="M.444,0H2.972a.445.445,0,0,1,0,.89H.444a.445.445,0,0,1,0-.89" transform="translate(8.349 25.342)" fill="#cd471f"/><g transform="translate(3.547 22.201)" opacity="0.6"><g transform="translate(0 0)"><g clip-path="url(#m)"><path d="M.444,0H2.972a.445.445,0,0,1,0,.89H.444a.445.445,0,0,1,0-.89" transform="translate(0.002 0.001)" fill="#cd471f"/></g></g></g><g transform="translate(7.503 19.218)" opacity="0.6"><g transform="translate(0 0)"><g clip-path="url(#m)"><path d="M.444,0H2.972a.445.445,0,0,1,0,.89H.444a.445.445,0,0,1,0-.89" transform="translate(0 -0.001)" fill="#cd471f"/></g></g></g><g transform="translate(4.872 16.124)" opacity="0.6"><g transform="translate(0)"><g clip-path="url(#p)"><path d="M.444,0h.8a.445.445,0,0,1,0,.89h-.8a.445.445,0,0,1,0-.89" transform="translate(0.002 0)" fill="#cd471f"/></g></g></g><g transform="translate(11.767 30.811)" opacity="0.6"><g transform="translate(0 0)"><g clip-path="url(#p)"><path d="M.444,0h.8a.445.445,0,0,1,0,.89h-.8a.445.445,0,0,1,0-.89" transform="translate(0.002 0)" fill="#cd471f"/></g></g></g><g transform="translate(2.318 30.811)" opacity="0.6"><g transform="translate(0 0)"><g clip-path="url(#p)"><path d="M.444,0h.8a.445.445,0,0,1,0,.89h-.8a.445.445,0,0,1,0-.89" transform="translate(0.002 0)" fill="#cd471f"/></g></g></g><path d="M.444,0H2.972a.445.445,0,0,1,0,.89H.444a.445.445,0,0,1,0-.89" transform="translate(6.581 13.031)" fill="#fb720f"/><g transform="translate(5.794 9)" opacity="0.6"><g transform="translate(0 0)"><g clip-path="url(#s)"><path d="M.444,0H2.972a.445.445,0,0,1,0,.89H.444a.445.445,0,0,1,0-.89" transform="translate(0.002 0.001)" fill="#cd471f"/></g></g></g><path d="M.444,0h.992a.445.445,0,1,1,0,.89H.444a.445.445,0,0,1,0-.89" transform="translate(7.044 6.07)" fill="#fb720f"/><path d="M.444,0h.992a.445.445,0,1,1,0,.89H.444a.445.445,0,0,1,0-.89" transform="translate(6.794 3.139)" fill="#cd471f"/></g><g transform="translate(58.534 58.025) rotate(133)"><path d="M.419.019c.288-.092.577.152.643.548l5.5,32.177a.773.773,0,0,1-.4.881c-.292.089-.58-.155-.646-.548L.014.9A.772.772,0,0,1,.419.019" transform="translate(6.831 20.43)" fill="#22442c"/><path d="M4.069,1.372c.311.859-.139,1.315-.174,3.1a7.351,7.351,0,0,0,.7,3.891c.783,1.239,1.73.773,2.136,1.942a5.839,5.839,0,0,1-.07,2.589c-.2,1.464-.431,1.537-.494,2.614-.086,1.426.288,1.825.019,2.4a1.514,1.514,0,0,1-2.323.415c-.77-.716-.272-1.907-1.09-3.394-.8-1.451-1.651-1-2.167-2.361A6.2,6.2,0,0,1,.6,9.1C1,7.684,1.62,7.538,1.569,6.708,1.493,5.517.181,5.416.016,4.047A4.376,4.376,0,0,1,.7,1.639C1.084.859,1.35.317,1.851.1A1.825,1.825,0,0,1,4.069,1.372" transform="translate(8.118 36.621)" fill="#82db0e"/><g transform="translate(10.081 36.622)" opacity="0.4"><g transform="translate(0 0)"><g clip-path="url(#t)"><path d="M3.178,18.669a1.437,1.437,0,0,0,1.046-.76c.269-.574-.1-.973-.016-2.4.063-1.077.292-1.15.494-2.617a5.812,5.812,0,0,0,.067-2.586c-.406-1.169-1.35-.7-2.136-1.942a7.382,7.382,0,0,1-.7-3.891c.035-1.787.488-2.243.177-3.1A1.869,1.869,0,0,0,0,.057Z" transform="translate(0.002 0)" fill="#406d05"/></g></g></g><path d="M.539,0c.3,0,.539.33.539.732V33.771c0,.406-.241.732-.539.732S0,34.176,0,33.771V.732C0,.33.241,0,.539,0" transform="translate(7.436 26.232)" fill="#22442c"/><path d="M8,2.915C8.24,4.322,7.46,4.782,6.96,7.389c-.26,1.343-.757,3.935.057,6.046.84,2.183,2.348,1.942,2.649,3.847.155.97-.146,1.9-.748,3.771-.665,2.06-1.02,2.06-1.382,3.609-.485,2.056-.038,2.817-.577,3.533-.757,1.008-2.636.837-3.514-.469-.954-1.413.076-2.934-.751-5.5-.808-2.5-2.17-2.24-2.592-4.474a8.955,8.955,0,0,1,.865-5.1c.932-1.892,1.885-1.816,2.015-3.061C3.173,7.8,1.272,7.044,1.37,4.956A5.752,5.752,0,0,1,2.983,1.737C3.74.77,4.266.1,5.058.01,6.335-.133,7.717,1.3,8,2.915" transform="translate(2.879 37.233)" fill="#82db0e"/><path d="M6.663.023a.784.784,0,0,1,.39.89L1.06,32.926c-.076.393-.368.631-.656.529a.775.775,0,0,1-.387-.89L6.01.553c.073-.393.364-.631.653-.529" transform="translate(1.506 24.9)" fill="#22442c"/><path d="M6.325,2.35c-.013.884-.526.995-1.112,2.44a6.779,6.779,0,0,0-.637,3.593c.257,1.467,1.179,1.635,1.144,2.826a4.574,4.574,0,0,1-.862,2.079c-.621,1.084-.83,1.011-1.22,1.857-.513,1.119-.333,1.66-.732,1.974-.561.44-1.654-.048-2.031-1-.406-1.03.374-1.721.165-3.409C.84,11.057,0,10.927,0,9.517A4.85,4.85,0,0,1,1.077,6.672c.764-.932,1.321-.691,1.537-1.4.311-1.017-.732-1.86-.444-3.077A2.868,2.868,0,0,1,3.486.62c.555-.418.941-.707,1.42-.6A2.428,2.428,0,0,1,6.325,2.35" transform="translate(0 41.712)" fill="#82db0e"/><g transform="translate(1.812 41.764)" opacity="0.4"><g clip-path="url(#u)"><path d="M0,17.079a1.037,1.037,0,0,0,1.093-.016c.4-.314.219-.856.735-1.974.387-.846.6-.773,1.22-1.857a4.574,4.574,0,0,0,.862-2.079c.032-1.191-.887-1.359-1.144-2.826A6.718,6.718,0,0,1,3.4,4.734c.586-1.445,1.1-1.556,1.109-2.44A2.508,2.508,0,0,0,3.2,0Z" transform="translate(0.001 0)" fill="#406d05"/></g></g><path d="M7.312.753l5.865,31.131c.117.634-.231,1.252-.713,1.252H.734c-.478,0-.83-.618-.71-1.252L5.889.753c.187-1,1.233-1,1.423,0" transform="translate(1.215 0)" fill="#fb720f"/><g transform="translate(7.816 0.001)" opacity="0.6"><g clip-path="url(#l)"><path d="M0,33.137V0C.342.019.583.247.7.7L6.581,31.914c.117.621-.225,1.223-.694,1.223Z" transform="translate(0.001 -0.002)" fill="#cd471f"/></g></g><path d="M.447,0H2.975a.443.443,0,0,1,.444.444v0A.443.443,0,0,1,2.975.89H.447A.446.446,0,0,1,0,.447v0A.446.446,0,0,1,.447,0" transform="translate(6.965 30.367)" fill="#fb720f"/><g transform="translate(3.163 27.016)" opacity="0.6"><g transform="translate(0 0)"><g clip-path="url(#m)"><path d="M.444,0H2.972a.444.444,0,1,1,0,.887H.444A.444.444,0,1,1,.444,0" transform="translate(0 0.002)" fill="#cd471f"/></g></g></g><path d="M.444,0H2.972a.445.445,0,0,1,0,.89H.444a.445.445,0,0,1,0-.89" transform="translate(8.349 25.341)" fill="#cd471f"/><g transform="translate(3.546 22.201)" opacity="0.6"><g transform="translate(0 0)"><g clip-path="url(#m)"><path d="M.444,0H2.972a.445.445,0,0,1,0,.89H.444a.445.445,0,0,1,0-.89" transform="translate(0.002 0.001)" fill="#cd471f"/></g></g></g><g transform="translate(7.503 19.218)" opacity="0.6"><g transform="translate(0 0)"><g clip-path="url(#m)"><path d="M.444,0H2.972a.445.445,0,0,1,0,.89H.444a.445.445,0,0,1,0-.89" transform="translate(0 -0.001)" fill="#cd471f"/></g></g></g><g transform="translate(4.872 16.124)" opacity="0.6"><g transform="translate(0)"><g clip-path="url(#p)"><path d="M.444,0h.8a.445.445,0,0,1,0,.89h-.8a.445.445,0,0,1,0-.89" transform="translate(0.002 0)" fill="#cd471f"/></g></g></g><g transform="translate(11.767 30.811)" opacity="0.6"><g transform="translate(0)"><g clip-path="url(#p)"><path d="M.444,0h.8a.445.445,0,0,1,0,.89h-.8a.445.445,0,0,1,0-.89" transform="translate(0.002 0)" fill="#cd471f"/></g></g></g><g transform="translate(2.318 30.811)" opacity="0.6"><g transform="translate(0 0)"><g clip-path="url(#p)"><path d="M.444,0h.8a.445.445,0,0,1,0,.89h-.8a.445.445,0,0,1,0-.89" transform="translate(0.002 0)" fill="#cd471f"/></g></g></g><path d="M.444,0H2.972a.445.445,0,0,1,0,.89H.444a.445.445,0,0,1,0-.89" transform="translate(6.581 13.031)" fill="#fb720f"/><g transform="translate(5.794 9)" opacity="0.6"><g transform="translate(0 0)"><g clip-path="url(#s)"><path d="M.444,0H2.972a.445.445,0,0,1,0,.89H.444a.445.445,0,0,1,0-.89" transform="translate(0.002 0.001)" fill="#cd471f"/></g></g></g><path d="M.444,0h.992a.445.445,0,1,1,0,.89H.444a.445.445,0,0,1,0-.89" transform="translate(7.044 6.07)" fill="#fb720f"/><path d="M.444,0h.992a.445.445,0,1,1,0,.89H.444a.445.445,0,0,1,0-.89" transform="translate(6.794 3.139)" fill="#cd471f"/></g><g transform="matrix(0.996, 0.087, -0.087, 0.996, 54.335, 35.712)"><path d="M1.533,3.785A11.444,11.444,0,0,1,.016.422.322.322,0,0,1,.392.008a11.357,11.357,0,0,1,3.5,1.177,1.754,1.754,0,1,1-2.355,2.6" transform="translate(5.065 1.951)" fill="#243a02"/><path d="M0,3.491A11.405,11.405,0,0,1,1.575.155a.323.323,0,0,1,.561.017A11.409,11.409,0,0,1,3.507,3.6,1.754,1.754,0,1,1,0,3.491" transform="translate(7.076 0)" fill="#243a02"/><path d="M.9.357A11.44,11.44,0,0,1,4.576,0a.323.323,0,0,1,.271.491,11.421,11.421,0,0,1-2.24,2.931A1.754,1.754,0,1,1,.9.357" transform="translate(8.058 2.324)" fill="#243a02"/><path d="M17.294,7.448c0,3.377-2.609,6.228-6.183,7.141-1.322.192-1.608-.463-2.464-.463-1.013,0-1.369.77-2.892.343C2.4,13.444,0,10.688,0,7.448c0-3.6,2.965-6.6,6.9-7.3A10.145,10.145,0,0,1,8.647,0c4.776,0,8.647,3.334,8.647,7.448" transform="translate(0 3.563)" fill="#e81605"/><g transform="translate(0 3.564)" opacity="0.4"><g transform="translate(0)"><g clip-path="url(#ad)"><path d="M8.647,0C3.871,0,.06,3.336,0,7.448c.023,3.317,2.449,5.932,5.755,7.022,1.485.427,1.817-.314,2.892-.343Z" transform="translate(0 0)" fill="#a00800"/></g></g></g><path d="M6.51,7.244,5.277,7.235a6.117,6.117,0,0,0-1.071-3.5A6.322,6.322,0,0,0,0,1.22L.171,0A7.579,7.579,0,0,1,5.217,3.031,7.356,7.356,0,0,1,6.51,7.244" transform="translate(10.138 4.329)" fill="#ff4c48"/></g><g transform="matrix(0.996, 0.087, -0.087, 0.996, 67.914, 31.492)"><path d="M1.533,3.785A11.444,11.444,0,0,1,.016.422.322.322,0,0,1,.392.008a11.357,11.357,0,0,1,3.5,1.177,1.754,1.754,0,1,1-2.355,2.6" transform="translate(5.065 1.951)" fill="#243a02"/><path d="M0,3.491A11.405,11.405,0,0,1,1.575.155a.323.323,0,0,1,.561.017A11.409,11.409,0,0,1,3.507,3.6,1.754,1.754,0,1,1,0,3.491" transform="translate(7.076 0)" fill="#243a02"/><path d="M.9.357A11.44,11.44,0,0,1,4.576,0a.323.323,0,0,1,.271.491,11.421,11.421,0,0,1-2.24,2.931A1.754,1.754,0,1,1,.9.357" transform="translate(8.058 2.324)" fill="#243a02"/><path d="M17.294,7.448c0,3.377-2.609,6.228-6.183,7.141-1.322.192-1.608-.463-2.464-.463-1.013,0-1.369.77-2.892.343C2.4,13.444,0,10.688,0,7.448c0-3.6,2.965-6.6,6.9-7.3A10.145,10.145,0,0,1,8.647,0c4.776,0,8.647,3.334,8.647,7.448" transform="translate(0 3.563)" fill="#e81605"/><g transform="translate(0 3.564)" opacity="0.4"><g transform="translate(0)"><g clip-path="url(#ad)"><path d="M8.647,0C3.871,0,.06,3.336,0,7.448c.023,3.317,2.449,5.932,5.755,7.022,1.485.427,1.817-.314,2.892-.343Z" transform="translate(0 0)" fill="#a00800"/></g></g></g><path d="M6.51,7.244,5.277,7.235a6.117,6.117,0,0,0-1.071-3.5A6.322,6.322,0,0,0,0,1.22L.171,0A7.579,7.579,0,0,1,5.217,3.031,7.356,7.356,0,0,1,6.51,7.244" transform="translate(10.138 4.329)" fill="#ff4c48"/></g><g transform="matrix(0.996, 0.087, -0.087, 0.996, 66.662, 40.538)"><path d="M1.533,3.785A11.444,11.444,0,0,1,.016.422.322.322,0,0,1,.392.008a11.357,11.357,0,0,1,3.5,1.177,1.754,1.754,0,1,1-2.355,2.6" transform="translate(5.065 1.951)" fill="#243a02"/><path d="M0,3.491A11.405,11.405,0,0,1,1.575.155a.323.323,0,0,1,.561.017A11.409,11.409,0,0,1,3.507,3.6,1.754,1.754,0,1,1,0,3.491" transform="translate(7.076 0)" fill="#243a02"/><path d="M.9.357A11.44,11.44,0,0,1,4.576,0a.323.323,0,0,1,.271.491,11.421,11.421,0,0,1-2.24,2.931A1.754,1.754,0,1,1,.9.357" transform="translate(8.058 2.324)" fill="#243a02"/><path d="M17.294,7.448c0,3.377-2.609,6.228-6.183,7.141-1.322.192-1.608-.463-2.464-.463-1.013,0-1.369.77-2.892.343C2.4,13.444,0,10.688,0,7.448c0-3.6,2.965-6.6,6.9-7.3A10.145,10.145,0,0,1,8.647,0c4.776,0,8.647,3.334,8.647,7.448" transform="translate(0 3.563)" fill="#e81605"/><g transform="translate(0 3.564)" opacity="0.4"><g transform="translate(0)"><g clip-path="url(#ad)"><path d="M8.647,0C3.871,0,.06,3.336,0,7.448c.023,3.317,2.449,5.932,5.755,7.022,1.485.427,1.817-.314,2.892-.343Z" transform="translate(0 0)" fill="#a00800"/></g></g></g><path d="M6.51,7.244,5.277,7.235a6.117,6.117,0,0,0-1.071-3.5A6.322,6.322,0,0,0,0,1.22L.171,0A7.579,7.579,0,0,1,5.217,3.031,7.356,7.356,0,0,1,6.51,7.244" transform="translate(10.138 4.329)" fill="#ff4c48"/></g><g transform="matrix(0.996, 0.087, -0.087, 0.996, 80.242, 36.319)"><path d="M1.533,3.785A11.444,11.444,0,0,1,.016.422.322.322,0,0,1,.392.008a11.357,11.357,0,0,1,3.5,1.177,1.754,1.754,0,1,1-2.355,2.6" transform="translate(5.065 1.951)" fill="#243a02"/><path d="M0,3.491A11.405,11.405,0,0,1,1.575.155a.323.323,0,0,1,.561.017A11.409,11.409,0,0,1,3.507,3.6,1.754,1.754,0,1,1,0,3.491" transform="translate(7.076 0)" fill="#243a02"/><path d="M.9.357A11.44,11.44,0,0,1,4.576,0a.323.323,0,0,1,.271.491,11.421,11.421,0,0,1-2.24,2.931A1.754,1.754,0,1,1,.9.357" transform="translate(8.058 2.324)" fill="#243a02"/><path d="M17.294,7.448c0,3.377-2.609,6.228-6.183,7.141-1.322.192-1.608-.463-2.464-.463-1.013,0-1.369.77-2.892.343C2.4,13.444,0,10.688,0,7.448c0-3.6,2.965-6.6,6.9-7.3A10.145,10.145,0,0,1,8.647,0c4.776,0,8.647,3.334,8.647,7.448" transform="translate(0 3.563)" fill="#e81605"/><g transform="translate(0 3.564)" opacity="0.4"><g transform="translate(0)"><g clip-path="url(#ad)"><path d="M8.647,0C3.871,0,.06,3.336,0,7.448c.023,3.317,2.449,5.932,5.755,7.022,1.485.427,1.817-.314,2.892-.343Z" transform="translate(0 0)" fill="#a00800"/></g></g></g><path d="M6.51,7.244,5.277,7.235a6.117,6.117,0,0,0-1.071-3.5A6.322,6.322,0,0,0,0,1.22L.171,0A7.579,7.579,0,0,1,5.217,3.031,7.356,7.356,0,0,1,6.51,7.244" transform="translate(10.138 4.329)" fill="#ff4c48"/></g><g transform="translate(27.825 49.656)"><g transform="translate(0.61)" style="isolation:isolate"><g clip-path="url(#ah)"><path d="M71.151,21.855H4.448a2.848,2.848,0,0,1,0-5.7h66.7a2.848,2.848,0,0,1,0,5.7" transform="translate(-1.647 -16.159)" fill="#9e6d4f"/></g></g><g transform="translate(1.337 8.061)" style="isolation:isolate"><g clip-path="url(#ai)"><path d="M69.751,21.855H4.392a2.85,2.85,0,0,1,0-5.7H69.751a2.85,2.85,0,0,1,0,5.7" transform="translate(-1.647 -16.159)" fill="#9e6d4f"/></g></g><g transform="translate(2.168 16.123)" style="isolation:isolate"><g clip-path="url(#aj)"><path d="M68.156,21.855H4.327a2.853,2.853,0,0,1,0-5.7H68.156a2.853,2.853,0,0,1,0,5.7" transform="translate(-1.647 -16.159)" fill="#9e6d4f"/></g></g><g transform="translate(3.048 24.185)" style="isolation:isolate"><g clip-path="url(#ak)"><path d="M66.463,21.855H4.259a2.746,2.746,0,0,1-2.612-2.848,2.745,2.745,0,0,1,2.612-2.847h62.2a2.744,2.744,0,0,1,2.611,2.847,2.745,2.745,0,0,1-2.611,2.848" transform="translate(-1.647 -16.159)" fill="#9e6d4f"/></g></g><g transform="translate(0 4.031)" style="isolation:isolate"><g clip-path="url(#al)"><path d="M72.323,21.855H4.5a2.848,2.848,0,1,1,0-5.7H72.323a2.848,2.848,0,0,1,0,5.7" transform="translate(-1.647 -16.159)" fill="#6b460b"/></g></g><g transform="translate(0.728 12.092)" style="isolation:isolate"><g clip-path="url(#am)"><path d="M70.923,21.855H4.439a2.848,2.848,0,0,1,0-5.7H70.923a2.848,2.848,0,0,1,0,5.7" transform="translate(-1.647 -16.159)" fill="#6b460b"/></g></g><g transform="translate(1.558 20.154)" style="isolation:isolate"><g clip-path="url(#an)"><path d="M69.328,21.855H4.375a2.85,2.85,0,0,1,0-5.7H69.328a2.851,2.851,0,0,1,0,5.7" transform="translate(-1.647 -16.159)" fill="#6b460b"/></g></g><g transform="translate(2.439 28.215)" style="isolation:isolate"><g clip-path="url(#ao)"><path d="M67.635,21.855H4.306a2.854,2.854,0,0,1,0-5.7H67.635a2.855,2.855,0,0,1,0,5.7" transform="translate(-1.647 -16.159)" fill="#6b460b"/></g></g></g></g><g transform="translate(0 54.284)"><path d="M103.02,24.234h-2.668L98.9,16.53h5.58Z" transform="translate(-79.248 -16.53)" fill="#406d05"/><path d="M118.533,33c0,8.538-9.486,15.461-13.855,15.461S99.473,41.534,99.473,33c0-5.055-.034-10.184,1.885-13.006,1.323-1.944,4.246-2.455,6.029-2.455,4.368,0,11.147,6.923,11.147,15.461" transform="translate(-74.289 -14.683)" fill="#d84a03"/><path d="M111.805,33.1c0,8.538.965,15.157-3.406,15.157S93.392,41.64,93.392,33.1s6.131-15.461,10.5-15.461c1.695,0,4.36.02,5.646,1.788,2.035,2.8,2.268,8.442,2.268,13.673" transform="translate(-93.392 -14.488)" fill="#cd471f"/><g transform="translate(19.399 0.001)" opacity="0.4"><g clip-path="url(#ap)"><path d="M102.12,16.53H98.907l1.453,7.7h1.76Z" transform="translate(-98.906 -16.53)" fill="#284200"/></g></g><path d="M115.034,33c0,8.538-5.24,15.461-9.611,15.461S96.791,41.534,96.791,33s4.263-15.461,8.632-15.461,9.611,6.923,9.611,15.461" transform="translate(-82.915 -14.683)" fill="#fb720f"/><g transform="translate(12.415 2.851)" opacity="0.4"><g clip-path="url(#aq)"><path d="M105.454,17.537l-.031,0c-4.368,0-8.632,6.923-8.632,15.461s4.263,15.461,8.632,15.461l.031,0Z" transform="translate(-96.793 -17.535)" fill="#c14e00"/></g></g></g><g transform="translate(20.879 67.134) rotate(-14)"><path d="M4.124,7.7H1.456L0,0H5.58Z" transform="translate(15.621 0)" fill="#406d05"/><path d="M19.06,15.461C19.06,24,9.574,30.922,5.206,30.922S0,24,0,15.461C0,10.406-.034,5.277,1.885,2.455,3.207.511,6.131,0,7.914,0,12.282,0,19.06,6.923,19.06,15.461" transform="translate(17.261 2.852)" fill="#d84a03"/><path d="M18.413,15.461c0,8.538.965,15.157-3.406,15.157S0,24,0,15.461,6.131,0,10.5,0c1.695,0,4.36.02,5.646,1.788,2.035,2.8,2.268,8.442,2.268,13.673" transform="translate(0 3.153)" fill="#cd471f"/><g transform="translate(15.653 0.001)" opacity="0.4"><g transform="translate(0 0)"><g clip-path="url(#ap)"><path d="M3.213,0H0L1.453,7.7h1.76Z" transform="translate(0.001 0)" fill="#284200"/></g></g></g><path d="M18.243,15.461C18.243,24,13,30.922,8.632,30.922S0,24,0,15.461,4.263,0,8.632,0s9.611,6.923,9.611,15.461" transform="translate(9.648 2.852)" fill="#fb720f"/><g transform="translate(9.651 2.851)" opacity="0.4"><g transform="translate(0)"><g clip-path="url(#aq)"><path d="M8.663,0,8.632,0C4.263,0,0,6.923,0,15.461S4.263,30.922,8.632,30.922l.031,0Z" transform="translate(-0.002 -0.001)" fill="#c14e00"/></g></g></g></g></g></g></svg>