<svg id="p09_pibi" xmlns="http://www.w3.org/2000/svg" xmlns:xlink="http://www.w3.org/1999/xlink" width="272.005" height="208.961" viewBox="0 0 272.005 208.961">
  <defs>
    <clipPath id="clip-path">
      <rect id="사각형_2055" data-name="사각형 2055" width="272.005" height="208.961" fill="none"/>
    </clipPath>
    <clipPath id="clip-path-3">
      <path id="패스_7167" data-name="패스 7167" d="M143.059,56.682c-13.212,2.713-21.212,8.713-30.212,16.713C93.712,90.4,93.669,112.317,76.468,125.433,53.428,143,49.534,164.023,57.659,176.682c16.571,25.817,65.582,15.358,92.641,4.3,26.892-10.992,52.568-49,56.954-78.4,3.741-25.085-10.209-48.042-44.6-48.041a97.736,97.736,0,0,0-19.593,2.147" fill="none"/>
    </clipPath>
    <clipPath id="clip-path-5">
      <path id="패스_7170" data-name="패스 7170" d="M89.847,106.394c4.655,24.693,18.887,41.377,41.277,46.938,19,4.72,39.622,3.371,54.384-2.307A132.581,132.581,0,0,0,197.5,131.61c-14.859,7.255-37.841,9.44-58.832,4.226-23.474-5.831-38.821-25.441-37.821-48.442-3.749,6.973-7.681,12.223-11,19" fill="none"/>
    </clipPath>
    <clipPath id="clip-path-7">
      <path id="패스_7173" data-name="패스 7173" d="M76.468,125.433a76.877,76.877,0,0,0-8.917,7.92c-.114,21.034,11.326,38.416,23.575,44.967,11.308,6.049,28.526,9.108,45.039,7.679,5.111-1.567,9.892-3.286,14.135-5.019a67.473,67.473,0,0,0,17.319-10.767c-20.1,11.124-55.9.264-66.389-5.955-11.881-7.041-20.8-22.339-20.137-43.145a33.927,33.927,0,0,1-4.625,4.32" fill="none"/>
    </clipPath>
    <clipPath id="clip-path-9">
      <rect id="사각형_2050" data-name="사각형 2050" width="17.784" height="8.956" transform="translate(129.201 87.88)" fill="none"/>
    </clipPath>
    <clipPath id="clip-path-10">
      <rect id="사각형_2051" data-name="사각형 2051" width="4.857" height="6.439" transform="translate(201.106 75.698)" fill="none"/>
    </clipPath>
    <clipPath id="clip-path-11">
      <rect id="사각형_2052" data-name="사각형 2052" width="17.914" height="6.99" transform="translate(165.475 86.763)" fill="none"/>
    </clipPath>
  </defs>
  <g id="그룹_3804" data-name="그룹 3804" clip-path="url(#clip-path)">
    <g id="그룹_3782" data-name="그룹 3782">
      <g id="그룹_3781" data-name="그룹 3781" clip-path="url(#clip-path)">
        <path id="패스_7136" data-name="패스 7136" d="M98.218,121.928s1.269-1.15-1.766-5.463c-3.533-5.02-11.758-16.834-22.362-39.76S42.15-.2,24.319,5.288-3.829,31.867,1.329,62.323s24.347,48.4,60.253,55.927,33.9,5.528,36.636,3.678" fill="#f2f2f2"/>
        <path id="패스_7137" data-name="패스 7137" d="M97.926,138.912s-1.68-.333-1.3-5.593c.446-6.123,1.418-20.485-1.291-45.6S83.139,5.343,101.253.872s37.813,8.3,49.066,37.068,4.036,54.028-22.875,78.962-26.225,22.191-29.518,22.01" fill="#f2f2f2"/>
        <path id="패스_7138" data-name="패스 7138" d="M92.947,77.334c-3.269-20.707,17.541-41.2,46.481-45.765s55.05,8.514,58.319,29.22Z" fill="#f9b050"/>
        <path id="패스_7139" data-name="패스 7139" d="M151.54,24.316c-.567-3.091-1.143-6.424-3.016-9.036a12.371,12.371,0,0,0-6.01-4.388c-5.245-1.846-10.873-.377-15.142,2.993-4.871,3.846-7.681,9.621-9.244,15.512a111.15,111.15,0,0,0-3.083,21.675q-.381,6.315-.235,12.646a75.836,75.836,0,0,0,.969,12.361c.18.943,1.674.714,1.658-.224-.059-3.4-.43-6.792-.556-10.192s-.135-6.812-.031-10.216a147.524,147.524,0,0,1,1.978-20.338c1.017-5.936,2.621-12.073,6.478-16.846,3.39-4.2,8.364-7.155,13.9-6.588a11.743,11.743,0,0,1,7.536,3.647c2.3,2.557,3.057,6.026,3.677,9.3.139.737,1.256.424,1.122-.309" fill="#001313"/>
        <path id="패스_7140" data-name="패스 7140" d="M198.6,28.76c-.567-3.09-1.143-6.423-3.016-9.035a12.371,12.371,0,0,0-6.01-4.388c-5.245-1.846-10.873-.377-15.142,2.992-4.871,3.847-7.681,9.622-9.244,15.513A111.151,111.151,0,0,0,162.1,55.517q-.381,6.315-.235,12.646a75.815,75.815,0,0,0,.969,12.36c.18.943,1.674.715,1.658-.224-.059-3.4-.43-6.791-.556-10.192s-.135-6.811-.031-10.215a147.524,147.524,0,0,1,1.978-20.338c1.017-5.936,2.62-12.074,6.478-16.846,3.39-4.195,8.364-7.155,13.9-6.588a11.738,11.738,0,0,1,7.536,3.647c2.3,2.557,3.057,6.026,3.677,9.3.139.737,1.256.423,1.122-.31" fill="#001313"/>
        <path id="패스_7141" data-name="패스 7141" d="M220.928,66.859c2.994,18.964-27.747,39.573-68.662,46.032s-76.509-3.677-79.5-22.641,27.747-39.573,68.662-46.033,76.509,3.678,79.5,22.642" fill="#ee9347"/>
        <path id="패스_7142" data-name="패스 7142" d="M55.3,166.66,49.341,177.7q5.913-.132,11.8-.757C58.92,173.58,55.407,167,55.3,166.66" fill="#001a1a"/>
        <path id="패스_7143" data-name="패스 7143" d="M181.874,132.873c2.445-.424,16.871,23.247,13.3,36.619s-12.938,11.207-11.913.558,5.118-13.1-1.041-27.2c-2.676-6.129-3.055-9.507-.348-9.976" fill="#001a1a"/>
        <path id="패스_7144" data-name="패스 7144" d="M112.219,177.175c-2.019.291,1.016,9.646-1.694,13.465S102.9,198.186,105,200.951c2.865,3.767,8.355-3.35,9.417-12.877.856-7.677.17-11.241-2.2-10.9" fill="#001a1a"/>
        <path id="패스_7145" data-name="패스 7145" d="M57.659,176.681c-8.125-12.659-4.231-33.68,18.808-51.247,17.2-13.116,17.245-35.03,36.38-52.039,9-8,17-14,30.213-16.712,48.656-9.988,68.578,16.49,64.193,45.893s-30.061,67.413-56.953,78.4c-27.059,11.06-76.07,21.521-92.641-4.3" fill="#ffb200"/>
      </g>
    </g>
    <g id="그룹_3784" data-name="그룹 3784">
      <g id="그룹_3783" data-name="그룹 3783" clip-path="url(#clip-path-3)">
        <path id="패스_7146" data-name="패스 7146" d="M96.761,182.951a.559.559,0,0,0,0-1.117.559.559,0,0,0,0,1.117" fill="#e99700"/>
        <path id="패스_7147" data-name="패스 7147" d="M184.816,147.673q2.759.15,5.508.438,1.374.144,2.745.326l1.221.164a3.3,3.3,0,0,0,1.533.049.868.868,0,0,0,.2-1.563,3.193,3.193,0,0,0-1.483-.362q-.632-.083-1.264-.151-1.424-.155-2.85-.269-2.8-.226-5.614-.3c-1.08-.031-1.069,1.614,0,1.672" fill="#001a1a"/>
        <path id="패스_7148" data-name="패스 7148" d="M184.247,148.565l5.168.266,2.536.129a5.977,5.977,0,0,0,2.639-.109.791.791,0,0,0,0-1.357,6,6,0,0,0-2.542-.311l-2.633-.106-5.168-.207c-1.093-.044-1.086,1.639,0,1.7" fill="#001a1a"/>
        <path id="패스_7149" data-name="패스 7149" d="M183.758,148.434l4.09.709,2,.348a15.541,15.541,0,0,0,2.171.326.889.889,0,0,0,.236-1.739,14.4,14.4,0,0,0-2.007-.339l-2.019-.3-4.036-.6a.854.854,0,0,0-1.018.578.835.835,0,0,0,.578,1.019" fill="#001a1a"/>
        <path id="패스_7150" data-name="패스 7150" d="M182.549,149.02l4.633.536,2.316.267a9.377,9.377,0,0,0,2.378.14.9.9,0,0,0,.659-.866.931.931,0,0,0-.659-.867,5.718,5.718,0,0,0-1.308-.177c-.357-.034-.713-.065-1.07-.092l-2.316-.176-4.633-.351a.8.8,0,0,0-.793.793.812.812,0,0,0,.793.793" fill="#001a1a"/>
        <path id="패스_7151" data-name="패스 7151" d="M181.12,149.09c1.516.107,3.031.211,4.547.321s3.039.326,4.546.318a.9.9,0,1,0,0-1.805c-1.495-.172-3.043-.125-4.546-.18s-3.031-.118-4.547-.177c-.986-.039-.97,1.455,0,1.523" fill="#001a1a"/>
        <path id="패스_7152" data-name="패스 7152" d="M183.394,149.921c2.176.036,4.357.123,6.533.094a.856.856,0,0,0,0-1.711c-2.176-.029-4.357.058-6.533.094a.762.762,0,0,0,0,1.523" fill="#001a1a"/>
        <path id="패스_7153" data-name="패스 7153" d="M183.394,150.474l3.266.065,1.6.031a15.678,15.678,0,0,0,1.665.013.856.856,0,0,0,0-1.711,15.682,15.682,0,0,0-1.665.014l-1.6.031-3.266.065a.746.746,0,0,0,0,1.492" fill="#001a1a"/>
        <path id="패스_7154" data-name="패스 7154" d="M185.009,150.149l3.016-.572,1.452-.275c.558-.106,1.268-.143,1.6-.659a.688.688,0,0,0-.243-.924,1.234,1.234,0,0,0-.993-.075c-.261.047-.521.1-.781.15l-1.444.3-3,.634a.741.741,0,0,0-.513.9.749.749,0,0,0,.9.513" fill="#001a1a"/>
        <path id="패스_7155" data-name="패스 7155" d="M187.941,144.348l2.986-.223,1.463-.11a6.831,6.831,0,0,0,1.625-.185.851.851,0,0,0,.607-.8.83.83,0,0,0-.607-.8,6.507,6.507,0,0,0-1.625.043l-1.463.128-2.986.261a.863.863,0,0,0-.84.84.847.847,0,0,0,.84.84" fill="#001a1a"/>
        <path id="패스_7156" data-name="패스 7156" d="M188.505,140.98l3.308.172,1.593.083c.638.033,1.413.2,1.917-.279a.821.821,0,0,0,0-1.138c-.427-.484-1.32-.376-1.917-.4l-1.593-.061-3.308-.128a.875.875,0,0,0,0,1.75" fill="#001a1a"/>
        <path id="패스_7157" data-name="패스 7157" d="M190.495,138.665l2.556.005,1.254,0a5.478,5.478,0,0,0,1.419-.088.822.822,0,0,0,0-1.573,5.525,5.525,0,0,0-1.419-.087l-1.254,0-2.556.005a.867.867,0,0,0,0,1.734" fill="#001a1a"/>
        <path id="패스_7158" data-name="패스 7158" d="M193.619,137.206l1.7.008.818,0a3.693,3.693,0,0,0,1.035-.055.827.827,0,0,0,.6-.785.838.838,0,0,0-.6-.785,3.6,3.6,0,0,0-1-.056l-.852,0-1.7.009a.828.828,0,1,0,0,1.656" fill="#001a1a"/>
        <path id="패스_7159" data-name="패스 7159" d="M193.619,137.374a1,1,0,0,0,0-1.992,1,1,0,0,0,0,1.992" fill="#001a1a"/>
        <path id="패스_7160" data-name="패스 7160" d="M194.844,136.731a3.729,3.729,0,0,1,.345-.19c.058-.029.284-.1.06-.031.062-.02.123-.047.185-.069a3.99,3.99,0,0,1,.789-.185l-.2.027a4.537,4.537,0,0,1,.547-.033,1.58,1.58,0,0,0,.791-.153.662.662,0,0,0,.133-1.031,2.243,2.243,0,0,0-1.931-.225,4.584,4.584,0,0,0-1.483.581.758.758,0,0,0,.766,1.309" fill="#001a1a"/>
        <path id="패스_7161" data-name="패스 7161" d="M196.46,135.365a.692.692,0,0,0,0-1.383.692.692,0,0,0,0,1.383" fill="#001a1a"/>
        <path id="패스_7162" data-name="패스 7162" d="M196.638,135.048l.456-.161.224-.079a.811.811,0,0,0,.211-.1l.113-.085a.542.542,0,0,0,.183-.2.8.8,0,0,0,.077-.178l.014-.036c.007-.057.015-.115.023-.172a.489.489,0,0,0-.056-.25.318.318,0,0,0-.083-.143.5.5,0,0,0-.182-.167.77.77,0,0,0-.408-.125,1,1,0,0,0-.293.032c-.075.022-.15.048-.226.071l-.452.144a.787.787,0,0,0-.448.344.561.561,0,0,0-.089.279.574.574,0,0,0,.013.3.758.758,0,0,0,.345.448.742.742,0,0,0,.578.076" fill="#001a1a"/>
        <path id="패스_7163" data-name="패스 7163" d="M197.028,134.268l.145-.007.072,0h.011l.191-.026a.491.491,0,0,0,.177-.074.537.537,0,0,0,.2-.185c.036-.047.045-.048.059-.08a.7.7,0,0,0,.1-.354.539.539,0,0,0-.06-.269c-.012-.029-.024-.058-.037-.086l0-.008a.722.722,0,0,0-.258-.257.493.493,0,0,0-.174-.073.937.937,0,0,0-.205-.027l-.072,0-.145-.007a.543.543,0,0,0-.281.063.551.551,0,0,0-.236.151.8.8,0,0,0-.213.517l.026.194a.729.729,0,0,0,.187.322l.148.114a.725.725,0,0,0,.369.1" fill="#001a1a"/>
        <path id="패스_7164" data-name="패스 7164" d="M144.6,184.261l-.155-.133-.075-.065-.039-.034-.01-.009c-.037-.028-.074-.056-.11-.085l-.005,0-.023-.014-.128-.054a.406.406,0,0,0-.213-.009.262.262,0,0,0-.135.036.409.409,0,0,0-.173.111l-.083.108-.054.128a.4.4,0,0,0-.01.213.385.385,0,0,0,.064.2,2.029,2.029,0,0,0,.209.263c.045.051.089.1.133.155a.433.433,0,0,0,.184.117.507.507,0,0,0,.439,0,.433.433,0,0,0,.184-.117l.089-.116a.561.561,0,0,0,.078-.288l-.02-.151a.565.565,0,0,0-.147-.252" fill="#001a1a"/>
        <path id="패스_7165" data-name="패스 7165" d="M138.063,183.789a36.074,36.074,0,0,1,8.239,2.672q.345-.822.692-1.642-5.362-1.017-10.659-2.343l-.49,1.78a23.931,23.931,0,0,1,6.927,2.279l.754-1.788a66.767,66.767,0,0,0-9.154-1.817c-1.224-.162-1.194,1.573-.266,1.963a32.7,32.7,0,0,0,4.849,1.613q.134-.982.266-1.964a3.9,3.9,0,0,1-1.781-.691q-.252.932-.505,1.864,3.765-.063,7.531-.129c.923-.017,1.46-1.44.506-1.871l-5.048-2.284-.507,1.874q5.85.563,11.7,1.145a1.038,1.038,0,0,0,.727-1.756,17.3,17.3,0,0,0-4.758-2.711l-.279,2.062q2.028.156,4.056.3c.971.072,1.313-1.171.746-1.8q-.789-.876-1.578-1.753l-.747,1.8a41.652,41.652,0,0,0,4.564.23,1.063,1.063,0,0,0,1.057-1.058,3.413,3.413,0,0,0-.82-1.924q-.234.885-.467,1.769a11.1,11.1,0,0,1,2.791-.138c1.351.084,1.294-1.921,0-2.07a11.005,11.005,0,0,0-3.353.167,1.071,1.071,0,0,0-.467,1.768c.067.143.134.287.2.428l1.058-1.057a41.4,41.4,0,0,1-4.564-.228c-.978-.1-1.3,1.189-.747,1.8q.789.876,1.58,1.751l.746-1.8q-2.028-.147-4.056-.289c-1.253-.084-1.324,1.68-.279,2.063a14.107,14.107,0,0,1,3.862,2.142l.727-1.756q-5.85-.537-11.7-1.1a1.012,1.012,0,0,0-.508,1.873l5.05,2.281c.169-.622.338-1.247.507-1.869l-7.531.135a1.01,1.01,0,0,0-.505,1.866,6.011,6.011,0,0,0,2.791.962c1.13.121,1.343-1.7.266-1.965a32.815,32.815,0,0,1-4.849-1.612q-.134.982-.266,1.965a73.116,73.116,0,0,1,8.634,1.7c1.036.265,1.783-1.288.754-1.788a26.832,26.832,0,0,0-7.425-2.37c-1.146-.189-1.667,1.488-.49,1.78q5.3,1.317,10.671,2.295c.922.167,1.689-1.19.692-1.642a30.46,30.46,0,0,0-8.955-2.524c-.8-.1-.977,1.249-.19,1.4" fill="#001a1a"/>
        <path id="패스_7166" data-name="패스 7166" d="M83.8,111.627a38.332,38.332,0,0,1-3.214,9.576,36.258,36.258,0,0,1-2.529,4.318c-.955,1.4-2.25,2.641-3.058,4.124-.517.947.571,2.237,1.566,1.565a14.944,14.944,0,0,0,3.495-3.993,36.41,36.41,0,0,0,2.78-4.7,35.153,35.153,0,0,0,3.28-10.253c.231-1.5-2.013-2.181-2.32-.641" fill="#ffbe3d"/>
      </g>
    </g>
    <g id="그룹_3786" data-name="그룹 3786">
      <g id="그룹_3785" data-name="그룹 3785" clip-path="url(#clip-path)">
        <path id="패스_7168" data-name="패스 7168" d="M138.669,135.836c-23.475-5.831-38.822-25.442-37.822-48.442-3.748,6.973-7.68,12.223-11,19,4.655,24.693,18.887,41.377,41.277,46.938,19,4.719,39.623,3.371,54.385-2.307A132.617,132.617,0,0,0,197.5,131.609c-14.859,7.256-37.84,9.441-58.831,4.227" fill="#001a1a"/>
      </g>
    </g>
    <g id="그룹_3788" data-name="그룹 3788">
      <g id="그룹_3787" data-name="그룹 3787" clip-path="url(#clip-path-5)">
        <path id="패스_7169" data-name="패스 7169" d="M197.263,141.779c-16.6,7.182-34.823,11.333-52.943,9.2a69.046,69.046,0,0,1-24.717-7.659,41.9,41.9,0,0,1-10.278-7.577,62.316,62.316,0,0,1-7.759-10.31c-5.256-8.341-10.6-18.16-8.183-28.351.742-3.129-4.078-4.464-4.822-1.329-2.371,10,1.356,19.831,6.359,28.382,4.735,8.094,10.141,15.8,18.064,21.053,16,10.61,36.409,12.984,55.064,10.3a125.01,125.01,0,0,0,31.739-9.4,2.514,2.514,0,0,0,.9-3.42,2.566,2.566,0,0,0-3.42-.9" fill="#000c0c"/>
      </g>
    </g>
    <g id="그룹_3790" data-name="그룹 3790">
      <g id="그룹_3789" data-name="그룹 3789" clip-path="url(#clip-path)">
        <path id="패스_7171" data-name="패스 7171" d="M101.23,164.258c-11.881-7.041-20.8-22.339-20.137-43.146a33.822,33.822,0,0,1-4.626,4.321,77.03,77.03,0,0,0-8.916,7.92c-.114,21.033,11.326,38.416,23.575,44.967,11.308,6.048,28.526,9.107,45.038,7.679,5.112-1.567,9.894-3.286,14.136-5.019a67.473,67.473,0,0,0,17.319-10.767c-20.1,11.124-55.9.264-66.389-5.955" fill="#001a1a"/>
      </g>
    </g>
    <g id="그룹_3792" data-name="그룹 3792">
      <g id="그룹_3791" data-name="그룹 3791" clip-path="url(#clip-path-7)">
        <path id="패스_7172" data-name="패스 7172" d="M65.959,121.461a69.115,69.115,0,0,0,3.646,31,43.176,43.176,0,0,0,7.388,13.464,52.51,52.51,0,0,0,11.237,9.578c17.253,11.395,38.622,14.228,58.869,12.832a169.127,169.127,0,0,0,18.256-2.2c5.112-.92,10.165-2.55,14.025-6.173,2.351-2.206-1.189-5.737-3.535-3.535-3.013,2.827-7.075,3.976-11.039,4.741a144.164,144.164,0,0,1-14.538,1.919,117.392,117.392,0,0,1-30.749-.861,77.551,77.551,0,0,1-25.546-9.04,56.549,56.549,0,0,1-10.758-7.949,33.664,33.664,0,0,1-7.723-11.358,64.983,64.983,0,0,1-4.533-32.419,2.516,2.516,0,0,0-2.5-2.5,2.558,2.558,0,0,0-2.5,2.5" fill="#000c0c"/>
      </g>
    </g>
    <g id="그룹_3803" data-name="그룹 3803">
      <g id="그룹_3802" data-name="그룹 3802" clip-path="url(#clip-path)">
        <path id="패스_7174" data-name="패스 7174" d="M72.972,177.773c-2.539.366,1.278,12.13-2.13,16.931s-9.587,9.489-6.942,12.966c3.6,4.737,10.5-4.212,11.841-16.193,1.077-9.652.213-14.134-2.769-13.7" fill="#001a1a"/>
        <path id="패스_7175" data-name="패스 7175" d="M134.108,156.829c-1.375,2.066,14.456,24.822,28.13,26.956s15.477-7.312,5.321-10.674-14.047-.6-24.465-11.935c-4.527-4.923-7.464-6.634-8.986-4.347" fill="#001a1a"/>
        <g id="그룹_3795" data-name="그룹 3795" opacity="0.5">
          <g id="그룹_3794" data-name="그룹 3794">
            <g id="그룹_3793" data-name="그룹 3793" clip-path="url(#clip-path-9)">
              <path id="패스_7176" data-name="패스 7176" d="M146.985,92.358c0,2.473-3.981,4.478-8.892,4.478s-8.892-2-8.892-4.478,3.981-4.478,8.892-4.478,8.892,2.005,8.892,4.478" fill="#ff4341"/>
            </g>
          </g>
        </g>
        <g id="그룹_3798" data-name="그룹 3798" opacity="0.5">
          <g id="그룹_3797" data-name="그룹 3797" transform="translate(4.409 -11.544) rotate(3)">
            <g id="그룹_3796" data-name="그룹 3796" clip-path="url(#clip-path-10)">
              <path id="패스_7177" data-name="패스 7177" d="M201.253,80.056c.525,1.391,2.363,2.111,4.724,2.091a33.584,33.584,0,0,0-3.105-6.395c-1.55,1.463-2.109,3.006-1.619,4.3" fill="#ff4341"/>
            </g>
          </g>
        </g>
        <path id="패스_7178" data-name="패스 7178" d="M157.362,79.1a4.769,4.769,0,1,1-5.282-4.195,4.77,4.77,0,0,1,5.282,4.195" fill="#001a1a"/>
        <path id="패스_7179" data-name="패스 7179" d="M193.586,74.949a4.769,4.769,0,1,1-5.282-4.195,4.77,4.77,0,0,1,5.282,4.195" fill="#001a1a"/>
        <g id="그룹_3801" data-name="그룹 3801" opacity="0.5">
          <g id="그룹_3800" data-name="그룹 3800">
            <g id="그룹_3799" data-name="그룹 3799" clip-path="url(#clip-path-11)">
              <path id="패스_7180" data-name="패스 7180" d="M165.475,88.612l17.9-1.848s.616,5.968-8.336,6.892-9.569-5.044-9.569-5.044" fill="#ff4341"/>
            </g>
          </g>
        </g>
        <rect id="사각형_2053" data-name="사각형 2053" width="94.561" height="13.248" transform="translate(181.016 171.036) rotate(-56.087)" fill="#ee9347"/>
        <path id="패스_7181" data-name="패스 7181" d="M270.942,66.447a58.58,58.58,0,0,1,.284,20.6,46.049,46.049,0,0,1-3.656,11.719,42.9,42.9,0,0,1-3.262,5.768l-11.8,17.548L210.478,93.821l11.865-17.649a44.375,44.375,0,0,1,4.015-5.1c6.944-7.559,16.676-12.832,28.5-15.367l.034-.007a13.437,13.437,0,0,1,16.054,10.749" fill="#bbe9f8"/>
        <path id="패스_7182" data-name="패스 7182" d="M234.135,92.025,218.822,114.8l10.994,7.392L245.13,99.417a6.624,6.624,0,0,0-11-7.392" fill="#6bb3ea"/>
        <path id="패스_7183" data-name="패스 7183" d="M190.119,152.82l-12.439,18.5a9.233,9.233,0,0,0,15.325,10.3l12.438-18.5Z" fill="#ffe0aa"/>
        <path id="패스_7184" data-name="패스 7184" d="M216.657,113.347h0a2.883,2.883,0,0,1,4-.784l10.538,7.085a2.883,2.883,0,1,1-3.217,4.786l-10.539-7.085a2.885,2.885,0,0,1-.784-4" fill="#ffe0aa"/>
        <path id="패스_7185" data-name="패스 7185" d="M187.591,151.121h0a2.883,2.883,0,0,1,4-.784l15.6,10.484a2.884,2.884,0,1,1-3.218,4.786l-15.6-10.484a2.885,2.885,0,0,1-.784-4" fill="#f9b050"/>
        <path id="패스_7186" data-name="패스 7186" d="M104.076,72.976s25.146,62.418,69.959,58.918,37.812-52.977,37.812-52.977" fill="none" stroke="#ee9347" stroke-miterlimit="10" stroke-width="3"/>
      </g>
    </g>
  </g>
</svg>
