<svg xmlns="http://www.w3.org/2000/svg" width="58.594" height="40.536" viewBox="0 0 58.594 40.536"><path d="M142.627,270.651c-.163-.431-.367-1.164.129-1.181.539-.015,1.115.727,1.357,1.077a5.4,5.4,0,0,1,2.574-1.15h0s-.367-1.069.844-1.047a2.737,2.737,0,0,1,2.36,1.613l0,0c.014.008.029.014.043.02a7.572,7.572,0,0,1,1.057.638.6.6,0,0,1,.032.947,6.239,6.239,0,0,1-1.127.752c-.065.034-.129.065-.2.094h0a2.855,2.855,0,0,1-2.326,1.02c-.918.012-.944-.357-.785-.687a6.769,6.769,0,0,1-2.527-1.2l-.043-.037c-.279.376-.786.956-1.263.943-.5-.015-.293-.748-.129-1.181a.87.87,0,0,0,0-.618" transform="translate(-92.641 -259.74)" fill="#48a47f"/><path d="M148.335,274.717c-.163-.431-.367-1.166.129-1.18.539-.017,1.115.725,1.357,1.075a5.4,5.4,0,0,1,2.574-1.15h0s-.367-1.069.844-1.047a2.737,2.737,0,0,1,2.36,1.613l0,0c.014.008.029.014.043.02a7.575,7.575,0,0,1,1.057.638.6.6,0,0,1,.031.947,6.179,6.179,0,0,1-1.126.752c-.065.034-.131.063-.2.094h0a2.855,2.855,0,0,1-2.326,1.02c-.918.011-.944-.357-.785-.687a6.769,6.769,0,0,1-2.527-1.2l-.045-.037c-.277.376-.784.956-1.261.943-.5-.015-.293-.749-.129-1.181a.871.871,0,0,0,0-.618" transform="translate(-107.141 -257.543)" fill="#48a47f"/><path d="M151.456,270.651c-.163-.431-.367-1.164.129-1.181.539-.015,1.115.727,1.357,1.077a5.4,5.4,0,0,1,2.574-1.15h0s-.367-1.069.844-1.047a2.737,2.737,0,0,1,2.36,1.613l0,0c.014.008.029.014.043.02a7.573,7.573,0,0,1,1.057.638.6.6,0,0,1,.032.947,6.185,6.185,0,0,1-1.127.752c-.065.034-.129.065-.2.094h0a2.855,2.855,0,0,1-2.326,1.02c-.918.012-.944-.357-.785-.687a6.769,6.769,0,0,1-2.527-1.2l-.043-.037c-.277.376-.786.956-1.263.943-.5-.015-.293-.748-.129-1.181a.871.871,0,0,0,0-.618" transform="translate(-115.069 -259.74)" fill="#48a47f"/><path d="M157.164,274.717c-.163-.431-.367-1.166.129-1.18.539-.017,1.115.725,1.357,1.075a5.4,5.4,0,0,1,2.574-1.15h0s-.367-1.069.844-1.047a2.737,2.737,0,0,1,2.36,1.613l0,0c.014.008.029.014.043.02a7.572,7.572,0,0,1,1.057.638.6.6,0,0,1,.032.947,6.186,6.186,0,0,1-1.127.752c-.065.034-.129.063-.2.094h0a2.855,2.855,0,0,1-2.326,1.02c-.918.011-.944-.357-.785-.687a6.769,6.769,0,0,1-2.527-1.2l-.043-.037c-.279.376-.785.956-1.263.943-.5-.015-.293-.749-.129-1.181a.871.871,0,0,0,0-.618" transform="translate(-129.568 -257.543)" fill="#48a47f"/><path d="M142.627,279.771c-.163-.431-.367-1.164.129-1.181.539-.015,1.115.727,1.357,1.077a5.4,5.4,0,0,1,2.574-1.15h0s-.367-1.069.844-1.047a2.737,2.737,0,0,1,2.36,1.613l0,0c.014.008.029.014.043.02a7.566,7.566,0,0,1,1.057.638.6.6,0,0,1,.032.947,6.241,6.241,0,0,1-1.127.752c-.065.034-.129.065-.2.094h0a2.854,2.854,0,0,1-2.326,1.02c-.918.012-.944-.357-.785-.687a6.768,6.768,0,0,1-2.527-1.2l-.043-.037c-.279.376-.786.956-1.263.943-.5-.015-.293-.749-.129-1.181a.87.87,0,0,0,0-.618" transform="translate(-92.641 -254.814)" fill="#48a47f"/><path d="M148.335,283.837c-.163-.431-.367-1.166.129-1.18.539-.017,1.115.725,1.357,1.075a5.4,5.4,0,0,1,2.574-1.151h0s-.367-1.069.844-1.047a2.737,2.737,0,0,1,2.36,1.613l0,0c.014.008.029.014.043.02a7.58,7.58,0,0,1,1.057.638.6.6,0,0,1,.031.947,6.174,6.174,0,0,1-1.126.752c-.065.034-.131.065-.2.094h0a2.855,2.855,0,0,1-2.326,1.02c-.918.012-.944-.357-.785-.687a6.768,6.768,0,0,1-2.527-1.2l-.045-.037c-.277.376-.784.956-1.261.943-.5-.015-.293-.749-.129-1.181a.871.871,0,0,0,0-.618" transform="translate(-107.141 -252.617)" fill="#48a47f"/><path d="M151.456,279.771c-.163-.431-.367-1.164.129-1.181.539-.015,1.115.727,1.357,1.077a5.4,5.4,0,0,1,2.574-1.15h0s-.367-1.069.844-1.047a2.737,2.737,0,0,1,2.36,1.613l0,0c.014.008.029.014.043.02a7.567,7.567,0,0,1,1.057.638.6.6,0,0,1,.032.947,6.187,6.187,0,0,1-1.127.752c-.065.034-.129.065-.2.094h0a2.854,2.854,0,0,1-2.326,1.02c-.918.012-.944-.357-.785-.687a6.768,6.768,0,0,1-2.527-1.2l-.043-.037c-.277.376-.786.956-1.263.943-.5-.015-.293-.749-.129-1.181a.871.871,0,0,0,0-.618" transform="translate(-115.069 -254.814)" fill="#48a47f"/><path d="M163.453,265.062c-.163-.431-.367-1.166.129-1.181.539-.015,1.115.727,1.357,1.077a5.4,5.4,0,0,1,2.574-1.151h0s-.367-1.069.844-1.047a2.737,2.737,0,0,1,2.36,1.613l0,0c.014.008.029.014.043.02a7.569,7.569,0,0,1,1.057.638.6.6,0,0,1,.032.947,6.236,6.236,0,0,1-1.127.752c-.065.034-.129.065-.2.094h0a2.854,2.854,0,0,1-2.326,1.02c-.918.012-.944-.357-.785-.687a6.769,6.769,0,0,1-2.527-1.2l-.043-.037c-.279.376-.785.956-1.263.943-.5-.015-.293-.749-.129-1.181a.871.871,0,0,0,0-.618" transform="translate(-145.543 -262.759)" fill="#48a47f"/><path d="M174.963,273.95c-.163-.431-.367-1.166.129-1.181.539-.015,1.115.727,1.357,1.077a5.4,5.4,0,0,1,2.574-1.151h0s-.367-1.069.844-1.047a2.737,2.737,0,0,1,2.36,1.613l0,0c.014.008.029.014.043.02a7.571,7.571,0,0,1,1.057.638.6.6,0,0,1,.032.947,6.234,6.234,0,0,1-1.127.752c-.065.032-.129.063-.2.094h0a2.855,2.855,0,0,1-2.326,1.02c-.918.011-.944-.357-.786-.687a6.768,6.768,0,0,1-2.527-1.2l-.043-.037c-.279.376-.785.956-1.263.943-.5-.015-.293-.749-.129-1.181a.871.871,0,0,0,0-.618" transform="translate(-174.78 -257.958)" fill="#48a47f"/><path d="M166.306,276.366c-.162-.431-.365-1.166.131-1.181.539-.015,1.115.727,1.357,1.077a5.4,5.4,0,0,1,2.574-1.15h0s-.367-1.069.844-1.047a2.737,2.737,0,0,1,2.36,1.613l0,0c.014.008.029.014.043.02a7.424,7.424,0,0,1,1.057.638.6.6,0,0,1,.032.947,6.187,6.187,0,0,1-1.127.752c-.065.032-.129.063-.2.094h0a2.854,2.854,0,0,1-2.326,1.02c-.918.011-.944-.357-.785-.687a6.767,6.767,0,0,1-2.527-1.2l-.043-.037c-.277.376-.785.956-1.263.943-.5-.015-.293-.749-.131-1.181a.854.854,0,0,0,0-.618" transform="translate(-152.792 -256.653)" fill="#48a47f"/><path d="M157.164,283.837c-.163-.431-.367-1.166.129-1.18.539-.017,1.115.725,1.357,1.075a5.4,5.4,0,0,1,2.574-1.151h0s-.367-1.069.844-1.047a2.737,2.737,0,0,1,2.36,1.613l0,0c.014.008.029.014.043.02a7.577,7.577,0,0,1,1.057.638.6.6,0,0,1,.032.947,6.182,6.182,0,0,1-1.127.752c-.065.034-.129.065-.2.094h0a2.855,2.855,0,0,1-2.326,1.02c-.918.012-.944-.357-.785-.687a6.768,6.768,0,0,1-2.527-1.2l-.043-.037c-.279.376-.785.956-1.263.943-.5-.015-.293-.749-.129-1.181a.871.871,0,0,0,0-.618" transform="translate(-129.568 -252.617)" fill="#48a47f"/><path d="M165.384,288.082c-.163-.431-.367-1.166.129-1.181.539-.015,1.115.727,1.357,1.077a5.4,5.4,0,0,1,2.574-1.15h0s-.367-1.069.844-1.047a2.737,2.737,0,0,1,2.36,1.613l0,0c.014.008.029.014.043.02a7.563,7.563,0,0,1,1.057.638.6.6,0,0,1,.032.947,6.24,6.24,0,0,1-1.127.752c-.065.034-.129.065-.2.094h0a2.854,2.854,0,0,1-2.326,1.02c-.918.012-.944-.357-.785-.687a6.768,6.768,0,0,1-2.527-1.2l-.043-.037c-.279.376-.785.956-1.263.943-.5-.015-.293-.749-.129-1.181a.871.871,0,0,0,0-.618" transform="translate(-150.448 -250.324)" fill="#48a47f"/></svg>