<svg xmlns="http://www.w3.org/2000/svg" width="32.06" height="24.255" viewBox="0 0 32.06 24.255"><path d="M139.843,230.3c2.235-.07,4.681,3.982,4.681,3.982v1.5s-2.445,4.053-4.681,3.982c-1.576-.049-.931-2.379-.412-3.75a2.784,2.784,0,0,0,0-1.963c-.519-1.372-1.164-3.7.412-3.751" transform="translate(-138.849 -218.626)" fill="#9b887b"/><path d="M166.055,230.909s-2.119-5.049-7.5-5.12c-3.843-.069-2.681,3.326-2.681,3.326Z" transform="translate(-142.401 -217.675)" fill="#9b887b"/><path d="M165.355,241.993s-2.148,3.166-7.388,3.236-1.328-3.773-1.328-3.773Z" transform="translate(-142.301 -220.975)" fill="#9b887b"/><path d="M168.57,232.356a23.751,23.751,0,0,1,3.359,2.024,1.905,1.905,0,0,1,.1,3.009,19.641,19.641,0,0,1-3.578,2.386,5.457,5.457,0,0,1,.119-7.419" transform="translate(-144.787 -219.059)" fill="#ad9889"/><path d="M145.112,233.776c7.167-5.739,14.151-4.2,18.689-1.958a5.456,5.456,0,0,0-.119,7.419c-8,4.108-15.28-.026-18.52-2.45a1.905,1.905,0,0,1-.051-3.011" transform="translate(-140.018 -218.521)" fill="#c4b99f"/><path d="M161.075,237.616s2.074-.419,2.074-1.4-2.935-3.423-5.729-1.887c-2.235,1.118.6,3.982,3.655,3.284" transform="translate(-142.592 -219.371)" fill="#9b887b"/><path d="M169.719,235.218a.619.619,0,1,1-.619-.619.619.619,0,0,1,.619.619" transform="translate(-145.091 -219.531)" fill="#3f2d1f"/><path d="M172.968,220.257a1.37,1.37,0,1,1-1.37-1.37,1.37,1.37,0,0,1,1.37,1.37" transform="translate(-145.459 -216.221)" fill="#fff"/><path d="M175.582,216.6a1.094,1.094,0,1,1-1.094-1.094,1.094,1.094,0,0,1,1.094,1.094" transform="translate(-146.126 -215.51)" fill="#fff"/><path d="M178.881,229.827a1.094,1.094,0,1,1-1.094-1.094,1.094,1.094,0,0,1,1.094,1.094" transform="translate(-146.821 -218.295)" fill="#fff"/></svg>