<svg xmlns="http://www.w3.org/2000/svg" width="471.163" height="179.797" viewBox="0 0 471.163 179.797"><g transform="translate(0)"><rect width="461" height="147" rx="64" transform="translate(0 32.796)" fill="#bedeef"/><g transform="translate(76.482)"><rect width="1.575" height="43.417" transform="translate(10.729 10.196)" fill="#48a47f"/><rect width="1.577" height="6.331" transform="matrix(0.188, -0.982, 0.982, 0.188, 5.15, 43.972)" fill="#48a47f"/><path d="M87.194,355.089c-.342,1.79-2.492,2.881-4.8,2.44s-3.9-2.252-3.56-4.041,2.492-2.882,4.8-2.44,3.9,2.251,3.56,4.041" transform="translate(-78.787 -311.296)" fill="#48a47f"/><rect width="1.576" height="6.331" transform="translate(5.15 36.298) rotate(-79.157)" fill="#48a47f"/><path d="M87.194,346.1c-.342,1.79-2.492,2.881-4.8,2.44s-3.9-2.252-3.56-4.041,2.492-2.882,4.8-2.44,3.9,2.251,3.56,4.041" transform="translate(-78.787 -309.982)" fill="#48a47f"/><rect width="1.576" height="6.331" transform="translate(5.15 28.624) rotate(-79.157)" fill="#48a47f"/><path d="M87.194,337.115c-.342,1.79-2.492,2.881-4.8,2.44s-3.9-2.252-3.56-4.041,2.492-2.882,4.8-2.44,3.9,2.251,3.56,4.041" transform="translate(-78.787 -308.669)" fill="#48a47f"/><rect width="1.576" height="6.331" transform="translate(5.15 20.951) rotate(-79.157)" fill="#48a47f"/><path d="M87.194,328.128c-.342,1.789-2.492,2.881-4.8,2.44s-3.9-2.252-3.56-4.041,2.492-2.882,4.8-2.44,3.9,2.251,3.56,4.041" transform="translate(-78.787 -307.356)" fill="#48a47f"/><rect width="1.576" height="6.331" transform="translate(5.15 13.277) rotate(-79.157)" fill="#48a47f"/><path d="M87.194,319.142c-.342,1.79-2.492,2.882-4.8,2.44s-3.9-2.252-3.56-4.041,2.492-2.882,4.8-2.44,3.9,2.251,3.56,4.041" transform="translate(-78.787 -306.043)" fill="#48a47f"/><rect width="6.332" height="1.577" transform="translate(11.369 43.614) rotate(-10.835)" fill="#48a47f"/><path d="M95.908,355.089c.342,1.79,2.492,2.881,4.8,2.44s3.9-2.252,3.56-4.041-2.492-2.882-4.8-2.44-3.9,2.251-3.56,4.041" transform="translate(-81.282 -311.296)" fill="#48a47f"/><rect width="6.332" height="1.576" transform="translate(11.369 35.941) rotate(-10.835)" fill="#48a47f"/><path d="M95.908,346.1c.342,1.79,2.492,2.881,4.8,2.44s3.9-2.252,3.56-4.041-2.492-2.882-4.8-2.44-3.9,2.251-3.56,4.041" transform="translate(-81.282 -309.982)" fill="#48a47f"/><rect width="6.332" height="1.576" transform="translate(11.369 28.266) rotate(-10.835)" fill="#48a47f"/><path d="M95.908,337.115c.342,1.79,2.492,2.881,4.8,2.44s3.9-2.252,3.56-4.041-2.492-2.882-4.8-2.44-3.9,2.251-3.56,4.041" transform="translate(-81.282 -308.669)" fill="#48a47f"/><rect width="6.332" height="1.576" transform="translate(11.369 20.593) rotate(-10.835)" fill="#48a47f"/><path d="M95.908,328.128c.342,1.789,2.492,2.881,4.8,2.44s3.9-2.252,3.56-4.041-2.492-2.882-4.8-2.44-3.9,2.251-3.56,4.041" transform="translate(-81.282 -307.356)" fill="#48a47f"/><rect width="6.332" height="1.576" transform="translate(11.369 12.919) rotate(-10.835)" fill="#48a47f"/><path d="M95.908,319.142c.342,1.79,2.492,2.882,4.8,2.44s3.9-2.252,3.56-4.041-2.492-2.882-4.8-2.44-3.9,2.251-3.56,4.041" transform="translate(-81.282 -306.043)" fill="#48a47f"/><rect width="6.332" height="1.576" transform="translate(10.677 13.093) rotate(-89.597)" fill="#48a47f"/><path d="M91.548,314.073c2.047.014,3.72-2.115,3.739-4.756s-1.627-4.794-3.673-4.807-3.72,2.115-3.739,4.756,1.627,4.794,3.673,4.807" transform="translate(-80.115 -304.51)" fill="#48a47f"/></g><g transform="translate(62.133 21.204)"><rect width="1.152" height="31.737" transform="translate(7.842 7.453)" fill="#91cc9e"/><rect width="1.152" height="4.628" transform="translate(3.765 26.533) rotate(-79.152)" fill="#91cc9e"/><path d="M109.97,363.5c-.25,1.308-1.821,2.107-3.509,1.783s-2.853-1.645-2.6-2.954,1.822-2.106,3.509-1.783,2.853,1.645,2.6,2.954" transform="translate(-103.824 -337.093)" fill="#91cc9e"/><rect width="1.152" height="4.628" transform="matrix(0.188, -0.982, 0.982, 0.188, 3.765, 20.925)" fill="#91cc9e"/><path d="M109.97,356.927c-.25,1.308-1.821,2.107-3.509,1.783s-2.853-1.645-2.6-2.954,1.822-2.107,3.509-1.783,2.853,1.645,2.6,2.954" transform="translate(-103.824 -336.133)" fill="#91cc9e"/><rect width="1.152" height="4.628" transform="translate(3.765 15.314) rotate(-79.152)" fill="#91cc9e"/><path d="M109.97,350.358c-.25,1.308-1.821,2.107-3.509,1.783s-2.853-1.645-2.6-2.954,1.822-2.107,3.509-1.783,2.853,1.645,2.6,2.954" transform="translate(-103.824 -335.173)" fill="#91cc9e"/><rect width="1.152" height="4.628" transform="translate(3.765 9.705) rotate(-79.152)" fill="#91cc9e"/><path d="M109.97,343.788c-.25,1.308-1.821,2.107-3.509,1.783s-2.853-1.645-2.6-2.954,1.822-2.107,3.509-1.783,2.853,1.645,2.6,2.954" transform="translate(-103.824 -334.213)" fill="#91cc9e"/><rect width="4.628" height="1.152" transform="matrix(0.982, -0.188, 0.188, 0.982, 8.31, 26.273)" fill="#91cc9e"/><path d="M116.339,363.5c.25,1.308,1.821,2.107,3.509,1.783s2.853-1.645,2.6-2.954-1.822-2.106-3.509-1.783-2.853,1.645-2.6,2.954" transform="translate(-105.648 -337.093)" fill="#91cc9e"/><rect width="4.628" height="1.152" transform="matrix(0.982, -0.188, 0.188, 0.982, 8.31, 20.664)" fill="#91cc9e"/><path d="M116.339,356.927c.25,1.308,1.821,2.107,3.509,1.783s2.853-1.645,2.6-2.954-1.822-2.107-3.509-1.783-2.853,1.645-2.6,2.954" transform="translate(-105.648 -336.133)" fill="#91cc9e"/><rect width="4.628" height="1.152" transform="matrix(0.982, -0.188, 0.188, 0.982, 8.31, 15.055)" fill="#91cc9e"/><path d="M116.339,350.358c.25,1.308,1.821,2.107,3.509,1.783s2.853-1.645,2.6-2.954-1.822-2.107-3.509-1.783-2.853,1.645-2.6,2.954" transform="translate(-105.648 -335.173)" fill="#91cc9e"/><rect width="4.628" height="1.152" transform="matrix(0.982, -0.188, 0.188, 0.982, 8.31, 9.445)" fill="#91cc9e"/><path d="M116.339,343.788c.25,1.308,1.821,2.107,3.509,1.783s2.853-1.645,2.6-2.954-1.822-2.107-3.509-1.783-2.853,1.645-2.6,2.954" transform="translate(-105.648 -334.213)" fill="#91cc9e"/><rect width="4.628" height="1.152" transform="translate(7.806 9.571) rotate(-89.618)" fill="#91cc9e"/><path d="M113.152,340.084c1.5.01,2.72-1.546,2.733-3.477s-1.189-3.5-2.685-3.514-2.72,1.546-2.733,3.477,1.189,3.5,2.685,3.514" transform="translate(-104.795 -333.093)" fill="#91cc9e"/><rect width="1.152" height="4.628" transform="translate(3.765 32.142) rotate(-79.152)" fill="#91cc9e"/><path d="M109.97,370.065c-.25,1.308-1.821,2.107-3.509,1.783s-2.853-1.645-2.6-2.954,1.822-2.107,3.509-1.783,2.853,1.645,2.6,2.954" transform="translate(-103.824 -338.053)" fill="#91cc9e"/><rect width="4.628" height="1.152" transform="matrix(0.982, -0.188, 0.188, 0.982, 8.31, 31.882)" fill="#91cc9e"/><path d="M116.339,370.065c.25,1.308,1.821,2.107,3.509,1.783s2.853-1.645,2.6-2.954-1.822-2.107-3.509-1.783-2.853,1.645-2.6,2.954" transform="translate(-105.648 -338.053)" fill="#91cc9e"/></g><g transform="translate(408.779 78.912)"><path d="M190.327,412.634h0a1.044,1.044,0,0,0,1.044-1.044V346.785a1.044,1.044,0,0,0-2.088,0V411.59a1.044,1.044,0,0,0,1.044,1.044" transform="translate(-182.75 -333.809)" fill="#91cc9e"/><path d="M197.539,389.977a110.01,110.01,0,0,1-5.258-17.013.575.575,0,0,0-1.118-.018c-2.71,10.517,1.9,16.792,5.7,17.806a.574.574,0,0,0,.673-.774" transform="translate(-190.349 -325.734)" fill="#91cc9e"/><path d="M196.083,376.683a87.768,87.768,0,0,1-4.194-13.568A.459.459,0,0,0,191,363.1c-2.161,8.386,1.515,13.39,4.549,14.2a.458.458,0,0,0,.536-.617" transform="translate(-188.883 -328.677)" fill="#91cc9e"/><path d="M197.539,358.571a110.008,110.008,0,0,1-5.258-17.013.575.575,0,0,0-1.118-.018c-2.71,10.517,1.9,16.792,5.7,17.806a.574.574,0,0,0,.673-.774" transform="translate(-190.349 -335.206)" fill="#91cc9e"/><path d="M186.336,395.188a75.155,75.155,0,0,0,3.6-11.632.394.394,0,0,1,.765-.012c1.852,7.19-1.3,11.48-3.9,12.173a.392.392,0,0,1-.461-.528" transform="translate(-178.756 -322.497)" fill="#91cc9e"/><path d="M184.592,385.229a110.009,110.009,0,0,0,5.258-17.013.575.575,0,0,1,1.118-.018c2.71,10.517-1.9,16.792-5.7,17.8a.573.573,0,0,1-.673-.773" transform="translate(-176.999 -327.166)" fill="#91cc9e"/><path d="M185.709,369.06a87.676,87.676,0,0,0,4.192-13.568.459.459,0,0,1,.893-.013c2.161,8.386-1.515,13.389-4.549,14.2a.458.458,0,0,1-.536-.617" transform="translate(-178.125 -330.976)" fill="#91cc9e"/><path d="M184.592,358.571a110.01,110.01,0,0,0,5.258-17.013.575.575,0,0,1,1.118-.018c2.71,10.517-1.9,16.792-5.7,17.806a.574.574,0,0,1-.673-.774" transform="translate(-176.999 -335.206)" fill="#91cc9e"/><path d="M194.75,348.561a75.629,75.629,0,0,1-3.609-11.678.4.4,0,0,0-.768-.013c-1.86,7.219,1.3,11.527,3.915,12.222a.394.394,0,0,0,.462-.531" transform="translate(-186.85 -336.573)" fill="#91cc9e"/><path d="M190.985,349.283s1.333-6.807,0-9.8-2.391,6.263-2.391,9.8,1.984,2.817,2.391,0" transform="translate(-182.059 -335.874)" fill="#91cc9e"/></g><g transform="translate(426.76 98.259)"><path d="M190.327,412.634h0a1.044,1.044,0,0,0,1.044-1.044V346.785a1.044,1.044,0,0,0-2.088,0V411.59a1.044,1.044,0,0,0,1.044,1.044" transform="translate(-182.75 -341.321)" fill="#91cc9e"/><path d="M197.539,389.977a110.01,110.01,0,0,1-5.258-17.013.575.575,0,0,0-1.118-.018c-2.71,10.517,1.9,16.792,5.7,17.806a.574.574,0,0,0,.673-.774" transform="translate(-190.349 -331.537)" fill="#91cc9e"/><path d="M196.083,376.683a87.768,87.768,0,0,1-4.194-13.568A.459.459,0,0,0,191,363.1c-2.161,8.386,1.515,13.39,4.549,14.2a.458.458,0,0,0,.536-.617" transform="translate(-188.883 -332.661)" fill="#91cc9e"/><path d="M197.539,358.571a110.008,110.008,0,0,1-5.258-17.013.575.575,0,0,0-1.118-.018c-2.71,10.517,1.9,16.792,5.7,17.806a.574.574,0,0,0,.673-.774" transform="translate(-190.349 -335.206)" fill="#91cc9e"/><path d="M186.336,395.188a75.155,75.155,0,0,0,3.6-11.632.394.394,0,0,1,.765-.012c1.852,7.19-1.3,11.48-3.9,12.173a.392.392,0,0,1-.461-.528" transform="translate(-178.756 -330.009)" fill="#91cc9e"/><path d="M184.592,385.229a110.009,110.009,0,0,0,5.258-17.013.575.575,0,0,1,1.118-.018c2.71,10.517-1.9,16.792-5.7,17.8a.573.573,0,0,1-.673-.773" transform="translate(-176.999 -332.202)" fill="#91cc9e"/><path d="M185.709,369.06a87.676,87.676,0,0,0,4.192-13.568.459.459,0,0,1,.893-.013c2.161,8.386-1.515,13.389-4.549,14.2a.458.458,0,0,1-.536-.617" transform="translate(-178.125 -333.8)" fill="#91cc9e"/><path d="M184.592,358.571a110.01,110.01,0,0,0,5.258-17.013.575.575,0,0,1,1.118-.018c2.71,10.517-1.9,16.792-5.7,17.806a.574.574,0,0,1-.673-.774" transform="translate(-176.999 -335.206)" fill="#91cc9e"/><path d="M194.75,348.561a75.629,75.629,0,0,1-3.609-11.678.4.4,0,0,0-.768-.013c-1.86,7.219,1.3,11.527,3.915,12.222a.394.394,0,0,0,.462-.531" transform="translate(-186.85 -336.573)" fill="#91cc9e"/><path d="M190.985,349.283s1.333-6.807,0-9.8-2.391,6.263-2.391,9.8,1.984,2.817,2.391,0" transform="translate(-182.059 -335.874)" fill="#91cc9e"/></g><g transform="translate(427.407 157.738)"><path d="M382.821,176.271h-8.314s-5.843-.449-5.843-5.843,6.516-11.011,11.235-9.213,10.589,3.6,10.589,9.437-7.667,5.618-7.667,5.618" transform="translate(-346.733 -160.583)" fill="#a27e4e"/><path d="M375.75,182.745H365.106a12.294,12.294,0,0,1-7.042-2.091,7.312,7.312,0,0,1-3.476-6.083c0-6.382,6.661-13.884,13.884-13.884s16.877,5.876,16.877,16.877c0,0,1.091,5.151-5.149,5.151h-6.242" transform="translate(-354.588 -160.687)" fill="#5e4f44"/></g><g transform="translate(39.799 53.613)"><path d="M382.821,176.271h-8.314s-5.843-.449-5.843-5.843,6.516-11.011,11.235-9.213,10.589,3.6,10.589,9.437-7.667,5.618-7.667,5.618" transform="translate(-346.733 -160.583)" fill="#a27e4e"/><path d="M375.75,182.745H365.106a12.294,12.294,0,0,1-7.042-2.091,7.312,7.312,0,0,1-3.476-6.083c0-6.382,6.661-13.884,13.884-13.884s16.877,5.875,16.877,16.877c0,0,1.091,5.151-5.149,5.151h-6.242" transform="translate(-354.588 -160.687)" fill="#5e4f44"/></g></g></svg>