<svg xmlns="http://www.w3.org/2000/svg" xmlns:xlink="http://www.w3.org/1999/xlink" width="183.329" height="131.377" viewBox="0 0 183.329 131.377"><defs><clipPath id="a"><rect width="183.329" height="131.377" fill="none"/></clipPath><clipPath id="b"><rect width="183.329" height="131.376" fill="none"/></clipPath><clipPath id="c"><rect width="33.722" height="57.395" fill="none"/></clipPath><clipPath id="d"><rect width="121.225" height="66.807" fill="none"/></clipPath><clipPath id="e"><rect width="20.918" height="29.979" fill="none"/></clipPath><clipPath id="f"><rect width="68.006" height="37.478" fill="none"/></clipPath></defs><g transform="translate(183.329 131.377) rotate(-180)"><g transform="translate(0 0)" clip-path="url(#a)"><g transform="translate(0 0)"><g clip-path="url(#b)"><path d="M0,52.955A163.7,163.7,0,0,1,8.55,0H140.732a204.094,204.094,0,0,0-39.391,30.173A69.929,69.929,0,0,0,88.955,46.295a42.915,42.915,0,0,0-5.562,19.737c-26.6,1.5-51.96,13.766-72.266,31.146Q9.331,98.7,7.6,100.285c-.732-2.132-1.4-4.285-2.011-6.477A150.542,150.542,0,0,1,0,52.955" transform="translate(15.736 0)" fill="#dceef7"/><g transform="translate(39.862 12.087)" opacity="0.5" style="mix-blend-mode:soft-light;isolation:isolate"><g clip-path="url(#c)"><path d="M.992,52.252c.588,3.516,5.939,2.025,5.354-1.476A66.035,66.035,0,0,1,16.29,4.08c1.958-3-2.848-5.786-4.795-2.8A71.812,71.812,0,0,0,.992,52.252" transform="translate(14.511 0)" fill="#fff"/><path d="M.743,23.243a2.8,2.8,0,0,0,3.414,1.938A2.84,2.84,0,0,0,6.1,21.767,40.126,40.126,0,0,1,7.181,3.513,2.817,2.817,0,0,0,5.242.1a2.818,2.818,0,0,0-3.415,1.94A46.409,46.409,0,0,0,.743,23.243" transform="translate(26.438 26.353)" fill="#fff"/><path d="M2,37.79c.83,3.473,6.186,2,5.354-1.476A66.774,66.774,0,0,1,7.839,3.443C8.768-.011,3.414-1.486,2.485,1.966A72.812,72.812,0,0,0,2,37.79" transform="translate(0 17.621)" fill="#fff"/></g></g><path d="M10.9,37.779A8.308,8.308,0,0,1,20.61,26.672a24.508,24.508,0,0,1,4.042-15.188c3.086-4.345,8.263-7.351,13.6-7.106,5.321.243,10.5,4.162,11.494,9.4a6.209,6.209,0,0,1,12.182.508A27.863,27.863,0,0,1,86.743.011,13.141,13.141,0,0,1,94.4,2.266c2.151,1.665,3.43,4.649,2.457,7.188,2.5-1.848,5.136-3.717,8.224-4.223,3.066-.508,6.68.853,7.694,3.775a6.785,6.785,0,0,1-1.359,6.173,19.892,19.892,0,0,1-5.056,4.2,12.3,12.3,0,0,1,12.812,4.772,12.332,12.332,0,0,1,1.036,11.736,10.3,10.3,0,0,1-1.057,1.908,12.262,12.262,0,0,1-12.812,4.731A10.165,10.165,0,0,1,95.251,58.793c5.056,6.641,3.269,17.016-2.965,22.56S76.53,87.81,68.752,84.805c-7.776-3.025-13.868-9.442-17.867-16.772-2.924,4.569-10.336,5.278-14.052,1.34.467.508-4.69,3.736-5.2,3.979a14,14,0,0,1-6.619,1.3,4.091,4.091,0,0,1-.487-.041,9.675,9.675,0,0,1-7.655-8.06,14.361,14.361,0,0,1-2.071.222,21.042,21.042,0,0,1-4.772-.3c-1.745-.265-3.471-1.6-4.77-2.763a15.435,15.435,0,0,1-5.2-9.888A15.681,15.681,0,0,1,10.9,37.779" transform="translate(0 44.882)" fill="#f5f9fa"/><g transform="translate(0 44.882)" style="mix-blend-mode:multiply;isolation:isolate"><g clip-path="url(#d)"><path d="M10.9,37.779A8.308,8.308,0,0,1,20.61,26.672a24.508,24.508,0,0,1,4.042-15.188c3.086-4.345,8.263-7.351,13.6-7.106,5.321.243,10.5,4.162,11.494,9.4a6.209,6.209,0,0,1,12.182.508A27.863,27.863,0,0,1,86.743.011,13.142,13.142,0,0,1,94.4,2.266c2.151,1.665,3.43,4.649,2.457,7.188,2.5-1.848,5.136-3.717,8.224-4.223,3.066-.508,6.68.853,7.694,3.775a6.785,6.785,0,0,1-1.359,6.173,19.892,19.892,0,0,1-5.056,4.2,12.3,12.3,0,0,1,12.812,4.772,12.332,12.332,0,0,1,1.036,11.736,6.288,6.288,0,0,0-.751-3.148c-1.888-3.45-6.316-4.974-10.213-4.384-3.9.568-7.351,2.862-10.316,5.442a3.471,3.471,0,0,0-3.308-5.99c1.766-4.081-.672-9.158-4.651-11.126-3.96-1.97-8.893-1.238-12.711.995-3.837,2.254-6.721,5.807-9.137,9.5a2.473,2.473,0,1,0-4.649,1.686,10.309,10.309,0,0,0-13.4.892,10.292,10.292,0,0,0-.243,13.422c-2.9-1.624-6.051-3.31-9.361-3s-6.538,3.635-5.42,6.761A6.645,6.645,0,0,0,23.7,48.845a10.559,10.559,0,0,0-8.9,17.929,21.042,21.042,0,0,1-4.772-.3c-1.745-.265-3.471-1.6-4.77-2.763a15.435,15.435,0,0,1-5.2-9.888A15.681,15.681,0,0,1,10.9,37.779" transform="translate(0 0)" fill="#faf6eb"/></g></g><path d="M0,29.707A91.828,91.828,0,0,1,4.8,0H78.95a114.457,114.457,0,0,0-22.1,16.927A39.227,39.227,0,0,0,49.9,25.971a24.1,24.1,0,0,0-3.121,11.071c-14.921.844-29.148,7.724-40.539,17.474q-1.01.855-1.983,1.743c-.41-1.2-.785-2.4-1.128-3.633A84.451,84.451,0,0,1,0,29.707" transform="translate(104.38 0)" fill="#bedeef"/><g transform="translate(120.306 8.844)" opacity="0.3" style="mix-blend-mode:soft-light;isolation:isolate"><g clip-path="url(#e)"><path d="M.5,27.953a2.8,2.8,0,0,0,3.414,1.938,2.84,2.84,0,0,0,1.94-3.414,29.884,29.884,0,0,1,5.491-22.3,2.8,2.8,0,0,0-1-3.8,2.839,2.839,0,0,0-3.8,1A35.388,35.388,0,0,0,.5,27.953" transform="translate(9.172 -0.001)" fill="#fff"/><path d="M.845,15.937a2.81,2.81,0,0,0,3.414,1.938A2.823,2.823,0,0,0,6.2,14.461c-.14-.5-.266-1-.368-1.51-.052-.256-.1-.51-.139-.766l-.016-.112c-.005-.037-.009-.076-.018-.142a24.073,24.073,0,0,1-.094-3c.021-.474.064-.945.114-1.416.02-.13.041-.258.062-.386.039-.219.08-.437.126-.656A19.837,19.837,0,0,1,6.745,3.5,2.789,2.789,0,0,0,4.8.083,2.851,2.851,0,0,0,1.39,2.021,22.534,22.534,0,0,0,.845,15.937" transform="translate(0 11.907)" fill="#fff"/></g></g><path d="M6.118,21.193a4.66,4.66,0,0,1,5.445-6.23,13.743,13.743,0,0,1,2.267-8.52,9.156,9.156,0,0,1,7.632-3.987,6.933,6.933,0,0,1,6.447,5.273,3.484,3.484,0,0,1,6.834.284A15.63,15.63,0,0,1,48.662.006a7.362,7.362,0,0,1,4.294,1.265A3.667,3.667,0,0,1,54.335,5.3a11.086,11.086,0,0,1,4.614-2.37c1.72-.284,3.748.478,4.317,2.118A3.808,3.808,0,0,1,62.5,8.516a11.211,11.211,0,0,1-2.837,2.357,6.9,6.9,0,0,1,7.188,2.677,6.918,6.918,0,0,1,.581,6.584,5.891,5.891,0,0,1-.592,1.069,6.881,6.881,0,0,1-7.188,2.654,5.7,5.7,0,0,1-6.22,9.124c2.835,3.725,1.833,9.545-1.663,12.656s-8.84,3.622-13.2,1.936a20.228,20.228,0,0,1-10.023-9.409,5.26,5.26,0,0,1-7.882.751c.261.284-2.631,2.1-2.917,2.233a7.867,7.867,0,0,1-3.713.728,2.4,2.4,0,0,1-.274-.023,5.427,5.427,0,0,1-4.294-4.521,8.061,8.061,0,0,1-1.162.124,11.8,11.8,0,0,1-2.677-.171A5.8,5.8,0,0,1,2.952,35.74,8.669,8.669,0,0,1,.035,30.192a8.8,8.8,0,0,1,6.083-9" transform="translate(95.551 25.178)" fill="#f5f9fa"/><g transform="translate(95.551 25.179)" style="mix-blend-mode:multiply;isolation:isolate"><g clip-path="url(#f)"><path d="M6.118,21.193a4.66,4.66,0,0,1,5.445-6.23,13.743,13.743,0,0,1,2.267-8.52,9.156,9.156,0,0,1,7.632-3.987,6.933,6.933,0,0,1,6.447,5.273,3.484,3.484,0,0,1,6.834.284A15.63,15.63,0,0,1,48.662.006a7.362,7.362,0,0,1,4.294,1.265A3.667,3.667,0,0,1,54.335,5.3a11.086,11.086,0,0,1,4.614-2.37c1.72-.284,3.748.478,4.317,2.118A3.808,3.808,0,0,1,62.5,8.516a11.21,11.21,0,0,1-2.837,2.357,6.9,6.9,0,0,1,7.188,2.677,6.918,6.918,0,0,1,.581,6.584,3.534,3.534,0,0,0-.421-1.766,5.6,5.6,0,0,0-5.729-2.46A11.713,11.713,0,0,0,55.5,18.96,1.947,1.947,0,0,0,53.64,15.6c.991-2.29-.375-5.138-2.608-6.243a7.678,7.678,0,0,0-7.131.558,16.272,16.272,0,0,0-5.125,5.331,1.388,1.388,0,0,0-2.61.945,5.781,5.781,0,0,0-7.517.5,5.774,5.774,0,0,0-.137,7.531c-1.629-.911-3.395-1.858-5.251-1.686s-3.669,2.038-3.041,3.793A3.727,3.727,0,0,0,13.295,27.4,5.924,5.924,0,0,0,8.3,37.459a11.8,11.8,0,0,1-2.677-.171A5.8,5.8,0,0,1,2.952,35.74,8.669,8.669,0,0,1,.035,30.192a8.8,8.8,0,0,1,6.083-9" transform="translate(0 -0.001)" fill="#faf6eb"/></g></g></g></g></g></g></svg>