<svg xmlns="http://www.w3.org/2000/svg" width="42.084" height="38.695" viewBox="0 0 42.084 38.695"><path d="M87.519,250.752c-2.9-.091-6.075,5.169-6.075,5.169v1.947s3.174,5.26,6.075,5.169c2.045-.063,1.208-3.088.535-4.867a3.613,3.613,0,0,1,0-2.548c.673-1.781,1.51-4.8-.535-4.868" transform="translate(-46.725 -228.381)" fill="#f09f28"/><g transform="translate(0)"><path d="M58.666,252.883s2.751-6.554,9.734-6.645c4.988-.091,3.479,4.317,3.479,4.317Z" transform="translate(-47.284 -228.491)" fill="#f09f28"/><path d="M59.428,262.6s2.788,4.109,9.588,4.2,1.723-4.9,1.723-4.9Z" transform="translate(-47.265 -228.107)" fill="#f09f28"/><path d="M58.634,252.8a30.777,30.777,0,0,0-4.36,2.627,2.473,2.473,0,0,0-.129,3.905,25.518,25.518,0,0,0,4.643,3.1,7.084,7.084,0,0,0-.154-9.629" transform="translate(-47.416 -228.33)" fill="#f7bc47"/><path d="M82.761,255.408c-9.3-7.449-18.366-5.45-24.257-2.542a7.081,7.081,0,0,1,.155,9.629c10.383,5.332,19.833-.034,24.037-3.18a2.473,2.473,0,0,0,.066-3.908" transform="translate(-47.288 -228.393)" fill="#ffd65a"/><path d="M65.283,259.189s-2.691-.544-2.691-1.813,3.808-4.443,7.435-2.449c2.9,1.451-.782,5.169-4.743,4.262" transform="translate(-47.187 -228.294)" fill="#f09f28"/><path d="M59.326,255.867a.8.8,0,1,1-.8-.8.8.8,0,0,1,.8.8" transform="translate(-47.307 -228.275)" fill="#3f2d1f"/><path d="M51.8,250.088a1.779,1.779,0,1,1-1.779-1.779,1.778,1.778,0,0,1,1.779,1.779" transform="translate(-47.539 -228.441)" fill="#fff"/><path d="M54.555,243.715a1.42,1.42,0,1,1-1.42-1.42,1.42,1.42,0,0,1,1.42,1.42" transform="translate(-47.454 -228.588)" fill="#fff"/><path d="M50.4,230.336a1.42,1.42,0,1,1-1.42-1.42,1.42,1.42,0,0,1,1.42,1.42" transform="translate(-47.556 -228.916)" fill="#fff"/></g></svg>