<svg xmlns="http://www.w3.org/2000/svg" xmlns:xlink="http://www.w3.org/1999/xlink" width="363.282" height="285.621" viewBox="0 0 363.282 285.621">
  <defs>
    <clipPath id="clip-path">
      <rect id="사각형_1151" data-name="사각형 1151" width="342.205" height="256.773" fill="none"/>
    </clipPath>
    <clipPath id="clip-path-3">
      <rect id="사각형_1992" data-name="사각형 1992" width="20" height="8" transform="translate(572.118 182.337)" fill="none"/>
    </clipPath>
  </defs>
  <g id="p10_pibi" transform="translate(9018.333 -9167.378)">
    <g id="그룹_2327" data-name="그룹 2327" transform="matrix(0.996, 0.087, -0.087, 0.996, -8995.954, 9167.379)">
      <g id="그룹_2326" data-name="그룹 2326" clip-path="url(#clip-path)">
        <path id="패스_4885" data-name="패스 4885" d="M90.928,25.714c-5.248-3.1-11.622-4.208-18.064-4.112C83.44,15.666,92.541,7.912,82.795,2.125c-7.744-4.6-23.173-.645-31.029,1.732C41.014,7.114,30.633,12.566,22.7,20.577c-.214-2.373-4.019-3.142-4.747-.421A140.3,140.3,0,0,1,.352,59.906c-1.173,1.825.789,4.5,2.9,3.765,18.928-6.5,37.7-8.757,57.552-10.2,10.947-.795,27.061-1.765,34.48-11.225,5.05-6.432,2.224-12.645-4.357-16.539" transform="translate(236.29 145.058)" fill="#fff"/>
        <path id="패스_4886" data-name="패스 4886" d="M59.624.977S30.541-5.1,7.426,13.046,22.541,32.358,22.541,32.358-2.35,47.18,3.874,60.964s53.115-20.888,71-35.55S59.624.977,59.624.977" transform="translate(10.24 176.494)" fill="#fff"/>
        <path id="패스_4887" data-name="패스 4887" d="M206.616,55.488c0,30.645-46.251,55.5-103.308,55.5S0,86.134,0,55.488,46.252,0,103.308,0,206.616,24.842,206.616,55.488" transform="translate(58.378 126.474)" fill="#e23939"/>
        <path id="패스_4888" data-name="패스 4888" d="M1.962,0S-10.371,34.672,26.8,64.64C53.7,86.33,37.578,10.872,37.578,10.872Z" transform="translate(48.573 147.812)" fill="#e23939"/>
        <path id="패스_4889" data-name="패스 4889" d="M40.408,0S52.741,34.672,15.571,64.64C-11.331,86.33,4.792,10.872,4.792,10.872Z" transform="translate(232.64 147.812)" fill="#e23939"/>
        <path id="패스_4890" data-name="패스 4890" d="M223.03,59.9c0,33.083-49.926,59.91-111.514,59.91S0,92.981,0,59.9,49.925,0,111.514,0,223.029,26.814,223.029,59.9" transform="translate(50.173 92.645)" fill="#ed4a4a"/>
        <path id="패스_4891" data-name="패스 4891" d="M58.5,20.9c25.476,0,47.093,8.763,55.12,20.976A18.96,18.96,0,0,0,117,31.424C117,14.07,90.811,0,58.5,0S0,14.071,0,31.428A18.954,18.954,0,0,0,3.382,41.875C11.408,29.66,33.019,20.9,58.5,20.9" transform="translate(103.186 116.387)" fill="#ed4a4a"/>
        <path id="패스_4892" data-name="패스 4892" d="M55.12,41.957c25.477,0,47.093-8.768,55.12-20.981C102.212,8.768,80.6,0,55.12,0S8.026,8.768,0,20.976C8.026,33.19,29.637,41.957,55.12,41.957" transform="translate(106.568 137.285)" fill="#e23939"/>
        <path id="패스_4893" data-name="패스 4893" d="M54.025,27.833S21.383-11.627,3.763,3.422,35.08,21.767,54.025,27.833" transform="translate(0.261 44.821)" fill="#fff"/>
        <path id="패스_4894" data-name="패스 4894" d="M33.292,45.025S-9.469,24.111,1.933,4.817,27.491,29.386,33.292,45.025" transform="translate(22.581 1.158)" fill="#fff"/>
      </g>
    </g>
    <g id="그룹_5507" data-name="그룹 5507" transform="matrix(0.996, 0.087, -0.087, 0.996, -8995.954, 9167.379)">
      <g id="그룹_2326-2" data-name="그룹 2326" clip-path="url(#clip-path)">
        <path id="패스_4885-2" data-name="패스 4885" d="M90.928,25.714c-5.248-3.1-11.622-4.208-18.064-4.112C83.44,15.666,92.541,7.912,82.795,2.125c-7.744-4.6-23.173-.645-31.029,1.732C41.014,7.114,30.633,12.566,22.7,20.577c-.214-2.373-4.019-3.142-4.747-.421A140.3,140.3,0,0,1,.352,59.906c-1.173,1.825.789,4.5,2.9,3.765,18.928-6.5,37.7-8.757,57.552-10.2,10.947-.795,27.061-1.765,34.48-11.225,5.05-6.432,2.224-12.645-4.357-16.539" transform="translate(236.29 145.058)" fill="#dceef7"/>
        <path id="패스_4886-2" data-name="패스 4886" d="M59.624.977S30.541-5.1,7.426,13.046,22.541,32.358,22.541,32.358-2.35,47.18,3.874,60.964s53.115-20.888,71-35.55S59.624.977,59.624.977" transform="translate(10.24 176.494)" fill="#dceef7"/>
        <path id="패스_4887-2" data-name="패스 4887" d="M0,0" transform="translate(264.994 181.961)" fill="#e23939"/>
        <path id="패스_4888-2" data-name="패스 4888" d="M1.962,0S-10.371,34.672,26.8,64.64C53.7,86.33,37.578,10.872,37.578,10.872Z" transform="translate(48.573 147.812)" fill="#e23939"/>
        <path id="패스_4889-2" data-name="패스 4889" d="M40.408,0S52.741,34.672,15.571,64.64C-11.331,86.33,4.792,10.872,4.792,10.872Z" transform="translate(232.64 147.812)" fill="#e23939"/>
        <path id="패스_4893-2" data-name="패스 4893" d="M54.025,27.833S21.383-11.627,3.763,3.422,35.08,21.767,54.025,27.833" transform="translate(0.261 44.821)" fill="#dceef7"/>
        <path id="패스_4894-2" data-name="패스 4894" d="M33.292,45.025S-9.469,24.111,1.933,4.817,27.491,29.386,33.292,45.025" transform="translate(22.581 1.158)" fill="#dceef7"/>
      </g>
    </g>
    <path id="패스_4888-3" data-name="패스 4888" d="M1.962,0S-10.371,34.672,26.8,64.64C53.7,86.33,37.578,10.872,37.578,10.872Z" transform="matrix(0.996, 0.087, -0.087, 0.996, -8960.448, 9320.47)" fill="#e23939"/>
    <g id="그룹_5518" data-name="그룹 5518" transform="translate(252.063 23.731)">
      <path id="패스_9743" data-name="패스 9743" d="M566.34,247.611s1.269-1.15-1.766-5.463c-3.533-5.02-11.758-16.834-22.362-39.76s-31.94-76.907-49.771-71.417-28.148,26.579-22.99,57.035S493.8,236.4,529.7,243.933s33.905,5.528,36.636,3.678" transform="translate(-9672 9078.332)" fill="#f2f2f2"/>
      <path id="패스_9744" data-name="패스 9744" d="M573.675,248.692s-1.038-1.363,2.735-5.049c4.39-4.29,14.635-14.4,29.249-35.005s45.454-69.777,61.982-61.121,22.818,31.274,12.182,60.275-32.78,43.137-69.456,43.978-34.345-.76-36.692-3.078" transform="translate(-9672 9078.332)" fill="#f2f2f2"/>
      <path id="패스_9745" data-name="패스 9745" d="M545.376,302.311c-2.539.366.491,11.658-2.13,16.931-3.583,7.208-7.583,4.839-7.583,9.208,0,3,13,6,12.482-12.435-.272-9.709.213-14.134-2.769-13.7" transform="translate(-9672 9078.332)" fill="#001a1a"/>
      <path id="패스_9746" data-name="패스 9746" d="M600.448,304.311c2.539.366-.491,11.658,2.13,16.931,3.583,7.208,7.583,4.839,7.583,9.208,0,3-13,6-12.482-12.435.272-9.709-.213-14.134,2.769-13.7" transform="translate(-9672 9078.332)" fill="#001a1a"/>
      <path id="패스_9747" data-name="패스 9747" d="M601.686,129.524a13.6,13.6,0,0,0-10.165-9.51c-5.086-1.212-10.947.147-15.617,2.269-4.781,2.174-8.606,6.3-11.755,10.392a69.818,69.818,0,0,0-8.923,15.809c-1.329,3.183-2.493,6.433-3.562,9.712a81.416,81.416,0,0,0-2.956,10.347.844.844,0,0,0,1.627.449c1.057-2.665,1.755-5.47,2.612-8.2.839-2.677,1.73-5.339,2.711-7.968a81.566,81.566,0,0,1,7.428-15.348,43.181,43.181,0,0,1,10.466-11.82,24.991,24.991,0,0,1,14.137-4.537c5.521-.082,11.368,3.135,12.875,8.718a.582.582,0,0,0,1.122-.309" transform="translate(-9672 9078.332)" fill="#001313"/>
      <path id="패스_9748" data-name="패스 9748" d="M642.526,149.064a13.555,13.555,0,0,0-9.648-9.375c-5.376-1.5-11.161.246-15.669,3.285-4.895,3.3-8.488,8.167-11.552,13.133a143.907,143.907,0,0,0-8.948,16.919q-2.106,4.719-3.9,9.57a66.676,66.676,0,0,0-3.262,10.487.844.844,0,0,0,1.627.449c1.064-2.7,1.841-5.509,2.8-8.246s2-5.447,3.114-8.124a154.647,154.647,0,0,1,7.695-15.822c5.108-9.155,12.29-20.715,24.2-20.688,5.367.012,10.974,3.352,12.422,8.721a.582.582,0,0,0,1.122-.309" transform="translate(-9672 9078.332)" fill="#001313"/>
      <path id="패스_9749" data-name="패스 9749" d="M566.009,319.608l5.962,11.04q3.135-5.015,5.845-10.277c-4.034.007-11.459-.667-11.807-.763" transform="translate(-9672 9078.332)" fill="#001a1a"/>
      <path id="패스_9750" data-name="패스 9750" d="M572.356,322.165c-21,0-38-18-45-43-7.812-27.9-18-118,36.14-128.1,40.736-7.6,68.978,20.447,66.86,50.1-2,28-9.571,66.884-20,94-5,13-17,27-38,27" transform="translate(-9672 9078.332)" fill="#ffb200"/>
      <path id="패스_9751" data-name="패스 9751" d="M627.589,223.923c1.976,1.5,25.675-12.879,28.658-26.394s-6.332-15.9-10.321-5.976-1.48,13.981-13.438,23.673c-5.2,4.211-7.087,7.035-4.9,8.7" transform="translate(-9672 9078.332)" fill="#001a1a"/>
      <path id="패스_9752" data-name="패스 9752" d="M522.365,223.89c-1.764,1.746-27.135-9.422-31.854-22.432s4.205-16.594,9.454-7.271,3.29,13.669,16.409,21.719c5.7,3.5,7.944,6.051,5.991,7.984" transform="translate(-9672 9078.332)" fill="#001a1a"/>
      <path id="패스_9753" data-name="패스 9753" d="M567.9,176.268a4.769,4.769,0,1,1-4.769-4.769,4.769,4.769,0,0,1,4.769,4.769" transform="translate(-9672 9078.332)" fill="#001a1a"/>
      <path id="패스_9754" data-name="패스 9754" d="M604.356,177.063a4.769,4.769,0,1,1-4.769-4.769,4.769,4.769,0,0,1,4.769,4.769" transform="translate(-9672 9078.332)" fill="#001a1a"/>
      <path id="패스_9755" data-name="패스 9755" d="M522.356,212.165s13.064,13.225,53,15c45,2,54.3-17.963,54.3-17.963L626.4,233.13s-10.047,17.035-52.047,15.035c-43.137-2.054-53-17-53-17s0-5,1-19" transform="translate(-9672 9078.332)" fill="#001a1a"/>
      <path id="패스_9756" data-name="패스 9756" d="M523.028,256.922s10.329,13.243,47.329,15.243c37.957,2.052,50.667-12.463,50.667-12.463l-5.667,20.463s-9,8-45,8c-23.022,0-43.279-9.913-44.14-13.457s-3.189-17.786-3.189-17.786" transform="translate(-9672 9078.332)" fill="#001a1a"/>
      <path id="패스_9757" data-name="패스 9757" d="M608.269,172.911a10.884,10.884,0,0,1-6.528-.5,10.654,10.654,0,0,1-2.815-1.588,10.971,10.971,0,0,1-1.192-1.109c-.407-.432-.717-.962-1.3-1.152a.718.718,0,0,0-.9.686,2.73,2.73,0,0,0,.978,1.693,11.028,11.028,0,0,0,1.377,1.232A12.713,12.713,0,0,0,601.211,174a11.913,11.913,0,0,0,7.419.218.68.68,0,0,0-.361-1.311" transform="translate(-9672 9078.332)" fill="#001313"/>
      <path id="패스_9758" data-name="패스 9758" d="M554.046,173.689a11.918,11.918,0,0,0,7.429-.051,12.393,12.393,0,0,0,3.316-1.72,11.7,11.7,0,0,0,1.44-1.227,2.705,2.705,0,0,0,1.016-1.684.716.716,0,0,0-.9-.685c-.569.17-.883.673-1.281,1.081a11.176,11.176,0,0,1-10.66,2.975.68.68,0,0,0-.361,1.311" transform="translate(-9672 9078.332)" fill="#001313"/>
      <path id="패스_9759" data-name="패스 9759" d="M543.214,172.609s-5.97,3.436-5.97,8.358c0,4.776,4.776,4.776,5.97,2.388,1.51-3.02.017-8.367,0-10.746" transform="translate(-9672 9078.332)" fill="#fff"/>
      <g id="그룹_5517" data-name="그룹 5517" transform="translate(-9672 9078.332)" opacity="0.5">
        <g id="그룹_3634" data-name="그룹 3634">
          <g id="그룹_3633" data-name="그룹 3633" clip-path="url(#clip-path-3)">
            <path id="패스_6823" data-name="패스 6823" d="M588.118,190.337h-12a4,4,0,0,1,0-8h12a4,4,0,0,1,0,8" fill="#ff4341"/>
          </g>
        </g>
      </g>
    </g>
    <path id="빼기_2" data-name="빼기 2" d="M114.92,80.642c-5.51,0-11.138-.248-16.727-.737a181.8,181.8,0,0,1-39.679-7.85,147.307,147.307,0,0,1-17.036-6.628,116.161,116.161,0,0,1-14.64-8.084,84.744,84.744,0,0,1-11.851-9.282A58.152,58.152,0,0,1,6.32,37.839a39.907,39.907,0,0,1-5.089-10.9A31.331,31.331,0,0,1,.115,15.613c.21-2.4,1.7-4.581,4.429-6.481A36.763,36.763,0,0,1,15.658,4.446,114.676,114.676,0,0,1,32.141,1.44C38.256.721,45.166.236,52.681,0,57,5.548,63.9,10.518,72.653,14.373a98.054,98.054,0,0,0,30.616,7.535c3.153.276,6.332.416,9.45.416a98.83,98.83,0,0,0,13.616-.922,80.853,80.853,0,0,0,12.192-2.637c7.564-2.289,13.915-5.625,18.365-9.647,7.363,1.538,14.085,3.215,19.98,4.985a114.6,114.6,0,0,1,15.71,5.822,36.737,36.737,0,0,1,10.128,6.545c2.356,2.345,3.445,4.752,3.235,7.152a33.771,33.771,0,0,1-8.306,18.94c-4.757,5.65-11.36,10.654-19.625,14.875A115.169,115.169,0,0,1,149.6,77.159,167.54,167.54,0,0,1,114.92,80.642Z" transform="translate(-8953.771 9339.73)" fill="#e23939" stroke="rgba(0,0,0,0)" stroke-miterlimit="10" stroke-width="1"/>
    <path id="패스_4889-3" data-name="패스 4889" d="M40.408,0S52.741,34.672,15.571,64.64C-11.331,86.33,4.792,10.872,4.792,10.872Z" transform="matrix(0.996, 0.087, -0.087, 0.996, -8777.082, 9336.513)" fill="#e23939"/>
    <path id="빼기_1" data-name="빼기 1" d="M124.051,76.994c-5.952,0-12.027-.268-18.057-.8a198.324,198.324,0,0,1-39.33-7.39A150.178,150.178,0,0,1,34.257,55.1c-9.442-5.48-17.149-11.647-22.907-18.33-5.9-6.846-9.542-14-10.83-21.264L4.439-6.96A45.162,45.162,0,0,1,11.885-16.7,131.413,131.413,0,0,0,29.966.89C39.127,8.106,48.03,12.61,56.428,14.277c3.742,7.244,10.8,13.711,20.418,18.7,9.714,5.042,21.5,8.289,34.091,9.39,2.594.227,5.228.342,7.828.342a85.2,85.2,0,0,0,31.158-5.769c8.694-3.453,15.926-8.278,20.362-13.585,13.407-1.013,24.377-4.151,32.607-9.325,6.92-4.351,10.443-9.247,12.18-12.587a43.859,43.859,0,0,1,5.9,12.146A33.9,33.9,0,0,1,222.3,26.236c-.634,7.254-3.65,14.133-8.965,20.446-5.135,6.1-12.262,11.5-21.184,16.057a124.316,124.316,0,0,1-30.673,10.5A180.85,180.85,0,0,1,124.051,76.994Z" transform="translate(-8959.391 9318.525)" fill="#ed4a4a" stroke="rgba(0,0,0,0)" stroke-miterlimit="10" stroke-width="1"/>
  </g>
</svg>
