<svg xmlns="http://www.w3.org/2000/svg" width="290.249" height="85.356" viewBox="0 0 290.249 85.356">
  <path id="p03_cloud06" d="M1528.261,230.156a17.99,17.99,0,0,0-9.6,2.774c0-.018-.007-.035-.01-.053l.01,0a24.132,24.132,0,0,0-35.275-17.538l.049.024-.049.025c-.006-.013-.013-.026-.019-.039l.019-.01a50.05,50.05,0,0,0-79.226-15.533,57.927,57.927,0,0,0-108.559,25.01,29.579,29.579,0,0,0-39.489,27.933c0,.682.057,1.351.1,2.021H1357.9c.034.156.06.314.1.469h152.2c.351-.291.708-.574,1.042-.884.107.3.233.591.356.884h33.372a18.106,18.106,0,0,0-16.7-25.087" transform="translate(-1256.114 -169.887)" fill="#fff"/>
</svg>
