<svg xmlns="http://www.w3.org/2000/svg" width="47.585" height="61.915" viewBox="0 0 47.585 61.915"><g transform="translate(-11.35 41.234) rotate(-60)"><path d="M9.457,17.115C4.234,17.115,0,13.284,0,8.557S4.234,0,9.456,0s9.457,8.558,9.457,8.558-4.234,8.557-9.456,8.557" transform="matrix(-0.719, 0.695, -0.695, -0.719, 54.721, 12.311)" fill="#bedeef"/><path d="M9.457,17.115c5.223,0,9.456-3.831,9.456-8.557S14.679,0,9.456,0,0,8.557,0,8.557s4.234,8.558,9.457,8.558" transform="matrix(-0.719, 0.695, -0.695, -0.719, 25.494, 40.536)" fill="#bedeef"/><path d="M13.327,42.4h0A13.366,13.366,0,0,1,0,29.07V13.327a13.327,13.327,0,0,1,26.653,0V29.07A13.366,13.366,0,0,1,13.327,42.4" transform="matrix(-0.719, 0.695, -0.695, -0.719, 50.4, 31.509)" fill="#ffb200"/><rect width="26.653" height="5.665" transform="matrix(-0.719, 0.695, -0.695, -0.719, 40.406, 21.16)" fill="#001a1a"/><rect width="26.653" height="5.665" transform="matrix(-0.719, 0.695, -0.695, -0.719, 32.828, 13.316)" fill="#001a1a"/></g></svg>