<svg xmlns="http://www.w3.org/2000/svg" width="44.874" height="56.937" viewBox="0 0 44.874 56.937"><g transform="translate(28.06 62.71) rotate(-140)"><path d="M8.7,15.75C3.9,15.75,0,12.224,0,7.875S3.9,0,8.7,0s8.7,7.875,8.7,7.875-3.9,7.875-8.7,7.875" transform="translate(8.112 0.731) rotate(31)" fill="#bedeef"/><path d="M8.7,15.75c4.806,0,8.7-3.526,8.7-7.875S13.508,0,8.7,0,0,7.875,0,7.875,3.9,15.75,8.7,15.75" transform="translate(40.162 19.987) rotate(31)" fill="#bedeef"/><path d="M12.264,39.015h0A12.3,12.3,0,0,1,0,26.751V12.264a12.264,12.264,0,1,1,24.527,0V26.751A12.3,12.3,0,0,1,12.264,39.015" transform="translate(26.205 0) rotate(31)" fill="#ffb200"/><rect width="24.527" height="5.213" transform="translate(19.386 11.348) rotate(31)" fill="#001a1a"/><rect width="24.527" height="5.213" transform="translate(14.219 19.951) rotate(31)" fill="#001a1a"/></g></svg>