<svg xmlns="http://www.w3.org/2000/svg" xmlns:xlink="http://www.w3.org/1999/xlink" width="37.155" height="36.875" viewBox="0 0 37.155 36.875"><defs><clipPath id="a"><rect width="37.155" height="36.875" fill="none"/></clipPath></defs><g transform="translate(0 0)" clip-path="url(#a)"><path d="M29.74,0H7.415A7.415,7.415,0,0,0,0,7.415V29.46a7.415,7.415,0,0,0,7.415,7.414H29.744a7.411,7.411,0,0,0,7.411-7.41V7.415A7.415,7.415,0,0,0,29.74,0M26.061,28.016c-.673,1.2-2.169,1.16-3.349,1.16-2.171-.038-4.416.26-6.532-.393a8.032,8.032,0,0,1-5.6-7.486c-.11-3.425-.034-6.868-.034-10.293a2.854,2.854,0,0,1,2.189-3.256A2.583,2.583,0,0,1,15.9,9.731c.094,1.1.094,2.228.115,3.332,2.787.017,5.593-.093,8.381.037a2.566,2.566,0,0,1,2.153,2.1,2.655,2.655,0,0,1-2.041,3.2c-2.844.226-5.706.058-8.571.1.038,1.047-.016,2.1.113,3.126a2.51,2.51,0,0,0,2.06,2.02c2.151.186,4.3,0,6.437.168a2.644,2.644,0,0,1,1.516,4.211" transform="translate(0 0)" fill="#fff"/></g></svg>