<svg xmlns="http://www.w3.org/2000/svg" xmlns:xlink="http://www.w3.org/1999/xlink" width="241.978" height="252.443" viewBox="0 0 241.978 252.443">
  <defs>
    <clipPath id="clip-path">
      <rect id="사각형_1974" data-name="사각형 1974" width="18.012" height="9.648" fill="none"/>
    </clipPath>
    <clipPath id="clip-path-2">
      <rect id="사각형_1975" data-name="사각형 1975" width="17.774" height="10.08" fill="none"/>
    </clipPath>
    <clipPath id="clip-path-3">
      <rect id="사각형_1976" data-name="사각형 1976" width="18.447" height="6.635" fill="none"/>
    </clipPath>
  </defs>
  <g id="p14_pibi" transform="translate(9172.127 -14763.886)">
    <g id="p04-pibi" transform="translate(-9162.783 14763.886)">
      <path id="패스_9069" data-name="패스 9069" d="M107.179,113.482s1.2-1.286-2.281-5.432c-4.048-4.826-13.485-16.188-26.317-38.706S39.239-6.507,21.486.656-4.98,30.278,2.941,60.966s29.1,47.365,66.462,51.94,35.145,2.7,37.776.576" transform="translate(-9.344 64.218) rotate(-7)" fill="#f2f2f2"/>
      <path id="패스_9070" data-name="패스 9070" d="M.27,120.08s-1.3-1.18,1.812-5.605c3.625-5.151,12.064-17.273,22.945-40.8S57.8-5.233,76.1.4s28.881,27.272,23.588,58.522S74.7,108.582,37.861,116.306,3.072,121.978.27,120.08" transform="translate(132.34 54.054) rotate(7)" fill="#f2f2f2"/>
      <path id="패스_9085" data-name="패스 9085" d="M120.391,313.484c-2.605.376.5,11.962-2.186,17.372-3.676,7.4-7.781,4.965-7.781,9.448,0,3.078,13.339,6.156,12.807-12.759-.279-9.962.219-14.5-2.841-14.061" transform="translate(-39.97 -111.678)" fill="#001a1a"/>
      <path id="패스_9086" data-name="패스 9086" d="M175.282,315.484c2.605.376-.5,11.962,2.186,17.372,3.676,7.4,7.781,4.965,7.781,9.448,0,3.078-13.339,6.156-12.807-12.759.279-9.962-.219-14.5,2.841-14.061" transform="translate(-38.354 -111.626)" fill="#001a1a"/>
      <path id="패스_9087" data-name="패스 9087" d="M161.151,131.4c-.582-3.172-1.173-6.591-3.095-9.272a12.693,12.693,0,0,0-6.167-4.5c-5.382-1.894-11.156-.387-15.537,3.071-5,3.946-7.881,9.872-9.485,15.916a114.048,114.048,0,0,0-3.163,22.24q-.391,6.48-.241,12.976a77.813,77.813,0,0,0,.994,12.683c.185.968,1.718.733,1.7-.23-.061-3.489-.441-6.969-.57-10.458s-.139-6.99-.032-10.482a151.372,151.372,0,0,1,2.03-20.868c1.043-6.091,2.688-12.388,6.647-17.285,3.478-4.3,8.582-7.342,14.261-6.76a12.049,12.049,0,0,1,7.732,3.742c2.358,2.624,3.137,6.183,3.773,9.546.143.756,1.289.435,1.151-.317" transform="translate(-39.631 -116.804)" fill="#001313"/>
      <path id="패스_9088" data-name="패스 9088" d="M208.211,138.849c-.582-3.172-1.173-6.591-3.095-9.272a12.693,12.693,0,0,0-6.167-4.5c-5.382-1.894-11.156-.387-15.537,3.071-5,3.946-7.881,9.872-9.485,15.916a114.048,114.048,0,0,0-3.163,22.24q-.391,6.48-.241,12.976a77.812,77.812,0,0,0,.994,12.683c.185.968,1.718.733,1.7-.23-.061-3.489-.441-6.969-.57-10.458s-.139-6.99-.032-10.482a151.367,151.367,0,0,1,2.03-20.868c1.044-6.091,2.688-12.388,6.647-17.285,3.478-4.3,8.582-7.342,14.261-6.76a12.049,12.049,0,0,1,7.732,3.742c2.358,2.624,3.137,6.183,3.773,9.546.143.756,1.289.435,1.151-.317" transform="translate(-38.405 -116.61)" fill="#001313"/>
      <path id="패스_9089" data-name="패스 9089" d="M140.77,330.78l6.117,11.328q3.217-5.145,6-10.545c-4.139.007-11.758-.684-12.115-.783" transform="translate(-39.179 -111.226)" fill="#001a1a"/>
      <path id="패스_9090" data-name="패스 9090" d="M148.455,337.83c-21.547,0-38.991-18.469-46.173-44.121-8.016-28.627-18.469-121.076,37.082-131.439,41.8-7.8,70.776,20.98,68.6,51.406-2.052,28.73-9.821,68.628-20.521,96.45-5.13,13.339-17.443,27.7-38.991,27.7" transform="translate(-40.35 -115.653)" fill="#ffb200"/>
      <path id="패스_9091" data-name="패스 9091" d="M198.642,253.454c1.654,1.936,28.551-7.314,34.489-20.214s-2.88-17.325-9.045-8.242-4.533,13.695-18.637,20.8c-6.128,3.088-8.639,5.508-6.808,7.651" transform="translate(-37.686 -114.109)" fill="#001a1a"/>
      <path id="패스_9092" data-name="패스 9092" d="M97.993,248.24c-2.321-1.048-22.717,18.777-22.6,32.978s9.986,14.449,11.694,3.6-1.731-14.321,8-26.76c4.228-5.4,5.471-8.663,2.9-9.823" transform="translate(-40.883 -113.379)" fill="#001a1a"/>
      <path id="패스_9093" data-name="패스 9093" d="M142.9,187.564a4.893,4.893,0,1,1-4.893-4.893,4.893,4.893,0,0,1,4.893,4.893" transform="translate(-39.379 -115.087)" fill="#001a1a"/>
      <path id="패스_9094" data-name="패스 9094" d="M179.367,188.358a4.893,4.893,0,1,1-4.893-4.893,4.893,4.893,0,0,1,4.893,4.893" transform="translate(-38.428 -115.067)" fill="#001a1a"/>
      <g id="그룹_4760" data-name="그룹 4760" transform="translate(75.841 80.544)" opacity="0.5">
        <g id="그룹_3587" data-name="그룹 3587" transform="translate(0)">
          <g id="그룹_3586" data-name="그룹 3586" clip-path="url(#clip-path)">
            <path id="패스_6693" data-name="패스 6693" d="M133.645,201.822c-.472,2.493-4.868,3.756-9.818,2.82s-8.583-3.717-8.111-6.211,4.868-3.755,9.818-2.82,8.583,3.717,8.111,6.211" transform="translate(-115.674 -195.302)" fill="#ff4341"/>
          </g>
        </g>
      </g>
      <g id="그룹_4761" data-name="그룹 4761" transform="translate(139.576 82.381)" opacity="0.5">
        <g id="그룹_3590" data-name="그룹 3590" transform="translate(0 0)">
          <g id="그룹_3589" data-name="그룹 3589" clip-path="url(#clip-path-2)">
            <path id="패스_6694" data-name="패스 6694" d="M195.48,199.737c.666,2.449-2.736,5.506-7.6,6.828s-9.343.409-10.009-2.04,2.735-5.506,7.6-6.828,9.343-.409,10.009,2.04" transform="translate(-177.79 -197.092)" fill="#ff4341"/>
          </g>
        </g>
      </g>
      <path id="패스_9095" data-name="패스 9095" d="M97.144,223.414s13.4,13.57,54.382,15.391c46.173,2.052,55.719-18.432,55.719-18.432L203.9,244.926s-10.309,17.479-53.4,15.427c-44.262-2.108-54.382-17.443-54.382-17.443s0-5.13,1.026-19.5" transform="translate(-40.343 -114.105)" fill="#001a1a"/>
      <path id="패스_9096" data-name="패스 9096" d="M97.789,268.094s10.6,13.588,48.563,15.64c38.946,2.105,51.988-12.788,51.988-12.788l-5.815,21s-9.235,8.209-46.173,8.209c-23.622,0-44.407-10.171-45.291-13.808s-3.272-18.25-3.272-18.25" transform="translate(-40.3 -112.86)" fill="#001a1a"/>
      <g id="그룹_4762" data-name="그룹 4762" transform="translate(108.269 83.2)" opacity="0.5">
        <g id="그룹_3593" data-name="그룹 3593" transform="translate(0 0)">
          <g id="그룹_3592" data-name="그룹 3592" clip-path="url(#clip-path-3)">
            <path id="패스_6697" data-name="패스 6697" d="M147.279,197.891l18.446.923s-.307,6.148-9.53,5.686-8.915-6.61-8.915-6.61" transform="translate(-147.278 -197.891)" fill="#ff4341"/>
          </g>
        </g>
      </g>
    </g>
    <g id="그룹_5535" data-name="그룹 5535" transform="translate(-9171.471 14653.16)">
      <path id="패스_5529" data-name="패스 5529" d="M42.854,265.023c-23.9,0-26,22.434-26.063,36.865a1.709,1.709,0,0,0,3.417.014c.057-12.592,1.868-33.461,22.646-33.461,20.308,0,22.593,21.077,22.646,33.647a1.673,1.673,0,0,0,.249.872l.025.041a1.7,1.7,0,0,0,2.922-.051,1.678,1.678,0,0,0,.223-.84c-.05-14.421-2.618-37.086-26.064-37.086" transform="translate(1.174 18.526)" fill="#001a1a"/>
      <path id="패스_5530" data-name="패스 5530" d="M17.929,305.326l5.906,30.514c0,3.3,8.373,5.985,18.7,5.985s18.7-2.68,18.7-5.985l5.906-30.514Z" transform="translate(1.253 21.344)" fill="#d4873f"/>
      <path id="패스_5531" data-name="패스 5531" d="M34.141,327.562a1.478,1.478,0,0,0-1.938,1.129,7.711,7.711,0,0,1-.918,2.387c-1.189,2.14.951,5.35,3.091,4.28s2.14-4.28,1.07-6.419c0,0-.591-1.123-1.305-1.376" transform="translate(2.163 22.893)" fill="#ffb200"/>
      <path id="패스_5532" data-name="패스 5532" d="M59.659,309.621a60.036,60.036,0,0,1-17.148,2.23,60.034,60.034,0,0,1-17.147-2.23,23.831,23.831,0,0,1-7.062-2.928l.521,2.692c3.316,2.851,12.56,5.438,24.759,5.438,11.481,0,19.577-3.049,22.466-4.642l.675-3.488a23.86,23.86,0,0,1-7.062,2.928" transform="translate(1.279 21.439)" fill="#aa6933"/>
      <path id="패스_5533" data-name="패스 5533" d="M69.647,295.885c0,4.727-11.975,8.559-26.748,8.559s-26.748-3.832-26.748-8.559,11.975-8.559,26.748-8.559,26.748,3.832,26.748,8.559" transform="translate(1.129 20.086)" fill="#d4873f"/>
      <path id="패스_5534" data-name="패스 5534" d="M66.024,299.83c0,4.136-10.479,7.489-23.4,7.489s-22.468-3.353-22.468-7.489c0-3.21,3.21-6.419,10.7-7.489s10.916,1.855,14.979,3.21c6.419,2.14,7.443-.2,11.769-1.07,5.35-1.07,8.426,2.56,8.426,5.35" transform="translate(1.409 20.42)" fill="#ffa800"/>
      <path id="패스_5535" data-name="패스 5535" d="M42.9,303.885c-14.772,0-26.748-3.832-26.748-8.559v8.559c0,4.727,11.975,8.559,26.748,8.559s26.748-3.832,26.748-8.559v-8.559c0,4.727-11.975,8.559-26.748,8.559" transform="translate(1.129 20.645)" fill="#d4873f"/>
      <path id="패스_5536" data-name="패스 5536" d="M19.169,298.388s1.07-2.14,7.489,0c3.511,1.171,6.928,3.319,10.07,3.291,9.188-.081,23.1-1.151,23.1-.081,0,0-12.839,3.21-17.244,4.237-5.126,1.194-6.36,2.429-7.511,5.284s1.731,8.361.533,10.432c-1.456,2.515-5,1.9-6.464-.753s.905-9.257.136-12.163S17.03,301.6,19.169,298.388" transform="translate(1.321 20.792)" fill="#ffb200"/>
    </g>
  </g>
</svg>
