<svg xmlns="http://www.w3.org/2000/svg" width="47.633" height="60.437" viewBox="0 0 47.633 60.437"><g transform="translate(29.785 66.565) rotate(-140)"><path d="M9.237,16.718C4.135,16.718,0,12.975,0,8.359S4.135,0,9.237,0s9.237,8.359,9.237,8.359-4.135,8.359-9.237,8.359" transform="translate(8.61 0.775) rotate(31)" fill="#bedeef"/><path d="M9.237,16.718c5.1,0,9.237-3.743,9.237-8.359S14.339,0,9.237,0,0,8.359,0,8.359s4.135,8.359,9.237,8.359" transform="translate(42.631 21.216) rotate(31)" fill="#bedeef"/><path d="M13.018,41.413h0A13.056,13.056,0,0,1,0,28.4V13.018a13.018,13.018,0,1,1,26.035,0V28.4A13.056,13.056,0,0,1,13.018,41.413" transform="translate(27.817 0) rotate(31)" fill="#ffb200"/><rect width="26.035" height="5.533" transform="translate(20.578 12.045) rotate(31)" fill="#001a1a"/><rect width="26.035" height="5.533" transform="translate(15.093 21.177) rotate(31)" fill="#001a1a"/></g></svg>