<svg xmlns="http://www.w3.org/2000/svg" width="37.4" height="47.217" viewBox="0 0 37.4 47.217"><g transform="translate(4.151 49.472) rotate(-101)"><path d="M7.224,13.075C3.234,13.075,0,10.148,0,6.538S3.234,0,7.224,0s7.224,6.538,7.224,6.538-3.234,6.538-7.224,6.538" transform="translate(6.734 0.606) rotate(31)" fill="#bedeef"/><path d="M7.224,13.075c3.99,0,7.224-2.927,7.224-6.538S11.214,0,7.224,0,0,6.538,0,6.538s3.234,6.538,7.224,6.538" transform="translate(33.341 16.593) rotate(31)" fill="#bedeef"/><path d="M10.181,32.389h0A10.211,10.211,0,0,1,0,22.208V10.181a10.181,10.181,0,0,1,20.362,0V22.208A10.211,10.211,0,0,1,10.181,32.389" transform="translate(21.755 0) rotate(31)" fill="#ffb200"/><rect width="20.362" height="4.328" transform="translate(16.094 9.42) rotate(31)" fill="#001a1a"/><rect width="20.362" height="4.328" transform="translate(11.805 16.563) rotate(31)" fill="#001a1a"/></g></svg>