<svg xmlns="http://www.w3.org/2000/svg" xmlns:xlink="http://www.w3.org/1999/xlink" width="37.156" height="36.875" viewBox="0 0 37.156 36.875"><defs><clipPath id="a"><rect width="37.155" height="36.875" fill="none"/></clipPath></defs><g transform="translate(0 0)" clip-path="url(#a)"><path d="M7.517,36.875H29.64a7.515,7.515,0,0,0,7.515-7.515V7.517A7.517,7.517,0,0,0,29.639,0H7.517A7.517,7.517,0,0,0,0,7.517V29.358a7.517,7.517,0,0,0,7.517,7.517M4.848,12.634a7.925,7.925,0,0,1,7.926-7.925H24.383a7.923,7.923,0,0,1,7.925,7.925V24.242a7.921,7.921,0,0,1-7.925,7.924H12.774a7.923,7.923,0,0,1-7.926-7.924Z" transform="translate(0 0)" fill="#fff"/><path d="M20.276,37.278H32.157a5.264,5.264,0,0,0,5.262-5.263V20.136a5.262,5.262,0,0,0-5.262-5.262H20.276a5.264,5.264,0,0,0-5.262,5.262v11.88a5.265,5.265,0,0,0,5.262,5.263m13.3-20.259a1.66,1.66,0,1,1-1.661,1.66,1.659,1.659,0,0,1,1.661-1.66M26.216,18.95a7.125,7.125,0,1,1-7.124,7.126,7.128,7.128,0,0,1,7.124-7.126" transform="translate(-7.639 -7.568)" fill="#fff"/><path d="M33.037,37.511a4.619,4.619,0,1,0-4.618-4.617,4.617,4.617,0,0,0,4.618,4.617" transform="translate(-14.46 -14.386)" fill="#fff"/></g></svg>