<svg xmlns="http://www.w3.org/2000/svg" xmlns:xlink="http://www.w3.org/1999/xlink" width="36.935" height="36.937" viewBox="0 0 36.935 36.937"><defs><clipPath id="a"><rect width="36.935" height="36.937" fill="none"/></clipPath></defs><g transform="translate(0 0)" clip-path="url(#a)"><path d="M7.416,36.937H19.728v-14.3H14.914V17.058h4.814V12.947c0-4.771,2.915-7.369,7.17-7.369a39.653,39.653,0,0,1,4.3.22v4.985l-2.954,0c-2.314,0-2.762,1.1-2.762,2.715v3.559H31l-.718,5.574h-4.8v14.3h4.033a7.416,7.416,0,0,0,7.416-7.416V7.416A7.416,7.416,0,0,0,29.519,0H7.416A7.416,7.416,0,0,0,0,7.416v22.1a7.416,7.416,0,0,0,7.416,7.416" transform="translate(0 0)" fill="#fff"/></g></svg>