<svg xmlns="http://www.w3.org/2000/svg" xmlns:xlink="http://www.w3.org/1999/xlink" width="37.479" height="37.479" viewBox="0 0 37.479 37.479"><defs><clipPath id="a"><rect width="37.479" height="37.479" fill="none"/></clipPath></defs><g transform="translate(0 0)" clip-path="url(#a)"><path d="M7.415,37.48H30.062a7.416,7.416,0,0,0,7.416-7.416V7.416A7.416,7.416,0,0,0,30.063,0H7.417A7.416,7.416,0,0,0,0,7.417V30.065A7.415,7.415,0,0,0,7.415,37.48M19.125,5.993c7.939,0,14.379,5.082,14.379,11.356s-6.44,11.358-14.379,11.358a18.222,18.222,0,0,1-2.588-.189L10.71,32.452a.414.414,0,0,1-.25.1.41.41,0,0,1-.294-.121.42.42,0,0,1-.1-.432l1.356-5.058c-4-2.021-6.672-5.554-6.672-9.589,0-6.273,6.437-11.356,14.377-11.356" transform="translate(0 -0.001)" fill="#fff"/><path d="M17.628,30.547l0,5.392a.894.894,0,0,0,.015.22.786.786,0,0,0,.279.469.842.842,0,0,0,.529.17.791.791,0,0,0,.606-.235.866.866,0,0,0,.227-.624l0-5.392h1.564a.961.961,0,0,0,.612-.188.655.655,0,0,0,.239-.54.75.75,0,0,0-.01-.156.62.62,0,0,0-.29-.42,1.016,1.016,0,0,0-.555-.148H16.059a.97.97,0,0,0-.615.193.63.63,0,0,0-.246.532c.006.057.015.113.024.161a.61.61,0,0,0,.286.419,1.029,1.029,0,0,0,.556.149Z" transform="translate(-7.835 -14.998)" fill="#fff"/><path d="M24.746,35.6a.933.933,0,0,0-.045.3.824.824,0,0,0,.015.176.694.694,0,0,0,.254.428.768.768,0,0,0,.489.151.692.692,0,0,0,.741-.472l.43-1.261H29.3l.428,1.261a.706.706,0,0,0,.743.472.75.75,0,0,0,.55-.219.729.729,0,0,0,.234-.535,1.9,1.9,0,0,0-.03-.2,3.409,3.409,0,0,0-.135-.461l-2-5.793a.871.871,0,0,0-.342-.5,1.043,1.043,0,0,0-.541-.131h-.4a.952.952,0,0,0-.507.122.739.739,0,0,0-.3.4l-2.141,5.9c-.042.117-.081.237-.112.356m3.233-4.91H28l.94,3.04H27Z" transform="translate(-12.733 -14.855)" fill="#fff"/><path d="M39.095,36.36a1.08,1.08,0,0,0,.623.159H43.17a.987.987,0,0,0,.616-.189.64.64,0,0,0,.244-.535,1.088,1.088,0,0,0-.024-.158.632.632,0,0,0-.281-.421,1,1,0,0,0-.56-.147H40.4V29.675a.8.8,0,0,0-.014-.219.79.79,0,0,0-.276-.469.821.821,0,0,0-.531-.172.8.8,0,0,0-.607.236.869.869,0,0,0-.227.624l0,5.837a2.3,2.3,0,0,0,.036.338.751.751,0,0,0,.313.511" transform="translate(-19.973 -14.854)" fill="#fff"/><path d="M50.016,36.016a.78.78,0,0,0,.278.469.847.847,0,0,0,.531.17.8.8,0,0,0,.607-.235.881.881,0,0,0,.228-.624l-.01-1.714.909-.948L54.467,36.2a1.093,1.093,0,0,0,.325.36.83.83,0,0,0,.413.09.962.962,0,0,0,.6-.193.755.755,0,0,0,.249-.636.306.306,0,0,1,0-.054c-.007-.025-.01-.045-.013-.052a1.709,1.709,0,0,0-.238-.48l-.061-.1-2.012-3.188,1.7-1.858a1.529,1.529,0,0,0,.2-.277.646.646,0,0,0,.076-.314.288.288,0,0,1,0-.07c-.007-.034-.012-.058-.012-.064a.619.619,0,0,0-.275-.4.849.849,0,0,0-.5-.154.619.619,0,0,0-.345.093,1.852,1.852,0,0,0-.315.284l-2.6,2.989,0-2.507a.826.826,0,0,0-.016-.219.767.767,0,0,0-.279-.468.815.815,0,0,0-.529-.172.8.8,0,0,0-.607.235.877.877,0,0,0-.225.624L50,35.8a1.063,1.063,0,0,0,.015.22" transform="translate(-25.774 -14.855)" fill="#fff"/></g></svg>