<svg xmlns="http://www.w3.org/2000/svg" xmlns:xlink="http://www.w3.org/1999/xlink" width="200.292" height="176.897" viewBox="0 0 200.292 176.897"><defs><clipPath id="a"><rect width="19.147" height="176.896" fill="none"/></clipPath><clipPath id="c"><rect width="200.292" height="96.74" fill="none"/></clipPath><clipPath id="d"><rect width="9.272" height="81.786" fill="none"/></clipPath><clipPath id="e"><rect width="7.593" height="7.593" fill="none"/></clipPath><clipPath id="g"><rect width="9.273" height="81.786" fill="none"/></clipPath><clipPath id="h"><rect width="7.594" height="7.593" fill="none"/></clipPath></defs><g transform="translate(-519.999 -14756.971)"><g transform="translate(90.145 1080)"><rect width="19.33" height="176.897" transform="translate(451.67 13676.971)" fill="#aa6933"/><rect width="19.33" height="176.897" transform="translate(594.15 13676.971)" fill="#aa6933"/><g transform="translate(451.67 13676.973)" opacity="0.2"><g clip-path="url(#a)"><path d="M30.232,102.087q-.83,5.269-1.745,10.594c-.523,3.12-1.053,6.268-1.528,9.5-.031.229-.056.459-.088.688h3.36Z" transform="translate(-11.085 54.024)" fill="#d4873f"/><path d="M27.065,157.088c.944-6.764,1.91-13.582,2.789-20.49q.781-3.571,1.261-7.125V73.427q-.31-6.06-.7-12.145c0-3.892.043-7.755.1-11.617.157-10.489.4-20.988.6-31.553V0H30.043c.381,17.177-.1,34.263-.649,51.314-.121,3.916-.245,7.831-.324,11.8.9,15.131,1.087,29.916.566,44.53q-.2,5.48-.526,10.948c-.655,11.753-1.97,23.389-3.4,35.006q-.716,5.81-1.449,11.616c-.344,3.886-.634,7.781-.89,11.682H24.79c.247-3.245.539-6.481.894-9.7q.665-5.037,1.381-10.108" transform="translate(-11.968)" fill="#d4873f"/><path d="M21.732,152.953c1.453-14.442,3.041-28.9,4.2-43.527q.312-5.455.488-10.918c.347-10.923.254-21.852-.443-32.74.058-3.909.173-7.716.3-11.513Q27.284,27,28.735,0h-4.5c.718,17.7-.01,35.074-1.056,52.243-.22,3.71-.456,7.412-.662,11.14.265,14.579-.278,29.03-1.3,43.406q-.383,5.39-.852,10.781c-1.132,11.724-2.452,23.443-3.626,35.148q-.588,5.854-1.113,11.7c-.287,4.146-.488,8.305-.627,12.474h4.8c.2-4.363.482-8.732.875-13.111q.5-5.418,1.051-10.831" transform="translate(-14.08)" fill="#d4873f"/><path d="M20.374,63.325c.411-4,.807-7.982,1.135-11.963,1.316-15.919,1.505-31.838-1.044-47.518q-.2-1.922-.411-3.844h-2.06q.224,2.973.425,5.959a278.356,278.356,0,0,1,.6,35.315q-.231,5.872-.607,11.743c-.9,18.957-.9,39.013-3.823,57.953-.1.57-.213,1.133-.317,1.7v3.818q.509-2.216,1.048-4.406c3.661-15.6,2.929-32.312,5.059-48.76" transform="translate(-14.266)" fill="#d4873f"/><path d="M16.931,47.125A189.5,189.5,0,0,0,14.266,7.664v67.8c.864-6.16,1.6-12.276,2.081-18.309q.406-4.991.584-10.035" transform="translate(-14.266 4.056)" fill="#d4873f"/></g></g><g transform="translate(594.15 13676.973)" opacity="0.2"><g clip-path="url(#a)"><path d="M30.232,102.087q-.83,5.269-1.745,10.594c-.523,3.12-1.053,6.268-1.528,9.5-.031.229-.056.459-.088.688h3.36Z" transform="translate(-11.085 54.024)" fill="#d4873f"/><path d="M27.065,157.088c.944-6.764,1.91-13.582,2.789-20.49q.781-3.571,1.261-7.125V73.427q-.31-6.06-.7-12.145c0-3.892.043-7.755.1-11.617.157-10.489.4-20.988.6-31.553V0H30.043c.381,17.177-.1,34.263-.649,51.314-.121,3.916-.245,7.831-.324,11.8.9,15.131,1.087,29.916.566,44.53q-.2,5.48-.526,10.948c-.655,11.753-1.97,23.389-3.4,35.006q-.716,5.81-1.449,11.616c-.344,3.886-.634,7.781-.89,11.682H24.79c.247-3.245.539-6.481.894-9.7q.665-5.037,1.381-10.108" transform="translate(-11.968)" fill="#d4873f"/><path d="M21.732,152.953c1.453-14.442,3.041-28.9,4.2-43.527q.312-5.455.488-10.918c.347-10.923.254-21.852-.443-32.74.058-3.909.173-7.716.3-11.513Q27.284,27,28.735,0h-4.5c.718,17.7-.01,35.074-1.056,52.243-.22,3.71-.456,7.412-.662,11.14.265,14.579-.278,29.03-1.3,43.406q-.383,5.39-.852,10.781c-1.132,11.724-2.452,23.443-3.626,35.148q-.588,5.854-1.113,11.7c-.287,4.146-.488,8.305-.627,12.474h4.8c.2-4.363.482-8.732.875-13.111q.5-5.418,1.051-10.831" transform="translate(-14.08)" fill="#d4873f"/><path d="M20.374,63.325c.411-4,.807-7.982,1.135-11.963,1.316-15.919,1.505-31.838-1.044-47.518q-.2-1.922-.411-3.844h-2.06q.224,2.973.425,5.959a278.356,278.356,0,0,1,.6,35.315q-.231,5.872-.607,11.743c-.9,18.957-.9,39.013-3.823,57.953-.1.57-.213,1.133-.317,1.7v3.818q.509-2.216,1.048-4.406c3.661-15.6,2.929-32.312,5.059-48.76" transform="translate(-14.266)" fill="#d4873f"/><path d="M16.931,47.125A189.5,189.5,0,0,0,14.266,7.664v67.8c.864-6.16,1.6-12.276,2.081-18.309q.406-4.991.584-10.035" transform="translate(-14.266 4.056)" fill="#d4873f"/></g></g><path d="M0,0H200.292V96.74H0Z" transform="translate(429.854 13693.562)" fill="#b26f35"/><g transform="translate(429.854 13693.562)" opacity="0.2"><g clip-path="url(#c)"><path d="M107.884,68.255c-3.782.148-7.557.341-11.345.621-18.069.717-35.785,6.346-53.355,8.7H50.27c15.182-1.688,30.374-4.621,45.749-6.267q5.64-.557,11.3-.989c22.629-1.719,45.48-1.879,68.687.757.479,0,.957,0,1.436,0V67.559c-.43.035-.859.063-1.289.1-22.689.554-45.575-.283-68.266.6" transform="translate(22.853 19.163)" fill="#d4873f"/><path d="M5.624,68.116Q2.821,67.107,0,66.148V72.47q3.1.706,6.173,1.376,5.457,1.007,10.941,1.887c6.831,1.087,13.706,1.983,20.635,2.592H41.1c-7.753-1.866-15.4-4.043-22.982-6.345-4.179-1.269-8.34-2.569-12.494-3.864" transform="translate(0 18.416)" fill="#d4873f"/><path d="M154.811,58.579A78.224,78.224,0,0,0,144.7,57.073a91.206,91.206,0,0,0-9.929-.271c-20.172,2.369-40.617,7.256-60.831,8.872-4.043.323-8.079.515-12.1.531a85.845,85.845,0,0,1-24.177-2.512c-2.61-.625-5.2-1.344-7.77-2.135A218.777,218.777,0,0,0,.246,50.5c-.083-.024-.164-.044-.246-.069V61.472C13.029,65.181,26.016,69.514,39.069,72.7c2.438.593,4.889,1.138,7.358,1.618s4.958.9,7.464,1.243c3.75.384,7.516.615,11.3.726,18.9.558,38.152-1.9,56.534-3.863,3.739-.252,7.452-.46,11.165-.65,22.276-1.136,44.532-1.662,67.141-.491.087,0,.176,0,.263,0V60.839c-.922-.034-1.846-.073-2.766-.1-14.3-.682-28.507-.682-42.715-2.162" transform="translate(0 10.1)" fill="#d4873f"/><path d="M139.4,52.532c-3.979-.034-7.959-.041-12.006.061C111.363,54.387,95.5,55.7,79.746,55.445q-5.907-.094-11.808-.5c-16.74-.517-32.729-5.338-49.3-10.688-3.315-1.06-6.66-2.132-10.1-3.09C5.687,40.407,2.841,39.792,0,39.283v8.193c5.181.593,10.371,1.385,15.57,2.457,4.136.835,8.273,1.7,12.414,2.552,12.425,2.563,24.892,5.057,37.528,6.527q5.994.523,11.972.74A263.064,263.064,0,0,0,125.9,56.925c4.167-.124,8.252-.135,12.333-.125,20.407.106,40.81.676,61.489,1.077.191,0,.382,0,.572,0V54.586c-.506,0-1.011-.008-1.515,0-19.615-.973-39.487-1.83-59.382-2.049" transform="translate(0 4.2)" fill="#d4873f"/><path d="M141.247,47.086c-4.161-.245-8.32-.5-12.539-.658a261.658,261.658,0,0,1-47.315,1.147q-5.824-.395-11.634-1.063c-12.487-1.326-24.852-3.987-37.2-6.88-4.115-.963-8.227-1.954-12.342-2.928C13.5,35.572,6.761,34.7,0,34.021v2.792a171.987,171.987,0,0,1,18.113,2.769c3.569.895,7.147,1.838,10.741,2.792,7.186,1.908,14.431,3.863,21.773,5.64,7.1,2.962,14.206,4.442,20.924,3.572q5.858.456,11.73.563c15.667.3,31.463-1.081,47.373-2.994,4.135,0,8.239.087,12.345.2,18.967.538,37.962,1.578,57.294,1.844V48.146c-19.776,1.158-39.435.147-59.047-1.06" transform="translate(0 1.415)" fill="#d4873f"/><path d="M140.259,37.4c-3.944-.447-7.877-.924-11.839-1.34A273.28,273.28,0,0,1,82.3,33.435q-5.73-.775-11.457-1.72C58.385,29.422,45.934,26.752,33.5,24.379c-4.147-.792-8.293-1.551-12.435-2.251A207.2,207.2,0,0,0,0,20.5v9.551a179.069,179.069,0,0,1,21.737,2.294c3.837.673,7.672,1.39,11.509,2.126,15.345,2.939,30.708,6.15,46.25,8.5q5.8.631,11.6.989a191.393,191.393,0,0,0,34.789-.9c4.153.115,8.2.349,12.234.615q30.255,2.11,60.214,5.21c.651.008,1.306.009,1.957.015v-9.77c-20.38,2.09-40.329.549-60.033-1.734" transform="translate(0 -5.74)" fill="#d4873f"/><path d="M189.438,32.5a155.991,155.991,0,0,1-37.523,1.208c-4.161-.313-8.32-.736-12.478-1.231-20.144-1.811-41.455-1.811-61.581-7.733-2.961-.986-5.887-2.1-8.8-3.282A113.009,113.009,0,0,0,46.136,10.848H0v1.973a158.318,158.318,0,0,1,20.814-1.607q5.872.356,11.712,1.159a130.479,130.479,0,0,1,34.566,9.663q4.847,1.963,9.58,4.187c16.575,7.4,34.333,5.923,51.811,10.233,4.253.83,8.482,1.63,12.711,2.3,16.916,2.661,33.83,3.043,50.492-2.113q3.76-.755,7.522-1.531c.361-.075.723-.144,1.084-.219V30.968l-.029.006c-3.594.557-7.2,1.072-10.825,1.525" transform="translate(0 -10.848)" fill="#d4873f"/><path d="M173.69,10.848a139.8,139.8,0,0,1-14.384,3.519q-5.487,1.032-11.009,1.65a151.44,151.44,0,0,1-32.339.453q-5.338-.456-10.645-1.179a135.881,135.881,0,0,1-24.984-4.442H48.99c4.435,2.3,8.934,4.548,13.6,6.491C76.794,21.782,91,26.224,104.8,28.313q5.306.821,10.663,1.181A108.288,108.288,0,0,0,158.344,23.8q6.391-1.161,12.72-2.142c1.1-.173,2.2-.318,3.3-.483V10.848Z" transform="translate(25.925 -10.848)" fill="#d4873f"/><path d="M91.791,13.7c8.623,1.035,17.456-.336,25.946-2.857H79.868c1.234.358,2.47.726,3.7,1.075A44.009,44.009,0,0,0,91.791,13.7" transform="translate(42.266 -10.848)" fill="#d4873f"/></g></g><g transform="translate(455.11 13703.954)" opacity="0.2"><g clip-path="url(#d)"><g transform="translate(1.68)" opacity="0.45" style="mix-blend-mode:multiply;isolation:isolate"><g clip-path="url(#e)"><path d="M25.206,21.441a3.8,3.8,0,1,1-3.8-3.8,3.8,3.8,0,0,1,3.8,3.8" transform="translate(-17.614 -17.644)" fill="#c1730c"/></g></g><path d="M24.108,21.441a3.8,3.8,0,1,1-3.8-3.8,3.8,3.8,0,0,1,3.8,3.8" transform="translate(-16.515 -17.644)" fill="#935203"/><g transform="translate(1.68 74.193)" opacity="0.45" style="mix-blend-mode:multiply;isolation:isolate"><g clip-path="url(#e)"><path d="M25.206,69.958a3.8,3.8,0,1,1-3.8-3.8,3.8,3.8,0,0,1,3.8,3.8" transform="translate(-17.614 -66.162)" fill="#c1730c"/></g></g><path d="M24.108,69.958a3.8,3.8,0,1,1-3.8-3.8,3.8,3.8,0,0,1,3.8,3.8" transform="translate(-16.515 8.031)" fill="#935203"/></g></g><g transform="translate(599.179 13700.157)" opacity="0.2"><g clip-path="url(#g)"><g transform="translate(1.679)" opacity="0.45" style="mix-blend-mode:multiply;isolation:isolate"><g clip-path="url(#h)"><path d="M119.418,18.958a3.8,3.8,0,1,1-3.8-3.8,3.8,3.8,0,0,1,3.8,3.8" transform="translate(-111.826 -15.161)" fill="#c1730c"/></g></g><path d="M118.32,18.958a3.8,3.8,0,1,1-3.8-3.8,3.8,3.8,0,0,1,3.8,3.8" transform="translate(-110.728 -15.161)" fill="#935203"/><g transform="translate(1.679 74.194)" opacity="0.45" style="mix-blend-mode:multiply;isolation:isolate"><g clip-path="url(#h)"><path d="M119.418,67.475a3.8,3.8,0,1,1-3.8-3.8,3.8,3.8,0,0,1,3.8,3.8" transform="translate(-111.826 -63.679)" fill="#c1730c"/></g></g><path d="M118.32,67.475a3.8,3.8,0,1,1-3.8-3.8,3.8,3.8,0,0,1,3.8,3.8" transform="translate(-110.728 10.515)" fill="#935203"/></g></g></g></g></svg>