<svg xmlns="http://www.w3.org/2000/svg" width="1953.985" height="1953.979" viewBox="0 0 1953.985 1953.979">
  <g id="p01_earth" transform="translate(619.285 3.508)">
    <path id="패스_2372" data-name="패스 2372" d="M1.124,13.777C.655,15.232.323,16.647,0,18.07Q3.129,9.084,6.007,0c-1.73,4.617-3.4,9.152-4.883,13.777" transform="matrix(0.966, 0.259, -0.259, 0.966, 922.353, 1335.737)" fill="#5fcf4b"/>
    <g id="그룹_890" data-name="그룹 890" transform="matrix(0.966, 0.259, -0.259, 0.966, -206.361, -3.508)" opacity="0.1">
      <g id="그룹_889" data-name="그룹 889">
        <g id="그룹_5545" data-name="그룹 5545">
          <path id="패스_2359" data-name="패스 2359" d="M797.712,1595.416C357.853,1595.416,0,1237.563,0,797.712S357.853,0,797.712,0s797.712,357.853,797.712,797.712-357.853,797.7-797.712,797.7" fill="#fff"/>
        </g>
      </g>
    </g>
    <path id="패스_2360" data-name="패스 2360" d="M1352.872,676.436c0,373.578-302.85,676.428-676.436,676.428S0,1050.014,0,676.436,302.85,0,676.436,0s676.436,302.85,676.436,676.436" transform="matrix(0.966, 0.259, -0.259, 0.966, -120.606, 145.024)" fill="#dceef7"/>
    <path id="패스_2361" data-name="패스 2361" d="M35.647.065C21.741,1.221,4.5,15.685.841,29.244c-1.488,5.538-1,9.977,1.463,13.187,1.593,2.086,4.843,4.584,11.182,4.584a27.394,27.394,0,0,0,3.46-.226,54.849,54.849,0,0,1,6.759-.42A37.6,37.6,0,0,1,37.07,48.551a27.554,27.554,0,0,0,9.88,2.029c10.066,0,16.356-7.228,16.437-18.887A34.355,34.355,0,0,0,53.806,7.341,23.406,23.406,0,0,0,37.329,0c-.558,0-1.116.016-1.682.065" transform="matrix(0.966, 0.259, -0.259, 0.966, 492.73, 706.293)" fill="#91cc9e"/>
    <path id="패스_2362" data-name="패스 2362" d="M40.8,22.452a2.95,2.95,0,0,0-.509-1.593l-1.6-2.377a2.983,2.983,0,0,0-2.45-1.318,2.825,2.825,0,0,0-.525.049L25.538,19.008l3.339-4.649A2.963,2.963,0,0,0,27.616,9.9,20.56,20.56,0,0,0,19.6,8.263C9.142,8.263.563,15.984.062,25.84A37.963,37.963,0,0,0,3.046,43.554c1.884,4,4.908,7.277,7.842,10.454.663.72,1.326,1.431,1.973,2.151l-.493.647a2.953,2.953,0,0,0,2.345,4.77c.1,0,.21-.008.315-.016l7.317-.784L27.535,73.72,13.33,74.9a2.96,2.96,0,0,0-1.8,5.094c2.442,2.337,3.59,4.439,3.525,6.436-.105,2.717-2.474,5.886-7.463,9.977a2.961,2.961,0,0,0,1.69,5.247l14.019.9c-.1.049-.178.073-.267.113-6.428,2.87-13.7,6.1-16.906,15.014a3.009,3.009,0,0,0,.364,2.717,2.977,2.977,0,0,0,2.434,1.245c.8,0,1.5.049,2.143.081.623.032,1.172.057,1.674.057a8.847,8.847,0,0,0,2.434-.291c4.4-1.2,8.772-2.49,13.162-3.784,8.611-2.539,17.5-5.174,26.357-6.961l.663-.137c7.373-1.5,10.737-2.175,12.136-5.166,1.229-2.644-.1-5.506-2.151-9.3l3.751-11.287a2.876,2.876,0,0,0-.17-2.28,2.925,2.925,0,0,0-1.738-1.48L59.8,78.765c.186-3.363.437-6.735.663-10.106.663-9.419,1.342-19.153,1.213-28.775-.1-8.231-.711-16.51-1.4-24.643Q55.259,7.539,50.036,0A66.511,66.511,0,0,0,40.8,22.452m-1.649,20a11.1,11.1,0,0,1-1.164,4.293l-8.554-7.341L40.253,24.231a3.7,3.7,0,0,0,.283-.493,81.468,81.468,0,0,0-1.383,18.717" transform="matrix(0.966, 0.259, -0.259, 0.966, 946.45, 733.099)" fill="#91cc9e"/>
    <path id="패스_2363" data-name="패스 2363" d="M64.527,9.265C56.482,5.142,46.473,0,35.914,0A32.024,32.024,0,0,0,17.189,6.08a46.654,46.654,0,0,1-8.287,4.1c-2.062.873-4.423,1.876-7.188,3.161a2.964,2.964,0,0,0-.639,4.972c1.366,1.132,2.531,2.223,3.566,3.2,2.207,2.078,4.115,3.881,6.646,4.8,8.934,3.266,18.07,6.4,26.915,9.468,10.826,3.743,22.015,7.608,32.906,11.691,6.29,2.329,10.4,3.614,14.076,3.614,6.04,0,10.26-3.355,16.906-10.389a2.918,2.918,0,0,0,.8-2.28,3.023,3.023,0,0,0-1.18-2.126c-3.654-2.717-7.309-5.668-10.842-8.546-8.255-6.67-16.793-13.575-26.341-18.482" transform="matrix(0.966, 0.259, -0.259, 0.966, 521.721, 1153.391)" fill="#91cc9e"/>
    <path id="패스_2364" data-name="패스 2364" d="M14.166,17.423c-3.727,5.045-5.538,11.424-4.714,16.671a12.492,12.492,0,0,0,5,8.433c6.492,4.665,6.791,10.47,7.155,17.181a50.338,50.338,0,0,0,.986,8.74c.809,3.557.34,8.045-1.019,9.589C11.182,89.946,6.348,104.378,6.4,123.483a16.386,16.386,0,0,1-1.552,5.538A31.191,31.191,0,0,0,3.138,134.1c-.3,1.4-.647,2.806-1,4.22C.947,143.162-.282,148.167.057,153.228,1.8,179.052,11.4,203.582,28.59,226.115c5.813,7.6,13.179,11.8,20.762,11.8,9.387,0,17.957-6.234,23.544-17.092a137.816,137.816,0,0,0,10.244-27.206c4.7-17.4,13.413-25.039,29.171-25.525,12.928-.412,21.789-7.454,24.934-19.857,2.2-8.732,7.786-13.9,17.545-16.227,3.929-.946,7.875-1.795,11.836-2.628,8.829-1.892,17.949-3.84,26.632-6.864,10.058-3.485,19.485-8.869,28.613-14.06l2.337-1.326c3.3-1.884,4.5-4.131,4.932-5.91A673.872,673.872,0,0,0,20.254,0c.429,5.708-1.544,11.271-6.088,17.423" transform="matrix(0.966, 0.259, -0.259, 0.966, 685.995, 387.895)" fill="#91cc9e"/>
    <path id="패스_2365" data-name="패스 2365" d="M538.934,1268.683a8.642,8.642,0,0,1,.865-4.164h.113a12.477,12.477,0,0,1,3.008.388,27.2,27.2,0,0,0,7.115,1.116c3.388,0,6.023-1.043,7.834-3.113,2.417-2.765,3.137-7.026,2.272-13.389-.534-3.937-1.342-9.88-.323-11.044.226-.267,1.051-.7,3.978-.7,1.94,0,4.439.17,7.584.453.631.057,1.261.137,1.9.226a31.608,31.608,0,0,0,4.261.339h.04c6.985-.129,12.6-2.547,16.251-6.985,3.646-4.422,4.94-10.422,3.719-17.318-.566-3.226-1.383-6.387-2.167-9.46-.42-1.674-.857-3.363-1.245-5.053-.841-3.663-.315-5.037.081-5.53.687-.865,2.506-1.059,3.905-1.059.647,0,1.35.041,2.1.113,3.485.348,6.233.509,8.619.509,14.246,0,18.515-6.153,22.889-20.827,1.334-1.7,2.6-3.477,3.873-5.263,2.983-4.18,5.813-8.109,9.387-11.012,9.985-8.109,14.311-17.828,13.615-30.594-1.6-29.6,14-48.316,43.95-52.723,21.725-3.185,30.5-12.4,32.381-33.99.509-5.74.461-11.545.412-17.164-.024-3.776-.057-7.689.1-11.489.065-2.1.081-4.22.089-6.363.04-6.508.073-12.661,1.892-18.127,3.1-9.3,7.648-16.178,12.16-18.418,10.6-5.239,18.418-12.782,26.131-25.217,10.963-17.642,8.4-28.039-9.783-39.746-4.342-2.806-8.142-6.428-12.16-10.268-2.3-2.207-4.689-4.487-7.188-6.589-.7-.59-1.407-1.245-2.134-1.9-2.991-2.741-6.4-5.846-10.414-6.25-11.117-1.1-22.517-1.544-33.561-1.965-3.574-.137-7.171-.275-10.794-.437-4.673-9.217-12.96-14.448-23.01-14.448a34.165,34.165,0,0,0-14.682,3.566c-3.291,1.56-6.541,3.169-9.8,4.778l-2.045,1.011c.105-.429.218-.849.331-1.269.76-2.87,1.552-5.845,2.175-8.853.21-1,.526-2.054.833-3.129.978-3.436,2.078-7.325.647-10.6-3.218-7.3-7.18-14.319-11.02-21.1-1.5-2.66-3.008-5.312-4.463-7.98a2.924,2.924,0,0,0-2.345-1.544c-.081-.008-.17-.016-.259-.016a2.97,2.97,0,0,0-2.312,1.116c-.986,1.229-2.086,2.417-3.185,3.6-2.636,2.862-5.369,5.821-6.9,9.492-2.094,5.053-4.334,7.624-6.678,7.624-1.892,0-4.487-1.423-7.495-4.107a33.775,33.775,0,0,0-6.064-4.123c-.493-.291-.938-.534-1.269-.752a2.967,2.967,0,0,0-3.711.412l-8.465,8.57c.024-.234.032-.469.057-.687.4-6.128.72-10.971,6.977-14.618,7.859-4.584,3.428-12.451,1.043-16.679-.323-.59-.655-1.164-.946-1.714a2.992,2.992,0,0,0-1.73-1.73,2.71,2.71,0,0,0-1.051-.21,2.774,2.774,0,0,0-.453.041l-2.708.008-2.3-1.3-8.166-4.843a3,3,0,0,0-2.523-.227,2.953,2.953,0,0,0-1.787,1.819l-1.52,4.318a35.158,35.158,0,0,0-7.9-14.448,3.477,3.477,0,0,0-.477-.437c-2.911-2.094-6-4.059-8.982-5.942-6.751-4.285-13.122-8.328-17.731-13.817-8-9.54-15.661-13.8-24.837-13.8a34.351,34.351,0,0,0-8.845,1.237,45.763,45.763,0,0,1-11.853,1.633,42.7,42.7,0,0,1-22.654-6.711,38.963,38.963,0,0,0-20.358-6.023c-8.36,0-16.623,2.927-24.514,8.708-6.08,4.455-11.481,9.9-16.712,15.151-1.795,1.811-3.6,3.63-5.433,5.4-8.6-5.926-12.993-8.651-19.5-8.651-4.326,0-9.371,1.2-17.731,3.177a23.665,23.665,0,0,1-5.5.679c-4.786,0-8.877-1.722-11.521-4.835-2.935-3.477-4.018-8.53-3.048-14.246.6-3.582,1.56-7.236,2.482-10.761.881-3.339,1.787-6.775,2.426-10.268,1.391-7.495.162-13.858-3.557-18.41-3.7-4.511-9.654-6.969-17.205-7.107h-.566c-2.183,0-4.35.2-6.444.388-2.037.194-3.97.372-5.862.372a24.507,24.507,0,0,1-2.563-.137c-8.861-.97-10.292-2.434-10.519-2.862-1.277-2.385-.663-7.988,1.253-11.537a104.62,104.62,0,0,1,8.19-12.184c2.474-3.331,5.029-6.775,7.236-10.422,2.151-3.565,4.617-10.656,2.078-14.529-2.094-3.153-7.568-5.118-11.424-5.118a8.53,8.53,0,0,0-3.283.582c-9.605,3.954-17.165,8.392-23.2,13.583-8.538,7.365-16.6,14.327-27.8,16.138a47.055,47.055,0,0,1-7.317.663c-8.732,0-13.381-3.63-19.113-14.925-9.379-18.45-6.4-37.507-3.541-55.932,2.3-14.828,10.308-24.118,25.2-29.227a63.7,63.7,0,0,1,20.762-3.533,69.65,69.65,0,0,1,18.175,2.523,24.948,24.948,0,0,0,6.217.76c3.1,0,7.22-.534,9.29-3.089,4.867-5.983,10.575-8.53,19.081-8.53a96.855,96.855,0,0,1,11.683.978l1.787.218c11.529,1.4,14.27,4.285,15.459,16.243.113,1.172.21,2.353.307,3.549.509,5.934,1.019,12.079,3.517,17.5,1.787,3.905,5.393,6.581,8.869,9.177,1.431,1.059,2.773,2.062,3.962,3.113a2.932,2.932,0,0,0,1.973.752c.1,0,.194,0,.291-.008a2.991,2.991,0,0,0,2.078-1.172c.962-1.294,2.037-2.539,3.1-3.792,2.692-3.161,5.466-6.42,6.937-10.4,1.641-4.423.954-9.573.356-14.117l-.226-1.8c-.453-3.646-1.261-7.22-2.037-10.688-.445-1.965-.889-3.937-1.269-5.918-3.42-18.022,1.625-29.05,17.415-38.032,4.172-2.385,8.594-4.576,12.871-6.7,2.991-1.48,5.975-2.959,8.918-4.52,15.467-8.166,22.63-20.334,21.28-36.148-.566-6.654,1.827-11.748,8.02-17.076a66.518,66.518,0,0,0,8.877-9.953c1.754-2.264,3.428-4.414,5.263-6.387a22.493,22.493,0,0,1,7.236-5.207c3.63-1.593,7.438-2.991,11.2-4.334-.065.129-.137.251-.21.372-3.808,6.767-7.746,13.745-12.055,20.649a26.325,26.325,0,0,1-4.56,4.964,46.343,46.343,0,0,0-3.921,3.946c-2.717,3.2-3.905,6.419-3.533,9.573.388,3.242,2.417,6.242,6.039,8.9,7.341,5.368,19.59,8.449,33.61,8.449,15.725,0,29.777-3.832,37.587-10.244,5.409-4.447,7.94-8.95,7.511-13.389-.4-4.212-3.38-7.875-8.885-10.858-6.306-3.436-8.182-7.446-7.163-15.3a34.11,34.11,0,0,0,.129-5.773c-.032-.72-.057-1.423-.057-2.1a2.974,2.974,0,0,0-1.892-2.773c-9.718-3.735-9.379-9.75-8.918-18.078a60.452,60.452,0,0,0,.121-7.268h1.528a2.959,2.959,0,0,0,2.862-2.2l3.921-11.618,2.773,4.94a2.993,2.993,0,0,0,2.587,1.512c9.346,0,21.191-1.625,29.915-14.2a2.983,2.983,0,0,0,.388-2.579,2.937,2.937,0,0,0-1.8-1.892l-18.6-6.848,13.51-14.181a3,3,0,0,0,.784-2.482,2.917,2.917,0,0,0-1.463-2.126,26.633,26.633,0,0,0-13.5-3.695c-6.161,0-11.836,2.078-17.334,4.067a59.5,59.5,0,0,1-12.192,3.533c12.96-12.338,25.161-21.239,42.519-21.239l1.755.016c5.773,0,10.05-.938,13.09-2.838,11.174-7,23.5-7.721,36.544-8.473l3.832-.243a73.3,73.3,0,0,0,12.014-2.086c2.191-.493,4.382-1.011,6.589-1.383,4.172-.728,7.3-2.506,9.265-5.3,2-2.838,2.652-6.622,1.9-10.923l-.356-2.07c-2.167-12.669-4.406-25.791-18.6-33.472-1.957-1.067-3.525-4.5-4.908-7.519-.364-.792-.728-1.568-1.092-2.312a24.757,24.757,0,0,1-1.52-4.6,25.763,25.763,0,0,0-2.45-6.638c-5.571-9.484-6.379-17.916-2.611-27.311a24.579,24.579,0,0,0-.226-19.21,19.4,19.4,0,0,0-11.157-10.527,16.77,16.77,0,0,0-5.522-.922c-9.346,0-18.539,7.365-22.355,17.925-.146.437-.259.906-.372,1.391a3.619,3.619,0,0,1-.089.461c-.784.768-1.633,1.7-2.506,2.644a39.661,39.661,0,0,1-3.9,3.873c-2.846-1.294-5.943-4.584-6.638-7.155-1.14-4.2-1.188-8.788-1.237-13.631-.024-2.1-.048-4.2-.162-6.282-1.051-19.477-10.915-33.731-29.292-42.39a36.5,36.5,0,0,0-15.394-3.832,20.886,20.886,0,0,0-15.273,6.064c-4.819,4.908-7.293,12.354-7.131,21.531.162,10.373-2.846,17.318-9.759,22.517-6.864,5.142-8.368,11.691-4.633,20,1.253,2.773,2.66,5.49,4.01,8.093.59,1.14,1.18,2.272,1.746,3.4a2.987,2.987,0,0,0,2.644,1.625h.186a2.955,2.955,0,0,0,2.6-1.949l5.086-14.076c.445,1.666.962,3.291,1.48,4.908,2.49,7.842,4.649,14.642-2.393,22.1a8.21,8.21,0,0,0-1.957,3.849,2.741,2.741,0,0,0-1.423-.364,2.95,2.95,0,0,0-1.989.768c-2.8,2.523-5.619,5.069-8.417,7.6l-6.266,1.358v-21.3a2.95,2.95,0,0,0-2.927-2.967l-3.161-.024a2.967,2.967,0,0,0-2.959,2.959l-.008,20.94c-.121.146-.259.3-.388.453-.323.4-.808,1.011-.889,1.1-12.33,3.525-14.771,7.543-11.9,19.534.34,1.391.784,2.773,1.229,4.164a26.564,26.564,0,0,1,1.536,6.662c.235,6.161-.865,13.866-7.471,15.628a5.541,5.541,0,0,1-1.5.17c-3.525,0-8.789-2.248-11.74-5.037-7.042-6.638-8.578-19.2-3.42-28.031,4.56-7.81,5.546-13.858,3.032-18.491-2.587-4.778-8.53-7.317-18.143-7.786-3.4-.162-5.959-1.156-6.654-2.037-8.894-11.125-20.415-14.383-34.976-15.863-8.311-.849-11.036-4.883-10.058-14.9.776-7.665-.137-15.135-2.523-21-3.282-8.037-3.25-14.585.081-21.215,5.886-11.683,14.5-19.21,26.317-23,9.265-2.959,16.089-6.937,20.318-11.8,7.349-8.489,16.4-14.674,28.484-19.5,4.026-1.6,7.964-3.485,11.764-5.3,4.026-1.924,8.19-3.929,12.362-5.53a14.887,14.887,0,0,1,5.077-.9,9.688,9.688,0,0,1,3.46.542,14.5,14.5,0,0,0,5.328,1.091,8.831,8.831,0,0,0,6.719-2.749,8.231,8.231,0,0,0,1.932-6.484c-1.124-10.583,4.3-12.977,14.82-16.647l.315-.113c5.191-1.8,15.976-5.554,15.936-17.4a145.165,145.165,0,0,0-2.021-25.945c-1.067-5.829-4.819-9.605-9.565-9.605-3.25,0-6.5,1.787-9.152,5.021a65.523,65.523,0,0,0-6.314,9.9c-1.375,2.458-2.668,4.77-4.18,6.945a84.736,84.736,0,0,1-6.549,7.988c-2.458-17.811-4.544-19.913-18.466-24.166,0-.348.016-.7.032-1.035.623-6.678.178-15.96-10.6-19.833a14.211,14.211,0,0,0-4.827-.906c-6.387,0-9.823,5.029-12.572,9.071l-.841,1.213c-3.978,5.7-9.193,7.018-17.423,7.446a252.517,252.517,0,0,0-31.257,3.937,43.23,43.23,0,0,1-7.422.817,14.651,14.651,0,0,1-11-4.342c-8.813-8.578-13.227-12.888-18.353-12.888-5.376,0-9.379,4.722-17.342,14.141l-.3.34a10.373,10.373,0,0,1-6.775,2.991,3.067,3.067,0,0,1-.5-.04c-.938-.218-3.226-2.83-3.994-5.247-2.514-7.818-4.172-12.993-10.7-12.993-2.417,0-5.352.687-9.969,1.795a57.446,57.446,0,0,1-13.106,1.407,77.012,77.012,0,0,1-9.573-.6c-1.075-.129-3.63-2.765-4.98-5.773a21.224,21.224,0,0,1,5.546-4.326c5.239-2.6,6.9-5.724,7.333-8.037A678.446,678.446,0,0,0,0,199.466a57.758,57.758,0,0,0,7.1,7.94c4.309,4.034,8.869,10.648,6.12,19.186-4.608,14.246,1.035,24.506,7.163,32.631,1.916,2.539,2.086,7.155,2.264,11.651.04,1.253.089,2.49.178,3.679a72.613,72.613,0,0,1-.048,8.053c-.186,4.584-.38,9.322.784,13.866,1.374,5.336,4.156,10.179,6.856,14.868.962,1.674,1.916,3.339,2.806,5.029-.768,3.937-1.512,7.9-2.264,11.853-1.827,9.581-3.711,19.493-5.765,29.187-1.86,8.78-4.051,17.666-6.169,26.26l-1.8,7.365c-.978,4.018-2.046,8.02-3.1,12.031l-1.5,5.676a2.968,2.968,0,0,0,2.87,3.711c.049,0,14.351-.72,14.351-.72l.129.776A2.928,2.928,0,0,0,31.6,414.7a2.963,2.963,0,0,0,2.733-.089,23.4,23.4,0,0,0,2.013-1.294,8.031,8.031,0,0,1,2.442-1.374c.768-.032,1.609-.065,2.45-.065,3.477,0,4.7.606,5.118.962a10.9,10.9,0,0,1,2.628,5.546c-3.9,5.587-3.743,11.465-3.606,16.671a42.717,42.717,0,0,1-.162,6.719,10.053,10.053,0,0,1-3.4,5.619,50.411,50.411,0,0,1-7.931,4.891c-.744.412-1.5.825-2.288,1.269l-14.343-14.31a3,3,0,0,0-2.094-.857,2.952,2.952,0,0,0-2.765,4.018l5.158,13.542c4.051,10.608,8.085,21.223,12.184,31.8,1.86,4.819,3.654,9.662,5.449,14.5,4.406,11.877,8.966,24.166,14.448,35.849,10.389,22.113,21.652,44.241,32.55,65.651q4.524,8.889,9.031,17.787a65.752,65.752,0,0,0,5.32,8.328c.841,1.172,1.674,2.328,2.474,3.533a2.984,2.984,0,0,0,3.339,1.18l4.026-1.229a2.98,2.98,0,0,0,2.094-3.072c-.121-1.512-.129-3.072-.137-4.625-.024-3.816-.048-7.754-1.528-11.368A124.778,124.778,0,0,0,99.753,600.5c-1.981-3.485-4.026-7.091-5.692-10.721-6.411-13.9-11.893-26.842-16.76-39.544-.34-.889.3-3,.825-4.673.049-.178.105-.356.154-.534.146.032.291.057.429.1,2.11.453,4.1.873,5.183,1.811A21.913,21.913,0,0,1,90.165,556a233.846,233.846,0,0,1,6.9,25.29c2.692,11.99,6.678,24.3,17.553,33.27,14.157,11.675,21.167,25.678,21.417,42.835.2,13.494,7.463,23.916,21,30.109,7.074,3.242,14.941,6.339,24.069,9.468,7.511,2.587,15.014,5.223,22.509,7.843,23.107,8.093,47,16.445,70.906,23.406,13.041,3.808,20.52,8.8,25.8,17.229,1.188,1.892,2.337,3.824,3.5,5.732a158.05,158.05,0,0,0,9.961,15.184C323.984,779.585,335.344,786,348.506,786c6.888,0,14.359-1.852,22.218-5.49a9.94,9.94,0,0,1,4.148-1.043c3.177,0,5.805,2.466,7.834,7.325,8.279,19.9,4.681,38.614-10.414,54.1-22,22.6-27.117,60.169-11.659,85.556,21.434,35.146,43.489,68.618,77.617,91.62,14.658,9.888,22.46,25.055,22.549,43.853.048,10.915-.178,22.04-.38,32.809q-.158,7.689-.275,15.378c-.081,5.207-.113,10.43-.154,15.645-.218,28.92-.445,58.835-6.727,87.723-4.617,21.272-3.8,42.075,2.417,61.835a116.631,116.631,0,0,1,4.536,20.528q33.254,3.3,67.381,3.331c3.493,0,6.977-.073,10.47-.121,5.094-8.619,8.271-18.369.865-30.367" transform="matrix(0.966, 0.259, -0.259, 0.966, 9.266, 235.401)" fill="#91cc9e"/>
    <path id="패스_2366" data-name="패스 2366" d="M111.983,9.241c-1.472.865-3.363,3.121-2.991,5.425.914,5.474-2.547,8.732-6.541,12.5-.622.59-1.229,1.164-1.827,1.754q-1.589,1.577-3.177,3.186c-8.125,8.231-15.8,16-28.273,16-.324,0-1.027-.024-1.059-.024A2.961,2.961,0,0,0,65.155,50.9l-.194,4.4c-1.083.032-2.175.057-3.226.081a111.371,111.371,0,0,0-14.456.978c-2.644.436-4.422,2.611-5.983,4.552-.542.647-1.051,1.3-1.6,1.843a2.885,2.885,0,0,0-.889,2.094,3,3,0,0,0,.873,2.126,20.3,20.3,0,0,1,1.407,1.657c1.5,1.892,3.2,4.043,5.805,4.156,6.242.267,11.012,3.946,14.181,10.923,3.711,8.15,6.541,17.5,8.869,29.422-.4,1.286-3.549,4.544-5.765,5.352a19.534,19.534,0,0,1-6.63.962,50.269,50.269,0,0,1-6.46-.485c-7.107-.954-14.327-2.2-21.312-3.4-4.528-.784-9.055-1.577-13.6-2.288a18.346,18.346,0,0,0-2.806-.226c-6.476,0-10.414,4.22-10.793,11.594-.291,5.562-.639,11.117-.994,16.688-.6,9.346-1.2,19.016-1.5,28.556C-.4,186.037.66,187.428,16.644,191.3l.752.162a11.306,11.306,0,0,1,1.374.348c4.035,4.948,8.869,7.462,14.408,7.462,3.727,0,7.729-1.083,12.6-3.4a15.52,15.52,0,0,1,5.288-.93c.833-.057,1.69-.121,2.514-.218,20.981-2.482,28.322-10.389,29.122-31.305a3.411,3.411,0,0,1,.582-1.835c1.415-1.714,2.765-3.695,4.059-5.619,2.539-3.735,5.417-7.98,8.012-8.5,12.063-2.426,12.637-10.3,13.1-16.623.105-1.374.2-2.781.429-4.156.542-3.3,1.73-7.244,4.334-7.244,1.051,0,2.951.469,6.015,2.668,3.606,2.587,6.686,3.8,9.718,3.8,3.824,0,7.333-1.957,11.02-6.1,3.275-3.711,7.2-5.668,11.279-5.668,4.706,0,9.338,2.571,13.033,7.244,2.531,3.2,5.215,6.371,8.085,9.451A671.863,671.863,0,0,0,120.99,0a21.952,21.952,0,0,1-9.007,9.241" transform="matrix(0.966, 0.259, -0.259, 0.966, 901.614, 796.936)" fill="#91cc9e"/>
    <path id="패스_2367" data-name="패스 2367" d="M70.384,5.563A85.824,85.824,0,0,1,59.639,3.768C54.756,2.749,49.7,1.69,44.69,1.69A25.48,25.48,0,0,0,24.8,10.3c-1.092-1.374-2.078-2.587-3.177-3.784-.34-.356-.671-.736-1.011-1.116C18.478,3,15.818,0,12.05,0,9.77,0,7.539,1.132,5.413,3.371,2.672,6.274-.118,9.815,0,14.181c.089,3,1.576,5.886,4.439,8.562,3.024,2.862,5.2,6.137,5.967,8.991,1.908,7.22,5.732,16.809,16.841,16.809A30.663,30.663,0,0,0,37.793,46.3c4.115-1.536,8.271-2.951,12.435-4.382,6.808-2.337,13.866-4.746,20.641-7.624,2.749-1.172,12.564-7.2,11.327-12.289C81.364,18.668,76.949,6.1,70.384,5.563" transform="matrix(0.966, 0.259, -0.259, 0.966, 850.424, 589.607)" fill="#91cc9e"/>
    <path id="패스_2368" data-name="패스 2368" d="M2.681,51.316c1.011.105,2.045.275,3.08.445a34.157,34.157,0,0,0,5.506.59,14.816,14.816,0,0,0,2.822-.259A22.539,22.539,0,0,0,20.46,49.4a19.032,19.032,0,0,1,4.471-2.021c5.425-1.3,9.136-3.727,11.036-7.188,1.811-3.291,1.973-7.309.5-12.257.073-.137.162-.283.243-.412a11.189,11.189,0,0,0,1.819-4.948,90.869,90.869,0,0,0-.162-9.411c-.065-1.229-.129-2.45-.162-3.687a2.931,2.931,0,0,0-1.108-2.2,2.97,2.97,0,0,0-1.868-.655,2.8,2.8,0,0,0-.517.048L25.885,8.239l-1.269-5.9A2.978,2.978,0,0,0,22.328.057,3.217,3.217,0,0,0,21.713,0,2.943,2.943,0,0,0,19.32,1.229c-1.447,2-2.62,3.97-3.646,5.716C14.1,9.6,12.618,12.1,11.235,12.653c-4.5,1.795-7.276,4.107-8.465,7.058-1.674,4.115.186,8.247,1.827,11.9.372.841.744,1.657,1.059,2.45a7.635,7.635,0,0,0-2.644,3.194A61.316,61.316,0,0,0,.822,44.775C.587,45.721.361,46.667.1,47.6a2.955,2.955,0,0,0,2.579,3.711" transform="matrix(0.966, 0.259, -0.259, 0.966, 904.912, 769.135)" fill="#91cc9e"/>
    <path id="패스_2369" data-name="패스 2369" d="M107.049,308.016c6.339,0,12.766-.267,18.992-.534l5.013-.21c3.792-.145,7.333-1.536,10.761-2.886,1.221-.485,2.442-.97,3.646-1.375,3-1.011,5.991-2.078,8.974-3.153,5.288-1.884,10.753-3.832,16.178-5.425a20.162,20.162,0,0,1,5.473-.833c4.883,0,8.861,2.3,12.192,7.066,4.269,6.1,9.662,9.33,15.6,9.33a17.833,17.833,0,0,0,6-1.083,24.426,24.426,0,0,1,8.061-1.536c5.732,0,10.672,2.805,15.038,8.465A676.468,676.468,0,0,0,260.868,123.16a680.454,680.454,0,0,0-5.029-82.573c-5.093-1.463-10.341-2.87-16.089-4.382-2.159-.566-4.382-1.164-6.662-1.763,5.207-5.959,3.84-12.37,2.725-17.722-.954-4.519-1.779-8.408.356-12.346A2.966,2.966,0,0,0,233.556,0l-.194.008c-1.956.129-3.784.243-5.514.331-3.792.226-7.066.4-10.4.825-2.579.315-5.15.833-7.624,1.342a55.634,55.634,0,0,1-11.06,1.536c-.485,0-.962-.016-1.439-.04-1.69-.105-3.347-.154-5-.154a74.383,74.383,0,0,0-32.6,7.511,154.588,154.588,0,0,1-18.3,7.3,33.669,33.669,0,0,1-10.446,1.884,20.67,20.67,0,0,1-14.416-5.724A14.4,14.4,0,0,0,107,10.729c-4.01,0-7.8,2.134-10.664,6.023-2.636,3.606-5.368,7.163-8.109,10.737C79.932,38.3,71.37,49.464,65.2,61.754c-7.559,15.03-18.547,34.208-36.561,49.109C14.823,122.27,7.393,138.3,6.544,158.491q-.121,3.032-.226,6.088c-.4,11.457-.808,23.293-3.816,34.006-6.048,21.636-1.156,40,14.949,56.143q4.475,4.5,8.934,9.039c10.786,10.988,21.927,22.339,34.03,32.267,6.816,5.595,17.148,9.6,28.322,10.988a148.285,148.285,0,0,0,18.313.994" transform="matrix(0.966, 0.259, -0.259, 0.966, 790.99, 962.079)" fill="#91cc9e"/>
    <path id="패스_2370" data-name="패스 2370" d="M30.193,0C20.6,0,6.94,4.374.706,11.691a2.96,2.96,0,0,0,.59,4.366c4.5,3.072,11.739,4.827,19.833,4.827s15.386-1.819,19.5-4.875c3.2-2.369,4.681-4.916,4.406-7.56-.283-2.757-2.409-5.069-6.323-6.872A20.279,20.279,0,0,0,30.193,0" transform="matrix(0.966, 0.259, -0.259, 0.966, 254.756, 992.857)" fill="#91cc9e"/>
    <path id="패스_2371" data-name="패스 2371" d="M84.921,23.382C68.161,15.911,50.843,8.19,33.3,1.827A29.87,29.87,0,0,0,23.168,0C14.913,0,7.175,3.59.8,10.389A2.963,2.963,0,0,0,.53,14.1c.194.283.34.534.469.76a5.362,5.362,0,0,0,1.957,2.134l.453.251A9.055,9.055,0,0,0,7.96,18.83c22.42.04,39.083,11.683,52.423,23.059a25.947,25.947,0,0,0,17.035,6.331,32.47,32.47,0,0,0,13.971-3.347c.817-.388,8.028-3.937,7.7-8.473-.267-3.695-3.517-8.271-6.929-9.791Z" transform="matrix(0.966, 0.259, -0.259, 0.966, 165.976, 932.021)" fill="#91cc9e"/>
    <path id="패스_2373" data-name="패스 2373" d="M64.244.105a53.561,53.561,0,0,0-20.932,18.03,2.081,2.081,0,0,1-.291.331c-2.741-2.264-4.075-3.97-4.18-5.3-.1-1.407,1.132-3.363,3.881-6.145,1.294-1.3,2.692-2.514,4.18-3.8C47.929,2.3,48.988,1.374,50.023.412q-18.6.618-36.924,2.215C4.706,13.454-.614,26.745.057,38.752.736,50.815,7.042,59.021,18.806,63.169c4.018,1.407,8.061,3.137,11.958,4.819,4.334,1.851,8.8,3.768,13.381,5.328a31.921,31.921,0,0,0,9.961,1.73,20.729,20.729,0,0,0,4.77-.526,42.03,42.03,0,0,1,8.966-1.471c3.978,0,5.627,1.746,10.381,11A130.419,130.419,0,0,0,95.566,109.31c3.671,4.245,5.385,9.08,4.722,13.251-.534,3.355-2.62,6.209-6.04,8.271-7.01,4.237-10.9,9.589-13.389,18.491-1.989,7.139-4.317,8.5-7.883,8.5a26.209,26.209,0,0,1-6.961-1.229c-.542-.146-1.1-.331-1.674-.509a20.582,20.582,0,0,0-5.975-1.269,7.048,7.048,0,0,0-2.886.574A57.038,57.038,0,0,0,45.4,161.6c-1.229.9-2.474,1.779-3.727,2.628a2.955,2.955,0,0,0-.388,4.617l2.215,2.078c2.822,2.668,5.66,5.344,8.514,7.94a5.681,5.681,0,0,0,3.857,1.245c15.418.307,25.136,9.977,33.351,20.391,5.045,6.4,12.233,11.343,17.941,14.941a8.091,8.091,0,0,0,4.366,1.1,15.726,15.726,0,0,0,8.635-2.676c2.231-1.633,2.611-5.118,1.221-11.651a31.335,31.335,0,0,0-1.973-5.87,22.692,22.692,0,0,0,6.864,1.884c1.358.1,2.789.162,4.212.162,4.455,0,7.681-.72,10.139-2.28,4.633-2.935,1.746-13.809,1.706-13.922a91.666,91.666,0,0,0-3.565-9.848,83.066,83.066,0,0,1-3.444-9.516c-.477-1.787.3-4.932,1.189-5.732.008,0,.517-.429,2.644-.429a36.318,36.318,0,0,1,3.929.3,7.2,7.2,0,0,1,1.722.954,8.8,8.8,0,0,0,4.932,1.811h.024c.76-.04,1.536-.065,2.337-.089,4.859-.162,10.365-.348,13.874-3.412,4.067-3.525,2.975-12.58,1.528-16.413a69.107,69.107,0,0,0-10.939-18.474c-7.422-9.265-8.093-16.752-2.223-25.039,3.525-4.988,6.007-12.944-2.256-22.5-2.814-3.234-5.595-6.508-8.376-9.8-5.328-6.282-10.85-12.791-16.534-18.984a54.88,54.88,0,0,0-8.554-7.147c-1.35-.962-2.684-1.94-3.986-2.967-.93-.744-1.932-1.447-2.943-2.151-2.143-1.488-4.164-2.9-5.134-4.576-.356-.631-.251-3.129,1.148-6.508a21.837,21.837,0,0,1,2.668-4.075c2.183-2.87,4.237-5.571,3.08-8.473A19.546,19.546,0,0,0,106.286.841Q89.514,0,72.539,0c-2.765,0-5.522.073-8.3.105" transform="matrix(0.966, 0.259, -0.259, 0.966, 462.713, 301.324)" fill="#91cc9e"/>
    <path id="패스_2374" data-name="패스 2374" d="M16.453,34.968a16.14,16.14,0,0,0,6.557-1.286,39.205,39.205,0,0,1,15.742-3.768c7.26,0,13.914,2.757,20.973,8.691a23.358,23.358,0,0,0,15.046,5.336,25.268,25.268,0,0,0,17.06-6.517c9.031-8.352,4.107-17.092.517-23.487l-.857-1.5A37.184,37.184,0,0,1,87.2,0,671.14,671.14,0,0,0,0,29.373c5.094,3.291,10.858,5.595,16.453,5.595" transform="matrix(0.966, 0.259, -0.259, 0.966, 276.795, 274.358)" fill="#91cc9e"/>
    <path id="패스_2375" data-name="패스 2375" d="M11.7,20.027c2.231,0,3.719-.5,4.681-1.552,1.471-1.625,3.048-3.234,4.633-4.851C25.217,9.338,29.486,4.94,32.4,0Q16.081,2.535,0,5.821c.994,3.549,1.981,7.091,3.064,10.6,1.075,3.436,7.382,3.606,8.635,3.606" transform="matrix(0.966, 0.259, -0.259, 0.966, 398.822, 292.457)" fill="#91cc9e"/>
    <path id="패스_2376" data-name="패스 2376" d="M11.855,56.975A18.143,18.143,0,0,0,18.21,58.22c4.269,0,10.122-1.868,13.882-10.794a34.972,34.972,0,0,0,2.822-12.491C35.286,20.5,40.63,9.023,51.084,0,41.6.97,32.173,2.183,22.8,3.549c-6.323,10.543-12.936,21-20.229,30.917A12.675,12.675,0,0,0,.553,45.81c1.471,4.924,5.708,9.1,11.3,11.165" transform="matrix(0.966, 0.259, -0.259, 0.966, 414.982, 292.234)" fill="#91cc9e"/>
    <g id="그룹_893" data-name="그룹 893" transform="matrix(0.966, 0.259, -0.259, 0.966, -115.021, 383.39)" opacity="0.2">
      <g id="그룹_892" data-name="그룹 892">
        <g id="그룹_5546" data-name="그룹 5546">
          <path id="패스_2377" data-name="패스 2377" d="M1116.279,0a673.719,673.719,0,0,1,67.09,294.021c0,373.578-302.842,676.428-676.428,676.428-201.892,0-383-88.547-506.941-228.807,109.4,226.317,341.133,382.423,609.346,382.423,373.586,0,676.436-302.85,676.436-676.428,0-171.694-64.1-328.35-169.5-447.637" transform="translate(0.002 0)" fill="#56b4e8"/>
        </g>
      </g>
    </g>
  </g>
</svg>
